G04 #@! TF.GenerationSoftware,KiCad,Pcbnew,(5.1.6)-1*
G04 #@! TF.CreationDate,2021-05-09T16:16:57+05:30*
G04 #@! TF.ProjectId,keychain,6b657963-6861-4696-9e2e-6b696361645f,rev?*
G04 #@! TF.SameCoordinates,Original*
G04 #@! TF.FileFunction,Legend,Top*
G04 #@! TF.FilePolarity,Positive*
%FSLAX46Y46*%
G04 Gerber Fmt 4.6, Leading zero omitted, Abs format (unit mm)*
G04 Created by KiCad (PCBNEW (5.1.6)-1) date 2021-05-09 16:16:57*
%MOMM*%
%LPD*%
G01*
G04 APERTURE LIST*
%ADD10C,0.120000*%
%ADD11C,0.150000*%
G04 APERTURE END LIST*
D10*
X126520000Y-151100000D02*
X125230000Y-151100000D01*
X126730000Y-152200000D02*
X126730000Y-151300000D01*
X125230000Y-152400000D02*
X126520000Y-152400000D01*
X126520000Y-151100000D02*
X126730000Y-151300000D01*
X126520000Y-152400000D02*
X126730000Y-152200000D01*
D11*
X50400000Y-168400000D02*
X50400000Y-164700000D01*
X52900000Y-168400000D02*
X50400000Y-168400000D01*
X52900000Y-164600000D02*
X52900000Y-168400000D01*
X50400000Y-164600000D02*
X52900000Y-164600000D01*
D10*
X117120000Y-157880000D02*
X117120000Y-174120000D01*
X117120000Y-174120000D02*
X109500000Y-174120000D01*
X93500000Y-174120000D02*
X92880000Y-174120000D01*
X92880000Y-174120000D02*
X92880000Y-172000000D01*
X92880000Y-160000000D02*
X92880000Y-157880000D01*
X92880000Y-157880000D02*
X93500000Y-157880000D01*
X109500000Y-157880000D02*
X117120000Y-157880000D01*
X109500000Y-157880000D02*
X109500000Y-157270000D01*
X54515000Y-112735000D02*
X56800000Y-112735000D01*
X54515000Y-111265000D02*
X54515000Y-112735000D01*
X56800000Y-111265000D02*
X54515000Y-111265000D01*
X120171267Y-139490000D02*
X119828733Y-139490000D01*
X120171267Y-140510000D02*
X119828733Y-140510000D01*
X120171267Y-135490000D02*
X119828733Y-135490000D01*
X120171267Y-136510000D02*
X119828733Y-136510000D01*
X120171267Y-131490000D02*
X119828733Y-131490000D01*
X120171267Y-132510000D02*
X119828733Y-132510000D01*
X120171267Y-127490000D02*
X119828733Y-127490000D01*
X120171267Y-128510000D02*
X119828733Y-128510000D01*
X120171267Y-123490000D02*
X119828733Y-123490000D01*
X120171267Y-124510000D02*
X119828733Y-124510000D01*
X120171267Y-119490000D02*
X119828733Y-119490000D01*
X120171267Y-120510000D02*
X119828733Y-120510000D01*
X120171267Y-116510000D02*
X119828733Y-116510000D01*
X120171267Y-115490000D02*
X119828733Y-115490000D01*
X120171267Y-112510000D02*
X119828733Y-112510000D01*
X120171267Y-111490000D02*
X119828733Y-111490000D01*
X116800000Y-139265000D02*
X114515000Y-139265000D01*
X114515000Y-139265000D02*
X114515000Y-140735000D01*
X114515000Y-140735000D02*
X116800000Y-140735000D01*
X116800000Y-135265000D02*
X114515000Y-135265000D01*
X114515000Y-135265000D02*
X114515000Y-136735000D01*
X114515000Y-136735000D02*
X116800000Y-136735000D01*
X116800000Y-131265000D02*
X114515000Y-131265000D01*
X114515000Y-131265000D02*
X114515000Y-132735000D01*
X114515000Y-132735000D02*
X116800000Y-132735000D01*
X116800000Y-127265000D02*
X114515000Y-127265000D01*
X114515000Y-127265000D02*
X114515000Y-128735000D01*
X114515000Y-128735000D02*
X116800000Y-128735000D01*
X116800000Y-123265000D02*
X114515000Y-123265000D01*
X114515000Y-123265000D02*
X114515000Y-124735000D01*
X114515000Y-124735000D02*
X116800000Y-124735000D01*
X116800000Y-119265000D02*
X114515000Y-119265000D01*
X114515000Y-119265000D02*
X114515000Y-120735000D01*
X114515000Y-120735000D02*
X116800000Y-120735000D01*
X114515000Y-116735000D02*
X116800000Y-116735000D01*
X114515000Y-115265000D02*
X114515000Y-116735000D01*
X116800000Y-115265000D02*
X114515000Y-115265000D01*
X116800000Y-111265000D02*
X114515000Y-111265000D01*
X114515000Y-111265000D02*
X114515000Y-112735000D01*
X114515000Y-112735000D02*
X116800000Y-112735000D01*
X112800000Y-139265000D02*
X110515000Y-139265000D01*
X110515000Y-139265000D02*
X110515000Y-140735000D01*
X110515000Y-140735000D02*
X112800000Y-140735000D01*
X112800000Y-135265000D02*
X110515000Y-135265000D01*
X110515000Y-135265000D02*
X110515000Y-136735000D01*
X110515000Y-136735000D02*
X112800000Y-136735000D01*
X112800000Y-131265000D02*
X110515000Y-131265000D01*
X110515000Y-131265000D02*
X110515000Y-132735000D01*
X110515000Y-132735000D02*
X112800000Y-132735000D01*
X112800000Y-127265000D02*
X110515000Y-127265000D01*
X110515000Y-127265000D02*
X110515000Y-128735000D01*
X110515000Y-128735000D02*
X112800000Y-128735000D01*
X112800000Y-123265000D02*
X110515000Y-123265000D01*
X110515000Y-123265000D02*
X110515000Y-124735000D01*
X110515000Y-124735000D02*
X112800000Y-124735000D01*
X112800000Y-119265000D02*
X110515000Y-119265000D01*
X110515000Y-119265000D02*
X110515000Y-120735000D01*
X110515000Y-120735000D02*
X112800000Y-120735000D01*
X110515000Y-116735000D02*
X112800000Y-116735000D01*
X110515000Y-115265000D02*
X110515000Y-116735000D01*
X112800000Y-115265000D02*
X110515000Y-115265000D01*
X112800000Y-111265000D02*
X110515000Y-111265000D01*
X110515000Y-111265000D02*
X110515000Y-112735000D01*
X110515000Y-112735000D02*
X112800000Y-112735000D01*
X108800000Y-139265000D02*
X106515000Y-139265000D01*
X106515000Y-139265000D02*
X106515000Y-140735000D01*
X106515000Y-140735000D02*
X108800000Y-140735000D01*
X108800000Y-135265000D02*
X106515000Y-135265000D01*
X106515000Y-135265000D02*
X106515000Y-136735000D01*
X106515000Y-136735000D02*
X108800000Y-136735000D01*
X108800000Y-131265000D02*
X106515000Y-131265000D01*
X106515000Y-131265000D02*
X106515000Y-132735000D01*
X106515000Y-132735000D02*
X108800000Y-132735000D01*
X108800000Y-127265000D02*
X106515000Y-127265000D01*
X106515000Y-127265000D02*
X106515000Y-128735000D01*
X106515000Y-128735000D02*
X108800000Y-128735000D01*
X108800000Y-123265000D02*
X106515000Y-123265000D01*
X106515000Y-123265000D02*
X106515000Y-124735000D01*
X106515000Y-124735000D02*
X108800000Y-124735000D01*
X108800000Y-119265000D02*
X106515000Y-119265000D01*
X106515000Y-119265000D02*
X106515000Y-120735000D01*
X106515000Y-120735000D02*
X108800000Y-120735000D01*
X106515000Y-116735000D02*
X108800000Y-116735000D01*
X106515000Y-115265000D02*
X106515000Y-116735000D01*
X108800000Y-115265000D02*
X106515000Y-115265000D01*
X108800000Y-111265000D02*
X106515000Y-111265000D01*
X106515000Y-111265000D02*
X106515000Y-112735000D01*
X106515000Y-112735000D02*
X108800000Y-112735000D01*
X104800000Y-139265000D02*
X102515000Y-139265000D01*
X102515000Y-139265000D02*
X102515000Y-140735000D01*
X102515000Y-140735000D02*
X104800000Y-140735000D01*
X104800000Y-135265000D02*
X102515000Y-135265000D01*
X102515000Y-135265000D02*
X102515000Y-136735000D01*
X102515000Y-136735000D02*
X104800000Y-136735000D01*
X104800000Y-131265000D02*
X102515000Y-131265000D01*
X102515000Y-131265000D02*
X102515000Y-132735000D01*
X102515000Y-132735000D02*
X104800000Y-132735000D01*
X104800000Y-127265000D02*
X102515000Y-127265000D01*
X102515000Y-127265000D02*
X102515000Y-128735000D01*
X102515000Y-128735000D02*
X104800000Y-128735000D01*
X104800000Y-123265000D02*
X102515000Y-123265000D01*
X102515000Y-123265000D02*
X102515000Y-124735000D01*
X102515000Y-124735000D02*
X104800000Y-124735000D01*
X104800000Y-119265000D02*
X102515000Y-119265000D01*
X102515000Y-119265000D02*
X102515000Y-120735000D01*
X102515000Y-120735000D02*
X104800000Y-120735000D01*
X102515000Y-116735000D02*
X104800000Y-116735000D01*
X102515000Y-115265000D02*
X102515000Y-116735000D01*
X104800000Y-115265000D02*
X102515000Y-115265000D01*
X104784000Y-111265000D02*
X102499000Y-111265000D01*
X102499000Y-111265000D02*
X102499000Y-112735000D01*
X102499000Y-112735000D02*
X104784000Y-112735000D01*
X100800000Y-139265000D02*
X98515000Y-139265000D01*
X98515000Y-139265000D02*
X98515000Y-140735000D01*
X98515000Y-140735000D02*
X100800000Y-140735000D01*
X100800000Y-135265000D02*
X98515000Y-135265000D01*
X98515000Y-135265000D02*
X98515000Y-136735000D01*
X98515000Y-136735000D02*
X100800000Y-136735000D01*
X100800000Y-131265000D02*
X98515000Y-131265000D01*
X98515000Y-131265000D02*
X98515000Y-132735000D01*
X98515000Y-132735000D02*
X100800000Y-132735000D01*
X100800000Y-127265000D02*
X98515000Y-127265000D01*
X98515000Y-127265000D02*
X98515000Y-128735000D01*
X98515000Y-128735000D02*
X100800000Y-128735000D01*
X100800000Y-123265000D02*
X98515000Y-123265000D01*
X98515000Y-123265000D02*
X98515000Y-124735000D01*
X98515000Y-124735000D02*
X100800000Y-124735000D01*
X100800000Y-119265000D02*
X98515000Y-119265000D01*
X98515000Y-119265000D02*
X98515000Y-120735000D01*
X98515000Y-120735000D02*
X100800000Y-120735000D01*
X98515000Y-116735000D02*
X100800000Y-116735000D01*
X98515000Y-115265000D02*
X98515000Y-116735000D01*
X100800000Y-115265000D02*
X98515000Y-115265000D01*
X100800000Y-111265000D02*
X98515000Y-111265000D01*
X98515000Y-111265000D02*
X98515000Y-112735000D01*
X98515000Y-112735000D02*
X100800000Y-112735000D01*
X96800000Y-139265000D02*
X94515000Y-139265000D01*
X94515000Y-139265000D02*
X94515000Y-140735000D01*
X94515000Y-140735000D02*
X96800000Y-140735000D01*
X96800000Y-135265000D02*
X94515000Y-135265000D01*
X94515000Y-135265000D02*
X94515000Y-136735000D01*
X94515000Y-136735000D02*
X96800000Y-136735000D01*
X96800000Y-131265000D02*
X94515000Y-131265000D01*
X94515000Y-131265000D02*
X94515000Y-132735000D01*
X94515000Y-132735000D02*
X96800000Y-132735000D01*
X96800000Y-127265000D02*
X94515000Y-127265000D01*
X94515000Y-127265000D02*
X94515000Y-128735000D01*
X94515000Y-128735000D02*
X96800000Y-128735000D01*
X96800000Y-123265000D02*
X94515000Y-123265000D01*
X94515000Y-123265000D02*
X94515000Y-124735000D01*
X94515000Y-124735000D02*
X96800000Y-124735000D01*
X96800000Y-119265000D02*
X94515000Y-119265000D01*
X94515000Y-119265000D02*
X94515000Y-120735000D01*
X94515000Y-120735000D02*
X96800000Y-120735000D01*
X94515000Y-116735000D02*
X96800000Y-116735000D01*
X94515000Y-115265000D02*
X94515000Y-116735000D01*
X96800000Y-115265000D02*
X94515000Y-115265000D01*
X96800000Y-111265000D02*
X94515000Y-111265000D01*
X94515000Y-111265000D02*
X94515000Y-112735000D01*
X94515000Y-112735000D02*
X96800000Y-112735000D01*
X92800000Y-139265000D02*
X90515000Y-139265000D01*
X90515000Y-139265000D02*
X90515000Y-140735000D01*
X90515000Y-140735000D02*
X92800000Y-140735000D01*
X92800000Y-135265000D02*
X90515000Y-135265000D01*
X90515000Y-135265000D02*
X90515000Y-136735000D01*
X90515000Y-136735000D02*
X92800000Y-136735000D01*
X92800000Y-131265000D02*
X90515000Y-131265000D01*
X90515000Y-131265000D02*
X90515000Y-132735000D01*
X90515000Y-132735000D02*
X92800000Y-132735000D01*
X92800000Y-127265000D02*
X90515000Y-127265000D01*
X90515000Y-127265000D02*
X90515000Y-128735000D01*
X90515000Y-128735000D02*
X92800000Y-128735000D01*
X92800000Y-123265000D02*
X90515000Y-123265000D01*
X90515000Y-123265000D02*
X90515000Y-124735000D01*
X90515000Y-124735000D02*
X92800000Y-124735000D01*
X92800000Y-119265000D02*
X90515000Y-119265000D01*
X90515000Y-119265000D02*
X90515000Y-120735000D01*
X90515000Y-120735000D02*
X92800000Y-120735000D01*
X90515000Y-116735000D02*
X92800000Y-116735000D01*
X90515000Y-115265000D02*
X90515000Y-116735000D01*
X92800000Y-115265000D02*
X90515000Y-115265000D01*
X92800000Y-111265000D02*
X90515000Y-111265000D01*
X90515000Y-111265000D02*
X90515000Y-112735000D01*
X90515000Y-112735000D02*
X92800000Y-112735000D01*
X88800000Y-139265000D02*
X86515000Y-139265000D01*
X86515000Y-139265000D02*
X86515000Y-140735000D01*
X86515000Y-140735000D02*
X88800000Y-140735000D01*
X88800000Y-135265000D02*
X86515000Y-135265000D01*
X86515000Y-135265000D02*
X86515000Y-136735000D01*
X86515000Y-136735000D02*
X88800000Y-136735000D01*
X88800000Y-131265000D02*
X86515000Y-131265000D01*
X86515000Y-131265000D02*
X86515000Y-132735000D01*
X86515000Y-132735000D02*
X88800000Y-132735000D01*
X88800000Y-127265000D02*
X86515000Y-127265000D01*
X86515000Y-127265000D02*
X86515000Y-128735000D01*
X86515000Y-128735000D02*
X88800000Y-128735000D01*
X88800000Y-123265000D02*
X86515000Y-123265000D01*
X86515000Y-123265000D02*
X86515000Y-124735000D01*
X86515000Y-124735000D02*
X88800000Y-124735000D01*
X88800000Y-119265000D02*
X86515000Y-119265000D01*
X86515000Y-119265000D02*
X86515000Y-120735000D01*
X86515000Y-120735000D02*
X88800000Y-120735000D01*
X86515000Y-116735000D02*
X88800000Y-116735000D01*
X86515000Y-115265000D02*
X86515000Y-116735000D01*
X88800000Y-115265000D02*
X86515000Y-115265000D01*
X88800000Y-111265000D02*
X86515000Y-111265000D01*
X86515000Y-111265000D02*
X86515000Y-112735000D01*
X86515000Y-112735000D02*
X88800000Y-112735000D01*
X84800000Y-139265000D02*
X82515000Y-139265000D01*
X82515000Y-139265000D02*
X82515000Y-140735000D01*
X82515000Y-140735000D02*
X84800000Y-140735000D01*
X84800000Y-135265000D02*
X82515000Y-135265000D01*
X82515000Y-135265000D02*
X82515000Y-136735000D01*
X82515000Y-136735000D02*
X84800000Y-136735000D01*
X84800000Y-131265000D02*
X82515000Y-131265000D01*
X82515000Y-131265000D02*
X82515000Y-132735000D01*
X82515000Y-132735000D02*
X84800000Y-132735000D01*
X84800000Y-127265000D02*
X82515000Y-127265000D01*
X82515000Y-127265000D02*
X82515000Y-128735000D01*
X82515000Y-128735000D02*
X84800000Y-128735000D01*
X84800000Y-123265000D02*
X82515000Y-123265000D01*
X82515000Y-123265000D02*
X82515000Y-124735000D01*
X82515000Y-124735000D02*
X84800000Y-124735000D01*
X84800000Y-119265000D02*
X82515000Y-119265000D01*
X82515000Y-119265000D02*
X82515000Y-120735000D01*
X82515000Y-120735000D02*
X84800000Y-120735000D01*
X82515000Y-116735000D02*
X84800000Y-116735000D01*
X82515000Y-115265000D02*
X82515000Y-116735000D01*
X84800000Y-115265000D02*
X82515000Y-115265000D01*
X84800000Y-111265000D02*
X82515000Y-111265000D01*
X82515000Y-111265000D02*
X82515000Y-112735000D01*
X82515000Y-112735000D02*
X84800000Y-112735000D01*
X80800000Y-139265000D02*
X78515000Y-139265000D01*
X78515000Y-139265000D02*
X78515000Y-140735000D01*
X78515000Y-140735000D02*
X80800000Y-140735000D01*
X80800000Y-135265000D02*
X78515000Y-135265000D01*
X78515000Y-135265000D02*
X78515000Y-136735000D01*
X78515000Y-136735000D02*
X80800000Y-136735000D01*
X80800000Y-131265000D02*
X78515000Y-131265000D01*
X78515000Y-131265000D02*
X78515000Y-132735000D01*
X78515000Y-132735000D02*
X80800000Y-132735000D01*
X80800000Y-127265000D02*
X78515000Y-127265000D01*
X78515000Y-127265000D02*
X78515000Y-128735000D01*
X78515000Y-128735000D02*
X80800000Y-128735000D01*
X80800000Y-123265000D02*
X78515000Y-123265000D01*
X78515000Y-123265000D02*
X78515000Y-124735000D01*
X78515000Y-124735000D02*
X80800000Y-124735000D01*
X80800000Y-119265000D02*
X78515000Y-119265000D01*
X78515000Y-119265000D02*
X78515000Y-120735000D01*
X78515000Y-120735000D02*
X80800000Y-120735000D01*
X78515000Y-116735000D02*
X80800000Y-116735000D01*
X78515000Y-115265000D02*
X78515000Y-116735000D01*
X80800000Y-115265000D02*
X78515000Y-115265000D01*
X80800000Y-111265000D02*
X78515000Y-111265000D01*
X78515000Y-111265000D02*
X78515000Y-112735000D01*
X78515000Y-112735000D02*
X80800000Y-112735000D01*
X76800000Y-139265000D02*
X74515000Y-139265000D01*
X74515000Y-139265000D02*
X74515000Y-140735000D01*
X74515000Y-140735000D02*
X76800000Y-140735000D01*
X76800000Y-135265000D02*
X74515000Y-135265000D01*
X74515000Y-135265000D02*
X74515000Y-136735000D01*
X74515000Y-136735000D02*
X76800000Y-136735000D01*
X76800000Y-131265000D02*
X74515000Y-131265000D01*
X74515000Y-131265000D02*
X74515000Y-132735000D01*
X74515000Y-132735000D02*
X76800000Y-132735000D01*
X76800000Y-127265000D02*
X74515000Y-127265000D01*
X74515000Y-127265000D02*
X74515000Y-128735000D01*
X74515000Y-128735000D02*
X76800000Y-128735000D01*
X76800000Y-123265000D02*
X74515000Y-123265000D01*
X74515000Y-123265000D02*
X74515000Y-124735000D01*
X74515000Y-124735000D02*
X76800000Y-124735000D01*
X76800000Y-119265000D02*
X74515000Y-119265000D01*
X74515000Y-119265000D02*
X74515000Y-120735000D01*
X74515000Y-120735000D02*
X76800000Y-120735000D01*
X76800000Y-115265000D02*
X74515000Y-115265000D01*
X74515000Y-115265000D02*
X74515000Y-116735000D01*
X74515000Y-116735000D02*
X76800000Y-116735000D01*
X76800000Y-111265000D02*
X74515000Y-111265000D01*
X74515000Y-111265000D02*
X74515000Y-112735000D01*
X74515000Y-112735000D02*
X76800000Y-112735000D01*
X72800000Y-139265000D02*
X70515000Y-139265000D01*
X70515000Y-139265000D02*
X70515000Y-140735000D01*
X70515000Y-140735000D02*
X72800000Y-140735000D01*
X72800000Y-135265000D02*
X70515000Y-135265000D01*
X70515000Y-135265000D02*
X70515000Y-136735000D01*
X70515000Y-136735000D02*
X72800000Y-136735000D01*
X72800000Y-131265000D02*
X70515000Y-131265000D01*
X70515000Y-131265000D02*
X70515000Y-132735000D01*
X70515000Y-132735000D02*
X72800000Y-132735000D01*
X72800000Y-127265000D02*
X70515000Y-127265000D01*
X70515000Y-127265000D02*
X70515000Y-128735000D01*
X70515000Y-128735000D02*
X72800000Y-128735000D01*
X72800000Y-123265000D02*
X70515000Y-123265000D01*
X70515000Y-123265000D02*
X70515000Y-124735000D01*
X70515000Y-124735000D02*
X72800000Y-124735000D01*
X70515000Y-120735000D02*
X72800000Y-120735000D01*
X70515000Y-119265000D02*
X70515000Y-120735000D01*
X72800000Y-119265000D02*
X70515000Y-119265000D01*
X72800000Y-115265000D02*
X70515000Y-115265000D01*
X70515000Y-115265000D02*
X70515000Y-116735000D01*
X70515000Y-116735000D02*
X72800000Y-116735000D01*
X72800000Y-111265000D02*
X70515000Y-111265000D01*
X70515000Y-111265000D02*
X70515000Y-112735000D01*
X70515000Y-112735000D02*
X72800000Y-112735000D01*
X68800000Y-139265000D02*
X66515000Y-139265000D01*
X66515000Y-139265000D02*
X66515000Y-140735000D01*
X66515000Y-140735000D02*
X68800000Y-140735000D01*
X68800000Y-135265000D02*
X66515000Y-135265000D01*
X66515000Y-135265000D02*
X66515000Y-136735000D01*
X66515000Y-136735000D02*
X68800000Y-136735000D01*
X68800000Y-131265000D02*
X66515000Y-131265000D01*
X66515000Y-131265000D02*
X66515000Y-132735000D01*
X66515000Y-132735000D02*
X68800000Y-132735000D01*
X68800000Y-127265000D02*
X66515000Y-127265000D01*
X66515000Y-127265000D02*
X66515000Y-128735000D01*
X66515000Y-128735000D02*
X68800000Y-128735000D01*
X68800000Y-123265000D02*
X66515000Y-123265000D01*
X66515000Y-123265000D02*
X66515000Y-124735000D01*
X66515000Y-124735000D02*
X68800000Y-124735000D01*
X66515000Y-120735000D02*
X68800000Y-120735000D01*
X66515000Y-119265000D02*
X66515000Y-120735000D01*
X68800000Y-119265000D02*
X66515000Y-119265000D01*
X68800000Y-115265000D02*
X66515000Y-115265000D01*
X66515000Y-115265000D02*
X66515000Y-116735000D01*
X66515000Y-116735000D02*
X68800000Y-116735000D01*
X68800000Y-111265000D02*
X66515000Y-111265000D01*
X66515000Y-111265000D02*
X66515000Y-112735000D01*
X66515000Y-112735000D02*
X68800000Y-112735000D01*
X64800000Y-139265000D02*
X62515000Y-139265000D01*
X62515000Y-139265000D02*
X62515000Y-140735000D01*
X62515000Y-140735000D02*
X64800000Y-140735000D01*
X64800000Y-135265000D02*
X62515000Y-135265000D01*
X62515000Y-135265000D02*
X62515000Y-136735000D01*
X62515000Y-136735000D02*
X64800000Y-136735000D01*
X64800000Y-131265000D02*
X62515000Y-131265000D01*
X62515000Y-131265000D02*
X62515000Y-132735000D01*
X62515000Y-132735000D02*
X64800000Y-132735000D01*
X64784000Y-127265000D02*
X62499000Y-127265000D01*
X62499000Y-127265000D02*
X62499000Y-128735000D01*
X62499000Y-128735000D02*
X64784000Y-128735000D01*
X64800000Y-123265000D02*
X62515000Y-123265000D01*
X62515000Y-123265000D02*
X62515000Y-124735000D01*
X62515000Y-124735000D02*
X64800000Y-124735000D01*
X64800000Y-119265000D02*
X62515000Y-119265000D01*
X62515000Y-119265000D02*
X62515000Y-120735000D01*
X62515000Y-120735000D02*
X64800000Y-120735000D01*
X64800000Y-115265000D02*
X62515000Y-115265000D01*
X62515000Y-115265000D02*
X62515000Y-116735000D01*
X62515000Y-116735000D02*
X64800000Y-116735000D01*
X64800000Y-111265000D02*
X62515000Y-111265000D01*
X62515000Y-111265000D02*
X62515000Y-112735000D01*
X62515000Y-112735000D02*
X64800000Y-112735000D01*
X60800000Y-139265000D02*
X58515000Y-139265000D01*
X58515000Y-139265000D02*
X58515000Y-140735000D01*
X58515000Y-140735000D02*
X60800000Y-140735000D01*
X60800000Y-135265000D02*
X58515000Y-135265000D01*
X58515000Y-135265000D02*
X58515000Y-136735000D01*
X58515000Y-136735000D02*
X60800000Y-136735000D01*
X60800000Y-131265000D02*
X58515000Y-131265000D01*
X58515000Y-131265000D02*
X58515000Y-132735000D01*
X58515000Y-132735000D02*
X60800000Y-132735000D01*
X60800000Y-127265000D02*
X58515000Y-127265000D01*
X58515000Y-127265000D02*
X58515000Y-128735000D01*
X58515000Y-128735000D02*
X60800000Y-128735000D01*
X60800000Y-123265000D02*
X58515000Y-123265000D01*
X58515000Y-123265000D02*
X58515000Y-124735000D01*
X58515000Y-124735000D02*
X60800000Y-124735000D01*
X58515000Y-120735000D02*
X60800000Y-120735000D01*
X58515000Y-119265000D02*
X58515000Y-120735000D01*
X60800000Y-119265000D02*
X58515000Y-119265000D01*
X60800000Y-115265000D02*
X58515000Y-115265000D01*
X58515000Y-115265000D02*
X58515000Y-116735000D01*
X58515000Y-116735000D02*
X60800000Y-116735000D01*
X58515000Y-112735000D02*
X60800000Y-112735000D01*
X58515000Y-111265000D02*
X58515000Y-112735000D01*
X60800000Y-111265000D02*
X58515000Y-111265000D01*
X56800000Y-139265000D02*
X54515000Y-139265000D01*
X54515000Y-139265000D02*
X54515000Y-140735000D01*
X54515000Y-140735000D02*
X56800000Y-140735000D01*
X56800000Y-135265000D02*
X54515000Y-135265000D01*
X54515000Y-135265000D02*
X54515000Y-136735000D01*
X54515000Y-136735000D02*
X56800000Y-136735000D01*
X56800000Y-131265000D02*
X54515000Y-131265000D01*
X54515000Y-131265000D02*
X54515000Y-132735000D01*
X54515000Y-132735000D02*
X56800000Y-132735000D01*
X56800000Y-127265000D02*
X54515000Y-127265000D01*
X54515000Y-127265000D02*
X54515000Y-128735000D01*
X54515000Y-128735000D02*
X56800000Y-128735000D01*
X56800000Y-123265000D02*
X54515000Y-123265000D01*
X54515000Y-123265000D02*
X54515000Y-124735000D01*
X54515000Y-124735000D02*
X56800000Y-124735000D01*
X54515000Y-120735000D02*
X56800000Y-120735000D01*
X54515000Y-119265000D02*
X54515000Y-120735000D01*
X56800000Y-119265000D02*
X54515000Y-119265000D01*
X56800000Y-115265000D02*
X54515000Y-115265000D01*
X54515000Y-115265000D02*
X54515000Y-116735000D01*
X54515000Y-116735000D02*
X56800000Y-116735000D01*
D11*
X51052380Y-167761904D02*
X51861904Y-167761904D01*
X51957142Y-167714285D01*
X52004761Y-167666666D01*
X52052380Y-167571428D01*
X52052380Y-167380952D01*
X52004761Y-167285714D01*
X51957142Y-167238095D01*
X51861904Y-167190476D01*
X51052380Y-167190476D01*
X52004761Y-166761904D02*
X52052380Y-166619047D01*
X52052380Y-166380952D01*
X52004761Y-166285714D01*
X51957142Y-166238095D01*
X51861904Y-166190476D01*
X51766666Y-166190476D01*
X51671428Y-166238095D01*
X51623809Y-166285714D01*
X51576190Y-166380952D01*
X51528571Y-166571428D01*
X51480952Y-166666666D01*
X51433333Y-166714285D01*
X51338095Y-166761904D01*
X51242857Y-166761904D01*
X51147619Y-166714285D01*
X51100000Y-166666666D01*
X51052380Y-166571428D01*
X51052380Y-166333333D01*
X51100000Y-166190476D01*
X51528571Y-165428571D02*
X51576190Y-165285714D01*
X51623809Y-165238095D01*
X51719047Y-165190476D01*
X51861904Y-165190476D01*
X51957142Y-165238095D01*
X52004761Y-165285714D01*
X52052380Y-165380952D01*
X52052380Y-165761904D01*
X51052380Y-165761904D01*
X51052380Y-165428571D01*
X51100000Y-165333333D01*
X51147619Y-165285714D01*
X51242857Y-165238095D01*
X51338095Y-165238095D01*
X51433333Y-165285714D01*
X51480952Y-165333333D01*
X51528571Y-165428571D01*
X51528571Y-165761904D01*
M02*
