G04 #@! TF.GenerationSoftware,KiCad,Pcbnew,(5.1.6)-1*
G04 #@! TF.CreationDate,2021-05-09T16:16:57+05:30*
G04 #@! TF.ProjectId,keychain,6b657963-6861-4696-9e2e-6b696361645f,rev?*
G04 #@! TF.SameCoordinates,Original*
G04 #@! TF.FileFunction,Paste,Top*
G04 #@! TF.FilePolarity,Positive*
%FSLAX46Y46*%
G04 Gerber Fmt 4.6, Leading zero omitted, Abs format (unit mm)*
G04 Created by KiCad (PCBNEW (5.1.6)-1) date 2021-05-09 16:16:57*
%MOMM*%
%LPD*%
G01*
G04 APERTURE LIST*
%ADD10R,1.060000X0.650000*%
%ADD11R,1.500000X1.500000*%
%ADD12R,0.800000X1.000000*%
%ADD13R,1.500000X0.700000*%
%ADD14R,1.000000X2.500000*%
%ADD15R,1.800000X1.000000*%
G04 APERTURE END LIST*
G36*
G01*
X66295000Y-150500000D02*
X66595000Y-150500000D01*
G75*
G02*
X66745000Y-150650000I0J-150000D01*
G01*
X66745000Y-152300000D01*
G75*
G02*
X66595000Y-152450000I-150000J0D01*
G01*
X66295000Y-152450000D01*
G75*
G02*
X66145000Y-152300000I0J150000D01*
G01*
X66145000Y-150650000D01*
G75*
G02*
X66295000Y-150500000I150000J0D01*
G01*
G37*
G36*
G01*
X65025000Y-150500000D02*
X65325000Y-150500000D01*
G75*
G02*
X65475000Y-150650000I0J-150000D01*
G01*
X65475000Y-152300000D01*
G75*
G02*
X65325000Y-152450000I-150000J0D01*
G01*
X65025000Y-152450000D01*
G75*
G02*
X64875000Y-152300000I0J150000D01*
G01*
X64875000Y-150650000D01*
G75*
G02*
X65025000Y-150500000I150000J0D01*
G01*
G37*
G36*
G01*
X63755000Y-150500000D02*
X64055000Y-150500000D01*
G75*
G02*
X64205000Y-150650000I0J-150000D01*
G01*
X64205000Y-152300000D01*
G75*
G02*
X64055000Y-152450000I-150000J0D01*
G01*
X63755000Y-152450000D01*
G75*
G02*
X63605000Y-152300000I0J150000D01*
G01*
X63605000Y-150650000D01*
G75*
G02*
X63755000Y-150500000I150000J0D01*
G01*
G37*
G36*
G01*
X62485000Y-150500000D02*
X62785000Y-150500000D01*
G75*
G02*
X62935000Y-150650000I0J-150000D01*
G01*
X62935000Y-152300000D01*
G75*
G02*
X62785000Y-152450000I-150000J0D01*
G01*
X62485000Y-152450000D01*
G75*
G02*
X62335000Y-152300000I0J150000D01*
G01*
X62335000Y-150650000D01*
G75*
G02*
X62485000Y-150500000I150000J0D01*
G01*
G37*
G36*
G01*
X61215000Y-150500000D02*
X61515000Y-150500000D01*
G75*
G02*
X61665000Y-150650000I0J-150000D01*
G01*
X61665000Y-152300000D01*
G75*
G02*
X61515000Y-152450000I-150000J0D01*
G01*
X61215000Y-152450000D01*
G75*
G02*
X61065000Y-152300000I0J150000D01*
G01*
X61065000Y-150650000D01*
G75*
G02*
X61215000Y-150500000I150000J0D01*
G01*
G37*
G36*
G01*
X59945000Y-150500000D02*
X60245000Y-150500000D01*
G75*
G02*
X60395000Y-150650000I0J-150000D01*
G01*
X60395000Y-152300000D01*
G75*
G02*
X60245000Y-152450000I-150000J0D01*
G01*
X59945000Y-152450000D01*
G75*
G02*
X59795000Y-152300000I0J150000D01*
G01*
X59795000Y-150650000D01*
G75*
G02*
X59945000Y-150500000I150000J0D01*
G01*
G37*
G36*
G01*
X58675000Y-150500000D02*
X58975000Y-150500000D01*
G75*
G02*
X59125000Y-150650000I0J-150000D01*
G01*
X59125000Y-152300000D01*
G75*
G02*
X58975000Y-152450000I-150000J0D01*
G01*
X58675000Y-152450000D01*
G75*
G02*
X58525000Y-152300000I0J150000D01*
G01*
X58525000Y-150650000D01*
G75*
G02*
X58675000Y-150500000I150000J0D01*
G01*
G37*
G36*
G01*
X57405000Y-150500000D02*
X57705000Y-150500000D01*
G75*
G02*
X57855000Y-150650000I0J-150000D01*
G01*
X57855000Y-152300000D01*
G75*
G02*
X57705000Y-152450000I-150000J0D01*
G01*
X57405000Y-152450000D01*
G75*
G02*
X57255000Y-152300000I0J150000D01*
G01*
X57255000Y-150650000D01*
G75*
G02*
X57405000Y-150500000I150000J0D01*
G01*
G37*
G36*
G01*
X57405000Y-145550000D02*
X57705000Y-145550000D01*
G75*
G02*
X57855000Y-145700000I0J-150000D01*
G01*
X57855000Y-147350000D01*
G75*
G02*
X57705000Y-147500000I-150000J0D01*
G01*
X57405000Y-147500000D01*
G75*
G02*
X57255000Y-147350000I0J150000D01*
G01*
X57255000Y-145700000D01*
G75*
G02*
X57405000Y-145550000I150000J0D01*
G01*
G37*
G36*
G01*
X58675000Y-145550000D02*
X58975000Y-145550000D01*
G75*
G02*
X59125000Y-145700000I0J-150000D01*
G01*
X59125000Y-147350000D01*
G75*
G02*
X58975000Y-147500000I-150000J0D01*
G01*
X58675000Y-147500000D01*
G75*
G02*
X58525000Y-147350000I0J150000D01*
G01*
X58525000Y-145700000D01*
G75*
G02*
X58675000Y-145550000I150000J0D01*
G01*
G37*
G36*
G01*
X59945000Y-145550000D02*
X60245000Y-145550000D01*
G75*
G02*
X60395000Y-145700000I0J-150000D01*
G01*
X60395000Y-147350000D01*
G75*
G02*
X60245000Y-147500000I-150000J0D01*
G01*
X59945000Y-147500000D01*
G75*
G02*
X59795000Y-147350000I0J150000D01*
G01*
X59795000Y-145700000D01*
G75*
G02*
X59945000Y-145550000I150000J0D01*
G01*
G37*
G36*
G01*
X61215000Y-145550000D02*
X61515000Y-145550000D01*
G75*
G02*
X61665000Y-145700000I0J-150000D01*
G01*
X61665000Y-147350000D01*
G75*
G02*
X61515000Y-147500000I-150000J0D01*
G01*
X61215000Y-147500000D01*
G75*
G02*
X61065000Y-147350000I0J150000D01*
G01*
X61065000Y-145700000D01*
G75*
G02*
X61215000Y-145550000I150000J0D01*
G01*
G37*
G36*
G01*
X62485000Y-145550000D02*
X62785000Y-145550000D01*
G75*
G02*
X62935000Y-145700000I0J-150000D01*
G01*
X62935000Y-147350000D01*
G75*
G02*
X62785000Y-147500000I-150000J0D01*
G01*
X62485000Y-147500000D01*
G75*
G02*
X62335000Y-147350000I0J150000D01*
G01*
X62335000Y-145700000D01*
G75*
G02*
X62485000Y-145550000I150000J0D01*
G01*
G37*
G36*
G01*
X63755000Y-145550000D02*
X64055000Y-145550000D01*
G75*
G02*
X64205000Y-145700000I0J-150000D01*
G01*
X64205000Y-147350000D01*
G75*
G02*
X64055000Y-147500000I-150000J0D01*
G01*
X63755000Y-147500000D01*
G75*
G02*
X63605000Y-147350000I0J150000D01*
G01*
X63605000Y-145700000D01*
G75*
G02*
X63755000Y-145550000I150000J0D01*
G01*
G37*
G36*
G01*
X65025000Y-145550000D02*
X65325000Y-145550000D01*
G75*
G02*
X65475000Y-145700000I0J-150000D01*
G01*
X65475000Y-147350000D01*
G75*
G02*
X65325000Y-147500000I-150000J0D01*
G01*
X65025000Y-147500000D01*
G75*
G02*
X64875000Y-147350000I0J150000D01*
G01*
X64875000Y-145700000D01*
G75*
G02*
X65025000Y-145550000I150000J0D01*
G01*
G37*
G36*
G01*
X66295000Y-145550000D02*
X66595000Y-145550000D01*
G75*
G02*
X66745000Y-145700000I0J-150000D01*
G01*
X66745000Y-147350000D01*
G75*
G02*
X66595000Y-147500000I-150000J0D01*
G01*
X66295000Y-147500000D01*
G75*
G02*
X66145000Y-147350000I0J150000D01*
G01*
X66145000Y-145700000D01*
G75*
G02*
X66295000Y-145550000I150000J0D01*
G01*
G37*
G36*
G01*
X90295000Y-150500000D02*
X90595000Y-150500000D01*
G75*
G02*
X90745000Y-150650000I0J-150000D01*
G01*
X90745000Y-152300000D01*
G75*
G02*
X90595000Y-152450000I-150000J0D01*
G01*
X90295000Y-152450000D01*
G75*
G02*
X90145000Y-152300000I0J150000D01*
G01*
X90145000Y-150650000D01*
G75*
G02*
X90295000Y-150500000I150000J0D01*
G01*
G37*
G36*
G01*
X89025000Y-150500000D02*
X89325000Y-150500000D01*
G75*
G02*
X89475000Y-150650000I0J-150000D01*
G01*
X89475000Y-152300000D01*
G75*
G02*
X89325000Y-152450000I-150000J0D01*
G01*
X89025000Y-152450000D01*
G75*
G02*
X88875000Y-152300000I0J150000D01*
G01*
X88875000Y-150650000D01*
G75*
G02*
X89025000Y-150500000I150000J0D01*
G01*
G37*
G36*
G01*
X87755000Y-150500000D02*
X88055000Y-150500000D01*
G75*
G02*
X88205000Y-150650000I0J-150000D01*
G01*
X88205000Y-152300000D01*
G75*
G02*
X88055000Y-152450000I-150000J0D01*
G01*
X87755000Y-152450000D01*
G75*
G02*
X87605000Y-152300000I0J150000D01*
G01*
X87605000Y-150650000D01*
G75*
G02*
X87755000Y-150500000I150000J0D01*
G01*
G37*
G36*
G01*
X86485000Y-150500000D02*
X86785000Y-150500000D01*
G75*
G02*
X86935000Y-150650000I0J-150000D01*
G01*
X86935000Y-152300000D01*
G75*
G02*
X86785000Y-152450000I-150000J0D01*
G01*
X86485000Y-152450000D01*
G75*
G02*
X86335000Y-152300000I0J150000D01*
G01*
X86335000Y-150650000D01*
G75*
G02*
X86485000Y-150500000I150000J0D01*
G01*
G37*
G36*
G01*
X85215000Y-150500000D02*
X85515000Y-150500000D01*
G75*
G02*
X85665000Y-150650000I0J-150000D01*
G01*
X85665000Y-152300000D01*
G75*
G02*
X85515000Y-152450000I-150000J0D01*
G01*
X85215000Y-152450000D01*
G75*
G02*
X85065000Y-152300000I0J150000D01*
G01*
X85065000Y-150650000D01*
G75*
G02*
X85215000Y-150500000I150000J0D01*
G01*
G37*
G36*
G01*
X83945000Y-150500000D02*
X84245000Y-150500000D01*
G75*
G02*
X84395000Y-150650000I0J-150000D01*
G01*
X84395000Y-152300000D01*
G75*
G02*
X84245000Y-152450000I-150000J0D01*
G01*
X83945000Y-152450000D01*
G75*
G02*
X83795000Y-152300000I0J150000D01*
G01*
X83795000Y-150650000D01*
G75*
G02*
X83945000Y-150500000I150000J0D01*
G01*
G37*
G36*
G01*
X82675000Y-150500000D02*
X82975000Y-150500000D01*
G75*
G02*
X83125000Y-150650000I0J-150000D01*
G01*
X83125000Y-152300000D01*
G75*
G02*
X82975000Y-152450000I-150000J0D01*
G01*
X82675000Y-152450000D01*
G75*
G02*
X82525000Y-152300000I0J150000D01*
G01*
X82525000Y-150650000D01*
G75*
G02*
X82675000Y-150500000I150000J0D01*
G01*
G37*
G36*
G01*
X81405000Y-150500000D02*
X81705000Y-150500000D01*
G75*
G02*
X81855000Y-150650000I0J-150000D01*
G01*
X81855000Y-152300000D01*
G75*
G02*
X81705000Y-152450000I-150000J0D01*
G01*
X81405000Y-152450000D01*
G75*
G02*
X81255000Y-152300000I0J150000D01*
G01*
X81255000Y-150650000D01*
G75*
G02*
X81405000Y-150500000I150000J0D01*
G01*
G37*
G36*
G01*
X81405000Y-145550000D02*
X81705000Y-145550000D01*
G75*
G02*
X81855000Y-145700000I0J-150000D01*
G01*
X81855000Y-147350000D01*
G75*
G02*
X81705000Y-147500000I-150000J0D01*
G01*
X81405000Y-147500000D01*
G75*
G02*
X81255000Y-147350000I0J150000D01*
G01*
X81255000Y-145700000D01*
G75*
G02*
X81405000Y-145550000I150000J0D01*
G01*
G37*
G36*
G01*
X82675000Y-145550000D02*
X82975000Y-145550000D01*
G75*
G02*
X83125000Y-145700000I0J-150000D01*
G01*
X83125000Y-147350000D01*
G75*
G02*
X82975000Y-147500000I-150000J0D01*
G01*
X82675000Y-147500000D01*
G75*
G02*
X82525000Y-147350000I0J150000D01*
G01*
X82525000Y-145700000D01*
G75*
G02*
X82675000Y-145550000I150000J0D01*
G01*
G37*
G36*
G01*
X83945000Y-145550000D02*
X84245000Y-145550000D01*
G75*
G02*
X84395000Y-145700000I0J-150000D01*
G01*
X84395000Y-147350000D01*
G75*
G02*
X84245000Y-147500000I-150000J0D01*
G01*
X83945000Y-147500000D01*
G75*
G02*
X83795000Y-147350000I0J150000D01*
G01*
X83795000Y-145700000D01*
G75*
G02*
X83945000Y-145550000I150000J0D01*
G01*
G37*
G36*
G01*
X85215000Y-145550000D02*
X85515000Y-145550000D01*
G75*
G02*
X85665000Y-145700000I0J-150000D01*
G01*
X85665000Y-147350000D01*
G75*
G02*
X85515000Y-147500000I-150000J0D01*
G01*
X85215000Y-147500000D01*
G75*
G02*
X85065000Y-147350000I0J150000D01*
G01*
X85065000Y-145700000D01*
G75*
G02*
X85215000Y-145550000I150000J0D01*
G01*
G37*
G36*
G01*
X86485000Y-145550000D02*
X86785000Y-145550000D01*
G75*
G02*
X86935000Y-145700000I0J-150000D01*
G01*
X86935000Y-147350000D01*
G75*
G02*
X86785000Y-147500000I-150000J0D01*
G01*
X86485000Y-147500000D01*
G75*
G02*
X86335000Y-147350000I0J150000D01*
G01*
X86335000Y-145700000D01*
G75*
G02*
X86485000Y-145550000I150000J0D01*
G01*
G37*
G36*
G01*
X87755000Y-145550000D02*
X88055000Y-145550000D01*
G75*
G02*
X88205000Y-145700000I0J-150000D01*
G01*
X88205000Y-147350000D01*
G75*
G02*
X88055000Y-147500000I-150000J0D01*
G01*
X87755000Y-147500000D01*
G75*
G02*
X87605000Y-147350000I0J150000D01*
G01*
X87605000Y-145700000D01*
G75*
G02*
X87755000Y-145550000I150000J0D01*
G01*
G37*
G36*
G01*
X89025000Y-145550000D02*
X89325000Y-145550000D01*
G75*
G02*
X89475000Y-145700000I0J-150000D01*
G01*
X89475000Y-147350000D01*
G75*
G02*
X89325000Y-147500000I-150000J0D01*
G01*
X89025000Y-147500000D01*
G75*
G02*
X88875000Y-147350000I0J150000D01*
G01*
X88875000Y-145700000D01*
G75*
G02*
X89025000Y-145550000I150000J0D01*
G01*
G37*
G36*
G01*
X90295000Y-145550000D02*
X90595000Y-145550000D01*
G75*
G02*
X90745000Y-145700000I0J-150000D01*
G01*
X90745000Y-147350000D01*
G75*
G02*
X90595000Y-147500000I-150000J0D01*
G01*
X90295000Y-147500000D01*
G75*
G02*
X90145000Y-147350000I0J150000D01*
G01*
X90145000Y-145700000D01*
G75*
G02*
X90295000Y-145550000I150000J0D01*
G01*
G37*
G36*
G01*
X114295000Y-150500000D02*
X114595000Y-150500000D01*
G75*
G02*
X114745000Y-150650000I0J-150000D01*
G01*
X114745000Y-152300000D01*
G75*
G02*
X114595000Y-152450000I-150000J0D01*
G01*
X114295000Y-152450000D01*
G75*
G02*
X114145000Y-152300000I0J150000D01*
G01*
X114145000Y-150650000D01*
G75*
G02*
X114295000Y-150500000I150000J0D01*
G01*
G37*
G36*
G01*
X113025000Y-150500000D02*
X113325000Y-150500000D01*
G75*
G02*
X113475000Y-150650000I0J-150000D01*
G01*
X113475000Y-152300000D01*
G75*
G02*
X113325000Y-152450000I-150000J0D01*
G01*
X113025000Y-152450000D01*
G75*
G02*
X112875000Y-152300000I0J150000D01*
G01*
X112875000Y-150650000D01*
G75*
G02*
X113025000Y-150500000I150000J0D01*
G01*
G37*
G36*
G01*
X111755000Y-150500000D02*
X112055000Y-150500000D01*
G75*
G02*
X112205000Y-150650000I0J-150000D01*
G01*
X112205000Y-152300000D01*
G75*
G02*
X112055000Y-152450000I-150000J0D01*
G01*
X111755000Y-152450000D01*
G75*
G02*
X111605000Y-152300000I0J150000D01*
G01*
X111605000Y-150650000D01*
G75*
G02*
X111755000Y-150500000I150000J0D01*
G01*
G37*
G36*
G01*
X110485000Y-150500000D02*
X110785000Y-150500000D01*
G75*
G02*
X110935000Y-150650000I0J-150000D01*
G01*
X110935000Y-152300000D01*
G75*
G02*
X110785000Y-152450000I-150000J0D01*
G01*
X110485000Y-152450000D01*
G75*
G02*
X110335000Y-152300000I0J150000D01*
G01*
X110335000Y-150650000D01*
G75*
G02*
X110485000Y-150500000I150000J0D01*
G01*
G37*
G36*
G01*
X109215000Y-150500000D02*
X109515000Y-150500000D01*
G75*
G02*
X109665000Y-150650000I0J-150000D01*
G01*
X109665000Y-152300000D01*
G75*
G02*
X109515000Y-152450000I-150000J0D01*
G01*
X109215000Y-152450000D01*
G75*
G02*
X109065000Y-152300000I0J150000D01*
G01*
X109065000Y-150650000D01*
G75*
G02*
X109215000Y-150500000I150000J0D01*
G01*
G37*
G36*
G01*
X107945000Y-150500000D02*
X108245000Y-150500000D01*
G75*
G02*
X108395000Y-150650000I0J-150000D01*
G01*
X108395000Y-152300000D01*
G75*
G02*
X108245000Y-152450000I-150000J0D01*
G01*
X107945000Y-152450000D01*
G75*
G02*
X107795000Y-152300000I0J150000D01*
G01*
X107795000Y-150650000D01*
G75*
G02*
X107945000Y-150500000I150000J0D01*
G01*
G37*
G36*
G01*
X106675000Y-150500000D02*
X106975000Y-150500000D01*
G75*
G02*
X107125000Y-150650000I0J-150000D01*
G01*
X107125000Y-152300000D01*
G75*
G02*
X106975000Y-152450000I-150000J0D01*
G01*
X106675000Y-152450000D01*
G75*
G02*
X106525000Y-152300000I0J150000D01*
G01*
X106525000Y-150650000D01*
G75*
G02*
X106675000Y-150500000I150000J0D01*
G01*
G37*
G36*
G01*
X105405000Y-150500000D02*
X105705000Y-150500000D01*
G75*
G02*
X105855000Y-150650000I0J-150000D01*
G01*
X105855000Y-152300000D01*
G75*
G02*
X105705000Y-152450000I-150000J0D01*
G01*
X105405000Y-152450000D01*
G75*
G02*
X105255000Y-152300000I0J150000D01*
G01*
X105255000Y-150650000D01*
G75*
G02*
X105405000Y-150500000I150000J0D01*
G01*
G37*
G36*
G01*
X105405000Y-145550000D02*
X105705000Y-145550000D01*
G75*
G02*
X105855000Y-145700000I0J-150000D01*
G01*
X105855000Y-147350000D01*
G75*
G02*
X105705000Y-147500000I-150000J0D01*
G01*
X105405000Y-147500000D01*
G75*
G02*
X105255000Y-147350000I0J150000D01*
G01*
X105255000Y-145700000D01*
G75*
G02*
X105405000Y-145550000I150000J0D01*
G01*
G37*
G36*
G01*
X106675000Y-145550000D02*
X106975000Y-145550000D01*
G75*
G02*
X107125000Y-145700000I0J-150000D01*
G01*
X107125000Y-147350000D01*
G75*
G02*
X106975000Y-147500000I-150000J0D01*
G01*
X106675000Y-147500000D01*
G75*
G02*
X106525000Y-147350000I0J150000D01*
G01*
X106525000Y-145700000D01*
G75*
G02*
X106675000Y-145550000I150000J0D01*
G01*
G37*
G36*
G01*
X107945000Y-145550000D02*
X108245000Y-145550000D01*
G75*
G02*
X108395000Y-145700000I0J-150000D01*
G01*
X108395000Y-147350000D01*
G75*
G02*
X108245000Y-147500000I-150000J0D01*
G01*
X107945000Y-147500000D01*
G75*
G02*
X107795000Y-147350000I0J150000D01*
G01*
X107795000Y-145700000D01*
G75*
G02*
X107945000Y-145550000I150000J0D01*
G01*
G37*
G36*
G01*
X109215000Y-145550000D02*
X109515000Y-145550000D01*
G75*
G02*
X109665000Y-145700000I0J-150000D01*
G01*
X109665000Y-147350000D01*
G75*
G02*
X109515000Y-147500000I-150000J0D01*
G01*
X109215000Y-147500000D01*
G75*
G02*
X109065000Y-147350000I0J150000D01*
G01*
X109065000Y-145700000D01*
G75*
G02*
X109215000Y-145550000I150000J0D01*
G01*
G37*
G36*
G01*
X110485000Y-145550000D02*
X110785000Y-145550000D01*
G75*
G02*
X110935000Y-145700000I0J-150000D01*
G01*
X110935000Y-147350000D01*
G75*
G02*
X110785000Y-147500000I-150000J0D01*
G01*
X110485000Y-147500000D01*
G75*
G02*
X110335000Y-147350000I0J150000D01*
G01*
X110335000Y-145700000D01*
G75*
G02*
X110485000Y-145550000I150000J0D01*
G01*
G37*
G36*
G01*
X111755000Y-145550000D02*
X112055000Y-145550000D01*
G75*
G02*
X112205000Y-145700000I0J-150000D01*
G01*
X112205000Y-147350000D01*
G75*
G02*
X112055000Y-147500000I-150000J0D01*
G01*
X111755000Y-147500000D01*
G75*
G02*
X111605000Y-147350000I0J150000D01*
G01*
X111605000Y-145700000D01*
G75*
G02*
X111755000Y-145550000I150000J0D01*
G01*
G37*
G36*
G01*
X113025000Y-145550000D02*
X113325000Y-145550000D01*
G75*
G02*
X113475000Y-145700000I0J-150000D01*
G01*
X113475000Y-147350000D01*
G75*
G02*
X113325000Y-147500000I-150000J0D01*
G01*
X113025000Y-147500000D01*
G75*
G02*
X112875000Y-147350000I0J150000D01*
G01*
X112875000Y-145700000D01*
G75*
G02*
X113025000Y-145550000I150000J0D01*
G01*
G37*
G36*
G01*
X114295000Y-145550000D02*
X114595000Y-145550000D01*
G75*
G02*
X114745000Y-145700000I0J-150000D01*
G01*
X114745000Y-147350000D01*
G75*
G02*
X114595000Y-147500000I-150000J0D01*
G01*
X114295000Y-147500000D01*
G75*
G02*
X114145000Y-147350000I0J150000D01*
G01*
X114145000Y-145700000D01*
G75*
G02*
X114295000Y-145550000I150000J0D01*
G01*
G37*
G36*
G01*
X85190000Y-163182500D02*
X85190000Y-163657500D01*
G75*
G02*
X84952500Y-163895000I-237500J0D01*
G01*
X84377500Y-163895000D01*
G75*
G02*
X84140000Y-163657500I0J237500D01*
G01*
X84140000Y-163182500D01*
G75*
G02*
X84377500Y-162945000I237500J0D01*
G01*
X84952500Y-162945000D01*
G75*
G02*
X85190000Y-163182500I0J-237500D01*
G01*
G37*
G36*
G01*
X86940000Y-163182500D02*
X86940000Y-163657500D01*
G75*
G02*
X86702500Y-163895000I-237500J0D01*
G01*
X86127500Y-163895000D01*
G75*
G02*
X85890000Y-163657500I0J237500D01*
G01*
X85890000Y-163182500D01*
G75*
G02*
X86127500Y-162945000I237500J0D01*
G01*
X86702500Y-162945000D01*
G75*
G02*
X86940000Y-163182500I0J-237500D01*
G01*
G37*
D10*
X86600000Y-158550000D03*
X86600000Y-160450000D03*
X84400000Y-160450000D03*
X84400000Y-159500000D03*
X84400000Y-158550000D03*
D11*
X85540000Y-166520000D03*
X85540000Y-174320000D03*
D12*
X122720000Y-154650000D03*
X122720000Y-147350000D03*
X124930000Y-147350000D03*
X124930000Y-154650000D03*
D13*
X122070000Y-148750000D03*
X122070000Y-150250000D03*
X122070000Y-153250000D03*
D14*
X108500000Y-173600000D03*
X106500000Y-173600000D03*
X104500000Y-173600000D03*
X102500000Y-173600000D03*
X100500000Y-173600000D03*
X98500000Y-173600000D03*
X96500000Y-173600000D03*
X94500000Y-173600000D03*
D15*
X93000000Y-171000000D03*
X93000000Y-169000000D03*
X93000000Y-167000000D03*
X93000000Y-165000000D03*
X93000000Y-163000000D03*
X93000000Y-161000000D03*
D14*
X94500000Y-158400000D03*
X96500000Y-158400000D03*
X98500000Y-158400000D03*
X100500000Y-158400000D03*
X102500000Y-158400000D03*
X104500000Y-158400000D03*
X106500000Y-158400000D03*
X108500000Y-158400000D03*
G36*
G01*
X56350000Y-112256250D02*
X56350000Y-111743750D01*
G75*
G02*
X56568750Y-111525000I218750J0D01*
G01*
X57006250Y-111525000D01*
G75*
G02*
X57225000Y-111743750I0J-218750D01*
G01*
X57225000Y-112256250D01*
G75*
G02*
X57006250Y-112475000I-218750J0D01*
G01*
X56568750Y-112475000D01*
G75*
G02*
X56350000Y-112256250I0J218750D01*
G01*
G37*
G36*
G01*
X54775000Y-112256250D02*
X54775000Y-111743750D01*
G75*
G02*
X54993750Y-111525000I218750J0D01*
G01*
X55431250Y-111525000D01*
G75*
G02*
X55650000Y-111743750I0J-218750D01*
G01*
X55650000Y-112256250D01*
G75*
G02*
X55431250Y-112475000I-218750J0D01*
G01*
X54993750Y-112475000D01*
G75*
G02*
X54775000Y-112256250I0J218750D01*
G01*
G37*
G36*
G01*
X121400000Y-139762500D02*
X121400000Y-140237500D01*
G75*
G02*
X121162500Y-140475000I-237500J0D01*
G01*
X120587500Y-140475000D01*
G75*
G02*
X120350000Y-140237500I0J237500D01*
G01*
X120350000Y-139762500D01*
G75*
G02*
X120587500Y-139525000I237500J0D01*
G01*
X121162500Y-139525000D01*
G75*
G02*
X121400000Y-139762500I0J-237500D01*
G01*
G37*
G36*
G01*
X119650000Y-139762500D02*
X119650000Y-140237500D01*
G75*
G02*
X119412500Y-140475000I-237500J0D01*
G01*
X118837500Y-140475000D01*
G75*
G02*
X118600000Y-140237500I0J237500D01*
G01*
X118600000Y-139762500D01*
G75*
G02*
X118837500Y-139525000I237500J0D01*
G01*
X119412500Y-139525000D01*
G75*
G02*
X119650000Y-139762500I0J-237500D01*
G01*
G37*
G36*
G01*
X121400000Y-135762500D02*
X121400000Y-136237500D01*
G75*
G02*
X121162500Y-136475000I-237500J0D01*
G01*
X120587500Y-136475000D01*
G75*
G02*
X120350000Y-136237500I0J237500D01*
G01*
X120350000Y-135762500D01*
G75*
G02*
X120587500Y-135525000I237500J0D01*
G01*
X121162500Y-135525000D01*
G75*
G02*
X121400000Y-135762500I0J-237500D01*
G01*
G37*
G36*
G01*
X119650000Y-135762500D02*
X119650000Y-136237500D01*
G75*
G02*
X119412500Y-136475000I-237500J0D01*
G01*
X118837500Y-136475000D01*
G75*
G02*
X118600000Y-136237500I0J237500D01*
G01*
X118600000Y-135762500D01*
G75*
G02*
X118837500Y-135525000I237500J0D01*
G01*
X119412500Y-135525000D01*
G75*
G02*
X119650000Y-135762500I0J-237500D01*
G01*
G37*
G36*
G01*
X121400000Y-131762500D02*
X121400000Y-132237500D01*
G75*
G02*
X121162500Y-132475000I-237500J0D01*
G01*
X120587500Y-132475000D01*
G75*
G02*
X120350000Y-132237500I0J237500D01*
G01*
X120350000Y-131762500D01*
G75*
G02*
X120587500Y-131525000I237500J0D01*
G01*
X121162500Y-131525000D01*
G75*
G02*
X121400000Y-131762500I0J-237500D01*
G01*
G37*
G36*
G01*
X119650000Y-131762500D02*
X119650000Y-132237500D01*
G75*
G02*
X119412500Y-132475000I-237500J0D01*
G01*
X118837500Y-132475000D01*
G75*
G02*
X118600000Y-132237500I0J237500D01*
G01*
X118600000Y-131762500D01*
G75*
G02*
X118837500Y-131525000I237500J0D01*
G01*
X119412500Y-131525000D01*
G75*
G02*
X119650000Y-131762500I0J-237500D01*
G01*
G37*
G36*
G01*
X121400000Y-127762500D02*
X121400000Y-128237500D01*
G75*
G02*
X121162500Y-128475000I-237500J0D01*
G01*
X120587500Y-128475000D01*
G75*
G02*
X120350000Y-128237500I0J237500D01*
G01*
X120350000Y-127762500D01*
G75*
G02*
X120587500Y-127525000I237500J0D01*
G01*
X121162500Y-127525000D01*
G75*
G02*
X121400000Y-127762500I0J-237500D01*
G01*
G37*
G36*
G01*
X119650000Y-127762500D02*
X119650000Y-128237500D01*
G75*
G02*
X119412500Y-128475000I-237500J0D01*
G01*
X118837500Y-128475000D01*
G75*
G02*
X118600000Y-128237500I0J237500D01*
G01*
X118600000Y-127762500D01*
G75*
G02*
X118837500Y-127525000I237500J0D01*
G01*
X119412500Y-127525000D01*
G75*
G02*
X119650000Y-127762500I0J-237500D01*
G01*
G37*
G36*
G01*
X121400000Y-123762500D02*
X121400000Y-124237500D01*
G75*
G02*
X121162500Y-124475000I-237500J0D01*
G01*
X120587500Y-124475000D01*
G75*
G02*
X120350000Y-124237500I0J237500D01*
G01*
X120350000Y-123762500D01*
G75*
G02*
X120587500Y-123525000I237500J0D01*
G01*
X121162500Y-123525000D01*
G75*
G02*
X121400000Y-123762500I0J-237500D01*
G01*
G37*
G36*
G01*
X119650000Y-123762500D02*
X119650000Y-124237500D01*
G75*
G02*
X119412500Y-124475000I-237500J0D01*
G01*
X118837500Y-124475000D01*
G75*
G02*
X118600000Y-124237500I0J237500D01*
G01*
X118600000Y-123762500D01*
G75*
G02*
X118837500Y-123525000I237500J0D01*
G01*
X119412500Y-123525000D01*
G75*
G02*
X119650000Y-123762500I0J-237500D01*
G01*
G37*
G36*
G01*
X121400000Y-119762500D02*
X121400000Y-120237500D01*
G75*
G02*
X121162500Y-120475000I-237500J0D01*
G01*
X120587500Y-120475000D01*
G75*
G02*
X120350000Y-120237500I0J237500D01*
G01*
X120350000Y-119762500D01*
G75*
G02*
X120587500Y-119525000I237500J0D01*
G01*
X121162500Y-119525000D01*
G75*
G02*
X121400000Y-119762500I0J-237500D01*
G01*
G37*
G36*
G01*
X119650000Y-119762500D02*
X119650000Y-120237500D01*
G75*
G02*
X119412500Y-120475000I-237500J0D01*
G01*
X118837500Y-120475000D01*
G75*
G02*
X118600000Y-120237500I0J237500D01*
G01*
X118600000Y-119762500D01*
G75*
G02*
X118837500Y-119525000I237500J0D01*
G01*
X119412500Y-119525000D01*
G75*
G02*
X119650000Y-119762500I0J-237500D01*
G01*
G37*
G36*
G01*
X119650000Y-115762500D02*
X119650000Y-116237500D01*
G75*
G02*
X119412500Y-116475000I-237500J0D01*
G01*
X118837500Y-116475000D01*
G75*
G02*
X118600000Y-116237500I0J237500D01*
G01*
X118600000Y-115762500D01*
G75*
G02*
X118837500Y-115525000I237500J0D01*
G01*
X119412500Y-115525000D01*
G75*
G02*
X119650000Y-115762500I0J-237500D01*
G01*
G37*
G36*
G01*
X121400000Y-115762500D02*
X121400000Y-116237500D01*
G75*
G02*
X121162500Y-116475000I-237500J0D01*
G01*
X120587500Y-116475000D01*
G75*
G02*
X120350000Y-116237500I0J237500D01*
G01*
X120350000Y-115762500D01*
G75*
G02*
X120587500Y-115525000I237500J0D01*
G01*
X121162500Y-115525000D01*
G75*
G02*
X121400000Y-115762500I0J-237500D01*
G01*
G37*
G36*
G01*
X119650000Y-111762500D02*
X119650000Y-112237500D01*
G75*
G02*
X119412500Y-112475000I-237500J0D01*
G01*
X118837500Y-112475000D01*
G75*
G02*
X118600000Y-112237500I0J237500D01*
G01*
X118600000Y-111762500D01*
G75*
G02*
X118837500Y-111525000I237500J0D01*
G01*
X119412500Y-111525000D01*
G75*
G02*
X119650000Y-111762500I0J-237500D01*
G01*
G37*
G36*
G01*
X121400000Y-111762500D02*
X121400000Y-112237500D01*
G75*
G02*
X121162500Y-112475000I-237500J0D01*
G01*
X120587500Y-112475000D01*
G75*
G02*
X120350000Y-112237500I0J237500D01*
G01*
X120350000Y-111762500D01*
G75*
G02*
X120587500Y-111525000I237500J0D01*
G01*
X121162500Y-111525000D01*
G75*
G02*
X121400000Y-111762500I0J-237500D01*
G01*
G37*
G36*
G01*
X114775000Y-140256250D02*
X114775000Y-139743750D01*
G75*
G02*
X114993750Y-139525000I218750J0D01*
G01*
X115431250Y-139525000D01*
G75*
G02*
X115650000Y-139743750I0J-218750D01*
G01*
X115650000Y-140256250D01*
G75*
G02*
X115431250Y-140475000I-218750J0D01*
G01*
X114993750Y-140475000D01*
G75*
G02*
X114775000Y-140256250I0J218750D01*
G01*
G37*
G36*
G01*
X116350000Y-140256250D02*
X116350000Y-139743750D01*
G75*
G02*
X116568750Y-139525000I218750J0D01*
G01*
X117006250Y-139525000D01*
G75*
G02*
X117225000Y-139743750I0J-218750D01*
G01*
X117225000Y-140256250D01*
G75*
G02*
X117006250Y-140475000I-218750J0D01*
G01*
X116568750Y-140475000D01*
G75*
G02*
X116350000Y-140256250I0J218750D01*
G01*
G37*
G36*
G01*
X114775000Y-136256250D02*
X114775000Y-135743750D01*
G75*
G02*
X114993750Y-135525000I218750J0D01*
G01*
X115431250Y-135525000D01*
G75*
G02*
X115650000Y-135743750I0J-218750D01*
G01*
X115650000Y-136256250D01*
G75*
G02*
X115431250Y-136475000I-218750J0D01*
G01*
X114993750Y-136475000D01*
G75*
G02*
X114775000Y-136256250I0J218750D01*
G01*
G37*
G36*
G01*
X116350000Y-136256250D02*
X116350000Y-135743750D01*
G75*
G02*
X116568750Y-135525000I218750J0D01*
G01*
X117006250Y-135525000D01*
G75*
G02*
X117225000Y-135743750I0J-218750D01*
G01*
X117225000Y-136256250D01*
G75*
G02*
X117006250Y-136475000I-218750J0D01*
G01*
X116568750Y-136475000D01*
G75*
G02*
X116350000Y-136256250I0J218750D01*
G01*
G37*
G36*
G01*
X114775000Y-132256250D02*
X114775000Y-131743750D01*
G75*
G02*
X114993750Y-131525000I218750J0D01*
G01*
X115431250Y-131525000D01*
G75*
G02*
X115650000Y-131743750I0J-218750D01*
G01*
X115650000Y-132256250D01*
G75*
G02*
X115431250Y-132475000I-218750J0D01*
G01*
X114993750Y-132475000D01*
G75*
G02*
X114775000Y-132256250I0J218750D01*
G01*
G37*
G36*
G01*
X116350000Y-132256250D02*
X116350000Y-131743750D01*
G75*
G02*
X116568750Y-131525000I218750J0D01*
G01*
X117006250Y-131525000D01*
G75*
G02*
X117225000Y-131743750I0J-218750D01*
G01*
X117225000Y-132256250D01*
G75*
G02*
X117006250Y-132475000I-218750J0D01*
G01*
X116568750Y-132475000D01*
G75*
G02*
X116350000Y-132256250I0J218750D01*
G01*
G37*
G36*
G01*
X114775000Y-128256250D02*
X114775000Y-127743750D01*
G75*
G02*
X114993750Y-127525000I218750J0D01*
G01*
X115431250Y-127525000D01*
G75*
G02*
X115650000Y-127743750I0J-218750D01*
G01*
X115650000Y-128256250D01*
G75*
G02*
X115431250Y-128475000I-218750J0D01*
G01*
X114993750Y-128475000D01*
G75*
G02*
X114775000Y-128256250I0J218750D01*
G01*
G37*
G36*
G01*
X116350000Y-128256250D02*
X116350000Y-127743750D01*
G75*
G02*
X116568750Y-127525000I218750J0D01*
G01*
X117006250Y-127525000D01*
G75*
G02*
X117225000Y-127743750I0J-218750D01*
G01*
X117225000Y-128256250D01*
G75*
G02*
X117006250Y-128475000I-218750J0D01*
G01*
X116568750Y-128475000D01*
G75*
G02*
X116350000Y-128256250I0J218750D01*
G01*
G37*
G36*
G01*
X114775000Y-124256250D02*
X114775000Y-123743750D01*
G75*
G02*
X114993750Y-123525000I218750J0D01*
G01*
X115431250Y-123525000D01*
G75*
G02*
X115650000Y-123743750I0J-218750D01*
G01*
X115650000Y-124256250D01*
G75*
G02*
X115431250Y-124475000I-218750J0D01*
G01*
X114993750Y-124475000D01*
G75*
G02*
X114775000Y-124256250I0J218750D01*
G01*
G37*
G36*
G01*
X116350000Y-124256250D02*
X116350000Y-123743750D01*
G75*
G02*
X116568750Y-123525000I218750J0D01*
G01*
X117006250Y-123525000D01*
G75*
G02*
X117225000Y-123743750I0J-218750D01*
G01*
X117225000Y-124256250D01*
G75*
G02*
X117006250Y-124475000I-218750J0D01*
G01*
X116568750Y-124475000D01*
G75*
G02*
X116350000Y-124256250I0J218750D01*
G01*
G37*
G36*
G01*
X114775000Y-120256250D02*
X114775000Y-119743750D01*
G75*
G02*
X114993750Y-119525000I218750J0D01*
G01*
X115431250Y-119525000D01*
G75*
G02*
X115650000Y-119743750I0J-218750D01*
G01*
X115650000Y-120256250D01*
G75*
G02*
X115431250Y-120475000I-218750J0D01*
G01*
X114993750Y-120475000D01*
G75*
G02*
X114775000Y-120256250I0J218750D01*
G01*
G37*
G36*
G01*
X116350000Y-120256250D02*
X116350000Y-119743750D01*
G75*
G02*
X116568750Y-119525000I218750J0D01*
G01*
X117006250Y-119525000D01*
G75*
G02*
X117225000Y-119743750I0J-218750D01*
G01*
X117225000Y-120256250D01*
G75*
G02*
X117006250Y-120475000I-218750J0D01*
G01*
X116568750Y-120475000D01*
G75*
G02*
X116350000Y-120256250I0J218750D01*
G01*
G37*
G36*
G01*
X116350000Y-116256250D02*
X116350000Y-115743750D01*
G75*
G02*
X116568750Y-115525000I218750J0D01*
G01*
X117006250Y-115525000D01*
G75*
G02*
X117225000Y-115743750I0J-218750D01*
G01*
X117225000Y-116256250D01*
G75*
G02*
X117006250Y-116475000I-218750J0D01*
G01*
X116568750Y-116475000D01*
G75*
G02*
X116350000Y-116256250I0J218750D01*
G01*
G37*
G36*
G01*
X114775000Y-116256250D02*
X114775000Y-115743750D01*
G75*
G02*
X114993750Y-115525000I218750J0D01*
G01*
X115431250Y-115525000D01*
G75*
G02*
X115650000Y-115743750I0J-218750D01*
G01*
X115650000Y-116256250D01*
G75*
G02*
X115431250Y-116475000I-218750J0D01*
G01*
X114993750Y-116475000D01*
G75*
G02*
X114775000Y-116256250I0J218750D01*
G01*
G37*
G36*
G01*
X114775000Y-112256250D02*
X114775000Y-111743750D01*
G75*
G02*
X114993750Y-111525000I218750J0D01*
G01*
X115431250Y-111525000D01*
G75*
G02*
X115650000Y-111743750I0J-218750D01*
G01*
X115650000Y-112256250D01*
G75*
G02*
X115431250Y-112475000I-218750J0D01*
G01*
X114993750Y-112475000D01*
G75*
G02*
X114775000Y-112256250I0J218750D01*
G01*
G37*
G36*
G01*
X116350000Y-112256250D02*
X116350000Y-111743750D01*
G75*
G02*
X116568750Y-111525000I218750J0D01*
G01*
X117006250Y-111525000D01*
G75*
G02*
X117225000Y-111743750I0J-218750D01*
G01*
X117225000Y-112256250D01*
G75*
G02*
X117006250Y-112475000I-218750J0D01*
G01*
X116568750Y-112475000D01*
G75*
G02*
X116350000Y-112256250I0J218750D01*
G01*
G37*
G36*
G01*
X110775000Y-140256250D02*
X110775000Y-139743750D01*
G75*
G02*
X110993750Y-139525000I218750J0D01*
G01*
X111431250Y-139525000D01*
G75*
G02*
X111650000Y-139743750I0J-218750D01*
G01*
X111650000Y-140256250D01*
G75*
G02*
X111431250Y-140475000I-218750J0D01*
G01*
X110993750Y-140475000D01*
G75*
G02*
X110775000Y-140256250I0J218750D01*
G01*
G37*
G36*
G01*
X112350000Y-140256250D02*
X112350000Y-139743750D01*
G75*
G02*
X112568750Y-139525000I218750J0D01*
G01*
X113006250Y-139525000D01*
G75*
G02*
X113225000Y-139743750I0J-218750D01*
G01*
X113225000Y-140256250D01*
G75*
G02*
X113006250Y-140475000I-218750J0D01*
G01*
X112568750Y-140475000D01*
G75*
G02*
X112350000Y-140256250I0J218750D01*
G01*
G37*
G36*
G01*
X110775000Y-136256250D02*
X110775000Y-135743750D01*
G75*
G02*
X110993750Y-135525000I218750J0D01*
G01*
X111431250Y-135525000D01*
G75*
G02*
X111650000Y-135743750I0J-218750D01*
G01*
X111650000Y-136256250D01*
G75*
G02*
X111431250Y-136475000I-218750J0D01*
G01*
X110993750Y-136475000D01*
G75*
G02*
X110775000Y-136256250I0J218750D01*
G01*
G37*
G36*
G01*
X112350000Y-136256250D02*
X112350000Y-135743750D01*
G75*
G02*
X112568750Y-135525000I218750J0D01*
G01*
X113006250Y-135525000D01*
G75*
G02*
X113225000Y-135743750I0J-218750D01*
G01*
X113225000Y-136256250D01*
G75*
G02*
X113006250Y-136475000I-218750J0D01*
G01*
X112568750Y-136475000D01*
G75*
G02*
X112350000Y-136256250I0J218750D01*
G01*
G37*
G36*
G01*
X110775000Y-132256250D02*
X110775000Y-131743750D01*
G75*
G02*
X110993750Y-131525000I218750J0D01*
G01*
X111431250Y-131525000D01*
G75*
G02*
X111650000Y-131743750I0J-218750D01*
G01*
X111650000Y-132256250D01*
G75*
G02*
X111431250Y-132475000I-218750J0D01*
G01*
X110993750Y-132475000D01*
G75*
G02*
X110775000Y-132256250I0J218750D01*
G01*
G37*
G36*
G01*
X112350000Y-132256250D02*
X112350000Y-131743750D01*
G75*
G02*
X112568750Y-131525000I218750J0D01*
G01*
X113006250Y-131525000D01*
G75*
G02*
X113225000Y-131743750I0J-218750D01*
G01*
X113225000Y-132256250D01*
G75*
G02*
X113006250Y-132475000I-218750J0D01*
G01*
X112568750Y-132475000D01*
G75*
G02*
X112350000Y-132256250I0J218750D01*
G01*
G37*
G36*
G01*
X110775000Y-128256250D02*
X110775000Y-127743750D01*
G75*
G02*
X110993750Y-127525000I218750J0D01*
G01*
X111431250Y-127525000D01*
G75*
G02*
X111650000Y-127743750I0J-218750D01*
G01*
X111650000Y-128256250D01*
G75*
G02*
X111431250Y-128475000I-218750J0D01*
G01*
X110993750Y-128475000D01*
G75*
G02*
X110775000Y-128256250I0J218750D01*
G01*
G37*
G36*
G01*
X112350000Y-128256250D02*
X112350000Y-127743750D01*
G75*
G02*
X112568750Y-127525000I218750J0D01*
G01*
X113006250Y-127525000D01*
G75*
G02*
X113225000Y-127743750I0J-218750D01*
G01*
X113225000Y-128256250D01*
G75*
G02*
X113006250Y-128475000I-218750J0D01*
G01*
X112568750Y-128475000D01*
G75*
G02*
X112350000Y-128256250I0J218750D01*
G01*
G37*
G36*
G01*
X110775000Y-124256250D02*
X110775000Y-123743750D01*
G75*
G02*
X110993750Y-123525000I218750J0D01*
G01*
X111431250Y-123525000D01*
G75*
G02*
X111650000Y-123743750I0J-218750D01*
G01*
X111650000Y-124256250D01*
G75*
G02*
X111431250Y-124475000I-218750J0D01*
G01*
X110993750Y-124475000D01*
G75*
G02*
X110775000Y-124256250I0J218750D01*
G01*
G37*
G36*
G01*
X112350000Y-124256250D02*
X112350000Y-123743750D01*
G75*
G02*
X112568750Y-123525000I218750J0D01*
G01*
X113006250Y-123525000D01*
G75*
G02*
X113225000Y-123743750I0J-218750D01*
G01*
X113225000Y-124256250D01*
G75*
G02*
X113006250Y-124475000I-218750J0D01*
G01*
X112568750Y-124475000D01*
G75*
G02*
X112350000Y-124256250I0J218750D01*
G01*
G37*
G36*
G01*
X110775000Y-120256250D02*
X110775000Y-119743750D01*
G75*
G02*
X110993750Y-119525000I218750J0D01*
G01*
X111431250Y-119525000D01*
G75*
G02*
X111650000Y-119743750I0J-218750D01*
G01*
X111650000Y-120256250D01*
G75*
G02*
X111431250Y-120475000I-218750J0D01*
G01*
X110993750Y-120475000D01*
G75*
G02*
X110775000Y-120256250I0J218750D01*
G01*
G37*
G36*
G01*
X112350000Y-120256250D02*
X112350000Y-119743750D01*
G75*
G02*
X112568750Y-119525000I218750J0D01*
G01*
X113006250Y-119525000D01*
G75*
G02*
X113225000Y-119743750I0J-218750D01*
G01*
X113225000Y-120256250D01*
G75*
G02*
X113006250Y-120475000I-218750J0D01*
G01*
X112568750Y-120475000D01*
G75*
G02*
X112350000Y-120256250I0J218750D01*
G01*
G37*
G36*
G01*
X112350000Y-116256250D02*
X112350000Y-115743750D01*
G75*
G02*
X112568750Y-115525000I218750J0D01*
G01*
X113006250Y-115525000D01*
G75*
G02*
X113225000Y-115743750I0J-218750D01*
G01*
X113225000Y-116256250D01*
G75*
G02*
X113006250Y-116475000I-218750J0D01*
G01*
X112568750Y-116475000D01*
G75*
G02*
X112350000Y-116256250I0J218750D01*
G01*
G37*
G36*
G01*
X110775000Y-116256250D02*
X110775000Y-115743750D01*
G75*
G02*
X110993750Y-115525000I218750J0D01*
G01*
X111431250Y-115525000D01*
G75*
G02*
X111650000Y-115743750I0J-218750D01*
G01*
X111650000Y-116256250D01*
G75*
G02*
X111431250Y-116475000I-218750J0D01*
G01*
X110993750Y-116475000D01*
G75*
G02*
X110775000Y-116256250I0J218750D01*
G01*
G37*
G36*
G01*
X110775000Y-112256250D02*
X110775000Y-111743750D01*
G75*
G02*
X110993750Y-111525000I218750J0D01*
G01*
X111431250Y-111525000D01*
G75*
G02*
X111650000Y-111743750I0J-218750D01*
G01*
X111650000Y-112256250D01*
G75*
G02*
X111431250Y-112475000I-218750J0D01*
G01*
X110993750Y-112475000D01*
G75*
G02*
X110775000Y-112256250I0J218750D01*
G01*
G37*
G36*
G01*
X112350000Y-112256250D02*
X112350000Y-111743750D01*
G75*
G02*
X112568750Y-111525000I218750J0D01*
G01*
X113006250Y-111525000D01*
G75*
G02*
X113225000Y-111743750I0J-218750D01*
G01*
X113225000Y-112256250D01*
G75*
G02*
X113006250Y-112475000I-218750J0D01*
G01*
X112568750Y-112475000D01*
G75*
G02*
X112350000Y-112256250I0J218750D01*
G01*
G37*
G36*
G01*
X106775000Y-140256250D02*
X106775000Y-139743750D01*
G75*
G02*
X106993750Y-139525000I218750J0D01*
G01*
X107431250Y-139525000D01*
G75*
G02*
X107650000Y-139743750I0J-218750D01*
G01*
X107650000Y-140256250D01*
G75*
G02*
X107431250Y-140475000I-218750J0D01*
G01*
X106993750Y-140475000D01*
G75*
G02*
X106775000Y-140256250I0J218750D01*
G01*
G37*
G36*
G01*
X108350000Y-140256250D02*
X108350000Y-139743750D01*
G75*
G02*
X108568750Y-139525000I218750J0D01*
G01*
X109006250Y-139525000D01*
G75*
G02*
X109225000Y-139743750I0J-218750D01*
G01*
X109225000Y-140256250D01*
G75*
G02*
X109006250Y-140475000I-218750J0D01*
G01*
X108568750Y-140475000D01*
G75*
G02*
X108350000Y-140256250I0J218750D01*
G01*
G37*
G36*
G01*
X106775000Y-136256250D02*
X106775000Y-135743750D01*
G75*
G02*
X106993750Y-135525000I218750J0D01*
G01*
X107431250Y-135525000D01*
G75*
G02*
X107650000Y-135743750I0J-218750D01*
G01*
X107650000Y-136256250D01*
G75*
G02*
X107431250Y-136475000I-218750J0D01*
G01*
X106993750Y-136475000D01*
G75*
G02*
X106775000Y-136256250I0J218750D01*
G01*
G37*
G36*
G01*
X108350000Y-136256250D02*
X108350000Y-135743750D01*
G75*
G02*
X108568750Y-135525000I218750J0D01*
G01*
X109006250Y-135525000D01*
G75*
G02*
X109225000Y-135743750I0J-218750D01*
G01*
X109225000Y-136256250D01*
G75*
G02*
X109006250Y-136475000I-218750J0D01*
G01*
X108568750Y-136475000D01*
G75*
G02*
X108350000Y-136256250I0J218750D01*
G01*
G37*
G36*
G01*
X106775000Y-132256250D02*
X106775000Y-131743750D01*
G75*
G02*
X106993750Y-131525000I218750J0D01*
G01*
X107431250Y-131525000D01*
G75*
G02*
X107650000Y-131743750I0J-218750D01*
G01*
X107650000Y-132256250D01*
G75*
G02*
X107431250Y-132475000I-218750J0D01*
G01*
X106993750Y-132475000D01*
G75*
G02*
X106775000Y-132256250I0J218750D01*
G01*
G37*
G36*
G01*
X108350000Y-132256250D02*
X108350000Y-131743750D01*
G75*
G02*
X108568750Y-131525000I218750J0D01*
G01*
X109006250Y-131525000D01*
G75*
G02*
X109225000Y-131743750I0J-218750D01*
G01*
X109225000Y-132256250D01*
G75*
G02*
X109006250Y-132475000I-218750J0D01*
G01*
X108568750Y-132475000D01*
G75*
G02*
X108350000Y-132256250I0J218750D01*
G01*
G37*
G36*
G01*
X106775000Y-128256250D02*
X106775000Y-127743750D01*
G75*
G02*
X106993750Y-127525000I218750J0D01*
G01*
X107431250Y-127525000D01*
G75*
G02*
X107650000Y-127743750I0J-218750D01*
G01*
X107650000Y-128256250D01*
G75*
G02*
X107431250Y-128475000I-218750J0D01*
G01*
X106993750Y-128475000D01*
G75*
G02*
X106775000Y-128256250I0J218750D01*
G01*
G37*
G36*
G01*
X108350000Y-128256250D02*
X108350000Y-127743750D01*
G75*
G02*
X108568750Y-127525000I218750J0D01*
G01*
X109006250Y-127525000D01*
G75*
G02*
X109225000Y-127743750I0J-218750D01*
G01*
X109225000Y-128256250D01*
G75*
G02*
X109006250Y-128475000I-218750J0D01*
G01*
X108568750Y-128475000D01*
G75*
G02*
X108350000Y-128256250I0J218750D01*
G01*
G37*
G36*
G01*
X106775000Y-124256250D02*
X106775000Y-123743750D01*
G75*
G02*
X106993750Y-123525000I218750J0D01*
G01*
X107431250Y-123525000D01*
G75*
G02*
X107650000Y-123743750I0J-218750D01*
G01*
X107650000Y-124256250D01*
G75*
G02*
X107431250Y-124475000I-218750J0D01*
G01*
X106993750Y-124475000D01*
G75*
G02*
X106775000Y-124256250I0J218750D01*
G01*
G37*
G36*
G01*
X108350000Y-124256250D02*
X108350000Y-123743750D01*
G75*
G02*
X108568750Y-123525000I218750J0D01*
G01*
X109006250Y-123525000D01*
G75*
G02*
X109225000Y-123743750I0J-218750D01*
G01*
X109225000Y-124256250D01*
G75*
G02*
X109006250Y-124475000I-218750J0D01*
G01*
X108568750Y-124475000D01*
G75*
G02*
X108350000Y-124256250I0J218750D01*
G01*
G37*
G36*
G01*
X106775000Y-120256250D02*
X106775000Y-119743750D01*
G75*
G02*
X106993750Y-119525000I218750J0D01*
G01*
X107431250Y-119525000D01*
G75*
G02*
X107650000Y-119743750I0J-218750D01*
G01*
X107650000Y-120256250D01*
G75*
G02*
X107431250Y-120475000I-218750J0D01*
G01*
X106993750Y-120475000D01*
G75*
G02*
X106775000Y-120256250I0J218750D01*
G01*
G37*
G36*
G01*
X108350000Y-120256250D02*
X108350000Y-119743750D01*
G75*
G02*
X108568750Y-119525000I218750J0D01*
G01*
X109006250Y-119525000D01*
G75*
G02*
X109225000Y-119743750I0J-218750D01*
G01*
X109225000Y-120256250D01*
G75*
G02*
X109006250Y-120475000I-218750J0D01*
G01*
X108568750Y-120475000D01*
G75*
G02*
X108350000Y-120256250I0J218750D01*
G01*
G37*
G36*
G01*
X108350000Y-116256250D02*
X108350000Y-115743750D01*
G75*
G02*
X108568750Y-115525000I218750J0D01*
G01*
X109006250Y-115525000D01*
G75*
G02*
X109225000Y-115743750I0J-218750D01*
G01*
X109225000Y-116256250D01*
G75*
G02*
X109006250Y-116475000I-218750J0D01*
G01*
X108568750Y-116475000D01*
G75*
G02*
X108350000Y-116256250I0J218750D01*
G01*
G37*
G36*
G01*
X106775000Y-116256250D02*
X106775000Y-115743750D01*
G75*
G02*
X106993750Y-115525000I218750J0D01*
G01*
X107431250Y-115525000D01*
G75*
G02*
X107650000Y-115743750I0J-218750D01*
G01*
X107650000Y-116256250D01*
G75*
G02*
X107431250Y-116475000I-218750J0D01*
G01*
X106993750Y-116475000D01*
G75*
G02*
X106775000Y-116256250I0J218750D01*
G01*
G37*
G36*
G01*
X106775000Y-112256250D02*
X106775000Y-111743750D01*
G75*
G02*
X106993750Y-111525000I218750J0D01*
G01*
X107431250Y-111525000D01*
G75*
G02*
X107650000Y-111743750I0J-218750D01*
G01*
X107650000Y-112256250D01*
G75*
G02*
X107431250Y-112475000I-218750J0D01*
G01*
X106993750Y-112475000D01*
G75*
G02*
X106775000Y-112256250I0J218750D01*
G01*
G37*
G36*
G01*
X108350000Y-112256250D02*
X108350000Y-111743750D01*
G75*
G02*
X108568750Y-111525000I218750J0D01*
G01*
X109006250Y-111525000D01*
G75*
G02*
X109225000Y-111743750I0J-218750D01*
G01*
X109225000Y-112256250D01*
G75*
G02*
X109006250Y-112475000I-218750J0D01*
G01*
X108568750Y-112475000D01*
G75*
G02*
X108350000Y-112256250I0J218750D01*
G01*
G37*
G36*
G01*
X102775000Y-140256250D02*
X102775000Y-139743750D01*
G75*
G02*
X102993750Y-139525000I218750J0D01*
G01*
X103431250Y-139525000D01*
G75*
G02*
X103650000Y-139743750I0J-218750D01*
G01*
X103650000Y-140256250D01*
G75*
G02*
X103431250Y-140475000I-218750J0D01*
G01*
X102993750Y-140475000D01*
G75*
G02*
X102775000Y-140256250I0J218750D01*
G01*
G37*
G36*
G01*
X104350000Y-140256250D02*
X104350000Y-139743750D01*
G75*
G02*
X104568750Y-139525000I218750J0D01*
G01*
X105006250Y-139525000D01*
G75*
G02*
X105225000Y-139743750I0J-218750D01*
G01*
X105225000Y-140256250D01*
G75*
G02*
X105006250Y-140475000I-218750J0D01*
G01*
X104568750Y-140475000D01*
G75*
G02*
X104350000Y-140256250I0J218750D01*
G01*
G37*
G36*
G01*
X102775000Y-136256250D02*
X102775000Y-135743750D01*
G75*
G02*
X102993750Y-135525000I218750J0D01*
G01*
X103431250Y-135525000D01*
G75*
G02*
X103650000Y-135743750I0J-218750D01*
G01*
X103650000Y-136256250D01*
G75*
G02*
X103431250Y-136475000I-218750J0D01*
G01*
X102993750Y-136475000D01*
G75*
G02*
X102775000Y-136256250I0J218750D01*
G01*
G37*
G36*
G01*
X104350000Y-136256250D02*
X104350000Y-135743750D01*
G75*
G02*
X104568750Y-135525000I218750J0D01*
G01*
X105006250Y-135525000D01*
G75*
G02*
X105225000Y-135743750I0J-218750D01*
G01*
X105225000Y-136256250D01*
G75*
G02*
X105006250Y-136475000I-218750J0D01*
G01*
X104568750Y-136475000D01*
G75*
G02*
X104350000Y-136256250I0J218750D01*
G01*
G37*
G36*
G01*
X102775000Y-132256250D02*
X102775000Y-131743750D01*
G75*
G02*
X102993750Y-131525000I218750J0D01*
G01*
X103431250Y-131525000D01*
G75*
G02*
X103650000Y-131743750I0J-218750D01*
G01*
X103650000Y-132256250D01*
G75*
G02*
X103431250Y-132475000I-218750J0D01*
G01*
X102993750Y-132475000D01*
G75*
G02*
X102775000Y-132256250I0J218750D01*
G01*
G37*
G36*
G01*
X104350000Y-132256250D02*
X104350000Y-131743750D01*
G75*
G02*
X104568750Y-131525000I218750J0D01*
G01*
X105006250Y-131525000D01*
G75*
G02*
X105225000Y-131743750I0J-218750D01*
G01*
X105225000Y-132256250D01*
G75*
G02*
X105006250Y-132475000I-218750J0D01*
G01*
X104568750Y-132475000D01*
G75*
G02*
X104350000Y-132256250I0J218750D01*
G01*
G37*
G36*
G01*
X102775000Y-128256250D02*
X102775000Y-127743750D01*
G75*
G02*
X102993750Y-127525000I218750J0D01*
G01*
X103431250Y-127525000D01*
G75*
G02*
X103650000Y-127743750I0J-218750D01*
G01*
X103650000Y-128256250D01*
G75*
G02*
X103431250Y-128475000I-218750J0D01*
G01*
X102993750Y-128475000D01*
G75*
G02*
X102775000Y-128256250I0J218750D01*
G01*
G37*
G36*
G01*
X104350000Y-128256250D02*
X104350000Y-127743750D01*
G75*
G02*
X104568750Y-127525000I218750J0D01*
G01*
X105006250Y-127525000D01*
G75*
G02*
X105225000Y-127743750I0J-218750D01*
G01*
X105225000Y-128256250D01*
G75*
G02*
X105006250Y-128475000I-218750J0D01*
G01*
X104568750Y-128475000D01*
G75*
G02*
X104350000Y-128256250I0J218750D01*
G01*
G37*
G36*
G01*
X102775000Y-124256250D02*
X102775000Y-123743750D01*
G75*
G02*
X102993750Y-123525000I218750J0D01*
G01*
X103431250Y-123525000D01*
G75*
G02*
X103650000Y-123743750I0J-218750D01*
G01*
X103650000Y-124256250D01*
G75*
G02*
X103431250Y-124475000I-218750J0D01*
G01*
X102993750Y-124475000D01*
G75*
G02*
X102775000Y-124256250I0J218750D01*
G01*
G37*
G36*
G01*
X104350000Y-124256250D02*
X104350000Y-123743750D01*
G75*
G02*
X104568750Y-123525000I218750J0D01*
G01*
X105006250Y-123525000D01*
G75*
G02*
X105225000Y-123743750I0J-218750D01*
G01*
X105225000Y-124256250D01*
G75*
G02*
X105006250Y-124475000I-218750J0D01*
G01*
X104568750Y-124475000D01*
G75*
G02*
X104350000Y-124256250I0J218750D01*
G01*
G37*
G36*
G01*
X102775000Y-120256250D02*
X102775000Y-119743750D01*
G75*
G02*
X102993750Y-119525000I218750J0D01*
G01*
X103431250Y-119525000D01*
G75*
G02*
X103650000Y-119743750I0J-218750D01*
G01*
X103650000Y-120256250D01*
G75*
G02*
X103431250Y-120475000I-218750J0D01*
G01*
X102993750Y-120475000D01*
G75*
G02*
X102775000Y-120256250I0J218750D01*
G01*
G37*
G36*
G01*
X104350000Y-120256250D02*
X104350000Y-119743750D01*
G75*
G02*
X104568750Y-119525000I218750J0D01*
G01*
X105006250Y-119525000D01*
G75*
G02*
X105225000Y-119743750I0J-218750D01*
G01*
X105225000Y-120256250D01*
G75*
G02*
X105006250Y-120475000I-218750J0D01*
G01*
X104568750Y-120475000D01*
G75*
G02*
X104350000Y-120256250I0J218750D01*
G01*
G37*
G36*
G01*
X104350000Y-116256250D02*
X104350000Y-115743750D01*
G75*
G02*
X104568750Y-115525000I218750J0D01*
G01*
X105006250Y-115525000D01*
G75*
G02*
X105225000Y-115743750I0J-218750D01*
G01*
X105225000Y-116256250D01*
G75*
G02*
X105006250Y-116475000I-218750J0D01*
G01*
X104568750Y-116475000D01*
G75*
G02*
X104350000Y-116256250I0J218750D01*
G01*
G37*
G36*
G01*
X102775000Y-116256250D02*
X102775000Y-115743750D01*
G75*
G02*
X102993750Y-115525000I218750J0D01*
G01*
X103431250Y-115525000D01*
G75*
G02*
X103650000Y-115743750I0J-218750D01*
G01*
X103650000Y-116256250D01*
G75*
G02*
X103431250Y-116475000I-218750J0D01*
G01*
X102993750Y-116475000D01*
G75*
G02*
X102775000Y-116256250I0J218750D01*
G01*
G37*
G36*
G01*
X102759000Y-112256250D02*
X102759000Y-111743750D01*
G75*
G02*
X102977750Y-111525000I218750J0D01*
G01*
X103415250Y-111525000D01*
G75*
G02*
X103634000Y-111743750I0J-218750D01*
G01*
X103634000Y-112256250D01*
G75*
G02*
X103415250Y-112475000I-218750J0D01*
G01*
X102977750Y-112475000D01*
G75*
G02*
X102759000Y-112256250I0J218750D01*
G01*
G37*
G36*
G01*
X104334000Y-112256250D02*
X104334000Y-111743750D01*
G75*
G02*
X104552750Y-111525000I218750J0D01*
G01*
X104990250Y-111525000D01*
G75*
G02*
X105209000Y-111743750I0J-218750D01*
G01*
X105209000Y-112256250D01*
G75*
G02*
X104990250Y-112475000I-218750J0D01*
G01*
X104552750Y-112475000D01*
G75*
G02*
X104334000Y-112256250I0J218750D01*
G01*
G37*
G36*
G01*
X98775000Y-140256250D02*
X98775000Y-139743750D01*
G75*
G02*
X98993750Y-139525000I218750J0D01*
G01*
X99431250Y-139525000D01*
G75*
G02*
X99650000Y-139743750I0J-218750D01*
G01*
X99650000Y-140256250D01*
G75*
G02*
X99431250Y-140475000I-218750J0D01*
G01*
X98993750Y-140475000D01*
G75*
G02*
X98775000Y-140256250I0J218750D01*
G01*
G37*
G36*
G01*
X100350000Y-140256250D02*
X100350000Y-139743750D01*
G75*
G02*
X100568750Y-139525000I218750J0D01*
G01*
X101006250Y-139525000D01*
G75*
G02*
X101225000Y-139743750I0J-218750D01*
G01*
X101225000Y-140256250D01*
G75*
G02*
X101006250Y-140475000I-218750J0D01*
G01*
X100568750Y-140475000D01*
G75*
G02*
X100350000Y-140256250I0J218750D01*
G01*
G37*
G36*
G01*
X98775000Y-136256250D02*
X98775000Y-135743750D01*
G75*
G02*
X98993750Y-135525000I218750J0D01*
G01*
X99431250Y-135525000D01*
G75*
G02*
X99650000Y-135743750I0J-218750D01*
G01*
X99650000Y-136256250D01*
G75*
G02*
X99431250Y-136475000I-218750J0D01*
G01*
X98993750Y-136475000D01*
G75*
G02*
X98775000Y-136256250I0J218750D01*
G01*
G37*
G36*
G01*
X100350000Y-136256250D02*
X100350000Y-135743750D01*
G75*
G02*
X100568750Y-135525000I218750J0D01*
G01*
X101006250Y-135525000D01*
G75*
G02*
X101225000Y-135743750I0J-218750D01*
G01*
X101225000Y-136256250D01*
G75*
G02*
X101006250Y-136475000I-218750J0D01*
G01*
X100568750Y-136475000D01*
G75*
G02*
X100350000Y-136256250I0J218750D01*
G01*
G37*
G36*
G01*
X98775000Y-132256250D02*
X98775000Y-131743750D01*
G75*
G02*
X98993750Y-131525000I218750J0D01*
G01*
X99431250Y-131525000D01*
G75*
G02*
X99650000Y-131743750I0J-218750D01*
G01*
X99650000Y-132256250D01*
G75*
G02*
X99431250Y-132475000I-218750J0D01*
G01*
X98993750Y-132475000D01*
G75*
G02*
X98775000Y-132256250I0J218750D01*
G01*
G37*
G36*
G01*
X100350000Y-132256250D02*
X100350000Y-131743750D01*
G75*
G02*
X100568750Y-131525000I218750J0D01*
G01*
X101006250Y-131525000D01*
G75*
G02*
X101225000Y-131743750I0J-218750D01*
G01*
X101225000Y-132256250D01*
G75*
G02*
X101006250Y-132475000I-218750J0D01*
G01*
X100568750Y-132475000D01*
G75*
G02*
X100350000Y-132256250I0J218750D01*
G01*
G37*
G36*
G01*
X98775000Y-128256250D02*
X98775000Y-127743750D01*
G75*
G02*
X98993750Y-127525000I218750J0D01*
G01*
X99431250Y-127525000D01*
G75*
G02*
X99650000Y-127743750I0J-218750D01*
G01*
X99650000Y-128256250D01*
G75*
G02*
X99431250Y-128475000I-218750J0D01*
G01*
X98993750Y-128475000D01*
G75*
G02*
X98775000Y-128256250I0J218750D01*
G01*
G37*
G36*
G01*
X100350000Y-128256250D02*
X100350000Y-127743750D01*
G75*
G02*
X100568750Y-127525000I218750J0D01*
G01*
X101006250Y-127525000D01*
G75*
G02*
X101225000Y-127743750I0J-218750D01*
G01*
X101225000Y-128256250D01*
G75*
G02*
X101006250Y-128475000I-218750J0D01*
G01*
X100568750Y-128475000D01*
G75*
G02*
X100350000Y-128256250I0J218750D01*
G01*
G37*
G36*
G01*
X98775000Y-124256250D02*
X98775000Y-123743750D01*
G75*
G02*
X98993750Y-123525000I218750J0D01*
G01*
X99431250Y-123525000D01*
G75*
G02*
X99650000Y-123743750I0J-218750D01*
G01*
X99650000Y-124256250D01*
G75*
G02*
X99431250Y-124475000I-218750J0D01*
G01*
X98993750Y-124475000D01*
G75*
G02*
X98775000Y-124256250I0J218750D01*
G01*
G37*
G36*
G01*
X100350000Y-124256250D02*
X100350000Y-123743750D01*
G75*
G02*
X100568750Y-123525000I218750J0D01*
G01*
X101006250Y-123525000D01*
G75*
G02*
X101225000Y-123743750I0J-218750D01*
G01*
X101225000Y-124256250D01*
G75*
G02*
X101006250Y-124475000I-218750J0D01*
G01*
X100568750Y-124475000D01*
G75*
G02*
X100350000Y-124256250I0J218750D01*
G01*
G37*
G36*
G01*
X98775000Y-120256250D02*
X98775000Y-119743750D01*
G75*
G02*
X98993750Y-119525000I218750J0D01*
G01*
X99431250Y-119525000D01*
G75*
G02*
X99650000Y-119743750I0J-218750D01*
G01*
X99650000Y-120256250D01*
G75*
G02*
X99431250Y-120475000I-218750J0D01*
G01*
X98993750Y-120475000D01*
G75*
G02*
X98775000Y-120256250I0J218750D01*
G01*
G37*
G36*
G01*
X100350000Y-120256250D02*
X100350000Y-119743750D01*
G75*
G02*
X100568750Y-119525000I218750J0D01*
G01*
X101006250Y-119525000D01*
G75*
G02*
X101225000Y-119743750I0J-218750D01*
G01*
X101225000Y-120256250D01*
G75*
G02*
X101006250Y-120475000I-218750J0D01*
G01*
X100568750Y-120475000D01*
G75*
G02*
X100350000Y-120256250I0J218750D01*
G01*
G37*
G36*
G01*
X100350000Y-116256250D02*
X100350000Y-115743750D01*
G75*
G02*
X100568750Y-115525000I218750J0D01*
G01*
X101006250Y-115525000D01*
G75*
G02*
X101225000Y-115743750I0J-218750D01*
G01*
X101225000Y-116256250D01*
G75*
G02*
X101006250Y-116475000I-218750J0D01*
G01*
X100568750Y-116475000D01*
G75*
G02*
X100350000Y-116256250I0J218750D01*
G01*
G37*
G36*
G01*
X98775000Y-116256250D02*
X98775000Y-115743750D01*
G75*
G02*
X98993750Y-115525000I218750J0D01*
G01*
X99431250Y-115525000D01*
G75*
G02*
X99650000Y-115743750I0J-218750D01*
G01*
X99650000Y-116256250D01*
G75*
G02*
X99431250Y-116475000I-218750J0D01*
G01*
X98993750Y-116475000D01*
G75*
G02*
X98775000Y-116256250I0J218750D01*
G01*
G37*
G36*
G01*
X98775000Y-112256250D02*
X98775000Y-111743750D01*
G75*
G02*
X98993750Y-111525000I218750J0D01*
G01*
X99431250Y-111525000D01*
G75*
G02*
X99650000Y-111743750I0J-218750D01*
G01*
X99650000Y-112256250D01*
G75*
G02*
X99431250Y-112475000I-218750J0D01*
G01*
X98993750Y-112475000D01*
G75*
G02*
X98775000Y-112256250I0J218750D01*
G01*
G37*
G36*
G01*
X100350000Y-112256250D02*
X100350000Y-111743750D01*
G75*
G02*
X100568750Y-111525000I218750J0D01*
G01*
X101006250Y-111525000D01*
G75*
G02*
X101225000Y-111743750I0J-218750D01*
G01*
X101225000Y-112256250D01*
G75*
G02*
X101006250Y-112475000I-218750J0D01*
G01*
X100568750Y-112475000D01*
G75*
G02*
X100350000Y-112256250I0J218750D01*
G01*
G37*
G36*
G01*
X94775000Y-140256250D02*
X94775000Y-139743750D01*
G75*
G02*
X94993750Y-139525000I218750J0D01*
G01*
X95431250Y-139525000D01*
G75*
G02*
X95650000Y-139743750I0J-218750D01*
G01*
X95650000Y-140256250D01*
G75*
G02*
X95431250Y-140475000I-218750J0D01*
G01*
X94993750Y-140475000D01*
G75*
G02*
X94775000Y-140256250I0J218750D01*
G01*
G37*
G36*
G01*
X96350000Y-140256250D02*
X96350000Y-139743750D01*
G75*
G02*
X96568750Y-139525000I218750J0D01*
G01*
X97006250Y-139525000D01*
G75*
G02*
X97225000Y-139743750I0J-218750D01*
G01*
X97225000Y-140256250D01*
G75*
G02*
X97006250Y-140475000I-218750J0D01*
G01*
X96568750Y-140475000D01*
G75*
G02*
X96350000Y-140256250I0J218750D01*
G01*
G37*
G36*
G01*
X94775000Y-136256250D02*
X94775000Y-135743750D01*
G75*
G02*
X94993750Y-135525000I218750J0D01*
G01*
X95431250Y-135525000D01*
G75*
G02*
X95650000Y-135743750I0J-218750D01*
G01*
X95650000Y-136256250D01*
G75*
G02*
X95431250Y-136475000I-218750J0D01*
G01*
X94993750Y-136475000D01*
G75*
G02*
X94775000Y-136256250I0J218750D01*
G01*
G37*
G36*
G01*
X96350000Y-136256250D02*
X96350000Y-135743750D01*
G75*
G02*
X96568750Y-135525000I218750J0D01*
G01*
X97006250Y-135525000D01*
G75*
G02*
X97225000Y-135743750I0J-218750D01*
G01*
X97225000Y-136256250D01*
G75*
G02*
X97006250Y-136475000I-218750J0D01*
G01*
X96568750Y-136475000D01*
G75*
G02*
X96350000Y-136256250I0J218750D01*
G01*
G37*
G36*
G01*
X94775000Y-132256250D02*
X94775000Y-131743750D01*
G75*
G02*
X94993750Y-131525000I218750J0D01*
G01*
X95431250Y-131525000D01*
G75*
G02*
X95650000Y-131743750I0J-218750D01*
G01*
X95650000Y-132256250D01*
G75*
G02*
X95431250Y-132475000I-218750J0D01*
G01*
X94993750Y-132475000D01*
G75*
G02*
X94775000Y-132256250I0J218750D01*
G01*
G37*
G36*
G01*
X96350000Y-132256250D02*
X96350000Y-131743750D01*
G75*
G02*
X96568750Y-131525000I218750J0D01*
G01*
X97006250Y-131525000D01*
G75*
G02*
X97225000Y-131743750I0J-218750D01*
G01*
X97225000Y-132256250D01*
G75*
G02*
X97006250Y-132475000I-218750J0D01*
G01*
X96568750Y-132475000D01*
G75*
G02*
X96350000Y-132256250I0J218750D01*
G01*
G37*
G36*
G01*
X94775000Y-128256250D02*
X94775000Y-127743750D01*
G75*
G02*
X94993750Y-127525000I218750J0D01*
G01*
X95431250Y-127525000D01*
G75*
G02*
X95650000Y-127743750I0J-218750D01*
G01*
X95650000Y-128256250D01*
G75*
G02*
X95431250Y-128475000I-218750J0D01*
G01*
X94993750Y-128475000D01*
G75*
G02*
X94775000Y-128256250I0J218750D01*
G01*
G37*
G36*
G01*
X96350000Y-128256250D02*
X96350000Y-127743750D01*
G75*
G02*
X96568750Y-127525000I218750J0D01*
G01*
X97006250Y-127525000D01*
G75*
G02*
X97225000Y-127743750I0J-218750D01*
G01*
X97225000Y-128256250D01*
G75*
G02*
X97006250Y-128475000I-218750J0D01*
G01*
X96568750Y-128475000D01*
G75*
G02*
X96350000Y-128256250I0J218750D01*
G01*
G37*
G36*
G01*
X94775000Y-124256250D02*
X94775000Y-123743750D01*
G75*
G02*
X94993750Y-123525000I218750J0D01*
G01*
X95431250Y-123525000D01*
G75*
G02*
X95650000Y-123743750I0J-218750D01*
G01*
X95650000Y-124256250D01*
G75*
G02*
X95431250Y-124475000I-218750J0D01*
G01*
X94993750Y-124475000D01*
G75*
G02*
X94775000Y-124256250I0J218750D01*
G01*
G37*
G36*
G01*
X96350000Y-124256250D02*
X96350000Y-123743750D01*
G75*
G02*
X96568750Y-123525000I218750J0D01*
G01*
X97006250Y-123525000D01*
G75*
G02*
X97225000Y-123743750I0J-218750D01*
G01*
X97225000Y-124256250D01*
G75*
G02*
X97006250Y-124475000I-218750J0D01*
G01*
X96568750Y-124475000D01*
G75*
G02*
X96350000Y-124256250I0J218750D01*
G01*
G37*
G36*
G01*
X94775000Y-120256250D02*
X94775000Y-119743750D01*
G75*
G02*
X94993750Y-119525000I218750J0D01*
G01*
X95431250Y-119525000D01*
G75*
G02*
X95650000Y-119743750I0J-218750D01*
G01*
X95650000Y-120256250D01*
G75*
G02*
X95431250Y-120475000I-218750J0D01*
G01*
X94993750Y-120475000D01*
G75*
G02*
X94775000Y-120256250I0J218750D01*
G01*
G37*
G36*
G01*
X96350000Y-120256250D02*
X96350000Y-119743750D01*
G75*
G02*
X96568750Y-119525000I218750J0D01*
G01*
X97006250Y-119525000D01*
G75*
G02*
X97225000Y-119743750I0J-218750D01*
G01*
X97225000Y-120256250D01*
G75*
G02*
X97006250Y-120475000I-218750J0D01*
G01*
X96568750Y-120475000D01*
G75*
G02*
X96350000Y-120256250I0J218750D01*
G01*
G37*
G36*
G01*
X96350000Y-116256250D02*
X96350000Y-115743750D01*
G75*
G02*
X96568750Y-115525000I218750J0D01*
G01*
X97006250Y-115525000D01*
G75*
G02*
X97225000Y-115743750I0J-218750D01*
G01*
X97225000Y-116256250D01*
G75*
G02*
X97006250Y-116475000I-218750J0D01*
G01*
X96568750Y-116475000D01*
G75*
G02*
X96350000Y-116256250I0J218750D01*
G01*
G37*
G36*
G01*
X94775000Y-116256250D02*
X94775000Y-115743750D01*
G75*
G02*
X94993750Y-115525000I218750J0D01*
G01*
X95431250Y-115525000D01*
G75*
G02*
X95650000Y-115743750I0J-218750D01*
G01*
X95650000Y-116256250D01*
G75*
G02*
X95431250Y-116475000I-218750J0D01*
G01*
X94993750Y-116475000D01*
G75*
G02*
X94775000Y-116256250I0J218750D01*
G01*
G37*
G36*
G01*
X94775000Y-112256250D02*
X94775000Y-111743750D01*
G75*
G02*
X94993750Y-111525000I218750J0D01*
G01*
X95431250Y-111525000D01*
G75*
G02*
X95650000Y-111743750I0J-218750D01*
G01*
X95650000Y-112256250D01*
G75*
G02*
X95431250Y-112475000I-218750J0D01*
G01*
X94993750Y-112475000D01*
G75*
G02*
X94775000Y-112256250I0J218750D01*
G01*
G37*
G36*
G01*
X96350000Y-112256250D02*
X96350000Y-111743750D01*
G75*
G02*
X96568750Y-111525000I218750J0D01*
G01*
X97006250Y-111525000D01*
G75*
G02*
X97225000Y-111743750I0J-218750D01*
G01*
X97225000Y-112256250D01*
G75*
G02*
X97006250Y-112475000I-218750J0D01*
G01*
X96568750Y-112475000D01*
G75*
G02*
X96350000Y-112256250I0J218750D01*
G01*
G37*
G36*
G01*
X90775000Y-140256250D02*
X90775000Y-139743750D01*
G75*
G02*
X90993750Y-139525000I218750J0D01*
G01*
X91431250Y-139525000D01*
G75*
G02*
X91650000Y-139743750I0J-218750D01*
G01*
X91650000Y-140256250D01*
G75*
G02*
X91431250Y-140475000I-218750J0D01*
G01*
X90993750Y-140475000D01*
G75*
G02*
X90775000Y-140256250I0J218750D01*
G01*
G37*
G36*
G01*
X92350000Y-140256250D02*
X92350000Y-139743750D01*
G75*
G02*
X92568750Y-139525000I218750J0D01*
G01*
X93006250Y-139525000D01*
G75*
G02*
X93225000Y-139743750I0J-218750D01*
G01*
X93225000Y-140256250D01*
G75*
G02*
X93006250Y-140475000I-218750J0D01*
G01*
X92568750Y-140475000D01*
G75*
G02*
X92350000Y-140256250I0J218750D01*
G01*
G37*
G36*
G01*
X90775000Y-136256250D02*
X90775000Y-135743750D01*
G75*
G02*
X90993750Y-135525000I218750J0D01*
G01*
X91431250Y-135525000D01*
G75*
G02*
X91650000Y-135743750I0J-218750D01*
G01*
X91650000Y-136256250D01*
G75*
G02*
X91431250Y-136475000I-218750J0D01*
G01*
X90993750Y-136475000D01*
G75*
G02*
X90775000Y-136256250I0J218750D01*
G01*
G37*
G36*
G01*
X92350000Y-136256250D02*
X92350000Y-135743750D01*
G75*
G02*
X92568750Y-135525000I218750J0D01*
G01*
X93006250Y-135525000D01*
G75*
G02*
X93225000Y-135743750I0J-218750D01*
G01*
X93225000Y-136256250D01*
G75*
G02*
X93006250Y-136475000I-218750J0D01*
G01*
X92568750Y-136475000D01*
G75*
G02*
X92350000Y-136256250I0J218750D01*
G01*
G37*
G36*
G01*
X90775000Y-132256250D02*
X90775000Y-131743750D01*
G75*
G02*
X90993750Y-131525000I218750J0D01*
G01*
X91431250Y-131525000D01*
G75*
G02*
X91650000Y-131743750I0J-218750D01*
G01*
X91650000Y-132256250D01*
G75*
G02*
X91431250Y-132475000I-218750J0D01*
G01*
X90993750Y-132475000D01*
G75*
G02*
X90775000Y-132256250I0J218750D01*
G01*
G37*
G36*
G01*
X92350000Y-132256250D02*
X92350000Y-131743750D01*
G75*
G02*
X92568750Y-131525000I218750J0D01*
G01*
X93006250Y-131525000D01*
G75*
G02*
X93225000Y-131743750I0J-218750D01*
G01*
X93225000Y-132256250D01*
G75*
G02*
X93006250Y-132475000I-218750J0D01*
G01*
X92568750Y-132475000D01*
G75*
G02*
X92350000Y-132256250I0J218750D01*
G01*
G37*
G36*
G01*
X90775000Y-128256250D02*
X90775000Y-127743750D01*
G75*
G02*
X90993750Y-127525000I218750J0D01*
G01*
X91431250Y-127525000D01*
G75*
G02*
X91650000Y-127743750I0J-218750D01*
G01*
X91650000Y-128256250D01*
G75*
G02*
X91431250Y-128475000I-218750J0D01*
G01*
X90993750Y-128475000D01*
G75*
G02*
X90775000Y-128256250I0J218750D01*
G01*
G37*
G36*
G01*
X92350000Y-128256250D02*
X92350000Y-127743750D01*
G75*
G02*
X92568750Y-127525000I218750J0D01*
G01*
X93006250Y-127525000D01*
G75*
G02*
X93225000Y-127743750I0J-218750D01*
G01*
X93225000Y-128256250D01*
G75*
G02*
X93006250Y-128475000I-218750J0D01*
G01*
X92568750Y-128475000D01*
G75*
G02*
X92350000Y-128256250I0J218750D01*
G01*
G37*
G36*
G01*
X90775000Y-124256250D02*
X90775000Y-123743750D01*
G75*
G02*
X90993750Y-123525000I218750J0D01*
G01*
X91431250Y-123525000D01*
G75*
G02*
X91650000Y-123743750I0J-218750D01*
G01*
X91650000Y-124256250D01*
G75*
G02*
X91431250Y-124475000I-218750J0D01*
G01*
X90993750Y-124475000D01*
G75*
G02*
X90775000Y-124256250I0J218750D01*
G01*
G37*
G36*
G01*
X92350000Y-124256250D02*
X92350000Y-123743750D01*
G75*
G02*
X92568750Y-123525000I218750J0D01*
G01*
X93006250Y-123525000D01*
G75*
G02*
X93225000Y-123743750I0J-218750D01*
G01*
X93225000Y-124256250D01*
G75*
G02*
X93006250Y-124475000I-218750J0D01*
G01*
X92568750Y-124475000D01*
G75*
G02*
X92350000Y-124256250I0J218750D01*
G01*
G37*
G36*
G01*
X90775000Y-120256250D02*
X90775000Y-119743750D01*
G75*
G02*
X90993750Y-119525000I218750J0D01*
G01*
X91431250Y-119525000D01*
G75*
G02*
X91650000Y-119743750I0J-218750D01*
G01*
X91650000Y-120256250D01*
G75*
G02*
X91431250Y-120475000I-218750J0D01*
G01*
X90993750Y-120475000D01*
G75*
G02*
X90775000Y-120256250I0J218750D01*
G01*
G37*
G36*
G01*
X92350000Y-120256250D02*
X92350000Y-119743750D01*
G75*
G02*
X92568750Y-119525000I218750J0D01*
G01*
X93006250Y-119525000D01*
G75*
G02*
X93225000Y-119743750I0J-218750D01*
G01*
X93225000Y-120256250D01*
G75*
G02*
X93006250Y-120475000I-218750J0D01*
G01*
X92568750Y-120475000D01*
G75*
G02*
X92350000Y-120256250I0J218750D01*
G01*
G37*
G36*
G01*
X92350000Y-116256250D02*
X92350000Y-115743750D01*
G75*
G02*
X92568750Y-115525000I218750J0D01*
G01*
X93006250Y-115525000D01*
G75*
G02*
X93225000Y-115743750I0J-218750D01*
G01*
X93225000Y-116256250D01*
G75*
G02*
X93006250Y-116475000I-218750J0D01*
G01*
X92568750Y-116475000D01*
G75*
G02*
X92350000Y-116256250I0J218750D01*
G01*
G37*
G36*
G01*
X90775000Y-116256250D02*
X90775000Y-115743750D01*
G75*
G02*
X90993750Y-115525000I218750J0D01*
G01*
X91431250Y-115525000D01*
G75*
G02*
X91650000Y-115743750I0J-218750D01*
G01*
X91650000Y-116256250D01*
G75*
G02*
X91431250Y-116475000I-218750J0D01*
G01*
X90993750Y-116475000D01*
G75*
G02*
X90775000Y-116256250I0J218750D01*
G01*
G37*
G36*
G01*
X90775000Y-112256250D02*
X90775000Y-111743750D01*
G75*
G02*
X90993750Y-111525000I218750J0D01*
G01*
X91431250Y-111525000D01*
G75*
G02*
X91650000Y-111743750I0J-218750D01*
G01*
X91650000Y-112256250D01*
G75*
G02*
X91431250Y-112475000I-218750J0D01*
G01*
X90993750Y-112475000D01*
G75*
G02*
X90775000Y-112256250I0J218750D01*
G01*
G37*
G36*
G01*
X92350000Y-112256250D02*
X92350000Y-111743750D01*
G75*
G02*
X92568750Y-111525000I218750J0D01*
G01*
X93006250Y-111525000D01*
G75*
G02*
X93225000Y-111743750I0J-218750D01*
G01*
X93225000Y-112256250D01*
G75*
G02*
X93006250Y-112475000I-218750J0D01*
G01*
X92568750Y-112475000D01*
G75*
G02*
X92350000Y-112256250I0J218750D01*
G01*
G37*
G36*
G01*
X86775000Y-140256250D02*
X86775000Y-139743750D01*
G75*
G02*
X86993750Y-139525000I218750J0D01*
G01*
X87431250Y-139525000D01*
G75*
G02*
X87650000Y-139743750I0J-218750D01*
G01*
X87650000Y-140256250D01*
G75*
G02*
X87431250Y-140475000I-218750J0D01*
G01*
X86993750Y-140475000D01*
G75*
G02*
X86775000Y-140256250I0J218750D01*
G01*
G37*
G36*
G01*
X88350000Y-140256250D02*
X88350000Y-139743750D01*
G75*
G02*
X88568750Y-139525000I218750J0D01*
G01*
X89006250Y-139525000D01*
G75*
G02*
X89225000Y-139743750I0J-218750D01*
G01*
X89225000Y-140256250D01*
G75*
G02*
X89006250Y-140475000I-218750J0D01*
G01*
X88568750Y-140475000D01*
G75*
G02*
X88350000Y-140256250I0J218750D01*
G01*
G37*
G36*
G01*
X86775000Y-136256250D02*
X86775000Y-135743750D01*
G75*
G02*
X86993750Y-135525000I218750J0D01*
G01*
X87431250Y-135525000D01*
G75*
G02*
X87650000Y-135743750I0J-218750D01*
G01*
X87650000Y-136256250D01*
G75*
G02*
X87431250Y-136475000I-218750J0D01*
G01*
X86993750Y-136475000D01*
G75*
G02*
X86775000Y-136256250I0J218750D01*
G01*
G37*
G36*
G01*
X88350000Y-136256250D02*
X88350000Y-135743750D01*
G75*
G02*
X88568750Y-135525000I218750J0D01*
G01*
X89006250Y-135525000D01*
G75*
G02*
X89225000Y-135743750I0J-218750D01*
G01*
X89225000Y-136256250D01*
G75*
G02*
X89006250Y-136475000I-218750J0D01*
G01*
X88568750Y-136475000D01*
G75*
G02*
X88350000Y-136256250I0J218750D01*
G01*
G37*
G36*
G01*
X86775000Y-132256250D02*
X86775000Y-131743750D01*
G75*
G02*
X86993750Y-131525000I218750J0D01*
G01*
X87431250Y-131525000D01*
G75*
G02*
X87650000Y-131743750I0J-218750D01*
G01*
X87650000Y-132256250D01*
G75*
G02*
X87431250Y-132475000I-218750J0D01*
G01*
X86993750Y-132475000D01*
G75*
G02*
X86775000Y-132256250I0J218750D01*
G01*
G37*
G36*
G01*
X88350000Y-132256250D02*
X88350000Y-131743750D01*
G75*
G02*
X88568750Y-131525000I218750J0D01*
G01*
X89006250Y-131525000D01*
G75*
G02*
X89225000Y-131743750I0J-218750D01*
G01*
X89225000Y-132256250D01*
G75*
G02*
X89006250Y-132475000I-218750J0D01*
G01*
X88568750Y-132475000D01*
G75*
G02*
X88350000Y-132256250I0J218750D01*
G01*
G37*
G36*
G01*
X86775000Y-128256250D02*
X86775000Y-127743750D01*
G75*
G02*
X86993750Y-127525000I218750J0D01*
G01*
X87431250Y-127525000D01*
G75*
G02*
X87650000Y-127743750I0J-218750D01*
G01*
X87650000Y-128256250D01*
G75*
G02*
X87431250Y-128475000I-218750J0D01*
G01*
X86993750Y-128475000D01*
G75*
G02*
X86775000Y-128256250I0J218750D01*
G01*
G37*
G36*
G01*
X88350000Y-128256250D02*
X88350000Y-127743750D01*
G75*
G02*
X88568750Y-127525000I218750J0D01*
G01*
X89006250Y-127525000D01*
G75*
G02*
X89225000Y-127743750I0J-218750D01*
G01*
X89225000Y-128256250D01*
G75*
G02*
X89006250Y-128475000I-218750J0D01*
G01*
X88568750Y-128475000D01*
G75*
G02*
X88350000Y-128256250I0J218750D01*
G01*
G37*
G36*
G01*
X86775000Y-124256250D02*
X86775000Y-123743750D01*
G75*
G02*
X86993750Y-123525000I218750J0D01*
G01*
X87431250Y-123525000D01*
G75*
G02*
X87650000Y-123743750I0J-218750D01*
G01*
X87650000Y-124256250D01*
G75*
G02*
X87431250Y-124475000I-218750J0D01*
G01*
X86993750Y-124475000D01*
G75*
G02*
X86775000Y-124256250I0J218750D01*
G01*
G37*
G36*
G01*
X88350000Y-124256250D02*
X88350000Y-123743750D01*
G75*
G02*
X88568750Y-123525000I218750J0D01*
G01*
X89006250Y-123525000D01*
G75*
G02*
X89225000Y-123743750I0J-218750D01*
G01*
X89225000Y-124256250D01*
G75*
G02*
X89006250Y-124475000I-218750J0D01*
G01*
X88568750Y-124475000D01*
G75*
G02*
X88350000Y-124256250I0J218750D01*
G01*
G37*
G36*
G01*
X86775000Y-120256250D02*
X86775000Y-119743750D01*
G75*
G02*
X86993750Y-119525000I218750J0D01*
G01*
X87431250Y-119525000D01*
G75*
G02*
X87650000Y-119743750I0J-218750D01*
G01*
X87650000Y-120256250D01*
G75*
G02*
X87431250Y-120475000I-218750J0D01*
G01*
X86993750Y-120475000D01*
G75*
G02*
X86775000Y-120256250I0J218750D01*
G01*
G37*
G36*
G01*
X88350000Y-120256250D02*
X88350000Y-119743750D01*
G75*
G02*
X88568750Y-119525000I218750J0D01*
G01*
X89006250Y-119525000D01*
G75*
G02*
X89225000Y-119743750I0J-218750D01*
G01*
X89225000Y-120256250D01*
G75*
G02*
X89006250Y-120475000I-218750J0D01*
G01*
X88568750Y-120475000D01*
G75*
G02*
X88350000Y-120256250I0J218750D01*
G01*
G37*
G36*
G01*
X88350000Y-116256250D02*
X88350000Y-115743750D01*
G75*
G02*
X88568750Y-115525000I218750J0D01*
G01*
X89006250Y-115525000D01*
G75*
G02*
X89225000Y-115743750I0J-218750D01*
G01*
X89225000Y-116256250D01*
G75*
G02*
X89006250Y-116475000I-218750J0D01*
G01*
X88568750Y-116475000D01*
G75*
G02*
X88350000Y-116256250I0J218750D01*
G01*
G37*
G36*
G01*
X86775000Y-116256250D02*
X86775000Y-115743750D01*
G75*
G02*
X86993750Y-115525000I218750J0D01*
G01*
X87431250Y-115525000D01*
G75*
G02*
X87650000Y-115743750I0J-218750D01*
G01*
X87650000Y-116256250D01*
G75*
G02*
X87431250Y-116475000I-218750J0D01*
G01*
X86993750Y-116475000D01*
G75*
G02*
X86775000Y-116256250I0J218750D01*
G01*
G37*
G36*
G01*
X86775000Y-112256250D02*
X86775000Y-111743750D01*
G75*
G02*
X86993750Y-111525000I218750J0D01*
G01*
X87431250Y-111525000D01*
G75*
G02*
X87650000Y-111743750I0J-218750D01*
G01*
X87650000Y-112256250D01*
G75*
G02*
X87431250Y-112475000I-218750J0D01*
G01*
X86993750Y-112475000D01*
G75*
G02*
X86775000Y-112256250I0J218750D01*
G01*
G37*
G36*
G01*
X88350000Y-112256250D02*
X88350000Y-111743750D01*
G75*
G02*
X88568750Y-111525000I218750J0D01*
G01*
X89006250Y-111525000D01*
G75*
G02*
X89225000Y-111743750I0J-218750D01*
G01*
X89225000Y-112256250D01*
G75*
G02*
X89006250Y-112475000I-218750J0D01*
G01*
X88568750Y-112475000D01*
G75*
G02*
X88350000Y-112256250I0J218750D01*
G01*
G37*
G36*
G01*
X82775000Y-140256250D02*
X82775000Y-139743750D01*
G75*
G02*
X82993750Y-139525000I218750J0D01*
G01*
X83431250Y-139525000D01*
G75*
G02*
X83650000Y-139743750I0J-218750D01*
G01*
X83650000Y-140256250D01*
G75*
G02*
X83431250Y-140475000I-218750J0D01*
G01*
X82993750Y-140475000D01*
G75*
G02*
X82775000Y-140256250I0J218750D01*
G01*
G37*
G36*
G01*
X84350000Y-140256250D02*
X84350000Y-139743750D01*
G75*
G02*
X84568750Y-139525000I218750J0D01*
G01*
X85006250Y-139525000D01*
G75*
G02*
X85225000Y-139743750I0J-218750D01*
G01*
X85225000Y-140256250D01*
G75*
G02*
X85006250Y-140475000I-218750J0D01*
G01*
X84568750Y-140475000D01*
G75*
G02*
X84350000Y-140256250I0J218750D01*
G01*
G37*
G36*
G01*
X82775000Y-136256250D02*
X82775000Y-135743750D01*
G75*
G02*
X82993750Y-135525000I218750J0D01*
G01*
X83431250Y-135525000D01*
G75*
G02*
X83650000Y-135743750I0J-218750D01*
G01*
X83650000Y-136256250D01*
G75*
G02*
X83431250Y-136475000I-218750J0D01*
G01*
X82993750Y-136475000D01*
G75*
G02*
X82775000Y-136256250I0J218750D01*
G01*
G37*
G36*
G01*
X84350000Y-136256250D02*
X84350000Y-135743750D01*
G75*
G02*
X84568750Y-135525000I218750J0D01*
G01*
X85006250Y-135525000D01*
G75*
G02*
X85225000Y-135743750I0J-218750D01*
G01*
X85225000Y-136256250D01*
G75*
G02*
X85006250Y-136475000I-218750J0D01*
G01*
X84568750Y-136475000D01*
G75*
G02*
X84350000Y-136256250I0J218750D01*
G01*
G37*
G36*
G01*
X82775000Y-132256250D02*
X82775000Y-131743750D01*
G75*
G02*
X82993750Y-131525000I218750J0D01*
G01*
X83431250Y-131525000D01*
G75*
G02*
X83650000Y-131743750I0J-218750D01*
G01*
X83650000Y-132256250D01*
G75*
G02*
X83431250Y-132475000I-218750J0D01*
G01*
X82993750Y-132475000D01*
G75*
G02*
X82775000Y-132256250I0J218750D01*
G01*
G37*
G36*
G01*
X84350000Y-132256250D02*
X84350000Y-131743750D01*
G75*
G02*
X84568750Y-131525000I218750J0D01*
G01*
X85006250Y-131525000D01*
G75*
G02*
X85225000Y-131743750I0J-218750D01*
G01*
X85225000Y-132256250D01*
G75*
G02*
X85006250Y-132475000I-218750J0D01*
G01*
X84568750Y-132475000D01*
G75*
G02*
X84350000Y-132256250I0J218750D01*
G01*
G37*
G36*
G01*
X82775000Y-128256250D02*
X82775000Y-127743750D01*
G75*
G02*
X82993750Y-127525000I218750J0D01*
G01*
X83431250Y-127525000D01*
G75*
G02*
X83650000Y-127743750I0J-218750D01*
G01*
X83650000Y-128256250D01*
G75*
G02*
X83431250Y-128475000I-218750J0D01*
G01*
X82993750Y-128475000D01*
G75*
G02*
X82775000Y-128256250I0J218750D01*
G01*
G37*
G36*
G01*
X84350000Y-128256250D02*
X84350000Y-127743750D01*
G75*
G02*
X84568750Y-127525000I218750J0D01*
G01*
X85006250Y-127525000D01*
G75*
G02*
X85225000Y-127743750I0J-218750D01*
G01*
X85225000Y-128256250D01*
G75*
G02*
X85006250Y-128475000I-218750J0D01*
G01*
X84568750Y-128475000D01*
G75*
G02*
X84350000Y-128256250I0J218750D01*
G01*
G37*
G36*
G01*
X82775000Y-124256250D02*
X82775000Y-123743750D01*
G75*
G02*
X82993750Y-123525000I218750J0D01*
G01*
X83431250Y-123525000D01*
G75*
G02*
X83650000Y-123743750I0J-218750D01*
G01*
X83650000Y-124256250D01*
G75*
G02*
X83431250Y-124475000I-218750J0D01*
G01*
X82993750Y-124475000D01*
G75*
G02*
X82775000Y-124256250I0J218750D01*
G01*
G37*
G36*
G01*
X84350000Y-124256250D02*
X84350000Y-123743750D01*
G75*
G02*
X84568750Y-123525000I218750J0D01*
G01*
X85006250Y-123525000D01*
G75*
G02*
X85225000Y-123743750I0J-218750D01*
G01*
X85225000Y-124256250D01*
G75*
G02*
X85006250Y-124475000I-218750J0D01*
G01*
X84568750Y-124475000D01*
G75*
G02*
X84350000Y-124256250I0J218750D01*
G01*
G37*
G36*
G01*
X82775000Y-120256250D02*
X82775000Y-119743750D01*
G75*
G02*
X82993750Y-119525000I218750J0D01*
G01*
X83431250Y-119525000D01*
G75*
G02*
X83650000Y-119743750I0J-218750D01*
G01*
X83650000Y-120256250D01*
G75*
G02*
X83431250Y-120475000I-218750J0D01*
G01*
X82993750Y-120475000D01*
G75*
G02*
X82775000Y-120256250I0J218750D01*
G01*
G37*
G36*
G01*
X84350000Y-120256250D02*
X84350000Y-119743750D01*
G75*
G02*
X84568750Y-119525000I218750J0D01*
G01*
X85006250Y-119525000D01*
G75*
G02*
X85225000Y-119743750I0J-218750D01*
G01*
X85225000Y-120256250D01*
G75*
G02*
X85006250Y-120475000I-218750J0D01*
G01*
X84568750Y-120475000D01*
G75*
G02*
X84350000Y-120256250I0J218750D01*
G01*
G37*
G36*
G01*
X84350000Y-116256250D02*
X84350000Y-115743750D01*
G75*
G02*
X84568750Y-115525000I218750J0D01*
G01*
X85006250Y-115525000D01*
G75*
G02*
X85225000Y-115743750I0J-218750D01*
G01*
X85225000Y-116256250D01*
G75*
G02*
X85006250Y-116475000I-218750J0D01*
G01*
X84568750Y-116475000D01*
G75*
G02*
X84350000Y-116256250I0J218750D01*
G01*
G37*
G36*
G01*
X82775000Y-116256250D02*
X82775000Y-115743750D01*
G75*
G02*
X82993750Y-115525000I218750J0D01*
G01*
X83431250Y-115525000D01*
G75*
G02*
X83650000Y-115743750I0J-218750D01*
G01*
X83650000Y-116256250D01*
G75*
G02*
X83431250Y-116475000I-218750J0D01*
G01*
X82993750Y-116475000D01*
G75*
G02*
X82775000Y-116256250I0J218750D01*
G01*
G37*
G36*
G01*
X82775000Y-112256250D02*
X82775000Y-111743750D01*
G75*
G02*
X82993750Y-111525000I218750J0D01*
G01*
X83431250Y-111525000D01*
G75*
G02*
X83650000Y-111743750I0J-218750D01*
G01*
X83650000Y-112256250D01*
G75*
G02*
X83431250Y-112475000I-218750J0D01*
G01*
X82993750Y-112475000D01*
G75*
G02*
X82775000Y-112256250I0J218750D01*
G01*
G37*
G36*
G01*
X84350000Y-112256250D02*
X84350000Y-111743750D01*
G75*
G02*
X84568750Y-111525000I218750J0D01*
G01*
X85006250Y-111525000D01*
G75*
G02*
X85225000Y-111743750I0J-218750D01*
G01*
X85225000Y-112256250D01*
G75*
G02*
X85006250Y-112475000I-218750J0D01*
G01*
X84568750Y-112475000D01*
G75*
G02*
X84350000Y-112256250I0J218750D01*
G01*
G37*
G36*
G01*
X78775000Y-140256250D02*
X78775000Y-139743750D01*
G75*
G02*
X78993750Y-139525000I218750J0D01*
G01*
X79431250Y-139525000D01*
G75*
G02*
X79650000Y-139743750I0J-218750D01*
G01*
X79650000Y-140256250D01*
G75*
G02*
X79431250Y-140475000I-218750J0D01*
G01*
X78993750Y-140475000D01*
G75*
G02*
X78775000Y-140256250I0J218750D01*
G01*
G37*
G36*
G01*
X80350000Y-140256250D02*
X80350000Y-139743750D01*
G75*
G02*
X80568750Y-139525000I218750J0D01*
G01*
X81006250Y-139525000D01*
G75*
G02*
X81225000Y-139743750I0J-218750D01*
G01*
X81225000Y-140256250D01*
G75*
G02*
X81006250Y-140475000I-218750J0D01*
G01*
X80568750Y-140475000D01*
G75*
G02*
X80350000Y-140256250I0J218750D01*
G01*
G37*
G36*
G01*
X78775000Y-136256250D02*
X78775000Y-135743750D01*
G75*
G02*
X78993750Y-135525000I218750J0D01*
G01*
X79431250Y-135525000D01*
G75*
G02*
X79650000Y-135743750I0J-218750D01*
G01*
X79650000Y-136256250D01*
G75*
G02*
X79431250Y-136475000I-218750J0D01*
G01*
X78993750Y-136475000D01*
G75*
G02*
X78775000Y-136256250I0J218750D01*
G01*
G37*
G36*
G01*
X80350000Y-136256250D02*
X80350000Y-135743750D01*
G75*
G02*
X80568750Y-135525000I218750J0D01*
G01*
X81006250Y-135525000D01*
G75*
G02*
X81225000Y-135743750I0J-218750D01*
G01*
X81225000Y-136256250D01*
G75*
G02*
X81006250Y-136475000I-218750J0D01*
G01*
X80568750Y-136475000D01*
G75*
G02*
X80350000Y-136256250I0J218750D01*
G01*
G37*
G36*
G01*
X78775000Y-132256250D02*
X78775000Y-131743750D01*
G75*
G02*
X78993750Y-131525000I218750J0D01*
G01*
X79431250Y-131525000D01*
G75*
G02*
X79650000Y-131743750I0J-218750D01*
G01*
X79650000Y-132256250D01*
G75*
G02*
X79431250Y-132475000I-218750J0D01*
G01*
X78993750Y-132475000D01*
G75*
G02*
X78775000Y-132256250I0J218750D01*
G01*
G37*
G36*
G01*
X80350000Y-132256250D02*
X80350000Y-131743750D01*
G75*
G02*
X80568750Y-131525000I218750J0D01*
G01*
X81006250Y-131525000D01*
G75*
G02*
X81225000Y-131743750I0J-218750D01*
G01*
X81225000Y-132256250D01*
G75*
G02*
X81006250Y-132475000I-218750J0D01*
G01*
X80568750Y-132475000D01*
G75*
G02*
X80350000Y-132256250I0J218750D01*
G01*
G37*
G36*
G01*
X78775000Y-128256250D02*
X78775000Y-127743750D01*
G75*
G02*
X78993750Y-127525000I218750J0D01*
G01*
X79431250Y-127525000D01*
G75*
G02*
X79650000Y-127743750I0J-218750D01*
G01*
X79650000Y-128256250D01*
G75*
G02*
X79431250Y-128475000I-218750J0D01*
G01*
X78993750Y-128475000D01*
G75*
G02*
X78775000Y-128256250I0J218750D01*
G01*
G37*
G36*
G01*
X80350000Y-128256250D02*
X80350000Y-127743750D01*
G75*
G02*
X80568750Y-127525000I218750J0D01*
G01*
X81006250Y-127525000D01*
G75*
G02*
X81225000Y-127743750I0J-218750D01*
G01*
X81225000Y-128256250D01*
G75*
G02*
X81006250Y-128475000I-218750J0D01*
G01*
X80568750Y-128475000D01*
G75*
G02*
X80350000Y-128256250I0J218750D01*
G01*
G37*
G36*
G01*
X78775000Y-124256250D02*
X78775000Y-123743750D01*
G75*
G02*
X78993750Y-123525000I218750J0D01*
G01*
X79431250Y-123525000D01*
G75*
G02*
X79650000Y-123743750I0J-218750D01*
G01*
X79650000Y-124256250D01*
G75*
G02*
X79431250Y-124475000I-218750J0D01*
G01*
X78993750Y-124475000D01*
G75*
G02*
X78775000Y-124256250I0J218750D01*
G01*
G37*
G36*
G01*
X80350000Y-124256250D02*
X80350000Y-123743750D01*
G75*
G02*
X80568750Y-123525000I218750J0D01*
G01*
X81006250Y-123525000D01*
G75*
G02*
X81225000Y-123743750I0J-218750D01*
G01*
X81225000Y-124256250D01*
G75*
G02*
X81006250Y-124475000I-218750J0D01*
G01*
X80568750Y-124475000D01*
G75*
G02*
X80350000Y-124256250I0J218750D01*
G01*
G37*
G36*
G01*
X78775000Y-120256250D02*
X78775000Y-119743750D01*
G75*
G02*
X78993750Y-119525000I218750J0D01*
G01*
X79431250Y-119525000D01*
G75*
G02*
X79650000Y-119743750I0J-218750D01*
G01*
X79650000Y-120256250D01*
G75*
G02*
X79431250Y-120475000I-218750J0D01*
G01*
X78993750Y-120475000D01*
G75*
G02*
X78775000Y-120256250I0J218750D01*
G01*
G37*
G36*
G01*
X80350000Y-120256250D02*
X80350000Y-119743750D01*
G75*
G02*
X80568750Y-119525000I218750J0D01*
G01*
X81006250Y-119525000D01*
G75*
G02*
X81225000Y-119743750I0J-218750D01*
G01*
X81225000Y-120256250D01*
G75*
G02*
X81006250Y-120475000I-218750J0D01*
G01*
X80568750Y-120475000D01*
G75*
G02*
X80350000Y-120256250I0J218750D01*
G01*
G37*
G36*
G01*
X80350000Y-116256250D02*
X80350000Y-115743750D01*
G75*
G02*
X80568750Y-115525000I218750J0D01*
G01*
X81006250Y-115525000D01*
G75*
G02*
X81225000Y-115743750I0J-218750D01*
G01*
X81225000Y-116256250D01*
G75*
G02*
X81006250Y-116475000I-218750J0D01*
G01*
X80568750Y-116475000D01*
G75*
G02*
X80350000Y-116256250I0J218750D01*
G01*
G37*
G36*
G01*
X78775000Y-116256250D02*
X78775000Y-115743750D01*
G75*
G02*
X78993750Y-115525000I218750J0D01*
G01*
X79431250Y-115525000D01*
G75*
G02*
X79650000Y-115743750I0J-218750D01*
G01*
X79650000Y-116256250D01*
G75*
G02*
X79431250Y-116475000I-218750J0D01*
G01*
X78993750Y-116475000D01*
G75*
G02*
X78775000Y-116256250I0J218750D01*
G01*
G37*
G36*
G01*
X78775000Y-112256250D02*
X78775000Y-111743750D01*
G75*
G02*
X78993750Y-111525000I218750J0D01*
G01*
X79431250Y-111525000D01*
G75*
G02*
X79650000Y-111743750I0J-218750D01*
G01*
X79650000Y-112256250D01*
G75*
G02*
X79431250Y-112475000I-218750J0D01*
G01*
X78993750Y-112475000D01*
G75*
G02*
X78775000Y-112256250I0J218750D01*
G01*
G37*
G36*
G01*
X80350000Y-112256250D02*
X80350000Y-111743750D01*
G75*
G02*
X80568750Y-111525000I218750J0D01*
G01*
X81006250Y-111525000D01*
G75*
G02*
X81225000Y-111743750I0J-218750D01*
G01*
X81225000Y-112256250D01*
G75*
G02*
X81006250Y-112475000I-218750J0D01*
G01*
X80568750Y-112475000D01*
G75*
G02*
X80350000Y-112256250I0J218750D01*
G01*
G37*
G36*
G01*
X74775000Y-140256250D02*
X74775000Y-139743750D01*
G75*
G02*
X74993750Y-139525000I218750J0D01*
G01*
X75431250Y-139525000D01*
G75*
G02*
X75650000Y-139743750I0J-218750D01*
G01*
X75650000Y-140256250D01*
G75*
G02*
X75431250Y-140475000I-218750J0D01*
G01*
X74993750Y-140475000D01*
G75*
G02*
X74775000Y-140256250I0J218750D01*
G01*
G37*
G36*
G01*
X76350000Y-140256250D02*
X76350000Y-139743750D01*
G75*
G02*
X76568750Y-139525000I218750J0D01*
G01*
X77006250Y-139525000D01*
G75*
G02*
X77225000Y-139743750I0J-218750D01*
G01*
X77225000Y-140256250D01*
G75*
G02*
X77006250Y-140475000I-218750J0D01*
G01*
X76568750Y-140475000D01*
G75*
G02*
X76350000Y-140256250I0J218750D01*
G01*
G37*
G36*
G01*
X74775000Y-136256250D02*
X74775000Y-135743750D01*
G75*
G02*
X74993750Y-135525000I218750J0D01*
G01*
X75431250Y-135525000D01*
G75*
G02*
X75650000Y-135743750I0J-218750D01*
G01*
X75650000Y-136256250D01*
G75*
G02*
X75431250Y-136475000I-218750J0D01*
G01*
X74993750Y-136475000D01*
G75*
G02*
X74775000Y-136256250I0J218750D01*
G01*
G37*
G36*
G01*
X76350000Y-136256250D02*
X76350000Y-135743750D01*
G75*
G02*
X76568750Y-135525000I218750J0D01*
G01*
X77006250Y-135525000D01*
G75*
G02*
X77225000Y-135743750I0J-218750D01*
G01*
X77225000Y-136256250D01*
G75*
G02*
X77006250Y-136475000I-218750J0D01*
G01*
X76568750Y-136475000D01*
G75*
G02*
X76350000Y-136256250I0J218750D01*
G01*
G37*
G36*
G01*
X74775000Y-132256250D02*
X74775000Y-131743750D01*
G75*
G02*
X74993750Y-131525000I218750J0D01*
G01*
X75431250Y-131525000D01*
G75*
G02*
X75650000Y-131743750I0J-218750D01*
G01*
X75650000Y-132256250D01*
G75*
G02*
X75431250Y-132475000I-218750J0D01*
G01*
X74993750Y-132475000D01*
G75*
G02*
X74775000Y-132256250I0J218750D01*
G01*
G37*
G36*
G01*
X76350000Y-132256250D02*
X76350000Y-131743750D01*
G75*
G02*
X76568750Y-131525000I218750J0D01*
G01*
X77006250Y-131525000D01*
G75*
G02*
X77225000Y-131743750I0J-218750D01*
G01*
X77225000Y-132256250D01*
G75*
G02*
X77006250Y-132475000I-218750J0D01*
G01*
X76568750Y-132475000D01*
G75*
G02*
X76350000Y-132256250I0J218750D01*
G01*
G37*
G36*
G01*
X74775000Y-128256250D02*
X74775000Y-127743750D01*
G75*
G02*
X74993750Y-127525000I218750J0D01*
G01*
X75431250Y-127525000D01*
G75*
G02*
X75650000Y-127743750I0J-218750D01*
G01*
X75650000Y-128256250D01*
G75*
G02*
X75431250Y-128475000I-218750J0D01*
G01*
X74993750Y-128475000D01*
G75*
G02*
X74775000Y-128256250I0J218750D01*
G01*
G37*
G36*
G01*
X76350000Y-128256250D02*
X76350000Y-127743750D01*
G75*
G02*
X76568750Y-127525000I218750J0D01*
G01*
X77006250Y-127525000D01*
G75*
G02*
X77225000Y-127743750I0J-218750D01*
G01*
X77225000Y-128256250D01*
G75*
G02*
X77006250Y-128475000I-218750J0D01*
G01*
X76568750Y-128475000D01*
G75*
G02*
X76350000Y-128256250I0J218750D01*
G01*
G37*
G36*
G01*
X74775000Y-124256250D02*
X74775000Y-123743750D01*
G75*
G02*
X74993750Y-123525000I218750J0D01*
G01*
X75431250Y-123525000D01*
G75*
G02*
X75650000Y-123743750I0J-218750D01*
G01*
X75650000Y-124256250D01*
G75*
G02*
X75431250Y-124475000I-218750J0D01*
G01*
X74993750Y-124475000D01*
G75*
G02*
X74775000Y-124256250I0J218750D01*
G01*
G37*
G36*
G01*
X76350000Y-124256250D02*
X76350000Y-123743750D01*
G75*
G02*
X76568750Y-123525000I218750J0D01*
G01*
X77006250Y-123525000D01*
G75*
G02*
X77225000Y-123743750I0J-218750D01*
G01*
X77225000Y-124256250D01*
G75*
G02*
X77006250Y-124475000I-218750J0D01*
G01*
X76568750Y-124475000D01*
G75*
G02*
X76350000Y-124256250I0J218750D01*
G01*
G37*
G36*
G01*
X74775000Y-120256250D02*
X74775000Y-119743750D01*
G75*
G02*
X74993750Y-119525000I218750J0D01*
G01*
X75431250Y-119525000D01*
G75*
G02*
X75650000Y-119743750I0J-218750D01*
G01*
X75650000Y-120256250D01*
G75*
G02*
X75431250Y-120475000I-218750J0D01*
G01*
X74993750Y-120475000D01*
G75*
G02*
X74775000Y-120256250I0J218750D01*
G01*
G37*
G36*
G01*
X76350000Y-120256250D02*
X76350000Y-119743750D01*
G75*
G02*
X76568750Y-119525000I218750J0D01*
G01*
X77006250Y-119525000D01*
G75*
G02*
X77225000Y-119743750I0J-218750D01*
G01*
X77225000Y-120256250D01*
G75*
G02*
X77006250Y-120475000I-218750J0D01*
G01*
X76568750Y-120475000D01*
G75*
G02*
X76350000Y-120256250I0J218750D01*
G01*
G37*
G36*
G01*
X74775000Y-116256250D02*
X74775000Y-115743750D01*
G75*
G02*
X74993750Y-115525000I218750J0D01*
G01*
X75431250Y-115525000D01*
G75*
G02*
X75650000Y-115743750I0J-218750D01*
G01*
X75650000Y-116256250D01*
G75*
G02*
X75431250Y-116475000I-218750J0D01*
G01*
X74993750Y-116475000D01*
G75*
G02*
X74775000Y-116256250I0J218750D01*
G01*
G37*
G36*
G01*
X76350000Y-116256250D02*
X76350000Y-115743750D01*
G75*
G02*
X76568750Y-115525000I218750J0D01*
G01*
X77006250Y-115525000D01*
G75*
G02*
X77225000Y-115743750I0J-218750D01*
G01*
X77225000Y-116256250D01*
G75*
G02*
X77006250Y-116475000I-218750J0D01*
G01*
X76568750Y-116475000D01*
G75*
G02*
X76350000Y-116256250I0J218750D01*
G01*
G37*
G36*
G01*
X74775000Y-112256250D02*
X74775000Y-111743750D01*
G75*
G02*
X74993750Y-111525000I218750J0D01*
G01*
X75431250Y-111525000D01*
G75*
G02*
X75650000Y-111743750I0J-218750D01*
G01*
X75650000Y-112256250D01*
G75*
G02*
X75431250Y-112475000I-218750J0D01*
G01*
X74993750Y-112475000D01*
G75*
G02*
X74775000Y-112256250I0J218750D01*
G01*
G37*
G36*
G01*
X76350000Y-112256250D02*
X76350000Y-111743750D01*
G75*
G02*
X76568750Y-111525000I218750J0D01*
G01*
X77006250Y-111525000D01*
G75*
G02*
X77225000Y-111743750I0J-218750D01*
G01*
X77225000Y-112256250D01*
G75*
G02*
X77006250Y-112475000I-218750J0D01*
G01*
X76568750Y-112475000D01*
G75*
G02*
X76350000Y-112256250I0J218750D01*
G01*
G37*
G36*
G01*
X70775000Y-140256250D02*
X70775000Y-139743750D01*
G75*
G02*
X70993750Y-139525000I218750J0D01*
G01*
X71431250Y-139525000D01*
G75*
G02*
X71650000Y-139743750I0J-218750D01*
G01*
X71650000Y-140256250D01*
G75*
G02*
X71431250Y-140475000I-218750J0D01*
G01*
X70993750Y-140475000D01*
G75*
G02*
X70775000Y-140256250I0J218750D01*
G01*
G37*
G36*
G01*
X72350000Y-140256250D02*
X72350000Y-139743750D01*
G75*
G02*
X72568750Y-139525000I218750J0D01*
G01*
X73006250Y-139525000D01*
G75*
G02*
X73225000Y-139743750I0J-218750D01*
G01*
X73225000Y-140256250D01*
G75*
G02*
X73006250Y-140475000I-218750J0D01*
G01*
X72568750Y-140475000D01*
G75*
G02*
X72350000Y-140256250I0J218750D01*
G01*
G37*
G36*
G01*
X70775000Y-136256250D02*
X70775000Y-135743750D01*
G75*
G02*
X70993750Y-135525000I218750J0D01*
G01*
X71431250Y-135525000D01*
G75*
G02*
X71650000Y-135743750I0J-218750D01*
G01*
X71650000Y-136256250D01*
G75*
G02*
X71431250Y-136475000I-218750J0D01*
G01*
X70993750Y-136475000D01*
G75*
G02*
X70775000Y-136256250I0J218750D01*
G01*
G37*
G36*
G01*
X72350000Y-136256250D02*
X72350000Y-135743750D01*
G75*
G02*
X72568750Y-135525000I218750J0D01*
G01*
X73006250Y-135525000D01*
G75*
G02*
X73225000Y-135743750I0J-218750D01*
G01*
X73225000Y-136256250D01*
G75*
G02*
X73006250Y-136475000I-218750J0D01*
G01*
X72568750Y-136475000D01*
G75*
G02*
X72350000Y-136256250I0J218750D01*
G01*
G37*
G36*
G01*
X70775000Y-132256250D02*
X70775000Y-131743750D01*
G75*
G02*
X70993750Y-131525000I218750J0D01*
G01*
X71431250Y-131525000D01*
G75*
G02*
X71650000Y-131743750I0J-218750D01*
G01*
X71650000Y-132256250D01*
G75*
G02*
X71431250Y-132475000I-218750J0D01*
G01*
X70993750Y-132475000D01*
G75*
G02*
X70775000Y-132256250I0J218750D01*
G01*
G37*
G36*
G01*
X72350000Y-132256250D02*
X72350000Y-131743750D01*
G75*
G02*
X72568750Y-131525000I218750J0D01*
G01*
X73006250Y-131525000D01*
G75*
G02*
X73225000Y-131743750I0J-218750D01*
G01*
X73225000Y-132256250D01*
G75*
G02*
X73006250Y-132475000I-218750J0D01*
G01*
X72568750Y-132475000D01*
G75*
G02*
X72350000Y-132256250I0J218750D01*
G01*
G37*
G36*
G01*
X70775000Y-128256250D02*
X70775000Y-127743750D01*
G75*
G02*
X70993750Y-127525000I218750J0D01*
G01*
X71431250Y-127525000D01*
G75*
G02*
X71650000Y-127743750I0J-218750D01*
G01*
X71650000Y-128256250D01*
G75*
G02*
X71431250Y-128475000I-218750J0D01*
G01*
X70993750Y-128475000D01*
G75*
G02*
X70775000Y-128256250I0J218750D01*
G01*
G37*
G36*
G01*
X72350000Y-128256250D02*
X72350000Y-127743750D01*
G75*
G02*
X72568750Y-127525000I218750J0D01*
G01*
X73006250Y-127525000D01*
G75*
G02*
X73225000Y-127743750I0J-218750D01*
G01*
X73225000Y-128256250D01*
G75*
G02*
X73006250Y-128475000I-218750J0D01*
G01*
X72568750Y-128475000D01*
G75*
G02*
X72350000Y-128256250I0J218750D01*
G01*
G37*
G36*
G01*
X70775000Y-124256250D02*
X70775000Y-123743750D01*
G75*
G02*
X70993750Y-123525000I218750J0D01*
G01*
X71431250Y-123525000D01*
G75*
G02*
X71650000Y-123743750I0J-218750D01*
G01*
X71650000Y-124256250D01*
G75*
G02*
X71431250Y-124475000I-218750J0D01*
G01*
X70993750Y-124475000D01*
G75*
G02*
X70775000Y-124256250I0J218750D01*
G01*
G37*
G36*
G01*
X72350000Y-124256250D02*
X72350000Y-123743750D01*
G75*
G02*
X72568750Y-123525000I218750J0D01*
G01*
X73006250Y-123525000D01*
G75*
G02*
X73225000Y-123743750I0J-218750D01*
G01*
X73225000Y-124256250D01*
G75*
G02*
X73006250Y-124475000I-218750J0D01*
G01*
X72568750Y-124475000D01*
G75*
G02*
X72350000Y-124256250I0J218750D01*
G01*
G37*
G36*
G01*
X72350000Y-120256250D02*
X72350000Y-119743750D01*
G75*
G02*
X72568750Y-119525000I218750J0D01*
G01*
X73006250Y-119525000D01*
G75*
G02*
X73225000Y-119743750I0J-218750D01*
G01*
X73225000Y-120256250D01*
G75*
G02*
X73006250Y-120475000I-218750J0D01*
G01*
X72568750Y-120475000D01*
G75*
G02*
X72350000Y-120256250I0J218750D01*
G01*
G37*
G36*
G01*
X70775000Y-120256250D02*
X70775000Y-119743750D01*
G75*
G02*
X70993750Y-119525000I218750J0D01*
G01*
X71431250Y-119525000D01*
G75*
G02*
X71650000Y-119743750I0J-218750D01*
G01*
X71650000Y-120256250D01*
G75*
G02*
X71431250Y-120475000I-218750J0D01*
G01*
X70993750Y-120475000D01*
G75*
G02*
X70775000Y-120256250I0J218750D01*
G01*
G37*
G36*
G01*
X70775000Y-116256250D02*
X70775000Y-115743750D01*
G75*
G02*
X70993750Y-115525000I218750J0D01*
G01*
X71431250Y-115525000D01*
G75*
G02*
X71650000Y-115743750I0J-218750D01*
G01*
X71650000Y-116256250D01*
G75*
G02*
X71431250Y-116475000I-218750J0D01*
G01*
X70993750Y-116475000D01*
G75*
G02*
X70775000Y-116256250I0J218750D01*
G01*
G37*
G36*
G01*
X72350000Y-116256250D02*
X72350000Y-115743750D01*
G75*
G02*
X72568750Y-115525000I218750J0D01*
G01*
X73006250Y-115525000D01*
G75*
G02*
X73225000Y-115743750I0J-218750D01*
G01*
X73225000Y-116256250D01*
G75*
G02*
X73006250Y-116475000I-218750J0D01*
G01*
X72568750Y-116475000D01*
G75*
G02*
X72350000Y-116256250I0J218750D01*
G01*
G37*
G36*
G01*
X70775000Y-112256250D02*
X70775000Y-111743750D01*
G75*
G02*
X70993750Y-111525000I218750J0D01*
G01*
X71431250Y-111525000D01*
G75*
G02*
X71650000Y-111743750I0J-218750D01*
G01*
X71650000Y-112256250D01*
G75*
G02*
X71431250Y-112475000I-218750J0D01*
G01*
X70993750Y-112475000D01*
G75*
G02*
X70775000Y-112256250I0J218750D01*
G01*
G37*
G36*
G01*
X72350000Y-112256250D02*
X72350000Y-111743750D01*
G75*
G02*
X72568750Y-111525000I218750J0D01*
G01*
X73006250Y-111525000D01*
G75*
G02*
X73225000Y-111743750I0J-218750D01*
G01*
X73225000Y-112256250D01*
G75*
G02*
X73006250Y-112475000I-218750J0D01*
G01*
X72568750Y-112475000D01*
G75*
G02*
X72350000Y-112256250I0J218750D01*
G01*
G37*
G36*
G01*
X66775000Y-140256250D02*
X66775000Y-139743750D01*
G75*
G02*
X66993750Y-139525000I218750J0D01*
G01*
X67431250Y-139525000D01*
G75*
G02*
X67650000Y-139743750I0J-218750D01*
G01*
X67650000Y-140256250D01*
G75*
G02*
X67431250Y-140475000I-218750J0D01*
G01*
X66993750Y-140475000D01*
G75*
G02*
X66775000Y-140256250I0J218750D01*
G01*
G37*
G36*
G01*
X68350000Y-140256250D02*
X68350000Y-139743750D01*
G75*
G02*
X68568750Y-139525000I218750J0D01*
G01*
X69006250Y-139525000D01*
G75*
G02*
X69225000Y-139743750I0J-218750D01*
G01*
X69225000Y-140256250D01*
G75*
G02*
X69006250Y-140475000I-218750J0D01*
G01*
X68568750Y-140475000D01*
G75*
G02*
X68350000Y-140256250I0J218750D01*
G01*
G37*
G36*
G01*
X66775000Y-136256250D02*
X66775000Y-135743750D01*
G75*
G02*
X66993750Y-135525000I218750J0D01*
G01*
X67431250Y-135525000D01*
G75*
G02*
X67650000Y-135743750I0J-218750D01*
G01*
X67650000Y-136256250D01*
G75*
G02*
X67431250Y-136475000I-218750J0D01*
G01*
X66993750Y-136475000D01*
G75*
G02*
X66775000Y-136256250I0J218750D01*
G01*
G37*
G36*
G01*
X68350000Y-136256250D02*
X68350000Y-135743750D01*
G75*
G02*
X68568750Y-135525000I218750J0D01*
G01*
X69006250Y-135525000D01*
G75*
G02*
X69225000Y-135743750I0J-218750D01*
G01*
X69225000Y-136256250D01*
G75*
G02*
X69006250Y-136475000I-218750J0D01*
G01*
X68568750Y-136475000D01*
G75*
G02*
X68350000Y-136256250I0J218750D01*
G01*
G37*
G36*
G01*
X66775000Y-132256250D02*
X66775000Y-131743750D01*
G75*
G02*
X66993750Y-131525000I218750J0D01*
G01*
X67431250Y-131525000D01*
G75*
G02*
X67650000Y-131743750I0J-218750D01*
G01*
X67650000Y-132256250D01*
G75*
G02*
X67431250Y-132475000I-218750J0D01*
G01*
X66993750Y-132475000D01*
G75*
G02*
X66775000Y-132256250I0J218750D01*
G01*
G37*
G36*
G01*
X68350000Y-132256250D02*
X68350000Y-131743750D01*
G75*
G02*
X68568750Y-131525000I218750J0D01*
G01*
X69006250Y-131525000D01*
G75*
G02*
X69225000Y-131743750I0J-218750D01*
G01*
X69225000Y-132256250D01*
G75*
G02*
X69006250Y-132475000I-218750J0D01*
G01*
X68568750Y-132475000D01*
G75*
G02*
X68350000Y-132256250I0J218750D01*
G01*
G37*
G36*
G01*
X66775000Y-128256250D02*
X66775000Y-127743750D01*
G75*
G02*
X66993750Y-127525000I218750J0D01*
G01*
X67431250Y-127525000D01*
G75*
G02*
X67650000Y-127743750I0J-218750D01*
G01*
X67650000Y-128256250D01*
G75*
G02*
X67431250Y-128475000I-218750J0D01*
G01*
X66993750Y-128475000D01*
G75*
G02*
X66775000Y-128256250I0J218750D01*
G01*
G37*
G36*
G01*
X68350000Y-128256250D02*
X68350000Y-127743750D01*
G75*
G02*
X68568750Y-127525000I218750J0D01*
G01*
X69006250Y-127525000D01*
G75*
G02*
X69225000Y-127743750I0J-218750D01*
G01*
X69225000Y-128256250D01*
G75*
G02*
X69006250Y-128475000I-218750J0D01*
G01*
X68568750Y-128475000D01*
G75*
G02*
X68350000Y-128256250I0J218750D01*
G01*
G37*
G36*
G01*
X66775000Y-124256250D02*
X66775000Y-123743750D01*
G75*
G02*
X66993750Y-123525000I218750J0D01*
G01*
X67431250Y-123525000D01*
G75*
G02*
X67650000Y-123743750I0J-218750D01*
G01*
X67650000Y-124256250D01*
G75*
G02*
X67431250Y-124475000I-218750J0D01*
G01*
X66993750Y-124475000D01*
G75*
G02*
X66775000Y-124256250I0J218750D01*
G01*
G37*
G36*
G01*
X68350000Y-124256250D02*
X68350000Y-123743750D01*
G75*
G02*
X68568750Y-123525000I218750J0D01*
G01*
X69006250Y-123525000D01*
G75*
G02*
X69225000Y-123743750I0J-218750D01*
G01*
X69225000Y-124256250D01*
G75*
G02*
X69006250Y-124475000I-218750J0D01*
G01*
X68568750Y-124475000D01*
G75*
G02*
X68350000Y-124256250I0J218750D01*
G01*
G37*
G36*
G01*
X68350000Y-120256250D02*
X68350000Y-119743750D01*
G75*
G02*
X68568750Y-119525000I218750J0D01*
G01*
X69006250Y-119525000D01*
G75*
G02*
X69225000Y-119743750I0J-218750D01*
G01*
X69225000Y-120256250D01*
G75*
G02*
X69006250Y-120475000I-218750J0D01*
G01*
X68568750Y-120475000D01*
G75*
G02*
X68350000Y-120256250I0J218750D01*
G01*
G37*
G36*
G01*
X66775000Y-120256250D02*
X66775000Y-119743750D01*
G75*
G02*
X66993750Y-119525000I218750J0D01*
G01*
X67431250Y-119525000D01*
G75*
G02*
X67650000Y-119743750I0J-218750D01*
G01*
X67650000Y-120256250D01*
G75*
G02*
X67431250Y-120475000I-218750J0D01*
G01*
X66993750Y-120475000D01*
G75*
G02*
X66775000Y-120256250I0J218750D01*
G01*
G37*
G36*
G01*
X66775000Y-116256250D02*
X66775000Y-115743750D01*
G75*
G02*
X66993750Y-115525000I218750J0D01*
G01*
X67431250Y-115525000D01*
G75*
G02*
X67650000Y-115743750I0J-218750D01*
G01*
X67650000Y-116256250D01*
G75*
G02*
X67431250Y-116475000I-218750J0D01*
G01*
X66993750Y-116475000D01*
G75*
G02*
X66775000Y-116256250I0J218750D01*
G01*
G37*
G36*
G01*
X68350000Y-116256250D02*
X68350000Y-115743750D01*
G75*
G02*
X68568750Y-115525000I218750J0D01*
G01*
X69006250Y-115525000D01*
G75*
G02*
X69225000Y-115743750I0J-218750D01*
G01*
X69225000Y-116256250D01*
G75*
G02*
X69006250Y-116475000I-218750J0D01*
G01*
X68568750Y-116475000D01*
G75*
G02*
X68350000Y-116256250I0J218750D01*
G01*
G37*
G36*
G01*
X66775000Y-112256250D02*
X66775000Y-111743750D01*
G75*
G02*
X66993750Y-111525000I218750J0D01*
G01*
X67431250Y-111525000D01*
G75*
G02*
X67650000Y-111743750I0J-218750D01*
G01*
X67650000Y-112256250D01*
G75*
G02*
X67431250Y-112475000I-218750J0D01*
G01*
X66993750Y-112475000D01*
G75*
G02*
X66775000Y-112256250I0J218750D01*
G01*
G37*
G36*
G01*
X68350000Y-112256250D02*
X68350000Y-111743750D01*
G75*
G02*
X68568750Y-111525000I218750J0D01*
G01*
X69006250Y-111525000D01*
G75*
G02*
X69225000Y-111743750I0J-218750D01*
G01*
X69225000Y-112256250D01*
G75*
G02*
X69006250Y-112475000I-218750J0D01*
G01*
X68568750Y-112475000D01*
G75*
G02*
X68350000Y-112256250I0J218750D01*
G01*
G37*
G36*
G01*
X62775000Y-140256250D02*
X62775000Y-139743750D01*
G75*
G02*
X62993750Y-139525000I218750J0D01*
G01*
X63431250Y-139525000D01*
G75*
G02*
X63650000Y-139743750I0J-218750D01*
G01*
X63650000Y-140256250D01*
G75*
G02*
X63431250Y-140475000I-218750J0D01*
G01*
X62993750Y-140475000D01*
G75*
G02*
X62775000Y-140256250I0J218750D01*
G01*
G37*
G36*
G01*
X64350000Y-140256250D02*
X64350000Y-139743750D01*
G75*
G02*
X64568750Y-139525000I218750J0D01*
G01*
X65006250Y-139525000D01*
G75*
G02*
X65225000Y-139743750I0J-218750D01*
G01*
X65225000Y-140256250D01*
G75*
G02*
X65006250Y-140475000I-218750J0D01*
G01*
X64568750Y-140475000D01*
G75*
G02*
X64350000Y-140256250I0J218750D01*
G01*
G37*
G36*
G01*
X62775000Y-136256250D02*
X62775000Y-135743750D01*
G75*
G02*
X62993750Y-135525000I218750J0D01*
G01*
X63431250Y-135525000D01*
G75*
G02*
X63650000Y-135743750I0J-218750D01*
G01*
X63650000Y-136256250D01*
G75*
G02*
X63431250Y-136475000I-218750J0D01*
G01*
X62993750Y-136475000D01*
G75*
G02*
X62775000Y-136256250I0J218750D01*
G01*
G37*
G36*
G01*
X64350000Y-136256250D02*
X64350000Y-135743750D01*
G75*
G02*
X64568750Y-135525000I218750J0D01*
G01*
X65006250Y-135525000D01*
G75*
G02*
X65225000Y-135743750I0J-218750D01*
G01*
X65225000Y-136256250D01*
G75*
G02*
X65006250Y-136475000I-218750J0D01*
G01*
X64568750Y-136475000D01*
G75*
G02*
X64350000Y-136256250I0J218750D01*
G01*
G37*
G36*
G01*
X62775000Y-132256250D02*
X62775000Y-131743750D01*
G75*
G02*
X62993750Y-131525000I218750J0D01*
G01*
X63431250Y-131525000D01*
G75*
G02*
X63650000Y-131743750I0J-218750D01*
G01*
X63650000Y-132256250D01*
G75*
G02*
X63431250Y-132475000I-218750J0D01*
G01*
X62993750Y-132475000D01*
G75*
G02*
X62775000Y-132256250I0J218750D01*
G01*
G37*
G36*
G01*
X64350000Y-132256250D02*
X64350000Y-131743750D01*
G75*
G02*
X64568750Y-131525000I218750J0D01*
G01*
X65006250Y-131525000D01*
G75*
G02*
X65225000Y-131743750I0J-218750D01*
G01*
X65225000Y-132256250D01*
G75*
G02*
X65006250Y-132475000I-218750J0D01*
G01*
X64568750Y-132475000D01*
G75*
G02*
X64350000Y-132256250I0J218750D01*
G01*
G37*
G36*
G01*
X62759000Y-128256250D02*
X62759000Y-127743750D01*
G75*
G02*
X62977750Y-127525000I218750J0D01*
G01*
X63415250Y-127525000D01*
G75*
G02*
X63634000Y-127743750I0J-218750D01*
G01*
X63634000Y-128256250D01*
G75*
G02*
X63415250Y-128475000I-218750J0D01*
G01*
X62977750Y-128475000D01*
G75*
G02*
X62759000Y-128256250I0J218750D01*
G01*
G37*
G36*
G01*
X64334000Y-128256250D02*
X64334000Y-127743750D01*
G75*
G02*
X64552750Y-127525000I218750J0D01*
G01*
X64990250Y-127525000D01*
G75*
G02*
X65209000Y-127743750I0J-218750D01*
G01*
X65209000Y-128256250D01*
G75*
G02*
X64990250Y-128475000I-218750J0D01*
G01*
X64552750Y-128475000D01*
G75*
G02*
X64334000Y-128256250I0J218750D01*
G01*
G37*
G36*
G01*
X62775000Y-124256250D02*
X62775000Y-123743750D01*
G75*
G02*
X62993750Y-123525000I218750J0D01*
G01*
X63431250Y-123525000D01*
G75*
G02*
X63650000Y-123743750I0J-218750D01*
G01*
X63650000Y-124256250D01*
G75*
G02*
X63431250Y-124475000I-218750J0D01*
G01*
X62993750Y-124475000D01*
G75*
G02*
X62775000Y-124256250I0J218750D01*
G01*
G37*
G36*
G01*
X64350000Y-124256250D02*
X64350000Y-123743750D01*
G75*
G02*
X64568750Y-123525000I218750J0D01*
G01*
X65006250Y-123525000D01*
G75*
G02*
X65225000Y-123743750I0J-218750D01*
G01*
X65225000Y-124256250D01*
G75*
G02*
X65006250Y-124475000I-218750J0D01*
G01*
X64568750Y-124475000D01*
G75*
G02*
X64350000Y-124256250I0J218750D01*
G01*
G37*
G36*
G01*
X62775000Y-120256250D02*
X62775000Y-119743750D01*
G75*
G02*
X62993750Y-119525000I218750J0D01*
G01*
X63431250Y-119525000D01*
G75*
G02*
X63650000Y-119743750I0J-218750D01*
G01*
X63650000Y-120256250D01*
G75*
G02*
X63431250Y-120475000I-218750J0D01*
G01*
X62993750Y-120475000D01*
G75*
G02*
X62775000Y-120256250I0J218750D01*
G01*
G37*
G36*
G01*
X64350000Y-120256250D02*
X64350000Y-119743750D01*
G75*
G02*
X64568750Y-119525000I218750J0D01*
G01*
X65006250Y-119525000D01*
G75*
G02*
X65225000Y-119743750I0J-218750D01*
G01*
X65225000Y-120256250D01*
G75*
G02*
X65006250Y-120475000I-218750J0D01*
G01*
X64568750Y-120475000D01*
G75*
G02*
X64350000Y-120256250I0J218750D01*
G01*
G37*
G36*
G01*
X62775000Y-116256250D02*
X62775000Y-115743750D01*
G75*
G02*
X62993750Y-115525000I218750J0D01*
G01*
X63431250Y-115525000D01*
G75*
G02*
X63650000Y-115743750I0J-218750D01*
G01*
X63650000Y-116256250D01*
G75*
G02*
X63431250Y-116475000I-218750J0D01*
G01*
X62993750Y-116475000D01*
G75*
G02*
X62775000Y-116256250I0J218750D01*
G01*
G37*
G36*
G01*
X64350000Y-116256250D02*
X64350000Y-115743750D01*
G75*
G02*
X64568750Y-115525000I218750J0D01*
G01*
X65006250Y-115525000D01*
G75*
G02*
X65225000Y-115743750I0J-218750D01*
G01*
X65225000Y-116256250D01*
G75*
G02*
X65006250Y-116475000I-218750J0D01*
G01*
X64568750Y-116475000D01*
G75*
G02*
X64350000Y-116256250I0J218750D01*
G01*
G37*
G36*
G01*
X62775000Y-112256250D02*
X62775000Y-111743750D01*
G75*
G02*
X62993750Y-111525000I218750J0D01*
G01*
X63431250Y-111525000D01*
G75*
G02*
X63650000Y-111743750I0J-218750D01*
G01*
X63650000Y-112256250D01*
G75*
G02*
X63431250Y-112475000I-218750J0D01*
G01*
X62993750Y-112475000D01*
G75*
G02*
X62775000Y-112256250I0J218750D01*
G01*
G37*
G36*
G01*
X64350000Y-112256250D02*
X64350000Y-111743750D01*
G75*
G02*
X64568750Y-111525000I218750J0D01*
G01*
X65006250Y-111525000D01*
G75*
G02*
X65225000Y-111743750I0J-218750D01*
G01*
X65225000Y-112256250D01*
G75*
G02*
X65006250Y-112475000I-218750J0D01*
G01*
X64568750Y-112475000D01*
G75*
G02*
X64350000Y-112256250I0J218750D01*
G01*
G37*
G36*
G01*
X58775000Y-140256250D02*
X58775000Y-139743750D01*
G75*
G02*
X58993750Y-139525000I218750J0D01*
G01*
X59431250Y-139525000D01*
G75*
G02*
X59650000Y-139743750I0J-218750D01*
G01*
X59650000Y-140256250D01*
G75*
G02*
X59431250Y-140475000I-218750J0D01*
G01*
X58993750Y-140475000D01*
G75*
G02*
X58775000Y-140256250I0J218750D01*
G01*
G37*
G36*
G01*
X60350000Y-140256250D02*
X60350000Y-139743750D01*
G75*
G02*
X60568750Y-139525000I218750J0D01*
G01*
X61006250Y-139525000D01*
G75*
G02*
X61225000Y-139743750I0J-218750D01*
G01*
X61225000Y-140256250D01*
G75*
G02*
X61006250Y-140475000I-218750J0D01*
G01*
X60568750Y-140475000D01*
G75*
G02*
X60350000Y-140256250I0J218750D01*
G01*
G37*
G36*
G01*
X58775000Y-136256250D02*
X58775000Y-135743750D01*
G75*
G02*
X58993750Y-135525000I218750J0D01*
G01*
X59431250Y-135525000D01*
G75*
G02*
X59650000Y-135743750I0J-218750D01*
G01*
X59650000Y-136256250D01*
G75*
G02*
X59431250Y-136475000I-218750J0D01*
G01*
X58993750Y-136475000D01*
G75*
G02*
X58775000Y-136256250I0J218750D01*
G01*
G37*
G36*
G01*
X60350000Y-136256250D02*
X60350000Y-135743750D01*
G75*
G02*
X60568750Y-135525000I218750J0D01*
G01*
X61006250Y-135525000D01*
G75*
G02*
X61225000Y-135743750I0J-218750D01*
G01*
X61225000Y-136256250D01*
G75*
G02*
X61006250Y-136475000I-218750J0D01*
G01*
X60568750Y-136475000D01*
G75*
G02*
X60350000Y-136256250I0J218750D01*
G01*
G37*
G36*
G01*
X58775000Y-132256250D02*
X58775000Y-131743750D01*
G75*
G02*
X58993750Y-131525000I218750J0D01*
G01*
X59431250Y-131525000D01*
G75*
G02*
X59650000Y-131743750I0J-218750D01*
G01*
X59650000Y-132256250D01*
G75*
G02*
X59431250Y-132475000I-218750J0D01*
G01*
X58993750Y-132475000D01*
G75*
G02*
X58775000Y-132256250I0J218750D01*
G01*
G37*
G36*
G01*
X60350000Y-132256250D02*
X60350000Y-131743750D01*
G75*
G02*
X60568750Y-131525000I218750J0D01*
G01*
X61006250Y-131525000D01*
G75*
G02*
X61225000Y-131743750I0J-218750D01*
G01*
X61225000Y-132256250D01*
G75*
G02*
X61006250Y-132475000I-218750J0D01*
G01*
X60568750Y-132475000D01*
G75*
G02*
X60350000Y-132256250I0J218750D01*
G01*
G37*
G36*
G01*
X58775000Y-128256250D02*
X58775000Y-127743750D01*
G75*
G02*
X58993750Y-127525000I218750J0D01*
G01*
X59431250Y-127525000D01*
G75*
G02*
X59650000Y-127743750I0J-218750D01*
G01*
X59650000Y-128256250D01*
G75*
G02*
X59431250Y-128475000I-218750J0D01*
G01*
X58993750Y-128475000D01*
G75*
G02*
X58775000Y-128256250I0J218750D01*
G01*
G37*
G36*
G01*
X60350000Y-128256250D02*
X60350000Y-127743750D01*
G75*
G02*
X60568750Y-127525000I218750J0D01*
G01*
X61006250Y-127525000D01*
G75*
G02*
X61225000Y-127743750I0J-218750D01*
G01*
X61225000Y-128256250D01*
G75*
G02*
X61006250Y-128475000I-218750J0D01*
G01*
X60568750Y-128475000D01*
G75*
G02*
X60350000Y-128256250I0J218750D01*
G01*
G37*
G36*
G01*
X58775000Y-124256250D02*
X58775000Y-123743750D01*
G75*
G02*
X58993750Y-123525000I218750J0D01*
G01*
X59431250Y-123525000D01*
G75*
G02*
X59650000Y-123743750I0J-218750D01*
G01*
X59650000Y-124256250D01*
G75*
G02*
X59431250Y-124475000I-218750J0D01*
G01*
X58993750Y-124475000D01*
G75*
G02*
X58775000Y-124256250I0J218750D01*
G01*
G37*
G36*
G01*
X60350000Y-124256250D02*
X60350000Y-123743750D01*
G75*
G02*
X60568750Y-123525000I218750J0D01*
G01*
X61006250Y-123525000D01*
G75*
G02*
X61225000Y-123743750I0J-218750D01*
G01*
X61225000Y-124256250D01*
G75*
G02*
X61006250Y-124475000I-218750J0D01*
G01*
X60568750Y-124475000D01*
G75*
G02*
X60350000Y-124256250I0J218750D01*
G01*
G37*
G36*
G01*
X60350000Y-120256250D02*
X60350000Y-119743750D01*
G75*
G02*
X60568750Y-119525000I218750J0D01*
G01*
X61006250Y-119525000D01*
G75*
G02*
X61225000Y-119743750I0J-218750D01*
G01*
X61225000Y-120256250D01*
G75*
G02*
X61006250Y-120475000I-218750J0D01*
G01*
X60568750Y-120475000D01*
G75*
G02*
X60350000Y-120256250I0J218750D01*
G01*
G37*
G36*
G01*
X58775000Y-120256250D02*
X58775000Y-119743750D01*
G75*
G02*
X58993750Y-119525000I218750J0D01*
G01*
X59431250Y-119525000D01*
G75*
G02*
X59650000Y-119743750I0J-218750D01*
G01*
X59650000Y-120256250D01*
G75*
G02*
X59431250Y-120475000I-218750J0D01*
G01*
X58993750Y-120475000D01*
G75*
G02*
X58775000Y-120256250I0J218750D01*
G01*
G37*
G36*
G01*
X58775000Y-116256250D02*
X58775000Y-115743750D01*
G75*
G02*
X58993750Y-115525000I218750J0D01*
G01*
X59431250Y-115525000D01*
G75*
G02*
X59650000Y-115743750I0J-218750D01*
G01*
X59650000Y-116256250D01*
G75*
G02*
X59431250Y-116475000I-218750J0D01*
G01*
X58993750Y-116475000D01*
G75*
G02*
X58775000Y-116256250I0J218750D01*
G01*
G37*
G36*
G01*
X60350000Y-116256250D02*
X60350000Y-115743750D01*
G75*
G02*
X60568750Y-115525000I218750J0D01*
G01*
X61006250Y-115525000D01*
G75*
G02*
X61225000Y-115743750I0J-218750D01*
G01*
X61225000Y-116256250D01*
G75*
G02*
X61006250Y-116475000I-218750J0D01*
G01*
X60568750Y-116475000D01*
G75*
G02*
X60350000Y-116256250I0J218750D01*
G01*
G37*
G36*
G01*
X60350000Y-112256250D02*
X60350000Y-111743750D01*
G75*
G02*
X60568750Y-111525000I218750J0D01*
G01*
X61006250Y-111525000D01*
G75*
G02*
X61225000Y-111743750I0J-218750D01*
G01*
X61225000Y-112256250D01*
G75*
G02*
X61006250Y-112475000I-218750J0D01*
G01*
X60568750Y-112475000D01*
G75*
G02*
X60350000Y-112256250I0J218750D01*
G01*
G37*
G36*
G01*
X58775000Y-112256250D02*
X58775000Y-111743750D01*
G75*
G02*
X58993750Y-111525000I218750J0D01*
G01*
X59431250Y-111525000D01*
G75*
G02*
X59650000Y-111743750I0J-218750D01*
G01*
X59650000Y-112256250D01*
G75*
G02*
X59431250Y-112475000I-218750J0D01*
G01*
X58993750Y-112475000D01*
G75*
G02*
X58775000Y-112256250I0J218750D01*
G01*
G37*
G36*
G01*
X54775000Y-140256250D02*
X54775000Y-139743750D01*
G75*
G02*
X54993750Y-139525000I218750J0D01*
G01*
X55431250Y-139525000D01*
G75*
G02*
X55650000Y-139743750I0J-218750D01*
G01*
X55650000Y-140256250D01*
G75*
G02*
X55431250Y-140475000I-218750J0D01*
G01*
X54993750Y-140475000D01*
G75*
G02*
X54775000Y-140256250I0J218750D01*
G01*
G37*
G36*
G01*
X56350000Y-140256250D02*
X56350000Y-139743750D01*
G75*
G02*
X56568750Y-139525000I218750J0D01*
G01*
X57006250Y-139525000D01*
G75*
G02*
X57225000Y-139743750I0J-218750D01*
G01*
X57225000Y-140256250D01*
G75*
G02*
X57006250Y-140475000I-218750J0D01*
G01*
X56568750Y-140475000D01*
G75*
G02*
X56350000Y-140256250I0J218750D01*
G01*
G37*
G36*
G01*
X54775000Y-136256250D02*
X54775000Y-135743750D01*
G75*
G02*
X54993750Y-135525000I218750J0D01*
G01*
X55431250Y-135525000D01*
G75*
G02*
X55650000Y-135743750I0J-218750D01*
G01*
X55650000Y-136256250D01*
G75*
G02*
X55431250Y-136475000I-218750J0D01*
G01*
X54993750Y-136475000D01*
G75*
G02*
X54775000Y-136256250I0J218750D01*
G01*
G37*
G36*
G01*
X56350000Y-136256250D02*
X56350000Y-135743750D01*
G75*
G02*
X56568750Y-135525000I218750J0D01*
G01*
X57006250Y-135525000D01*
G75*
G02*
X57225000Y-135743750I0J-218750D01*
G01*
X57225000Y-136256250D01*
G75*
G02*
X57006250Y-136475000I-218750J0D01*
G01*
X56568750Y-136475000D01*
G75*
G02*
X56350000Y-136256250I0J218750D01*
G01*
G37*
G36*
G01*
X54775000Y-132256250D02*
X54775000Y-131743750D01*
G75*
G02*
X54993750Y-131525000I218750J0D01*
G01*
X55431250Y-131525000D01*
G75*
G02*
X55650000Y-131743750I0J-218750D01*
G01*
X55650000Y-132256250D01*
G75*
G02*
X55431250Y-132475000I-218750J0D01*
G01*
X54993750Y-132475000D01*
G75*
G02*
X54775000Y-132256250I0J218750D01*
G01*
G37*
G36*
G01*
X56350000Y-132256250D02*
X56350000Y-131743750D01*
G75*
G02*
X56568750Y-131525000I218750J0D01*
G01*
X57006250Y-131525000D01*
G75*
G02*
X57225000Y-131743750I0J-218750D01*
G01*
X57225000Y-132256250D01*
G75*
G02*
X57006250Y-132475000I-218750J0D01*
G01*
X56568750Y-132475000D01*
G75*
G02*
X56350000Y-132256250I0J218750D01*
G01*
G37*
G36*
G01*
X54775000Y-128256250D02*
X54775000Y-127743750D01*
G75*
G02*
X54993750Y-127525000I218750J0D01*
G01*
X55431250Y-127525000D01*
G75*
G02*
X55650000Y-127743750I0J-218750D01*
G01*
X55650000Y-128256250D01*
G75*
G02*
X55431250Y-128475000I-218750J0D01*
G01*
X54993750Y-128475000D01*
G75*
G02*
X54775000Y-128256250I0J218750D01*
G01*
G37*
G36*
G01*
X56350000Y-128256250D02*
X56350000Y-127743750D01*
G75*
G02*
X56568750Y-127525000I218750J0D01*
G01*
X57006250Y-127525000D01*
G75*
G02*
X57225000Y-127743750I0J-218750D01*
G01*
X57225000Y-128256250D01*
G75*
G02*
X57006250Y-128475000I-218750J0D01*
G01*
X56568750Y-128475000D01*
G75*
G02*
X56350000Y-128256250I0J218750D01*
G01*
G37*
G36*
G01*
X54775000Y-124256250D02*
X54775000Y-123743750D01*
G75*
G02*
X54993750Y-123525000I218750J0D01*
G01*
X55431250Y-123525000D01*
G75*
G02*
X55650000Y-123743750I0J-218750D01*
G01*
X55650000Y-124256250D01*
G75*
G02*
X55431250Y-124475000I-218750J0D01*
G01*
X54993750Y-124475000D01*
G75*
G02*
X54775000Y-124256250I0J218750D01*
G01*
G37*
G36*
G01*
X56350000Y-124256250D02*
X56350000Y-123743750D01*
G75*
G02*
X56568750Y-123525000I218750J0D01*
G01*
X57006250Y-123525000D01*
G75*
G02*
X57225000Y-123743750I0J-218750D01*
G01*
X57225000Y-124256250D01*
G75*
G02*
X57006250Y-124475000I-218750J0D01*
G01*
X56568750Y-124475000D01*
G75*
G02*
X56350000Y-124256250I0J218750D01*
G01*
G37*
G36*
G01*
X56350000Y-120256250D02*
X56350000Y-119743750D01*
G75*
G02*
X56568750Y-119525000I218750J0D01*
G01*
X57006250Y-119525000D01*
G75*
G02*
X57225000Y-119743750I0J-218750D01*
G01*
X57225000Y-120256250D01*
G75*
G02*
X57006250Y-120475000I-218750J0D01*
G01*
X56568750Y-120475000D01*
G75*
G02*
X56350000Y-120256250I0J218750D01*
G01*
G37*
G36*
G01*
X54775000Y-120256250D02*
X54775000Y-119743750D01*
G75*
G02*
X54993750Y-119525000I218750J0D01*
G01*
X55431250Y-119525000D01*
G75*
G02*
X55650000Y-119743750I0J-218750D01*
G01*
X55650000Y-120256250D01*
G75*
G02*
X55431250Y-120475000I-218750J0D01*
G01*
X54993750Y-120475000D01*
G75*
G02*
X54775000Y-120256250I0J218750D01*
G01*
G37*
G36*
G01*
X54775000Y-116256250D02*
X54775000Y-115743750D01*
G75*
G02*
X54993750Y-115525000I218750J0D01*
G01*
X55431250Y-115525000D01*
G75*
G02*
X55650000Y-115743750I0J-218750D01*
G01*
X55650000Y-116256250D01*
G75*
G02*
X55431250Y-116475000I-218750J0D01*
G01*
X54993750Y-116475000D01*
G75*
G02*
X54775000Y-116256250I0J218750D01*
G01*
G37*
G36*
G01*
X56350000Y-116256250D02*
X56350000Y-115743750D01*
G75*
G02*
X56568750Y-115525000I218750J0D01*
G01*
X57006250Y-115525000D01*
G75*
G02*
X57225000Y-115743750I0J-218750D01*
G01*
X57225000Y-116256250D01*
G75*
G02*
X57006250Y-116475000I-218750J0D01*
G01*
X56568750Y-116475000D01*
G75*
G02*
X56350000Y-116256250I0J218750D01*
G01*
G37*
M02*
