G04 #@! TF.GenerationSoftware,KiCad,Pcbnew,(5.1.6)-1*
G04 #@! TF.CreationDate,2021-05-09T16:16:57+05:30*
G04 #@! TF.ProjectId,keychain,6b657963-6861-4696-9e2e-6b696361645f,rev?*
G04 #@! TF.SameCoordinates,Original*
G04 #@! TF.FileFunction,Soldermask,Top*
G04 #@! TF.FilePolarity,Negative*
%FSLAX46Y46*%
G04 Gerber Fmt 4.6, Leading zero omitted, Abs format (unit mm)*
G04 Created by KiCad (PCBNEW (5.1.6)-1) date 2021-05-09 16:16:57*
%MOMM*%
%LPD*%
G01*
G04 APERTURE LIST*
%ADD10R,1.160000X0.750000*%
%ADD11R,1.600000X1.600000*%
%ADD12R,0.900000X1.100000*%
%ADD13R,1.600000X0.800000*%
%ADD14C,1.000000*%
%ADD15O,1.800000X1.800000*%
%ADD16R,1.800000X1.800000*%
%ADD17R,2.900000X2.900000*%
%ADD18R,1.100000X2.600000*%
%ADD19R,1.900000X1.100000*%
G04 APERTURE END LIST*
G36*
G01*
X66270000Y-150450000D02*
X66620000Y-150450000D01*
G75*
G02*
X66795000Y-150625000I0J-175000D01*
G01*
X66795000Y-152325000D01*
G75*
G02*
X66620000Y-152500000I-175000J0D01*
G01*
X66270000Y-152500000D01*
G75*
G02*
X66095000Y-152325000I0J175000D01*
G01*
X66095000Y-150625000D01*
G75*
G02*
X66270000Y-150450000I175000J0D01*
G01*
G37*
G36*
G01*
X65000000Y-150450000D02*
X65350000Y-150450000D01*
G75*
G02*
X65525000Y-150625000I0J-175000D01*
G01*
X65525000Y-152325000D01*
G75*
G02*
X65350000Y-152500000I-175000J0D01*
G01*
X65000000Y-152500000D01*
G75*
G02*
X64825000Y-152325000I0J175000D01*
G01*
X64825000Y-150625000D01*
G75*
G02*
X65000000Y-150450000I175000J0D01*
G01*
G37*
G36*
G01*
X63730000Y-150450000D02*
X64080000Y-150450000D01*
G75*
G02*
X64255000Y-150625000I0J-175000D01*
G01*
X64255000Y-152325000D01*
G75*
G02*
X64080000Y-152500000I-175000J0D01*
G01*
X63730000Y-152500000D01*
G75*
G02*
X63555000Y-152325000I0J175000D01*
G01*
X63555000Y-150625000D01*
G75*
G02*
X63730000Y-150450000I175000J0D01*
G01*
G37*
G36*
G01*
X62460000Y-150450000D02*
X62810000Y-150450000D01*
G75*
G02*
X62985000Y-150625000I0J-175000D01*
G01*
X62985000Y-152325000D01*
G75*
G02*
X62810000Y-152500000I-175000J0D01*
G01*
X62460000Y-152500000D01*
G75*
G02*
X62285000Y-152325000I0J175000D01*
G01*
X62285000Y-150625000D01*
G75*
G02*
X62460000Y-150450000I175000J0D01*
G01*
G37*
G36*
G01*
X61190000Y-150450000D02*
X61540000Y-150450000D01*
G75*
G02*
X61715000Y-150625000I0J-175000D01*
G01*
X61715000Y-152325000D01*
G75*
G02*
X61540000Y-152500000I-175000J0D01*
G01*
X61190000Y-152500000D01*
G75*
G02*
X61015000Y-152325000I0J175000D01*
G01*
X61015000Y-150625000D01*
G75*
G02*
X61190000Y-150450000I175000J0D01*
G01*
G37*
G36*
G01*
X59920000Y-150450000D02*
X60270000Y-150450000D01*
G75*
G02*
X60445000Y-150625000I0J-175000D01*
G01*
X60445000Y-152325000D01*
G75*
G02*
X60270000Y-152500000I-175000J0D01*
G01*
X59920000Y-152500000D01*
G75*
G02*
X59745000Y-152325000I0J175000D01*
G01*
X59745000Y-150625000D01*
G75*
G02*
X59920000Y-150450000I175000J0D01*
G01*
G37*
G36*
G01*
X58650000Y-150450000D02*
X59000000Y-150450000D01*
G75*
G02*
X59175000Y-150625000I0J-175000D01*
G01*
X59175000Y-152325000D01*
G75*
G02*
X59000000Y-152500000I-175000J0D01*
G01*
X58650000Y-152500000D01*
G75*
G02*
X58475000Y-152325000I0J175000D01*
G01*
X58475000Y-150625000D01*
G75*
G02*
X58650000Y-150450000I175000J0D01*
G01*
G37*
G36*
G01*
X57380000Y-150450000D02*
X57730000Y-150450000D01*
G75*
G02*
X57905000Y-150625000I0J-175000D01*
G01*
X57905000Y-152325000D01*
G75*
G02*
X57730000Y-152500000I-175000J0D01*
G01*
X57380000Y-152500000D01*
G75*
G02*
X57205000Y-152325000I0J175000D01*
G01*
X57205000Y-150625000D01*
G75*
G02*
X57380000Y-150450000I175000J0D01*
G01*
G37*
G36*
G01*
X57380000Y-145500000D02*
X57730000Y-145500000D01*
G75*
G02*
X57905000Y-145675000I0J-175000D01*
G01*
X57905000Y-147375000D01*
G75*
G02*
X57730000Y-147550000I-175000J0D01*
G01*
X57380000Y-147550000D01*
G75*
G02*
X57205000Y-147375000I0J175000D01*
G01*
X57205000Y-145675000D01*
G75*
G02*
X57380000Y-145500000I175000J0D01*
G01*
G37*
G36*
G01*
X58650000Y-145500000D02*
X59000000Y-145500000D01*
G75*
G02*
X59175000Y-145675000I0J-175000D01*
G01*
X59175000Y-147375000D01*
G75*
G02*
X59000000Y-147550000I-175000J0D01*
G01*
X58650000Y-147550000D01*
G75*
G02*
X58475000Y-147375000I0J175000D01*
G01*
X58475000Y-145675000D01*
G75*
G02*
X58650000Y-145500000I175000J0D01*
G01*
G37*
G36*
G01*
X59920000Y-145500000D02*
X60270000Y-145500000D01*
G75*
G02*
X60445000Y-145675000I0J-175000D01*
G01*
X60445000Y-147375000D01*
G75*
G02*
X60270000Y-147550000I-175000J0D01*
G01*
X59920000Y-147550000D01*
G75*
G02*
X59745000Y-147375000I0J175000D01*
G01*
X59745000Y-145675000D01*
G75*
G02*
X59920000Y-145500000I175000J0D01*
G01*
G37*
G36*
G01*
X61190000Y-145500000D02*
X61540000Y-145500000D01*
G75*
G02*
X61715000Y-145675000I0J-175000D01*
G01*
X61715000Y-147375000D01*
G75*
G02*
X61540000Y-147550000I-175000J0D01*
G01*
X61190000Y-147550000D01*
G75*
G02*
X61015000Y-147375000I0J175000D01*
G01*
X61015000Y-145675000D01*
G75*
G02*
X61190000Y-145500000I175000J0D01*
G01*
G37*
G36*
G01*
X62460000Y-145500000D02*
X62810000Y-145500000D01*
G75*
G02*
X62985000Y-145675000I0J-175000D01*
G01*
X62985000Y-147375000D01*
G75*
G02*
X62810000Y-147550000I-175000J0D01*
G01*
X62460000Y-147550000D01*
G75*
G02*
X62285000Y-147375000I0J175000D01*
G01*
X62285000Y-145675000D01*
G75*
G02*
X62460000Y-145500000I175000J0D01*
G01*
G37*
G36*
G01*
X63730000Y-145500000D02*
X64080000Y-145500000D01*
G75*
G02*
X64255000Y-145675000I0J-175000D01*
G01*
X64255000Y-147375000D01*
G75*
G02*
X64080000Y-147550000I-175000J0D01*
G01*
X63730000Y-147550000D01*
G75*
G02*
X63555000Y-147375000I0J175000D01*
G01*
X63555000Y-145675000D01*
G75*
G02*
X63730000Y-145500000I175000J0D01*
G01*
G37*
G36*
G01*
X65000000Y-145500000D02*
X65350000Y-145500000D01*
G75*
G02*
X65525000Y-145675000I0J-175000D01*
G01*
X65525000Y-147375000D01*
G75*
G02*
X65350000Y-147550000I-175000J0D01*
G01*
X65000000Y-147550000D01*
G75*
G02*
X64825000Y-147375000I0J175000D01*
G01*
X64825000Y-145675000D01*
G75*
G02*
X65000000Y-145500000I175000J0D01*
G01*
G37*
G36*
G01*
X66270000Y-145500000D02*
X66620000Y-145500000D01*
G75*
G02*
X66795000Y-145675000I0J-175000D01*
G01*
X66795000Y-147375000D01*
G75*
G02*
X66620000Y-147550000I-175000J0D01*
G01*
X66270000Y-147550000D01*
G75*
G02*
X66095000Y-147375000I0J175000D01*
G01*
X66095000Y-145675000D01*
G75*
G02*
X66270000Y-145500000I175000J0D01*
G01*
G37*
G36*
G01*
X90270000Y-150450000D02*
X90620000Y-150450000D01*
G75*
G02*
X90795000Y-150625000I0J-175000D01*
G01*
X90795000Y-152325000D01*
G75*
G02*
X90620000Y-152500000I-175000J0D01*
G01*
X90270000Y-152500000D01*
G75*
G02*
X90095000Y-152325000I0J175000D01*
G01*
X90095000Y-150625000D01*
G75*
G02*
X90270000Y-150450000I175000J0D01*
G01*
G37*
G36*
G01*
X89000000Y-150450000D02*
X89350000Y-150450000D01*
G75*
G02*
X89525000Y-150625000I0J-175000D01*
G01*
X89525000Y-152325000D01*
G75*
G02*
X89350000Y-152500000I-175000J0D01*
G01*
X89000000Y-152500000D01*
G75*
G02*
X88825000Y-152325000I0J175000D01*
G01*
X88825000Y-150625000D01*
G75*
G02*
X89000000Y-150450000I175000J0D01*
G01*
G37*
G36*
G01*
X87730000Y-150450000D02*
X88080000Y-150450000D01*
G75*
G02*
X88255000Y-150625000I0J-175000D01*
G01*
X88255000Y-152325000D01*
G75*
G02*
X88080000Y-152500000I-175000J0D01*
G01*
X87730000Y-152500000D01*
G75*
G02*
X87555000Y-152325000I0J175000D01*
G01*
X87555000Y-150625000D01*
G75*
G02*
X87730000Y-150450000I175000J0D01*
G01*
G37*
G36*
G01*
X86460000Y-150450000D02*
X86810000Y-150450000D01*
G75*
G02*
X86985000Y-150625000I0J-175000D01*
G01*
X86985000Y-152325000D01*
G75*
G02*
X86810000Y-152500000I-175000J0D01*
G01*
X86460000Y-152500000D01*
G75*
G02*
X86285000Y-152325000I0J175000D01*
G01*
X86285000Y-150625000D01*
G75*
G02*
X86460000Y-150450000I175000J0D01*
G01*
G37*
G36*
G01*
X85190000Y-150450000D02*
X85540000Y-150450000D01*
G75*
G02*
X85715000Y-150625000I0J-175000D01*
G01*
X85715000Y-152325000D01*
G75*
G02*
X85540000Y-152500000I-175000J0D01*
G01*
X85190000Y-152500000D01*
G75*
G02*
X85015000Y-152325000I0J175000D01*
G01*
X85015000Y-150625000D01*
G75*
G02*
X85190000Y-150450000I175000J0D01*
G01*
G37*
G36*
G01*
X83920000Y-150450000D02*
X84270000Y-150450000D01*
G75*
G02*
X84445000Y-150625000I0J-175000D01*
G01*
X84445000Y-152325000D01*
G75*
G02*
X84270000Y-152500000I-175000J0D01*
G01*
X83920000Y-152500000D01*
G75*
G02*
X83745000Y-152325000I0J175000D01*
G01*
X83745000Y-150625000D01*
G75*
G02*
X83920000Y-150450000I175000J0D01*
G01*
G37*
G36*
G01*
X82650000Y-150450000D02*
X83000000Y-150450000D01*
G75*
G02*
X83175000Y-150625000I0J-175000D01*
G01*
X83175000Y-152325000D01*
G75*
G02*
X83000000Y-152500000I-175000J0D01*
G01*
X82650000Y-152500000D01*
G75*
G02*
X82475000Y-152325000I0J175000D01*
G01*
X82475000Y-150625000D01*
G75*
G02*
X82650000Y-150450000I175000J0D01*
G01*
G37*
G36*
G01*
X81380000Y-150450000D02*
X81730000Y-150450000D01*
G75*
G02*
X81905000Y-150625000I0J-175000D01*
G01*
X81905000Y-152325000D01*
G75*
G02*
X81730000Y-152500000I-175000J0D01*
G01*
X81380000Y-152500000D01*
G75*
G02*
X81205000Y-152325000I0J175000D01*
G01*
X81205000Y-150625000D01*
G75*
G02*
X81380000Y-150450000I175000J0D01*
G01*
G37*
G36*
G01*
X81380000Y-145500000D02*
X81730000Y-145500000D01*
G75*
G02*
X81905000Y-145675000I0J-175000D01*
G01*
X81905000Y-147375000D01*
G75*
G02*
X81730000Y-147550000I-175000J0D01*
G01*
X81380000Y-147550000D01*
G75*
G02*
X81205000Y-147375000I0J175000D01*
G01*
X81205000Y-145675000D01*
G75*
G02*
X81380000Y-145500000I175000J0D01*
G01*
G37*
G36*
G01*
X82650000Y-145500000D02*
X83000000Y-145500000D01*
G75*
G02*
X83175000Y-145675000I0J-175000D01*
G01*
X83175000Y-147375000D01*
G75*
G02*
X83000000Y-147550000I-175000J0D01*
G01*
X82650000Y-147550000D01*
G75*
G02*
X82475000Y-147375000I0J175000D01*
G01*
X82475000Y-145675000D01*
G75*
G02*
X82650000Y-145500000I175000J0D01*
G01*
G37*
G36*
G01*
X83920000Y-145500000D02*
X84270000Y-145500000D01*
G75*
G02*
X84445000Y-145675000I0J-175000D01*
G01*
X84445000Y-147375000D01*
G75*
G02*
X84270000Y-147550000I-175000J0D01*
G01*
X83920000Y-147550000D01*
G75*
G02*
X83745000Y-147375000I0J175000D01*
G01*
X83745000Y-145675000D01*
G75*
G02*
X83920000Y-145500000I175000J0D01*
G01*
G37*
G36*
G01*
X85190000Y-145500000D02*
X85540000Y-145500000D01*
G75*
G02*
X85715000Y-145675000I0J-175000D01*
G01*
X85715000Y-147375000D01*
G75*
G02*
X85540000Y-147550000I-175000J0D01*
G01*
X85190000Y-147550000D01*
G75*
G02*
X85015000Y-147375000I0J175000D01*
G01*
X85015000Y-145675000D01*
G75*
G02*
X85190000Y-145500000I175000J0D01*
G01*
G37*
G36*
G01*
X86460000Y-145500000D02*
X86810000Y-145500000D01*
G75*
G02*
X86985000Y-145675000I0J-175000D01*
G01*
X86985000Y-147375000D01*
G75*
G02*
X86810000Y-147550000I-175000J0D01*
G01*
X86460000Y-147550000D01*
G75*
G02*
X86285000Y-147375000I0J175000D01*
G01*
X86285000Y-145675000D01*
G75*
G02*
X86460000Y-145500000I175000J0D01*
G01*
G37*
G36*
G01*
X87730000Y-145500000D02*
X88080000Y-145500000D01*
G75*
G02*
X88255000Y-145675000I0J-175000D01*
G01*
X88255000Y-147375000D01*
G75*
G02*
X88080000Y-147550000I-175000J0D01*
G01*
X87730000Y-147550000D01*
G75*
G02*
X87555000Y-147375000I0J175000D01*
G01*
X87555000Y-145675000D01*
G75*
G02*
X87730000Y-145500000I175000J0D01*
G01*
G37*
G36*
G01*
X89000000Y-145500000D02*
X89350000Y-145500000D01*
G75*
G02*
X89525000Y-145675000I0J-175000D01*
G01*
X89525000Y-147375000D01*
G75*
G02*
X89350000Y-147550000I-175000J0D01*
G01*
X89000000Y-147550000D01*
G75*
G02*
X88825000Y-147375000I0J175000D01*
G01*
X88825000Y-145675000D01*
G75*
G02*
X89000000Y-145500000I175000J0D01*
G01*
G37*
G36*
G01*
X90270000Y-145500000D02*
X90620000Y-145500000D01*
G75*
G02*
X90795000Y-145675000I0J-175000D01*
G01*
X90795000Y-147375000D01*
G75*
G02*
X90620000Y-147550000I-175000J0D01*
G01*
X90270000Y-147550000D01*
G75*
G02*
X90095000Y-147375000I0J175000D01*
G01*
X90095000Y-145675000D01*
G75*
G02*
X90270000Y-145500000I175000J0D01*
G01*
G37*
G36*
G01*
X114270000Y-150450000D02*
X114620000Y-150450000D01*
G75*
G02*
X114795000Y-150625000I0J-175000D01*
G01*
X114795000Y-152325000D01*
G75*
G02*
X114620000Y-152500000I-175000J0D01*
G01*
X114270000Y-152500000D01*
G75*
G02*
X114095000Y-152325000I0J175000D01*
G01*
X114095000Y-150625000D01*
G75*
G02*
X114270000Y-150450000I175000J0D01*
G01*
G37*
G36*
G01*
X113000000Y-150450000D02*
X113350000Y-150450000D01*
G75*
G02*
X113525000Y-150625000I0J-175000D01*
G01*
X113525000Y-152325000D01*
G75*
G02*
X113350000Y-152500000I-175000J0D01*
G01*
X113000000Y-152500000D01*
G75*
G02*
X112825000Y-152325000I0J175000D01*
G01*
X112825000Y-150625000D01*
G75*
G02*
X113000000Y-150450000I175000J0D01*
G01*
G37*
G36*
G01*
X111730000Y-150450000D02*
X112080000Y-150450000D01*
G75*
G02*
X112255000Y-150625000I0J-175000D01*
G01*
X112255000Y-152325000D01*
G75*
G02*
X112080000Y-152500000I-175000J0D01*
G01*
X111730000Y-152500000D01*
G75*
G02*
X111555000Y-152325000I0J175000D01*
G01*
X111555000Y-150625000D01*
G75*
G02*
X111730000Y-150450000I175000J0D01*
G01*
G37*
G36*
G01*
X110460000Y-150450000D02*
X110810000Y-150450000D01*
G75*
G02*
X110985000Y-150625000I0J-175000D01*
G01*
X110985000Y-152325000D01*
G75*
G02*
X110810000Y-152500000I-175000J0D01*
G01*
X110460000Y-152500000D01*
G75*
G02*
X110285000Y-152325000I0J175000D01*
G01*
X110285000Y-150625000D01*
G75*
G02*
X110460000Y-150450000I175000J0D01*
G01*
G37*
G36*
G01*
X109190000Y-150450000D02*
X109540000Y-150450000D01*
G75*
G02*
X109715000Y-150625000I0J-175000D01*
G01*
X109715000Y-152325000D01*
G75*
G02*
X109540000Y-152500000I-175000J0D01*
G01*
X109190000Y-152500000D01*
G75*
G02*
X109015000Y-152325000I0J175000D01*
G01*
X109015000Y-150625000D01*
G75*
G02*
X109190000Y-150450000I175000J0D01*
G01*
G37*
G36*
G01*
X107920000Y-150450000D02*
X108270000Y-150450000D01*
G75*
G02*
X108445000Y-150625000I0J-175000D01*
G01*
X108445000Y-152325000D01*
G75*
G02*
X108270000Y-152500000I-175000J0D01*
G01*
X107920000Y-152500000D01*
G75*
G02*
X107745000Y-152325000I0J175000D01*
G01*
X107745000Y-150625000D01*
G75*
G02*
X107920000Y-150450000I175000J0D01*
G01*
G37*
G36*
G01*
X106650000Y-150450000D02*
X107000000Y-150450000D01*
G75*
G02*
X107175000Y-150625000I0J-175000D01*
G01*
X107175000Y-152325000D01*
G75*
G02*
X107000000Y-152500000I-175000J0D01*
G01*
X106650000Y-152500000D01*
G75*
G02*
X106475000Y-152325000I0J175000D01*
G01*
X106475000Y-150625000D01*
G75*
G02*
X106650000Y-150450000I175000J0D01*
G01*
G37*
G36*
G01*
X105380000Y-150450000D02*
X105730000Y-150450000D01*
G75*
G02*
X105905000Y-150625000I0J-175000D01*
G01*
X105905000Y-152325000D01*
G75*
G02*
X105730000Y-152500000I-175000J0D01*
G01*
X105380000Y-152500000D01*
G75*
G02*
X105205000Y-152325000I0J175000D01*
G01*
X105205000Y-150625000D01*
G75*
G02*
X105380000Y-150450000I175000J0D01*
G01*
G37*
G36*
G01*
X105380000Y-145500000D02*
X105730000Y-145500000D01*
G75*
G02*
X105905000Y-145675000I0J-175000D01*
G01*
X105905000Y-147375000D01*
G75*
G02*
X105730000Y-147550000I-175000J0D01*
G01*
X105380000Y-147550000D01*
G75*
G02*
X105205000Y-147375000I0J175000D01*
G01*
X105205000Y-145675000D01*
G75*
G02*
X105380000Y-145500000I175000J0D01*
G01*
G37*
G36*
G01*
X106650000Y-145500000D02*
X107000000Y-145500000D01*
G75*
G02*
X107175000Y-145675000I0J-175000D01*
G01*
X107175000Y-147375000D01*
G75*
G02*
X107000000Y-147550000I-175000J0D01*
G01*
X106650000Y-147550000D01*
G75*
G02*
X106475000Y-147375000I0J175000D01*
G01*
X106475000Y-145675000D01*
G75*
G02*
X106650000Y-145500000I175000J0D01*
G01*
G37*
G36*
G01*
X107920000Y-145500000D02*
X108270000Y-145500000D01*
G75*
G02*
X108445000Y-145675000I0J-175000D01*
G01*
X108445000Y-147375000D01*
G75*
G02*
X108270000Y-147550000I-175000J0D01*
G01*
X107920000Y-147550000D01*
G75*
G02*
X107745000Y-147375000I0J175000D01*
G01*
X107745000Y-145675000D01*
G75*
G02*
X107920000Y-145500000I175000J0D01*
G01*
G37*
G36*
G01*
X109190000Y-145500000D02*
X109540000Y-145500000D01*
G75*
G02*
X109715000Y-145675000I0J-175000D01*
G01*
X109715000Y-147375000D01*
G75*
G02*
X109540000Y-147550000I-175000J0D01*
G01*
X109190000Y-147550000D01*
G75*
G02*
X109015000Y-147375000I0J175000D01*
G01*
X109015000Y-145675000D01*
G75*
G02*
X109190000Y-145500000I175000J0D01*
G01*
G37*
G36*
G01*
X110460000Y-145500000D02*
X110810000Y-145500000D01*
G75*
G02*
X110985000Y-145675000I0J-175000D01*
G01*
X110985000Y-147375000D01*
G75*
G02*
X110810000Y-147550000I-175000J0D01*
G01*
X110460000Y-147550000D01*
G75*
G02*
X110285000Y-147375000I0J175000D01*
G01*
X110285000Y-145675000D01*
G75*
G02*
X110460000Y-145500000I175000J0D01*
G01*
G37*
G36*
G01*
X111730000Y-145500000D02*
X112080000Y-145500000D01*
G75*
G02*
X112255000Y-145675000I0J-175000D01*
G01*
X112255000Y-147375000D01*
G75*
G02*
X112080000Y-147550000I-175000J0D01*
G01*
X111730000Y-147550000D01*
G75*
G02*
X111555000Y-147375000I0J175000D01*
G01*
X111555000Y-145675000D01*
G75*
G02*
X111730000Y-145500000I175000J0D01*
G01*
G37*
G36*
G01*
X113000000Y-145500000D02*
X113350000Y-145500000D01*
G75*
G02*
X113525000Y-145675000I0J-175000D01*
G01*
X113525000Y-147375000D01*
G75*
G02*
X113350000Y-147550000I-175000J0D01*
G01*
X113000000Y-147550000D01*
G75*
G02*
X112825000Y-147375000I0J175000D01*
G01*
X112825000Y-145675000D01*
G75*
G02*
X113000000Y-145500000I175000J0D01*
G01*
G37*
G36*
G01*
X114270000Y-145500000D02*
X114620000Y-145500000D01*
G75*
G02*
X114795000Y-145675000I0J-175000D01*
G01*
X114795000Y-147375000D01*
G75*
G02*
X114620000Y-147550000I-175000J0D01*
G01*
X114270000Y-147550000D01*
G75*
G02*
X114095000Y-147375000I0J175000D01*
G01*
X114095000Y-145675000D01*
G75*
G02*
X114270000Y-145500000I175000J0D01*
G01*
G37*
G36*
G01*
X85240000Y-163157500D02*
X85240000Y-163682500D01*
G75*
G02*
X84977500Y-163945000I-262500J0D01*
G01*
X84352500Y-163945000D01*
G75*
G02*
X84090000Y-163682500I0J262500D01*
G01*
X84090000Y-163157500D01*
G75*
G02*
X84352500Y-162895000I262500J0D01*
G01*
X84977500Y-162895000D01*
G75*
G02*
X85240000Y-163157500I0J-262500D01*
G01*
G37*
G36*
G01*
X86990000Y-163157500D02*
X86990000Y-163682500D01*
G75*
G02*
X86727500Y-163945000I-262500J0D01*
G01*
X86102500Y-163945000D01*
G75*
G02*
X85840000Y-163682500I0J262500D01*
G01*
X85840000Y-163157500D01*
G75*
G02*
X86102500Y-162895000I262500J0D01*
G01*
X86727500Y-162895000D01*
G75*
G02*
X86990000Y-163157500I0J-262500D01*
G01*
G37*
D10*
X86600000Y-158550000D03*
X86600000Y-160450000D03*
X84400000Y-160450000D03*
X84400000Y-159500000D03*
X84400000Y-158550000D03*
D11*
X85540000Y-166520000D03*
X85540000Y-174320000D03*
D12*
X122720000Y-154650000D03*
X122720000Y-147350000D03*
X124930000Y-147350000D03*
X124930000Y-154650000D03*
D13*
X122070000Y-148750000D03*
X122070000Y-150250000D03*
X122070000Y-153250000D03*
D14*
X123830000Y-149500000D03*
X123830000Y-152500000D03*
D15*
X122000000Y-160840000D03*
X122000000Y-163380000D03*
X122000000Y-165920000D03*
X122000000Y-168460000D03*
D16*
X122000000Y-171000000D03*
D17*
X51700000Y-159100000D03*
X51700000Y-173300000D03*
X74600000Y-159100000D03*
X74600000Y-173600000D03*
X74600000Y-162600000D03*
X74600000Y-170200000D03*
D18*
X108500000Y-173600000D03*
X106500000Y-173600000D03*
X104500000Y-173600000D03*
X102500000Y-173600000D03*
X100500000Y-173600000D03*
X98500000Y-173600000D03*
X96500000Y-173600000D03*
X94500000Y-173600000D03*
D19*
X93000000Y-171000000D03*
X93000000Y-169000000D03*
X93000000Y-167000000D03*
X93000000Y-165000000D03*
X93000000Y-163000000D03*
X93000000Y-161000000D03*
D18*
X94500000Y-158400000D03*
X96500000Y-158400000D03*
X98500000Y-158400000D03*
X100500000Y-158400000D03*
X102500000Y-158400000D03*
X104500000Y-158400000D03*
X106500000Y-158400000D03*
X108500000Y-158400000D03*
G36*
G01*
X56300000Y-112281250D02*
X56300000Y-111718750D01*
G75*
G02*
X56543750Y-111475000I243750J0D01*
G01*
X57031250Y-111475000D01*
G75*
G02*
X57275000Y-111718750I0J-243750D01*
G01*
X57275000Y-112281250D01*
G75*
G02*
X57031250Y-112525000I-243750J0D01*
G01*
X56543750Y-112525000D01*
G75*
G02*
X56300000Y-112281250I0J243750D01*
G01*
G37*
G36*
G01*
X54725000Y-112281250D02*
X54725000Y-111718750D01*
G75*
G02*
X54968750Y-111475000I243750J0D01*
G01*
X55456250Y-111475000D01*
G75*
G02*
X55700000Y-111718750I0J-243750D01*
G01*
X55700000Y-112281250D01*
G75*
G02*
X55456250Y-112525000I-243750J0D01*
G01*
X54968750Y-112525000D01*
G75*
G02*
X54725000Y-112281250I0J243750D01*
G01*
G37*
G36*
G01*
X121450000Y-139737500D02*
X121450000Y-140262500D01*
G75*
G02*
X121187500Y-140525000I-262500J0D01*
G01*
X120562500Y-140525000D01*
G75*
G02*
X120300000Y-140262500I0J262500D01*
G01*
X120300000Y-139737500D01*
G75*
G02*
X120562500Y-139475000I262500J0D01*
G01*
X121187500Y-139475000D01*
G75*
G02*
X121450000Y-139737500I0J-262500D01*
G01*
G37*
G36*
G01*
X119700000Y-139737500D02*
X119700000Y-140262500D01*
G75*
G02*
X119437500Y-140525000I-262500J0D01*
G01*
X118812500Y-140525000D01*
G75*
G02*
X118550000Y-140262500I0J262500D01*
G01*
X118550000Y-139737500D01*
G75*
G02*
X118812500Y-139475000I262500J0D01*
G01*
X119437500Y-139475000D01*
G75*
G02*
X119700000Y-139737500I0J-262500D01*
G01*
G37*
G36*
G01*
X121450000Y-135737500D02*
X121450000Y-136262500D01*
G75*
G02*
X121187500Y-136525000I-262500J0D01*
G01*
X120562500Y-136525000D01*
G75*
G02*
X120300000Y-136262500I0J262500D01*
G01*
X120300000Y-135737500D01*
G75*
G02*
X120562500Y-135475000I262500J0D01*
G01*
X121187500Y-135475000D01*
G75*
G02*
X121450000Y-135737500I0J-262500D01*
G01*
G37*
G36*
G01*
X119700000Y-135737500D02*
X119700000Y-136262500D01*
G75*
G02*
X119437500Y-136525000I-262500J0D01*
G01*
X118812500Y-136525000D01*
G75*
G02*
X118550000Y-136262500I0J262500D01*
G01*
X118550000Y-135737500D01*
G75*
G02*
X118812500Y-135475000I262500J0D01*
G01*
X119437500Y-135475000D01*
G75*
G02*
X119700000Y-135737500I0J-262500D01*
G01*
G37*
G36*
G01*
X121450000Y-131737500D02*
X121450000Y-132262500D01*
G75*
G02*
X121187500Y-132525000I-262500J0D01*
G01*
X120562500Y-132525000D01*
G75*
G02*
X120300000Y-132262500I0J262500D01*
G01*
X120300000Y-131737500D01*
G75*
G02*
X120562500Y-131475000I262500J0D01*
G01*
X121187500Y-131475000D01*
G75*
G02*
X121450000Y-131737500I0J-262500D01*
G01*
G37*
G36*
G01*
X119700000Y-131737500D02*
X119700000Y-132262500D01*
G75*
G02*
X119437500Y-132525000I-262500J0D01*
G01*
X118812500Y-132525000D01*
G75*
G02*
X118550000Y-132262500I0J262500D01*
G01*
X118550000Y-131737500D01*
G75*
G02*
X118812500Y-131475000I262500J0D01*
G01*
X119437500Y-131475000D01*
G75*
G02*
X119700000Y-131737500I0J-262500D01*
G01*
G37*
G36*
G01*
X121450000Y-127737500D02*
X121450000Y-128262500D01*
G75*
G02*
X121187500Y-128525000I-262500J0D01*
G01*
X120562500Y-128525000D01*
G75*
G02*
X120300000Y-128262500I0J262500D01*
G01*
X120300000Y-127737500D01*
G75*
G02*
X120562500Y-127475000I262500J0D01*
G01*
X121187500Y-127475000D01*
G75*
G02*
X121450000Y-127737500I0J-262500D01*
G01*
G37*
G36*
G01*
X119700000Y-127737500D02*
X119700000Y-128262500D01*
G75*
G02*
X119437500Y-128525000I-262500J0D01*
G01*
X118812500Y-128525000D01*
G75*
G02*
X118550000Y-128262500I0J262500D01*
G01*
X118550000Y-127737500D01*
G75*
G02*
X118812500Y-127475000I262500J0D01*
G01*
X119437500Y-127475000D01*
G75*
G02*
X119700000Y-127737500I0J-262500D01*
G01*
G37*
G36*
G01*
X121450000Y-123737500D02*
X121450000Y-124262500D01*
G75*
G02*
X121187500Y-124525000I-262500J0D01*
G01*
X120562500Y-124525000D01*
G75*
G02*
X120300000Y-124262500I0J262500D01*
G01*
X120300000Y-123737500D01*
G75*
G02*
X120562500Y-123475000I262500J0D01*
G01*
X121187500Y-123475000D01*
G75*
G02*
X121450000Y-123737500I0J-262500D01*
G01*
G37*
G36*
G01*
X119700000Y-123737500D02*
X119700000Y-124262500D01*
G75*
G02*
X119437500Y-124525000I-262500J0D01*
G01*
X118812500Y-124525000D01*
G75*
G02*
X118550000Y-124262500I0J262500D01*
G01*
X118550000Y-123737500D01*
G75*
G02*
X118812500Y-123475000I262500J0D01*
G01*
X119437500Y-123475000D01*
G75*
G02*
X119700000Y-123737500I0J-262500D01*
G01*
G37*
G36*
G01*
X121450000Y-119737500D02*
X121450000Y-120262500D01*
G75*
G02*
X121187500Y-120525000I-262500J0D01*
G01*
X120562500Y-120525000D01*
G75*
G02*
X120300000Y-120262500I0J262500D01*
G01*
X120300000Y-119737500D01*
G75*
G02*
X120562500Y-119475000I262500J0D01*
G01*
X121187500Y-119475000D01*
G75*
G02*
X121450000Y-119737500I0J-262500D01*
G01*
G37*
G36*
G01*
X119700000Y-119737500D02*
X119700000Y-120262500D01*
G75*
G02*
X119437500Y-120525000I-262500J0D01*
G01*
X118812500Y-120525000D01*
G75*
G02*
X118550000Y-120262500I0J262500D01*
G01*
X118550000Y-119737500D01*
G75*
G02*
X118812500Y-119475000I262500J0D01*
G01*
X119437500Y-119475000D01*
G75*
G02*
X119700000Y-119737500I0J-262500D01*
G01*
G37*
G36*
G01*
X119700000Y-115737500D02*
X119700000Y-116262500D01*
G75*
G02*
X119437500Y-116525000I-262500J0D01*
G01*
X118812500Y-116525000D01*
G75*
G02*
X118550000Y-116262500I0J262500D01*
G01*
X118550000Y-115737500D01*
G75*
G02*
X118812500Y-115475000I262500J0D01*
G01*
X119437500Y-115475000D01*
G75*
G02*
X119700000Y-115737500I0J-262500D01*
G01*
G37*
G36*
G01*
X121450000Y-115737500D02*
X121450000Y-116262500D01*
G75*
G02*
X121187500Y-116525000I-262500J0D01*
G01*
X120562500Y-116525000D01*
G75*
G02*
X120300000Y-116262500I0J262500D01*
G01*
X120300000Y-115737500D01*
G75*
G02*
X120562500Y-115475000I262500J0D01*
G01*
X121187500Y-115475000D01*
G75*
G02*
X121450000Y-115737500I0J-262500D01*
G01*
G37*
G36*
G01*
X119700000Y-111737500D02*
X119700000Y-112262500D01*
G75*
G02*
X119437500Y-112525000I-262500J0D01*
G01*
X118812500Y-112525000D01*
G75*
G02*
X118550000Y-112262500I0J262500D01*
G01*
X118550000Y-111737500D01*
G75*
G02*
X118812500Y-111475000I262500J0D01*
G01*
X119437500Y-111475000D01*
G75*
G02*
X119700000Y-111737500I0J-262500D01*
G01*
G37*
G36*
G01*
X121450000Y-111737500D02*
X121450000Y-112262500D01*
G75*
G02*
X121187500Y-112525000I-262500J0D01*
G01*
X120562500Y-112525000D01*
G75*
G02*
X120300000Y-112262500I0J262500D01*
G01*
X120300000Y-111737500D01*
G75*
G02*
X120562500Y-111475000I262500J0D01*
G01*
X121187500Y-111475000D01*
G75*
G02*
X121450000Y-111737500I0J-262500D01*
G01*
G37*
G36*
G01*
X114725000Y-140281250D02*
X114725000Y-139718750D01*
G75*
G02*
X114968750Y-139475000I243750J0D01*
G01*
X115456250Y-139475000D01*
G75*
G02*
X115700000Y-139718750I0J-243750D01*
G01*
X115700000Y-140281250D01*
G75*
G02*
X115456250Y-140525000I-243750J0D01*
G01*
X114968750Y-140525000D01*
G75*
G02*
X114725000Y-140281250I0J243750D01*
G01*
G37*
G36*
G01*
X116300000Y-140281250D02*
X116300000Y-139718750D01*
G75*
G02*
X116543750Y-139475000I243750J0D01*
G01*
X117031250Y-139475000D01*
G75*
G02*
X117275000Y-139718750I0J-243750D01*
G01*
X117275000Y-140281250D01*
G75*
G02*
X117031250Y-140525000I-243750J0D01*
G01*
X116543750Y-140525000D01*
G75*
G02*
X116300000Y-140281250I0J243750D01*
G01*
G37*
G36*
G01*
X114725000Y-136281250D02*
X114725000Y-135718750D01*
G75*
G02*
X114968750Y-135475000I243750J0D01*
G01*
X115456250Y-135475000D01*
G75*
G02*
X115700000Y-135718750I0J-243750D01*
G01*
X115700000Y-136281250D01*
G75*
G02*
X115456250Y-136525000I-243750J0D01*
G01*
X114968750Y-136525000D01*
G75*
G02*
X114725000Y-136281250I0J243750D01*
G01*
G37*
G36*
G01*
X116300000Y-136281250D02*
X116300000Y-135718750D01*
G75*
G02*
X116543750Y-135475000I243750J0D01*
G01*
X117031250Y-135475000D01*
G75*
G02*
X117275000Y-135718750I0J-243750D01*
G01*
X117275000Y-136281250D01*
G75*
G02*
X117031250Y-136525000I-243750J0D01*
G01*
X116543750Y-136525000D01*
G75*
G02*
X116300000Y-136281250I0J243750D01*
G01*
G37*
G36*
G01*
X114725000Y-132281250D02*
X114725000Y-131718750D01*
G75*
G02*
X114968750Y-131475000I243750J0D01*
G01*
X115456250Y-131475000D01*
G75*
G02*
X115700000Y-131718750I0J-243750D01*
G01*
X115700000Y-132281250D01*
G75*
G02*
X115456250Y-132525000I-243750J0D01*
G01*
X114968750Y-132525000D01*
G75*
G02*
X114725000Y-132281250I0J243750D01*
G01*
G37*
G36*
G01*
X116300000Y-132281250D02*
X116300000Y-131718750D01*
G75*
G02*
X116543750Y-131475000I243750J0D01*
G01*
X117031250Y-131475000D01*
G75*
G02*
X117275000Y-131718750I0J-243750D01*
G01*
X117275000Y-132281250D01*
G75*
G02*
X117031250Y-132525000I-243750J0D01*
G01*
X116543750Y-132525000D01*
G75*
G02*
X116300000Y-132281250I0J243750D01*
G01*
G37*
G36*
G01*
X114725000Y-128281250D02*
X114725000Y-127718750D01*
G75*
G02*
X114968750Y-127475000I243750J0D01*
G01*
X115456250Y-127475000D01*
G75*
G02*
X115700000Y-127718750I0J-243750D01*
G01*
X115700000Y-128281250D01*
G75*
G02*
X115456250Y-128525000I-243750J0D01*
G01*
X114968750Y-128525000D01*
G75*
G02*
X114725000Y-128281250I0J243750D01*
G01*
G37*
G36*
G01*
X116300000Y-128281250D02*
X116300000Y-127718750D01*
G75*
G02*
X116543750Y-127475000I243750J0D01*
G01*
X117031250Y-127475000D01*
G75*
G02*
X117275000Y-127718750I0J-243750D01*
G01*
X117275000Y-128281250D01*
G75*
G02*
X117031250Y-128525000I-243750J0D01*
G01*
X116543750Y-128525000D01*
G75*
G02*
X116300000Y-128281250I0J243750D01*
G01*
G37*
G36*
G01*
X114725000Y-124281250D02*
X114725000Y-123718750D01*
G75*
G02*
X114968750Y-123475000I243750J0D01*
G01*
X115456250Y-123475000D01*
G75*
G02*
X115700000Y-123718750I0J-243750D01*
G01*
X115700000Y-124281250D01*
G75*
G02*
X115456250Y-124525000I-243750J0D01*
G01*
X114968750Y-124525000D01*
G75*
G02*
X114725000Y-124281250I0J243750D01*
G01*
G37*
G36*
G01*
X116300000Y-124281250D02*
X116300000Y-123718750D01*
G75*
G02*
X116543750Y-123475000I243750J0D01*
G01*
X117031250Y-123475000D01*
G75*
G02*
X117275000Y-123718750I0J-243750D01*
G01*
X117275000Y-124281250D01*
G75*
G02*
X117031250Y-124525000I-243750J0D01*
G01*
X116543750Y-124525000D01*
G75*
G02*
X116300000Y-124281250I0J243750D01*
G01*
G37*
G36*
G01*
X114725000Y-120281250D02*
X114725000Y-119718750D01*
G75*
G02*
X114968750Y-119475000I243750J0D01*
G01*
X115456250Y-119475000D01*
G75*
G02*
X115700000Y-119718750I0J-243750D01*
G01*
X115700000Y-120281250D01*
G75*
G02*
X115456250Y-120525000I-243750J0D01*
G01*
X114968750Y-120525000D01*
G75*
G02*
X114725000Y-120281250I0J243750D01*
G01*
G37*
G36*
G01*
X116300000Y-120281250D02*
X116300000Y-119718750D01*
G75*
G02*
X116543750Y-119475000I243750J0D01*
G01*
X117031250Y-119475000D01*
G75*
G02*
X117275000Y-119718750I0J-243750D01*
G01*
X117275000Y-120281250D01*
G75*
G02*
X117031250Y-120525000I-243750J0D01*
G01*
X116543750Y-120525000D01*
G75*
G02*
X116300000Y-120281250I0J243750D01*
G01*
G37*
G36*
G01*
X116300000Y-116281250D02*
X116300000Y-115718750D01*
G75*
G02*
X116543750Y-115475000I243750J0D01*
G01*
X117031250Y-115475000D01*
G75*
G02*
X117275000Y-115718750I0J-243750D01*
G01*
X117275000Y-116281250D01*
G75*
G02*
X117031250Y-116525000I-243750J0D01*
G01*
X116543750Y-116525000D01*
G75*
G02*
X116300000Y-116281250I0J243750D01*
G01*
G37*
G36*
G01*
X114725000Y-116281250D02*
X114725000Y-115718750D01*
G75*
G02*
X114968750Y-115475000I243750J0D01*
G01*
X115456250Y-115475000D01*
G75*
G02*
X115700000Y-115718750I0J-243750D01*
G01*
X115700000Y-116281250D01*
G75*
G02*
X115456250Y-116525000I-243750J0D01*
G01*
X114968750Y-116525000D01*
G75*
G02*
X114725000Y-116281250I0J243750D01*
G01*
G37*
G36*
G01*
X114725000Y-112281250D02*
X114725000Y-111718750D01*
G75*
G02*
X114968750Y-111475000I243750J0D01*
G01*
X115456250Y-111475000D01*
G75*
G02*
X115700000Y-111718750I0J-243750D01*
G01*
X115700000Y-112281250D01*
G75*
G02*
X115456250Y-112525000I-243750J0D01*
G01*
X114968750Y-112525000D01*
G75*
G02*
X114725000Y-112281250I0J243750D01*
G01*
G37*
G36*
G01*
X116300000Y-112281250D02*
X116300000Y-111718750D01*
G75*
G02*
X116543750Y-111475000I243750J0D01*
G01*
X117031250Y-111475000D01*
G75*
G02*
X117275000Y-111718750I0J-243750D01*
G01*
X117275000Y-112281250D01*
G75*
G02*
X117031250Y-112525000I-243750J0D01*
G01*
X116543750Y-112525000D01*
G75*
G02*
X116300000Y-112281250I0J243750D01*
G01*
G37*
G36*
G01*
X110725000Y-140281250D02*
X110725000Y-139718750D01*
G75*
G02*
X110968750Y-139475000I243750J0D01*
G01*
X111456250Y-139475000D01*
G75*
G02*
X111700000Y-139718750I0J-243750D01*
G01*
X111700000Y-140281250D01*
G75*
G02*
X111456250Y-140525000I-243750J0D01*
G01*
X110968750Y-140525000D01*
G75*
G02*
X110725000Y-140281250I0J243750D01*
G01*
G37*
G36*
G01*
X112300000Y-140281250D02*
X112300000Y-139718750D01*
G75*
G02*
X112543750Y-139475000I243750J0D01*
G01*
X113031250Y-139475000D01*
G75*
G02*
X113275000Y-139718750I0J-243750D01*
G01*
X113275000Y-140281250D01*
G75*
G02*
X113031250Y-140525000I-243750J0D01*
G01*
X112543750Y-140525000D01*
G75*
G02*
X112300000Y-140281250I0J243750D01*
G01*
G37*
G36*
G01*
X110725000Y-136281250D02*
X110725000Y-135718750D01*
G75*
G02*
X110968750Y-135475000I243750J0D01*
G01*
X111456250Y-135475000D01*
G75*
G02*
X111700000Y-135718750I0J-243750D01*
G01*
X111700000Y-136281250D01*
G75*
G02*
X111456250Y-136525000I-243750J0D01*
G01*
X110968750Y-136525000D01*
G75*
G02*
X110725000Y-136281250I0J243750D01*
G01*
G37*
G36*
G01*
X112300000Y-136281250D02*
X112300000Y-135718750D01*
G75*
G02*
X112543750Y-135475000I243750J0D01*
G01*
X113031250Y-135475000D01*
G75*
G02*
X113275000Y-135718750I0J-243750D01*
G01*
X113275000Y-136281250D01*
G75*
G02*
X113031250Y-136525000I-243750J0D01*
G01*
X112543750Y-136525000D01*
G75*
G02*
X112300000Y-136281250I0J243750D01*
G01*
G37*
G36*
G01*
X110725000Y-132281250D02*
X110725000Y-131718750D01*
G75*
G02*
X110968750Y-131475000I243750J0D01*
G01*
X111456250Y-131475000D01*
G75*
G02*
X111700000Y-131718750I0J-243750D01*
G01*
X111700000Y-132281250D01*
G75*
G02*
X111456250Y-132525000I-243750J0D01*
G01*
X110968750Y-132525000D01*
G75*
G02*
X110725000Y-132281250I0J243750D01*
G01*
G37*
G36*
G01*
X112300000Y-132281250D02*
X112300000Y-131718750D01*
G75*
G02*
X112543750Y-131475000I243750J0D01*
G01*
X113031250Y-131475000D01*
G75*
G02*
X113275000Y-131718750I0J-243750D01*
G01*
X113275000Y-132281250D01*
G75*
G02*
X113031250Y-132525000I-243750J0D01*
G01*
X112543750Y-132525000D01*
G75*
G02*
X112300000Y-132281250I0J243750D01*
G01*
G37*
G36*
G01*
X110725000Y-128281250D02*
X110725000Y-127718750D01*
G75*
G02*
X110968750Y-127475000I243750J0D01*
G01*
X111456250Y-127475000D01*
G75*
G02*
X111700000Y-127718750I0J-243750D01*
G01*
X111700000Y-128281250D01*
G75*
G02*
X111456250Y-128525000I-243750J0D01*
G01*
X110968750Y-128525000D01*
G75*
G02*
X110725000Y-128281250I0J243750D01*
G01*
G37*
G36*
G01*
X112300000Y-128281250D02*
X112300000Y-127718750D01*
G75*
G02*
X112543750Y-127475000I243750J0D01*
G01*
X113031250Y-127475000D01*
G75*
G02*
X113275000Y-127718750I0J-243750D01*
G01*
X113275000Y-128281250D01*
G75*
G02*
X113031250Y-128525000I-243750J0D01*
G01*
X112543750Y-128525000D01*
G75*
G02*
X112300000Y-128281250I0J243750D01*
G01*
G37*
G36*
G01*
X110725000Y-124281250D02*
X110725000Y-123718750D01*
G75*
G02*
X110968750Y-123475000I243750J0D01*
G01*
X111456250Y-123475000D01*
G75*
G02*
X111700000Y-123718750I0J-243750D01*
G01*
X111700000Y-124281250D01*
G75*
G02*
X111456250Y-124525000I-243750J0D01*
G01*
X110968750Y-124525000D01*
G75*
G02*
X110725000Y-124281250I0J243750D01*
G01*
G37*
G36*
G01*
X112300000Y-124281250D02*
X112300000Y-123718750D01*
G75*
G02*
X112543750Y-123475000I243750J0D01*
G01*
X113031250Y-123475000D01*
G75*
G02*
X113275000Y-123718750I0J-243750D01*
G01*
X113275000Y-124281250D01*
G75*
G02*
X113031250Y-124525000I-243750J0D01*
G01*
X112543750Y-124525000D01*
G75*
G02*
X112300000Y-124281250I0J243750D01*
G01*
G37*
G36*
G01*
X110725000Y-120281250D02*
X110725000Y-119718750D01*
G75*
G02*
X110968750Y-119475000I243750J0D01*
G01*
X111456250Y-119475000D01*
G75*
G02*
X111700000Y-119718750I0J-243750D01*
G01*
X111700000Y-120281250D01*
G75*
G02*
X111456250Y-120525000I-243750J0D01*
G01*
X110968750Y-120525000D01*
G75*
G02*
X110725000Y-120281250I0J243750D01*
G01*
G37*
G36*
G01*
X112300000Y-120281250D02*
X112300000Y-119718750D01*
G75*
G02*
X112543750Y-119475000I243750J0D01*
G01*
X113031250Y-119475000D01*
G75*
G02*
X113275000Y-119718750I0J-243750D01*
G01*
X113275000Y-120281250D01*
G75*
G02*
X113031250Y-120525000I-243750J0D01*
G01*
X112543750Y-120525000D01*
G75*
G02*
X112300000Y-120281250I0J243750D01*
G01*
G37*
G36*
G01*
X112300000Y-116281250D02*
X112300000Y-115718750D01*
G75*
G02*
X112543750Y-115475000I243750J0D01*
G01*
X113031250Y-115475000D01*
G75*
G02*
X113275000Y-115718750I0J-243750D01*
G01*
X113275000Y-116281250D01*
G75*
G02*
X113031250Y-116525000I-243750J0D01*
G01*
X112543750Y-116525000D01*
G75*
G02*
X112300000Y-116281250I0J243750D01*
G01*
G37*
G36*
G01*
X110725000Y-116281250D02*
X110725000Y-115718750D01*
G75*
G02*
X110968750Y-115475000I243750J0D01*
G01*
X111456250Y-115475000D01*
G75*
G02*
X111700000Y-115718750I0J-243750D01*
G01*
X111700000Y-116281250D01*
G75*
G02*
X111456250Y-116525000I-243750J0D01*
G01*
X110968750Y-116525000D01*
G75*
G02*
X110725000Y-116281250I0J243750D01*
G01*
G37*
G36*
G01*
X110725000Y-112281250D02*
X110725000Y-111718750D01*
G75*
G02*
X110968750Y-111475000I243750J0D01*
G01*
X111456250Y-111475000D01*
G75*
G02*
X111700000Y-111718750I0J-243750D01*
G01*
X111700000Y-112281250D01*
G75*
G02*
X111456250Y-112525000I-243750J0D01*
G01*
X110968750Y-112525000D01*
G75*
G02*
X110725000Y-112281250I0J243750D01*
G01*
G37*
G36*
G01*
X112300000Y-112281250D02*
X112300000Y-111718750D01*
G75*
G02*
X112543750Y-111475000I243750J0D01*
G01*
X113031250Y-111475000D01*
G75*
G02*
X113275000Y-111718750I0J-243750D01*
G01*
X113275000Y-112281250D01*
G75*
G02*
X113031250Y-112525000I-243750J0D01*
G01*
X112543750Y-112525000D01*
G75*
G02*
X112300000Y-112281250I0J243750D01*
G01*
G37*
G36*
G01*
X106725000Y-140281250D02*
X106725000Y-139718750D01*
G75*
G02*
X106968750Y-139475000I243750J0D01*
G01*
X107456250Y-139475000D01*
G75*
G02*
X107700000Y-139718750I0J-243750D01*
G01*
X107700000Y-140281250D01*
G75*
G02*
X107456250Y-140525000I-243750J0D01*
G01*
X106968750Y-140525000D01*
G75*
G02*
X106725000Y-140281250I0J243750D01*
G01*
G37*
G36*
G01*
X108300000Y-140281250D02*
X108300000Y-139718750D01*
G75*
G02*
X108543750Y-139475000I243750J0D01*
G01*
X109031250Y-139475000D01*
G75*
G02*
X109275000Y-139718750I0J-243750D01*
G01*
X109275000Y-140281250D01*
G75*
G02*
X109031250Y-140525000I-243750J0D01*
G01*
X108543750Y-140525000D01*
G75*
G02*
X108300000Y-140281250I0J243750D01*
G01*
G37*
G36*
G01*
X106725000Y-136281250D02*
X106725000Y-135718750D01*
G75*
G02*
X106968750Y-135475000I243750J0D01*
G01*
X107456250Y-135475000D01*
G75*
G02*
X107700000Y-135718750I0J-243750D01*
G01*
X107700000Y-136281250D01*
G75*
G02*
X107456250Y-136525000I-243750J0D01*
G01*
X106968750Y-136525000D01*
G75*
G02*
X106725000Y-136281250I0J243750D01*
G01*
G37*
G36*
G01*
X108300000Y-136281250D02*
X108300000Y-135718750D01*
G75*
G02*
X108543750Y-135475000I243750J0D01*
G01*
X109031250Y-135475000D01*
G75*
G02*
X109275000Y-135718750I0J-243750D01*
G01*
X109275000Y-136281250D01*
G75*
G02*
X109031250Y-136525000I-243750J0D01*
G01*
X108543750Y-136525000D01*
G75*
G02*
X108300000Y-136281250I0J243750D01*
G01*
G37*
G36*
G01*
X106725000Y-132281250D02*
X106725000Y-131718750D01*
G75*
G02*
X106968750Y-131475000I243750J0D01*
G01*
X107456250Y-131475000D01*
G75*
G02*
X107700000Y-131718750I0J-243750D01*
G01*
X107700000Y-132281250D01*
G75*
G02*
X107456250Y-132525000I-243750J0D01*
G01*
X106968750Y-132525000D01*
G75*
G02*
X106725000Y-132281250I0J243750D01*
G01*
G37*
G36*
G01*
X108300000Y-132281250D02*
X108300000Y-131718750D01*
G75*
G02*
X108543750Y-131475000I243750J0D01*
G01*
X109031250Y-131475000D01*
G75*
G02*
X109275000Y-131718750I0J-243750D01*
G01*
X109275000Y-132281250D01*
G75*
G02*
X109031250Y-132525000I-243750J0D01*
G01*
X108543750Y-132525000D01*
G75*
G02*
X108300000Y-132281250I0J243750D01*
G01*
G37*
G36*
G01*
X106725000Y-128281250D02*
X106725000Y-127718750D01*
G75*
G02*
X106968750Y-127475000I243750J0D01*
G01*
X107456250Y-127475000D01*
G75*
G02*
X107700000Y-127718750I0J-243750D01*
G01*
X107700000Y-128281250D01*
G75*
G02*
X107456250Y-128525000I-243750J0D01*
G01*
X106968750Y-128525000D01*
G75*
G02*
X106725000Y-128281250I0J243750D01*
G01*
G37*
G36*
G01*
X108300000Y-128281250D02*
X108300000Y-127718750D01*
G75*
G02*
X108543750Y-127475000I243750J0D01*
G01*
X109031250Y-127475000D01*
G75*
G02*
X109275000Y-127718750I0J-243750D01*
G01*
X109275000Y-128281250D01*
G75*
G02*
X109031250Y-128525000I-243750J0D01*
G01*
X108543750Y-128525000D01*
G75*
G02*
X108300000Y-128281250I0J243750D01*
G01*
G37*
G36*
G01*
X106725000Y-124281250D02*
X106725000Y-123718750D01*
G75*
G02*
X106968750Y-123475000I243750J0D01*
G01*
X107456250Y-123475000D01*
G75*
G02*
X107700000Y-123718750I0J-243750D01*
G01*
X107700000Y-124281250D01*
G75*
G02*
X107456250Y-124525000I-243750J0D01*
G01*
X106968750Y-124525000D01*
G75*
G02*
X106725000Y-124281250I0J243750D01*
G01*
G37*
G36*
G01*
X108300000Y-124281250D02*
X108300000Y-123718750D01*
G75*
G02*
X108543750Y-123475000I243750J0D01*
G01*
X109031250Y-123475000D01*
G75*
G02*
X109275000Y-123718750I0J-243750D01*
G01*
X109275000Y-124281250D01*
G75*
G02*
X109031250Y-124525000I-243750J0D01*
G01*
X108543750Y-124525000D01*
G75*
G02*
X108300000Y-124281250I0J243750D01*
G01*
G37*
G36*
G01*
X106725000Y-120281250D02*
X106725000Y-119718750D01*
G75*
G02*
X106968750Y-119475000I243750J0D01*
G01*
X107456250Y-119475000D01*
G75*
G02*
X107700000Y-119718750I0J-243750D01*
G01*
X107700000Y-120281250D01*
G75*
G02*
X107456250Y-120525000I-243750J0D01*
G01*
X106968750Y-120525000D01*
G75*
G02*
X106725000Y-120281250I0J243750D01*
G01*
G37*
G36*
G01*
X108300000Y-120281250D02*
X108300000Y-119718750D01*
G75*
G02*
X108543750Y-119475000I243750J0D01*
G01*
X109031250Y-119475000D01*
G75*
G02*
X109275000Y-119718750I0J-243750D01*
G01*
X109275000Y-120281250D01*
G75*
G02*
X109031250Y-120525000I-243750J0D01*
G01*
X108543750Y-120525000D01*
G75*
G02*
X108300000Y-120281250I0J243750D01*
G01*
G37*
G36*
G01*
X108300000Y-116281250D02*
X108300000Y-115718750D01*
G75*
G02*
X108543750Y-115475000I243750J0D01*
G01*
X109031250Y-115475000D01*
G75*
G02*
X109275000Y-115718750I0J-243750D01*
G01*
X109275000Y-116281250D01*
G75*
G02*
X109031250Y-116525000I-243750J0D01*
G01*
X108543750Y-116525000D01*
G75*
G02*
X108300000Y-116281250I0J243750D01*
G01*
G37*
G36*
G01*
X106725000Y-116281250D02*
X106725000Y-115718750D01*
G75*
G02*
X106968750Y-115475000I243750J0D01*
G01*
X107456250Y-115475000D01*
G75*
G02*
X107700000Y-115718750I0J-243750D01*
G01*
X107700000Y-116281250D01*
G75*
G02*
X107456250Y-116525000I-243750J0D01*
G01*
X106968750Y-116525000D01*
G75*
G02*
X106725000Y-116281250I0J243750D01*
G01*
G37*
G36*
G01*
X106725000Y-112281250D02*
X106725000Y-111718750D01*
G75*
G02*
X106968750Y-111475000I243750J0D01*
G01*
X107456250Y-111475000D01*
G75*
G02*
X107700000Y-111718750I0J-243750D01*
G01*
X107700000Y-112281250D01*
G75*
G02*
X107456250Y-112525000I-243750J0D01*
G01*
X106968750Y-112525000D01*
G75*
G02*
X106725000Y-112281250I0J243750D01*
G01*
G37*
G36*
G01*
X108300000Y-112281250D02*
X108300000Y-111718750D01*
G75*
G02*
X108543750Y-111475000I243750J0D01*
G01*
X109031250Y-111475000D01*
G75*
G02*
X109275000Y-111718750I0J-243750D01*
G01*
X109275000Y-112281250D01*
G75*
G02*
X109031250Y-112525000I-243750J0D01*
G01*
X108543750Y-112525000D01*
G75*
G02*
X108300000Y-112281250I0J243750D01*
G01*
G37*
G36*
G01*
X102725000Y-140281250D02*
X102725000Y-139718750D01*
G75*
G02*
X102968750Y-139475000I243750J0D01*
G01*
X103456250Y-139475000D01*
G75*
G02*
X103700000Y-139718750I0J-243750D01*
G01*
X103700000Y-140281250D01*
G75*
G02*
X103456250Y-140525000I-243750J0D01*
G01*
X102968750Y-140525000D01*
G75*
G02*
X102725000Y-140281250I0J243750D01*
G01*
G37*
G36*
G01*
X104300000Y-140281250D02*
X104300000Y-139718750D01*
G75*
G02*
X104543750Y-139475000I243750J0D01*
G01*
X105031250Y-139475000D01*
G75*
G02*
X105275000Y-139718750I0J-243750D01*
G01*
X105275000Y-140281250D01*
G75*
G02*
X105031250Y-140525000I-243750J0D01*
G01*
X104543750Y-140525000D01*
G75*
G02*
X104300000Y-140281250I0J243750D01*
G01*
G37*
G36*
G01*
X102725000Y-136281250D02*
X102725000Y-135718750D01*
G75*
G02*
X102968750Y-135475000I243750J0D01*
G01*
X103456250Y-135475000D01*
G75*
G02*
X103700000Y-135718750I0J-243750D01*
G01*
X103700000Y-136281250D01*
G75*
G02*
X103456250Y-136525000I-243750J0D01*
G01*
X102968750Y-136525000D01*
G75*
G02*
X102725000Y-136281250I0J243750D01*
G01*
G37*
G36*
G01*
X104300000Y-136281250D02*
X104300000Y-135718750D01*
G75*
G02*
X104543750Y-135475000I243750J0D01*
G01*
X105031250Y-135475000D01*
G75*
G02*
X105275000Y-135718750I0J-243750D01*
G01*
X105275000Y-136281250D01*
G75*
G02*
X105031250Y-136525000I-243750J0D01*
G01*
X104543750Y-136525000D01*
G75*
G02*
X104300000Y-136281250I0J243750D01*
G01*
G37*
G36*
G01*
X102725000Y-132281250D02*
X102725000Y-131718750D01*
G75*
G02*
X102968750Y-131475000I243750J0D01*
G01*
X103456250Y-131475000D01*
G75*
G02*
X103700000Y-131718750I0J-243750D01*
G01*
X103700000Y-132281250D01*
G75*
G02*
X103456250Y-132525000I-243750J0D01*
G01*
X102968750Y-132525000D01*
G75*
G02*
X102725000Y-132281250I0J243750D01*
G01*
G37*
G36*
G01*
X104300000Y-132281250D02*
X104300000Y-131718750D01*
G75*
G02*
X104543750Y-131475000I243750J0D01*
G01*
X105031250Y-131475000D01*
G75*
G02*
X105275000Y-131718750I0J-243750D01*
G01*
X105275000Y-132281250D01*
G75*
G02*
X105031250Y-132525000I-243750J0D01*
G01*
X104543750Y-132525000D01*
G75*
G02*
X104300000Y-132281250I0J243750D01*
G01*
G37*
G36*
G01*
X102725000Y-128281250D02*
X102725000Y-127718750D01*
G75*
G02*
X102968750Y-127475000I243750J0D01*
G01*
X103456250Y-127475000D01*
G75*
G02*
X103700000Y-127718750I0J-243750D01*
G01*
X103700000Y-128281250D01*
G75*
G02*
X103456250Y-128525000I-243750J0D01*
G01*
X102968750Y-128525000D01*
G75*
G02*
X102725000Y-128281250I0J243750D01*
G01*
G37*
G36*
G01*
X104300000Y-128281250D02*
X104300000Y-127718750D01*
G75*
G02*
X104543750Y-127475000I243750J0D01*
G01*
X105031250Y-127475000D01*
G75*
G02*
X105275000Y-127718750I0J-243750D01*
G01*
X105275000Y-128281250D01*
G75*
G02*
X105031250Y-128525000I-243750J0D01*
G01*
X104543750Y-128525000D01*
G75*
G02*
X104300000Y-128281250I0J243750D01*
G01*
G37*
G36*
G01*
X102725000Y-124281250D02*
X102725000Y-123718750D01*
G75*
G02*
X102968750Y-123475000I243750J0D01*
G01*
X103456250Y-123475000D01*
G75*
G02*
X103700000Y-123718750I0J-243750D01*
G01*
X103700000Y-124281250D01*
G75*
G02*
X103456250Y-124525000I-243750J0D01*
G01*
X102968750Y-124525000D01*
G75*
G02*
X102725000Y-124281250I0J243750D01*
G01*
G37*
G36*
G01*
X104300000Y-124281250D02*
X104300000Y-123718750D01*
G75*
G02*
X104543750Y-123475000I243750J0D01*
G01*
X105031250Y-123475000D01*
G75*
G02*
X105275000Y-123718750I0J-243750D01*
G01*
X105275000Y-124281250D01*
G75*
G02*
X105031250Y-124525000I-243750J0D01*
G01*
X104543750Y-124525000D01*
G75*
G02*
X104300000Y-124281250I0J243750D01*
G01*
G37*
G36*
G01*
X102725000Y-120281250D02*
X102725000Y-119718750D01*
G75*
G02*
X102968750Y-119475000I243750J0D01*
G01*
X103456250Y-119475000D01*
G75*
G02*
X103700000Y-119718750I0J-243750D01*
G01*
X103700000Y-120281250D01*
G75*
G02*
X103456250Y-120525000I-243750J0D01*
G01*
X102968750Y-120525000D01*
G75*
G02*
X102725000Y-120281250I0J243750D01*
G01*
G37*
G36*
G01*
X104300000Y-120281250D02*
X104300000Y-119718750D01*
G75*
G02*
X104543750Y-119475000I243750J0D01*
G01*
X105031250Y-119475000D01*
G75*
G02*
X105275000Y-119718750I0J-243750D01*
G01*
X105275000Y-120281250D01*
G75*
G02*
X105031250Y-120525000I-243750J0D01*
G01*
X104543750Y-120525000D01*
G75*
G02*
X104300000Y-120281250I0J243750D01*
G01*
G37*
G36*
G01*
X104300000Y-116281250D02*
X104300000Y-115718750D01*
G75*
G02*
X104543750Y-115475000I243750J0D01*
G01*
X105031250Y-115475000D01*
G75*
G02*
X105275000Y-115718750I0J-243750D01*
G01*
X105275000Y-116281250D01*
G75*
G02*
X105031250Y-116525000I-243750J0D01*
G01*
X104543750Y-116525000D01*
G75*
G02*
X104300000Y-116281250I0J243750D01*
G01*
G37*
G36*
G01*
X102725000Y-116281250D02*
X102725000Y-115718750D01*
G75*
G02*
X102968750Y-115475000I243750J0D01*
G01*
X103456250Y-115475000D01*
G75*
G02*
X103700000Y-115718750I0J-243750D01*
G01*
X103700000Y-116281250D01*
G75*
G02*
X103456250Y-116525000I-243750J0D01*
G01*
X102968750Y-116525000D01*
G75*
G02*
X102725000Y-116281250I0J243750D01*
G01*
G37*
G36*
G01*
X102709000Y-112281250D02*
X102709000Y-111718750D01*
G75*
G02*
X102952750Y-111475000I243750J0D01*
G01*
X103440250Y-111475000D01*
G75*
G02*
X103684000Y-111718750I0J-243750D01*
G01*
X103684000Y-112281250D01*
G75*
G02*
X103440250Y-112525000I-243750J0D01*
G01*
X102952750Y-112525000D01*
G75*
G02*
X102709000Y-112281250I0J243750D01*
G01*
G37*
G36*
G01*
X104284000Y-112281250D02*
X104284000Y-111718750D01*
G75*
G02*
X104527750Y-111475000I243750J0D01*
G01*
X105015250Y-111475000D01*
G75*
G02*
X105259000Y-111718750I0J-243750D01*
G01*
X105259000Y-112281250D01*
G75*
G02*
X105015250Y-112525000I-243750J0D01*
G01*
X104527750Y-112525000D01*
G75*
G02*
X104284000Y-112281250I0J243750D01*
G01*
G37*
G36*
G01*
X98725000Y-140281250D02*
X98725000Y-139718750D01*
G75*
G02*
X98968750Y-139475000I243750J0D01*
G01*
X99456250Y-139475000D01*
G75*
G02*
X99700000Y-139718750I0J-243750D01*
G01*
X99700000Y-140281250D01*
G75*
G02*
X99456250Y-140525000I-243750J0D01*
G01*
X98968750Y-140525000D01*
G75*
G02*
X98725000Y-140281250I0J243750D01*
G01*
G37*
G36*
G01*
X100300000Y-140281250D02*
X100300000Y-139718750D01*
G75*
G02*
X100543750Y-139475000I243750J0D01*
G01*
X101031250Y-139475000D01*
G75*
G02*
X101275000Y-139718750I0J-243750D01*
G01*
X101275000Y-140281250D01*
G75*
G02*
X101031250Y-140525000I-243750J0D01*
G01*
X100543750Y-140525000D01*
G75*
G02*
X100300000Y-140281250I0J243750D01*
G01*
G37*
G36*
G01*
X98725000Y-136281250D02*
X98725000Y-135718750D01*
G75*
G02*
X98968750Y-135475000I243750J0D01*
G01*
X99456250Y-135475000D01*
G75*
G02*
X99700000Y-135718750I0J-243750D01*
G01*
X99700000Y-136281250D01*
G75*
G02*
X99456250Y-136525000I-243750J0D01*
G01*
X98968750Y-136525000D01*
G75*
G02*
X98725000Y-136281250I0J243750D01*
G01*
G37*
G36*
G01*
X100300000Y-136281250D02*
X100300000Y-135718750D01*
G75*
G02*
X100543750Y-135475000I243750J0D01*
G01*
X101031250Y-135475000D01*
G75*
G02*
X101275000Y-135718750I0J-243750D01*
G01*
X101275000Y-136281250D01*
G75*
G02*
X101031250Y-136525000I-243750J0D01*
G01*
X100543750Y-136525000D01*
G75*
G02*
X100300000Y-136281250I0J243750D01*
G01*
G37*
G36*
G01*
X98725000Y-132281250D02*
X98725000Y-131718750D01*
G75*
G02*
X98968750Y-131475000I243750J0D01*
G01*
X99456250Y-131475000D01*
G75*
G02*
X99700000Y-131718750I0J-243750D01*
G01*
X99700000Y-132281250D01*
G75*
G02*
X99456250Y-132525000I-243750J0D01*
G01*
X98968750Y-132525000D01*
G75*
G02*
X98725000Y-132281250I0J243750D01*
G01*
G37*
G36*
G01*
X100300000Y-132281250D02*
X100300000Y-131718750D01*
G75*
G02*
X100543750Y-131475000I243750J0D01*
G01*
X101031250Y-131475000D01*
G75*
G02*
X101275000Y-131718750I0J-243750D01*
G01*
X101275000Y-132281250D01*
G75*
G02*
X101031250Y-132525000I-243750J0D01*
G01*
X100543750Y-132525000D01*
G75*
G02*
X100300000Y-132281250I0J243750D01*
G01*
G37*
G36*
G01*
X98725000Y-128281250D02*
X98725000Y-127718750D01*
G75*
G02*
X98968750Y-127475000I243750J0D01*
G01*
X99456250Y-127475000D01*
G75*
G02*
X99700000Y-127718750I0J-243750D01*
G01*
X99700000Y-128281250D01*
G75*
G02*
X99456250Y-128525000I-243750J0D01*
G01*
X98968750Y-128525000D01*
G75*
G02*
X98725000Y-128281250I0J243750D01*
G01*
G37*
G36*
G01*
X100300000Y-128281250D02*
X100300000Y-127718750D01*
G75*
G02*
X100543750Y-127475000I243750J0D01*
G01*
X101031250Y-127475000D01*
G75*
G02*
X101275000Y-127718750I0J-243750D01*
G01*
X101275000Y-128281250D01*
G75*
G02*
X101031250Y-128525000I-243750J0D01*
G01*
X100543750Y-128525000D01*
G75*
G02*
X100300000Y-128281250I0J243750D01*
G01*
G37*
G36*
G01*
X98725000Y-124281250D02*
X98725000Y-123718750D01*
G75*
G02*
X98968750Y-123475000I243750J0D01*
G01*
X99456250Y-123475000D01*
G75*
G02*
X99700000Y-123718750I0J-243750D01*
G01*
X99700000Y-124281250D01*
G75*
G02*
X99456250Y-124525000I-243750J0D01*
G01*
X98968750Y-124525000D01*
G75*
G02*
X98725000Y-124281250I0J243750D01*
G01*
G37*
G36*
G01*
X100300000Y-124281250D02*
X100300000Y-123718750D01*
G75*
G02*
X100543750Y-123475000I243750J0D01*
G01*
X101031250Y-123475000D01*
G75*
G02*
X101275000Y-123718750I0J-243750D01*
G01*
X101275000Y-124281250D01*
G75*
G02*
X101031250Y-124525000I-243750J0D01*
G01*
X100543750Y-124525000D01*
G75*
G02*
X100300000Y-124281250I0J243750D01*
G01*
G37*
G36*
G01*
X98725000Y-120281250D02*
X98725000Y-119718750D01*
G75*
G02*
X98968750Y-119475000I243750J0D01*
G01*
X99456250Y-119475000D01*
G75*
G02*
X99700000Y-119718750I0J-243750D01*
G01*
X99700000Y-120281250D01*
G75*
G02*
X99456250Y-120525000I-243750J0D01*
G01*
X98968750Y-120525000D01*
G75*
G02*
X98725000Y-120281250I0J243750D01*
G01*
G37*
G36*
G01*
X100300000Y-120281250D02*
X100300000Y-119718750D01*
G75*
G02*
X100543750Y-119475000I243750J0D01*
G01*
X101031250Y-119475000D01*
G75*
G02*
X101275000Y-119718750I0J-243750D01*
G01*
X101275000Y-120281250D01*
G75*
G02*
X101031250Y-120525000I-243750J0D01*
G01*
X100543750Y-120525000D01*
G75*
G02*
X100300000Y-120281250I0J243750D01*
G01*
G37*
G36*
G01*
X100300000Y-116281250D02*
X100300000Y-115718750D01*
G75*
G02*
X100543750Y-115475000I243750J0D01*
G01*
X101031250Y-115475000D01*
G75*
G02*
X101275000Y-115718750I0J-243750D01*
G01*
X101275000Y-116281250D01*
G75*
G02*
X101031250Y-116525000I-243750J0D01*
G01*
X100543750Y-116525000D01*
G75*
G02*
X100300000Y-116281250I0J243750D01*
G01*
G37*
G36*
G01*
X98725000Y-116281250D02*
X98725000Y-115718750D01*
G75*
G02*
X98968750Y-115475000I243750J0D01*
G01*
X99456250Y-115475000D01*
G75*
G02*
X99700000Y-115718750I0J-243750D01*
G01*
X99700000Y-116281250D01*
G75*
G02*
X99456250Y-116525000I-243750J0D01*
G01*
X98968750Y-116525000D01*
G75*
G02*
X98725000Y-116281250I0J243750D01*
G01*
G37*
G36*
G01*
X98725000Y-112281250D02*
X98725000Y-111718750D01*
G75*
G02*
X98968750Y-111475000I243750J0D01*
G01*
X99456250Y-111475000D01*
G75*
G02*
X99700000Y-111718750I0J-243750D01*
G01*
X99700000Y-112281250D01*
G75*
G02*
X99456250Y-112525000I-243750J0D01*
G01*
X98968750Y-112525000D01*
G75*
G02*
X98725000Y-112281250I0J243750D01*
G01*
G37*
G36*
G01*
X100300000Y-112281250D02*
X100300000Y-111718750D01*
G75*
G02*
X100543750Y-111475000I243750J0D01*
G01*
X101031250Y-111475000D01*
G75*
G02*
X101275000Y-111718750I0J-243750D01*
G01*
X101275000Y-112281250D01*
G75*
G02*
X101031250Y-112525000I-243750J0D01*
G01*
X100543750Y-112525000D01*
G75*
G02*
X100300000Y-112281250I0J243750D01*
G01*
G37*
G36*
G01*
X94725000Y-140281250D02*
X94725000Y-139718750D01*
G75*
G02*
X94968750Y-139475000I243750J0D01*
G01*
X95456250Y-139475000D01*
G75*
G02*
X95700000Y-139718750I0J-243750D01*
G01*
X95700000Y-140281250D01*
G75*
G02*
X95456250Y-140525000I-243750J0D01*
G01*
X94968750Y-140525000D01*
G75*
G02*
X94725000Y-140281250I0J243750D01*
G01*
G37*
G36*
G01*
X96300000Y-140281250D02*
X96300000Y-139718750D01*
G75*
G02*
X96543750Y-139475000I243750J0D01*
G01*
X97031250Y-139475000D01*
G75*
G02*
X97275000Y-139718750I0J-243750D01*
G01*
X97275000Y-140281250D01*
G75*
G02*
X97031250Y-140525000I-243750J0D01*
G01*
X96543750Y-140525000D01*
G75*
G02*
X96300000Y-140281250I0J243750D01*
G01*
G37*
G36*
G01*
X94725000Y-136281250D02*
X94725000Y-135718750D01*
G75*
G02*
X94968750Y-135475000I243750J0D01*
G01*
X95456250Y-135475000D01*
G75*
G02*
X95700000Y-135718750I0J-243750D01*
G01*
X95700000Y-136281250D01*
G75*
G02*
X95456250Y-136525000I-243750J0D01*
G01*
X94968750Y-136525000D01*
G75*
G02*
X94725000Y-136281250I0J243750D01*
G01*
G37*
G36*
G01*
X96300000Y-136281250D02*
X96300000Y-135718750D01*
G75*
G02*
X96543750Y-135475000I243750J0D01*
G01*
X97031250Y-135475000D01*
G75*
G02*
X97275000Y-135718750I0J-243750D01*
G01*
X97275000Y-136281250D01*
G75*
G02*
X97031250Y-136525000I-243750J0D01*
G01*
X96543750Y-136525000D01*
G75*
G02*
X96300000Y-136281250I0J243750D01*
G01*
G37*
G36*
G01*
X94725000Y-132281250D02*
X94725000Y-131718750D01*
G75*
G02*
X94968750Y-131475000I243750J0D01*
G01*
X95456250Y-131475000D01*
G75*
G02*
X95700000Y-131718750I0J-243750D01*
G01*
X95700000Y-132281250D01*
G75*
G02*
X95456250Y-132525000I-243750J0D01*
G01*
X94968750Y-132525000D01*
G75*
G02*
X94725000Y-132281250I0J243750D01*
G01*
G37*
G36*
G01*
X96300000Y-132281250D02*
X96300000Y-131718750D01*
G75*
G02*
X96543750Y-131475000I243750J0D01*
G01*
X97031250Y-131475000D01*
G75*
G02*
X97275000Y-131718750I0J-243750D01*
G01*
X97275000Y-132281250D01*
G75*
G02*
X97031250Y-132525000I-243750J0D01*
G01*
X96543750Y-132525000D01*
G75*
G02*
X96300000Y-132281250I0J243750D01*
G01*
G37*
G36*
G01*
X94725000Y-128281250D02*
X94725000Y-127718750D01*
G75*
G02*
X94968750Y-127475000I243750J0D01*
G01*
X95456250Y-127475000D01*
G75*
G02*
X95700000Y-127718750I0J-243750D01*
G01*
X95700000Y-128281250D01*
G75*
G02*
X95456250Y-128525000I-243750J0D01*
G01*
X94968750Y-128525000D01*
G75*
G02*
X94725000Y-128281250I0J243750D01*
G01*
G37*
G36*
G01*
X96300000Y-128281250D02*
X96300000Y-127718750D01*
G75*
G02*
X96543750Y-127475000I243750J0D01*
G01*
X97031250Y-127475000D01*
G75*
G02*
X97275000Y-127718750I0J-243750D01*
G01*
X97275000Y-128281250D01*
G75*
G02*
X97031250Y-128525000I-243750J0D01*
G01*
X96543750Y-128525000D01*
G75*
G02*
X96300000Y-128281250I0J243750D01*
G01*
G37*
G36*
G01*
X94725000Y-124281250D02*
X94725000Y-123718750D01*
G75*
G02*
X94968750Y-123475000I243750J0D01*
G01*
X95456250Y-123475000D01*
G75*
G02*
X95700000Y-123718750I0J-243750D01*
G01*
X95700000Y-124281250D01*
G75*
G02*
X95456250Y-124525000I-243750J0D01*
G01*
X94968750Y-124525000D01*
G75*
G02*
X94725000Y-124281250I0J243750D01*
G01*
G37*
G36*
G01*
X96300000Y-124281250D02*
X96300000Y-123718750D01*
G75*
G02*
X96543750Y-123475000I243750J0D01*
G01*
X97031250Y-123475000D01*
G75*
G02*
X97275000Y-123718750I0J-243750D01*
G01*
X97275000Y-124281250D01*
G75*
G02*
X97031250Y-124525000I-243750J0D01*
G01*
X96543750Y-124525000D01*
G75*
G02*
X96300000Y-124281250I0J243750D01*
G01*
G37*
G36*
G01*
X94725000Y-120281250D02*
X94725000Y-119718750D01*
G75*
G02*
X94968750Y-119475000I243750J0D01*
G01*
X95456250Y-119475000D01*
G75*
G02*
X95700000Y-119718750I0J-243750D01*
G01*
X95700000Y-120281250D01*
G75*
G02*
X95456250Y-120525000I-243750J0D01*
G01*
X94968750Y-120525000D01*
G75*
G02*
X94725000Y-120281250I0J243750D01*
G01*
G37*
G36*
G01*
X96300000Y-120281250D02*
X96300000Y-119718750D01*
G75*
G02*
X96543750Y-119475000I243750J0D01*
G01*
X97031250Y-119475000D01*
G75*
G02*
X97275000Y-119718750I0J-243750D01*
G01*
X97275000Y-120281250D01*
G75*
G02*
X97031250Y-120525000I-243750J0D01*
G01*
X96543750Y-120525000D01*
G75*
G02*
X96300000Y-120281250I0J243750D01*
G01*
G37*
G36*
G01*
X96300000Y-116281250D02*
X96300000Y-115718750D01*
G75*
G02*
X96543750Y-115475000I243750J0D01*
G01*
X97031250Y-115475000D01*
G75*
G02*
X97275000Y-115718750I0J-243750D01*
G01*
X97275000Y-116281250D01*
G75*
G02*
X97031250Y-116525000I-243750J0D01*
G01*
X96543750Y-116525000D01*
G75*
G02*
X96300000Y-116281250I0J243750D01*
G01*
G37*
G36*
G01*
X94725000Y-116281250D02*
X94725000Y-115718750D01*
G75*
G02*
X94968750Y-115475000I243750J0D01*
G01*
X95456250Y-115475000D01*
G75*
G02*
X95700000Y-115718750I0J-243750D01*
G01*
X95700000Y-116281250D01*
G75*
G02*
X95456250Y-116525000I-243750J0D01*
G01*
X94968750Y-116525000D01*
G75*
G02*
X94725000Y-116281250I0J243750D01*
G01*
G37*
G36*
G01*
X94725000Y-112281250D02*
X94725000Y-111718750D01*
G75*
G02*
X94968750Y-111475000I243750J0D01*
G01*
X95456250Y-111475000D01*
G75*
G02*
X95700000Y-111718750I0J-243750D01*
G01*
X95700000Y-112281250D01*
G75*
G02*
X95456250Y-112525000I-243750J0D01*
G01*
X94968750Y-112525000D01*
G75*
G02*
X94725000Y-112281250I0J243750D01*
G01*
G37*
G36*
G01*
X96300000Y-112281250D02*
X96300000Y-111718750D01*
G75*
G02*
X96543750Y-111475000I243750J0D01*
G01*
X97031250Y-111475000D01*
G75*
G02*
X97275000Y-111718750I0J-243750D01*
G01*
X97275000Y-112281250D01*
G75*
G02*
X97031250Y-112525000I-243750J0D01*
G01*
X96543750Y-112525000D01*
G75*
G02*
X96300000Y-112281250I0J243750D01*
G01*
G37*
G36*
G01*
X90725000Y-140281250D02*
X90725000Y-139718750D01*
G75*
G02*
X90968750Y-139475000I243750J0D01*
G01*
X91456250Y-139475000D01*
G75*
G02*
X91700000Y-139718750I0J-243750D01*
G01*
X91700000Y-140281250D01*
G75*
G02*
X91456250Y-140525000I-243750J0D01*
G01*
X90968750Y-140525000D01*
G75*
G02*
X90725000Y-140281250I0J243750D01*
G01*
G37*
G36*
G01*
X92300000Y-140281250D02*
X92300000Y-139718750D01*
G75*
G02*
X92543750Y-139475000I243750J0D01*
G01*
X93031250Y-139475000D01*
G75*
G02*
X93275000Y-139718750I0J-243750D01*
G01*
X93275000Y-140281250D01*
G75*
G02*
X93031250Y-140525000I-243750J0D01*
G01*
X92543750Y-140525000D01*
G75*
G02*
X92300000Y-140281250I0J243750D01*
G01*
G37*
G36*
G01*
X90725000Y-136281250D02*
X90725000Y-135718750D01*
G75*
G02*
X90968750Y-135475000I243750J0D01*
G01*
X91456250Y-135475000D01*
G75*
G02*
X91700000Y-135718750I0J-243750D01*
G01*
X91700000Y-136281250D01*
G75*
G02*
X91456250Y-136525000I-243750J0D01*
G01*
X90968750Y-136525000D01*
G75*
G02*
X90725000Y-136281250I0J243750D01*
G01*
G37*
G36*
G01*
X92300000Y-136281250D02*
X92300000Y-135718750D01*
G75*
G02*
X92543750Y-135475000I243750J0D01*
G01*
X93031250Y-135475000D01*
G75*
G02*
X93275000Y-135718750I0J-243750D01*
G01*
X93275000Y-136281250D01*
G75*
G02*
X93031250Y-136525000I-243750J0D01*
G01*
X92543750Y-136525000D01*
G75*
G02*
X92300000Y-136281250I0J243750D01*
G01*
G37*
G36*
G01*
X90725000Y-132281250D02*
X90725000Y-131718750D01*
G75*
G02*
X90968750Y-131475000I243750J0D01*
G01*
X91456250Y-131475000D01*
G75*
G02*
X91700000Y-131718750I0J-243750D01*
G01*
X91700000Y-132281250D01*
G75*
G02*
X91456250Y-132525000I-243750J0D01*
G01*
X90968750Y-132525000D01*
G75*
G02*
X90725000Y-132281250I0J243750D01*
G01*
G37*
G36*
G01*
X92300000Y-132281250D02*
X92300000Y-131718750D01*
G75*
G02*
X92543750Y-131475000I243750J0D01*
G01*
X93031250Y-131475000D01*
G75*
G02*
X93275000Y-131718750I0J-243750D01*
G01*
X93275000Y-132281250D01*
G75*
G02*
X93031250Y-132525000I-243750J0D01*
G01*
X92543750Y-132525000D01*
G75*
G02*
X92300000Y-132281250I0J243750D01*
G01*
G37*
G36*
G01*
X90725000Y-128281250D02*
X90725000Y-127718750D01*
G75*
G02*
X90968750Y-127475000I243750J0D01*
G01*
X91456250Y-127475000D01*
G75*
G02*
X91700000Y-127718750I0J-243750D01*
G01*
X91700000Y-128281250D01*
G75*
G02*
X91456250Y-128525000I-243750J0D01*
G01*
X90968750Y-128525000D01*
G75*
G02*
X90725000Y-128281250I0J243750D01*
G01*
G37*
G36*
G01*
X92300000Y-128281250D02*
X92300000Y-127718750D01*
G75*
G02*
X92543750Y-127475000I243750J0D01*
G01*
X93031250Y-127475000D01*
G75*
G02*
X93275000Y-127718750I0J-243750D01*
G01*
X93275000Y-128281250D01*
G75*
G02*
X93031250Y-128525000I-243750J0D01*
G01*
X92543750Y-128525000D01*
G75*
G02*
X92300000Y-128281250I0J243750D01*
G01*
G37*
G36*
G01*
X90725000Y-124281250D02*
X90725000Y-123718750D01*
G75*
G02*
X90968750Y-123475000I243750J0D01*
G01*
X91456250Y-123475000D01*
G75*
G02*
X91700000Y-123718750I0J-243750D01*
G01*
X91700000Y-124281250D01*
G75*
G02*
X91456250Y-124525000I-243750J0D01*
G01*
X90968750Y-124525000D01*
G75*
G02*
X90725000Y-124281250I0J243750D01*
G01*
G37*
G36*
G01*
X92300000Y-124281250D02*
X92300000Y-123718750D01*
G75*
G02*
X92543750Y-123475000I243750J0D01*
G01*
X93031250Y-123475000D01*
G75*
G02*
X93275000Y-123718750I0J-243750D01*
G01*
X93275000Y-124281250D01*
G75*
G02*
X93031250Y-124525000I-243750J0D01*
G01*
X92543750Y-124525000D01*
G75*
G02*
X92300000Y-124281250I0J243750D01*
G01*
G37*
G36*
G01*
X90725000Y-120281250D02*
X90725000Y-119718750D01*
G75*
G02*
X90968750Y-119475000I243750J0D01*
G01*
X91456250Y-119475000D01*
G75*
G02*
X91700000Y-119718750I0J-243750D01*
G01*
X91700000Y-120281250D01*
G75*
G02*
X91456250Y-120525000I-243750J0D01*
G01*
X90968750Y-120525000D01*
G75*
G02*
X90725000Y-120281250I0J243750D01*
G01*
G37*
G36*
G01*
X92300000Y-120281250D02*
X92300000Y-119718750D01*
G75*
G02*
X92543750Y-119475000I243750J0D01*
G01*
X93031250Y-119475000D01*
G75*
G02*
X93275000Y-119718750I0J-243750D01*
G01*
X93275000Y-120281250D01*
G75*
G02*
X93031250Y-120525000I-243750J0D01*
G01*
X92543750Y-120525000D01*
G75*
G02*
X92300000Y-120281250I0J243750D01*
G01*
G37*
G36*
G01*
X92300000Y-116281250D02*
X92300000Y-115718750D01*
G75*
G02*
X92543750Y-115475000I243750J0D01*
G01*
X93031250Y-115475000D01*
G75*
G02*
X93275000Y-115718750I0J-243750D01*
G01*
X93275000Y-116281250D01*
G75*
G02*
X93031250Y-116525000I-243750J0D01*
G01*
X92543750Y-116525000D01*
G75*
G02*
X92300000Y-116281250I0J243750D01*
G01*
G37*
G36*
G01*
X90725000Y-116281250D02*
X90725000Y-115718750D01*
G75*
G02*
X90968750Y-115475000I243750J0D01*
G01*
X91456250Y-115475000D01*
G75*
G02*
X91700000Y-115718750I0J-243750D01*
G01*
X91700000Y-116281250D01*
G75*
G02*
X91456250Y-116525000I-243750J0D01*
G01*
X90968750Y-116525000D01*
G75*
G02*
X90725000Y-116281250I0J243750D01*
G01*
G37*
G36*
G01*
X90725000Y-112281250D02*
X90725000Y-111718750D01*
G75*
G02*
X90968750Y-111475000I243750J0D01*
G01*
X91456250Y-111475000D01*
G75*
G02*
X91700000Y-111718750I0J-243750D01*
G01*
X91700000Y-112281250D01*
G75*
G02*
X91456250Y-112525000I-243750J0D01*
G01*
X90968750Y-112525000D01*
G75*
G02*
X90725000Y-112281250I0J243750D01*
G01*
G37*
G36*
G01*
X92300000Y-112281250D02*
X92300000Y-111718750D01*
G75*
G02*
X92543750Y-111475000I243750J0D01*
G01*
X93031250Y-111475000D01*
G75*
G02*
X93275000Y-111718750I0J-243750D01*
G01*
X93275000Y-112281250D01*
G75*
G02*
X93031250Y-112525000I-243750J0D01*
G01*
X92543750Y-112525000D01*
G75*
G02*
X92300000Y-112281250I0J243750D01*
G01*
G37*
G36*
G01*
X86725000Y-140281250D02*
X86725000Y-139718750D01*
G75*
G02*
X86968750Y-139475000I243750J0D01*
G01*
X87456250Y-139475000D01*
G75*
G02*
X87700000Y-139718750I0J-243750D01*
G01*
X87700000Y-140281250D01*
G75*
G02*
X87456250Y-140525000I-243750J0D01*
G01*
X86968750Y-140525000D01*
G75*
G02*
X86725000Y-140281250I0J243750D01*
G01*
G37*
G36*
G01*
X88300000Y-140281250D02*
X88300000Y-139718750D01*
G75*
G02*
X88543750Y-139475000I243750J0D01*
G01*
X89031250Y-139475000D01*
G75*
G02*
X89275000Y-139718750I0J-243750D01*
G01*
X89275000Y-140281250D01*
G75*
G02*
X89031250Y-140525000I-243750J0D01*
G01*
X88543750Y-140525000D01*
G75*
G02*
X88300000Y-140281250I0J243750D01*
G01*
G37*
G36*
G01*
X86725000Y-136281250D02*
X86725000Y-135718750D01*
G75*
G02*
X86968750Y-135475000I243750J0D01*
G01*
X87456250Y-135475000D01*
G75*
G02*
X87700000Y-135718750I0J-243750D01*
G01*
X87700000Y-136281250D01*
G75*
G02*
X87456250Y-136525000I-243750J0D01*
G01*
X86968750Y-136525000D01*
G75*
G02*
X86725000Y-136281250I0J243750D01*
G01*
G37*
G36*
G01*
X88300000Y-136281250D02*
X88300000Y-135718750D01*
G75*
G02*
X88543750Y-135475000I243750J0D01*
G01*
X89031250Y-135475000D01*
G75*
G02*
X89275000Y-135718750I0J-243750D01*
G01*
X89275000Y-136281250D01*
G75*
G02*
X89031250Y-136525000I-243750J0D01*
G01*
X88543750Y-136525000D01*
G75*
G02*
X88300000Y-136281250I0J243750D01*
G01*
G37*
G36*
G01*
X86725000Y-132281250D02*
X86725000Y-131718750D01*
G75*
G02*
X86968750Y-131475000I243750J0D01*
G01*
X87456250Y-131475000D01*
G75*
G02*
X87700000Y-131718750I0J-243750D01*
G01*
X87700000Y-132281250D01*
G75*
G02*
X87456250Y-132525000I-243750J0D01*
G01*
X86968750Y-132525000D01*
G75*
G02*
X86725000Y-132281250I0J243750D01*
G01*
G37*
G36*
G01*
X88300000Y-132281250D02*
X88300000Y-131718750D01*
G75*
G02*
X88543750Y-131475000I243750J0D01*
G01*
X89031250Y-131475000D01*
G75*
G02*
X89275000Y-131718750I0J-243750D01*
G01*
X89275000Y-132281250D01*
G75*
G02*
X89031250Y-132525000I-243750J0D01*
G01*
X88543750Y-132525000D01*
G75*
G02*
X88300000Y-132281250I0J243750D01*
G01*
G37*
G36*
G01*
X86725000Y-128281250D02*
X86725000Y-127718750D01*
G75*
G02*
X86968750Y-127475000I243750J0D01*
G01*
X87456250Y-127475000D01*
G75*
G02*
X87700000Y-127718750I0J-243750D01*
G01*
X87700000Y-128281250D01*
G75*
G02*
X87456250Y-128525000I-243750J0D01*
G01*
X86968750Y-128525000D01*
G75*
G02*
X86725000Y-128281250I0J243750D01*
G01*
G37*
G36*
G01*
X88300000Y-128281250D02*
X88300000Y-127718750D01*
G75*
G02*
X88543750Y-127475000I243750J0D01*
G01*
X89031250Y-127475000D01*
G75*
G02*
X89275000Y-127718750I0J-243750D01*
G01*
X89275000Y-128281250D01*
G75*
G02*
X89031250Y-128525000I-243750J0D01*
G01*
X88543750Y-128525000D01*
G75*
G02*
X88300000Y-128281250I0J243750D01*
G01*
G37*
G36*
G01*
X86725000Y-124281250D02*
X86725000Y-123718750D01*
G75*
G02*
X86968750Y-123475000I243750J0D01*
G01*
X87456250Y-123475000D01*
G75*
G02*
X87700000Y-123718750I0J-243750D01*
G01*
X87700000Y-124281250D01*
G75*
G02*
X87456250Y-124525000I-243750J0D01*
G01*
X86968750Y-124525000D01*
G75*
G02*
X86725000Y-124281250I0J243750D01*
G01*
G37*
G36*
G01*
X88300000Y-124281250D02*
X88300000Y-123718750D01*
G75*
G02*
X88543750Y-123475000I243750J0D01*
G01*
X89031250Y-123475000D01*
G75*
G02*
X89275000Y-123718750I0J-243750D01*
G01*
X89275000Y-124281250D01*
G75*
G02*
X89031250Y-124525000I-243750J0D01*
G01*
X88543750Y-124525000D01*
G75*
G02*
X88300000Y-124281250I0J243750D01*
G01*
G37*
G36*
G01*
X86725000Y-120281250D02*
X86725000Y-119718750D01*
G75*
G02*
X86968750Y-119475000I243750J0D01*
G01*
X87456250Y-119475000D01*
G75*
G02*
X87700000Y-119718750I0J-243750D01*
G01*
X87700000Y-120281250D01*
G75*
G02*
X87456250Y-120525000I-243750J0D01*
G01*
X86968750Y-120525000D01*
G75*
G02*
X86725000Y-120281250I0J243750D01*
G01*
G37*
G36*
G01*
X88300000Y-120281250D02*
X88300000Y-119718750D01*
G75*
G02*
X88543750Y-119475000I243750J0D01*
G01*
X89031250Y-119475000D01*
G75*
G02*
X89275000Y-119718750I0J-243750D01*
G01*
X89275000Y-120281250D01*
G75*
G02*
X89031250Y-120525000I-243750J0D01*
G01*
X88543750Y-120525000D01*
G75*
G02*
X88300000Y-120281250I0J243750D01*
G01*
G37*
G36*
G01*
X88300000Y-116281250D02*
X88300000Y-115718750D01*
G75*
G02*
X88543750Y-115475000I243750J0D01*
G01*
X89031250Y-115475000D01*
G75*
G02*
X89275000Y-115718750I0J-243750D01*
G01*
X89275000Y-116281250D01*
G75*
G02*
X89031250Y-116525000I-243750J0D01*
G01*
X88543750Y-116525000D01*
G75*
G02*
X88300000Y-116281250I0J243750D01*
G01*
G37*
G36*
G01*
X86725000Y-116281250D02*
X86725000Y-115718750D01*
G75*
G02*
X86968750Y-115475000I243750J0D01*
G01*
X87456250Y-115475000D01*
G75*
G02*
X87700000Y-115718750I0J-243750D01*
G01*
X87700000Y-116281250D01*
G75*
G02*
X87456250Y-116525000I-243750J0D01*
G01*
X86968750Y-116525000D01*
G75*
G02*
X86725000Y-116281250I0J243750D01*
G01*
G37*
G36*
G01*
X86725000Y-112281250D02*
X86725000Y-111718750D01*
G75*
G02*
X86968750Y-111475000I243750J0D01*
G01*
X87456250Y-111475000D01*
G75*
G02*
X87700000Y-111718750I0J-243750D01*
G01*
X87700000Y-112281250D01*
G75*
G02*
X87456250Y-112525000I-243750J0D01*
G01*
X86968750Y-112525000D01*
G75*
G02*
X86725000Y-112281250I0J243750D01*
G01*
G37*
G36*
G01*
X88300000Y-112281250D02*
X88300000Y-111718750D01*
G75*
G02*
X88543750Y-111475000I243750J0D01*
G01*
X89031250Y-111475000D01*
G75*
G02*
X89275000Y-111718750I0J-243750D01*
G01*
X89275000Y-112281250D01*
G75*
G02*
X89031250Y-112525000I-243750J0D01*
G01*
X88543750Y-112525000D01*
G75*
G02*
X88300000Y-112281250I0J243750D01*
G01*
G37*
G36*
G01*
X82725000Y-140281250D02*
X82725000Y-139718750D01*
G75*
G02*
X82968750Y-139475000I243750J0D01*
G01*
X83456250Y-139475000D01*
G75*
G02*
X83700000Y-139718750I0J-243750D01*
G01*
X83700000Y-140281250D01*
G75*
G02*
X83456250Y-140525000I-243750J0D01*
G01*
X82968750Y-140525000D01*
G75*
G02*
X82725000Y-140281250I0J243750D01*
G01*
G37*
G36*
G01*
X84300000Y-140281250D02*
X84300000Y-139718750D01*
G75*
G02*
X84543750Y-139475000I243750J0D01*
G01*
X85031250Y-139475000D01*
G75*
G02*
X85275000Y-139718750I0J-243750D01*
G01*
X85275000Y-140281250D01*
G75*
G02*
X85031250Y-140525000I-243750J0D01*
G01*
X84543750Y-140525000D01*
G75*
G02*
X84300000Y-140281250I0J243750D01*
G01*
G37*
G36*
G01*
X82725000Y-136281250D02*
X82725000Y-135718750D01*
G75*
G02*
X82968750Y-135475000I243750J0D01*
G01*
X83456250Y-135475000D01*
G75*
G02*
X83700000Y-135718750I0J-243750D01*
G01*
X83700000Y-136281250D01*
G75*
G02*
X83456250Y-136525000I-243750J0D01*
G01*
X82968750Y-136525000D01*
G75*
G02*
X82725000Y-136281250I0J243750D01*
G01*
G37*
G36*
G01*
X84300000Y-136281250D02*
X84300000Y-135718750D01*
G75*
G02*
X84543750Y-135475000I243750J0D01*
G01*
X85031250Y-135475000D01*
G75*
G02*
X85275000Y-135718750I0J-243750D01*
G01*
X85275000Y-136281250D01*
G75*
G02*
X85031250Y-136525000I-243750J0D01*
G01*
X84543750Y-136525000D01*
G75*
G02*
X84300000Y-136281250I0J243750D01*
G01*
G37*
G36*
G01*
X82725000Y-132281250D02*
X82725000Y-131718750D01*
G75*
G02*
X82968750Y-131475000I243750J0D01*
G01*
X83456250Y-131475000D01*
G75*
G02*
X83700000Y-131718750I0J-243750D01*
G01*
X83700000Y-132281250D01*
G75*
G02*
X83456250Y-132525000I-243750J0D01*
G01*
X82968750Y-132525000D01*
G75*
G02*
X82725000Y-132281250I0J243750D01*
G01*
G37*
G36*
G01*
X84300000Y-132281250D02*
X84300000Y-131718750D01*
G75*
G02*
X84543750Y-131475000I243750J0D01*
G01*
X85031250Y-131475000D01*
G75*
G02*
X85275000Y-131718750I0J-243750D01*
G01*
X85275000Y-132281250D01*
G75*
G02*
X85031250Y-132525000I-243750J0D01*
G01*
X84543750Y-132525000D01*
G75*
G02*
X84300000Y-132281250I0J243750D01*
G01*
G37*
G36*
G01*
X82725000Y-128281250D02*
X82725000Y-127718750D01*
G75*
G02*
X82968750Y-127475000I243750J0D01*
G01*
X83456250Y-127475000D01*
G75*
G02*
X83700000Y-127718750I0J-243750D01*
G01*
X83700000Y-128281250D01*
G75*
G02*
X83456250Y-128525000I-243750J0D01*
G01*
X82968750Y-128525000D01*
G75*
G02*
X82725000Y-128281250I0J243750D01*
G01*
G37*
G36*
G01*
X84300000Y-128281250D02*
X84300000Y-127718750D01*
G75*
G02*
X84543750Y-127475000I243750J0D01*
G01*
X85031250Y-127475000D01*
G75*
G02*
X85275000Y-127718750I0J-243750D01*
G01*
X85275000Y-128281250D01*
G75*
G02*
X85031250Y-128525000I-243750J0D01*
G01*
X84543750Y-128525000D01*
G75*
G02*
X84300000Y-128281250I0J243750D01*
G01*
G37*
G36*
G01*
X82725000Y-124281250D02*
X82725000Y-123718750D01*
G75*
G02*
X82968750Y-123475000I243750J0D01*
G01*
X83456250Y-123475000D01*
G75*
G02*
X83700000Y-123718750I0J-243750D01*
G01*
X83700000Y-124281250D01*
G75*
G02*
X83456250Y-124525000I-243750J0D01*
G01*
X82968750Y-124525000D01*
G75*
G02*
X82725000Y-124281250I0J243750D01*
G01*
G37*
G36*
G01*
X84300000Y-124281250D02*
X84300000Y-123718750D01*
G75*
G02*
X84543750Y-123475000I243750J0D01*
G01*
X85031250Y-123475000D01*
G75*
G02*
X85275000Y-123718750I0J-243750D01*
G01*
X85275000Y-124281250D01*
G75*
G02*
X85031250Y-124525000I-243750J0D01*
G01*
X84543750Y-124525000D01*
G75*
G02*
X84300000Y-124281250I0J243750D01*
G01*
G37*
G36*
G01*
X82725000Y-120281250D02*
X82725000Y-119718750D01*
G75*
G02*
X82968750Y-119475000I243750J0D01*
G01*
X83456250Y-119475000D01*
G75*
G02*
X83700000Y-119718750I0J-243750D01*
G01*
X83700000Y-120281250D01*
G75*
G02*
X83456250Y-120525000I-243750J0D01*
G01*
X82968750Y-120525000D01*
G75*
G02*
X82725000Y-120281250I0J243750D01*
G01*
G37*
G36*
G01*
X84300000Y-120281250D02*
X84300000Y-119718750D01*
G75*
G02*
X84543750Y-119475000I243750J0D01*
G01*
X85031250Y-119475000D01*
G75*
G02*
X85275000Y-119718750I0J-243750D01*
G01*
X85275000Y-120281250D01*
G75*
G02*
X85031250Y-120525000I-243750J0D01*
G01*
X84543750Y-120525000D01*
G75*
G02*
X84300000Y-120281250I0J243750D01*
G01*
G37*
G36*
G01*
X84300000Y-116281250D02*
X84300000Y-115718750D01*
G75*
G02*
X84543750Y-115475000I243750J0D01*
G01*
X85031250Y-115475000D01*
G75*
G02*
X85275000Y-115718750I0J-243750D01*
G01*
X85275000Y-116281250D01*
G75*
G02*
X85031250Y-116525000I-243750J0D01*
G01*
X84543750Y-116525000D01*
G75*
G02*
X84300000Y-116281250I0J243750D01*
G01*
G37*
G36*
G01*
X82725000Y-116281250D02*
X82725000Y-115718750D01*
G75*
G02*
X82968750Y-115475000I243750J0D01*
G01*
X83456250Y-115475000D01*
G75*
G02*
X83700000Y-115718750I0J-243750D01*
G01*
X83700000Y-116281250D01*
G75*
G02*
X83456250Y-116525000I-243750J0D01*
G01*
X82968750Y-116525000D01*
G75*
G02*
X82725000Y-116281250I0J243750D01*
G01*
G37*
G36*
G01*
X82725000Y-112281250D02*
X82725000Y-111718750D01*
G75*
G02*
X82968750Y-111475000I243750J0D01*
G01*
X83456250Y-111475000D01*
G75*
G02*
X83700000Y-111718750I0J-243750D01*
G01*
X83700000Y-112281250D01*
G75*
G02*
X83456250Y-112525000I-243750J0D01*
G01*
X82968750Y-112525000D01*
G75*
G02*
X82725000Y-112281250I0J243750D01*
G01*
G37*
G36*
G01*
X84300000Y-112281250D02*
X84300000Y-111718750D01*
G75*
G02*
X84543750Y-111475000I243750J0D01*
G01*
X85031250Y-111475000D01*
G75*
G02*
X85275000Y-111718750I0J-243750D01*
G01*
X85275000Y-112281250D01*
G75*
G02*
X85031250Y-112525000I-243750J0D01*
G01*
X84543750Y-112525000D01*
G75*
G02*
X84300000Y-112281250I0J243750D01*
G01*
G37*
G36*
G01*
X78725000Y-140281250D02*
X78725000Y-139718750D01*
G75*
G02*
X78968750Y-139475000I243750J0D01*
G01*
X79456250Y-139475000D01*
G75*
G02*
X79700000Y-139718750I0J-243750D01*
G01*
X79700000Y-140281250D01*
G75*
G02*
X79456250Y-140525000I-243750J0D01*
G01*
X78968750Y-140525000D01*
G75*
G02*
X78725000Y-140281250I0J243750D01*
G01*
G37*
G36*
G01*
X80300000Y-140281250D02*
X80300000Y-139718750D01*
G75*
G02*
X80543750Y-139475000I243750J0D01*
G01*
X81031250Y-139475000D01*
G75*
G02*
X81275000Y-139718750I0J-243750D01*
G01*
X81275000Y-140281250D01*
G75*
G02*
X81031250Y-140525000I-243750J0D01*
G01*
X80543750Y-140525000D01*
G75*
G02*
X80300000Y-140281250I0J243750D01*
G01*
G37*
G36*
G01*
X78725000Y-136281250D02*
X78725000Y-135718750D01*
G75*
G02*
X78968750Y-135475000I243750J0D01*
G01*
X79456250Y-135475000D01*
G75*
G02*
X79700000Y-135718750I0J-243750D01*
G01*
X79700000Y-136281250D01*
G75*
G02*
X79456250Y-136525000I-243750J0D01*
G01*
X78968750Y-136525000D01*
G75*
G02*
X78725000Y-136281250I0J243750D01*
G01*
G37*
G36*
G01*
X80300000Y-136281250D02*
X80300000Y-135718750D01*
G75*
G02*
X80543750Y-135475000I243750J0D01*
G01*
X81031250Y-135475000D01*
G75*
G02*
X81275000Y-135718750I0J-243750D01*
G01*
X81275000Y-136281250D01*
G75*
G02*
X81031250Y-136525000I-243750J0D01*
G01*
X80543750Y-136525000D01*
G75*
G02*
X80300000Y-136281250I0J243750D01*
G01*
G37*
G36*
G01*
X78725000Y-132281250D02*
X78725000Y-131718750D01*
G75*
G02*
X78968750Y-131475000I243750J0D01*
G01*
X79456250Y-131475000D01*
G75*
G02*
X79700000Y-131718750I0J-243750D01*
G01*
X79700000Y-132281250D01*
G75*
G02*
X79456250Y-132525000I-243750J0D01*
G01*
X78968750Y-132525000D01*
G75*
G02*
X78725000Y-132281250I0J243750D01*
G01*
G37*
G36*
G01*
X80300000Y-132281250D02*
X80300000Y-131718750D01*
G75*
G02*
X80543750Y-131475000I243750J0D01*
G01*
X81031250Y-131475000D01*
G75*
G02*
X81275000Y-131718750I0J-243750D01*
G01*
X81275000Y-132281250D01*
G75*
G02*
X81031250Y-132525000I-243750J0D01*
G01*
X80543750Y-132525000D01*
G75*
G02*
X80300000Y-132281250I0J243750D01*
G01*
G37*
G36*
G01*
X78725000Y-128281250D02*
X78725000Y-127718750D01*
G75*
G02*
X78968750Y-127475000I243750J0D01*
G01*
X79456250Y-127475000D01*
G75*
G02*
X79700000Y-127718750I0J-243750D01*
G01*
X79700000Y-128281250D01*
G75*
G02*
X79456250Y-128525000I-243750J0D01*
G01*
X78968750Y-128525000D01*
G75*
G02*
X78725000Y-128281250I0J243750D01*
G01*
G37*
G36*
G01*
X80300000Y-128281250D02*
X80300000Y-127718750D01*
G75*
G02*
X80543750Y-127475000I243750J0D01*
G01*
X81031250Y-127475000D01*
G75*
G02*
X81275000Y-127718750I0J-243750D01*
G01*
X81275000Y-128281250D01*
G75*
G02*
X81031250Y-128525000I-243750J0D01*
G01*
X80543750Y-128525000D01*
G75*
G02*
X80300000Y-128281250I0J243750D01*
G01*
G37*
G36*
G01*
X78725000Y-124281250D02*
X78725000Y-123718750D01*
G75*
G02*
X78968750Y-123475000I243750J0D01*
G01*
X79456250Y-123475000D01*
G75*
G02*
X79700000Y-123718750I0J-243750D01*
G01*
X79700000Y-124281250D01*
G75*
G02*
X79456250Y-124525000I-243750J0D01*
G01*
X78968750Y-124525000D01*
G75*
G02*
X78725000Y-124281250I0J243750D01*
G01*
G37*
G36*
G01*
X80300000Y-124281250D02*
X80300000Y-123718750D01*
G75*
G02*
X80543750Y-123475000I243750J0D01*
G01*
X81031250Y-123475000D01*
G75*
G02*
X81275000Y-123718750I0J-243750D01*
G01*
X81275000Y-124281250D01*
G75*
G02*
X81031250Y-124525000I-243750J0D01*
G01*
X80543750Y-124525000D01*
G75*
G02*
X80300000Y-124281250I0J243750D01*
G01*
G37*
G36*
G01*
X78725000Y-120281250D02*
X78725000Y-119718750D01*
G75*
G02*
X78968750Y-119475000I243750J0D01*
G01*
X79456250Y-119475000D01*
G75*
G02*
X79700000Y-119718750I0J-243750D01*
G01*
X79700000Y-120281250D01*
G75*
G02*
X79456250Y-120525000I-243750J0D01*
G01*
X78968750Y-120525000D01*
G75*
G02*
X78725000Y-120281250I0J243750D01*
G01*
G37*
G36*
G01*
X80300000Y-120281250D02*
X80300000Y-119718750D01*
G75*
G02*
X80543750Y-119475000I243750J0D01*
G01*
X81031250Y-119475000D01*
G75*
G02*
X81275000Y-119718750I0J-243750D01*
G01*
X81275000Y-120281250D01*
G75*
G02*
X81031250Y-120525000I-243750J0D01*
G01*
X80543750Y-120525000D01*
G75*
G02*
X80300000Y-120281250I0J243750D01*
G01*
G37*
G36*
G01*
X80300000Y-116281250D02*
X80300000Y-115718750D01*
G75*
G02*
X80543750Y-115475000I243750J0D01*
G01*
X81031250Y-115475000D01*
G75*
G02*
X81275000Y-115718750I0J-243750D01*
G01*
X81275000Y-116281250D01*
G75*
G02*
X81031250Y-116525000I-243750J0D01*
G01*
X80543750Y-116525000D01*
G75*
G02*
X80300000Y-116281250I0J243750D01*
G01*
G37*
G36*
G01*
X78725000Y-116281250D02*
X78725000Y-115718750D01*
G75*
G02*
X78968750Y-115475000I243750J0D01*
G01*
X79456250Y-115475000D01*
G75*
G02*
X79700000Y-115718750I0J-243750D01*
G01*
X79700000Y-116281250D01*
G75*
G02*
X79456250Y-116525000I-243750J0D01*
G01*
X78968750Y-116525000D01*
G75*
G02*
X78725000Y-116281250I0J243750D01*
G01*
G37*
G36*
G01*
X78725000Y-112281250D02*
X78725000Y-111718750D01*
G75*
G02*
X78968750Y-111475000I243750J0D01*
G01*
X79456250Y-111475000D01*
G75*
G02*
X79700000Y-111718750I0J-243750D01*
G01*
X79700000Y-112281250D01*
G75*
G02*
X79456250Y-112525000I-243750J0D01*
G01*
X78968750Y-112525000D01*
G75*
G02*
X78725000Y-112281250I0J243750D01*
G01*
G37*
G36*
G01*
X80300000Y-112281250D02*
X80300000Y-111718750D01*
G75*
G02*
X80543750Y-111475000I243750J0D01*
G01*
X81031250Y-111475000D01*
G75*
G02*
X81275000Y-111718750I0J-243750D01*
G01*
X81275000Y-112281250D01*
G75*
G02*
X81031250Y-112525000I-243750J0D01*
G01*
X80543750Y-112525000D01*
G75*
G02*
X80300000Y-112281250I0J243750D01*
G01*
G37*
G36*
G01*
X74725000Y-140281250D02*
X74725000Y-139718750D01*
G75*
G02*
X74968750Y-139475000I243750J0D01*
G01*
X75456250Y-139475000D01*
G75*
G02*
X75700000Y-139718750I0J-243750D01*
G01*
X75700000Y-140281250D01*
G75*
G02*
X75456250Y-140525000I-243750J0D01*
G01*
X74968750Y-140525000D01*
G75*
G02*
X74725000Y-140281250I0J243750D01*
G01*
G37*
G36*
G01*
X76300000Y-140281250D02*
X76300000Y-139718750D01*
G75*
G02*
X76543750Y-139475000I243750J0D01*
G01*
X77031250Y-139475000D01*
G75*
G02*
X77275000Y-139718750I0J-243750D01*
G01*
X77275000Y-140281250D01*
G75*
G02*
X77031250Y-140525000I-243750J0D01*
G01*
X76543750Y-140525000D01*
G75*
G02*
X76300000Y-140281250I0J243750D01*
G01*
G37*
G36*
G01*
X74725000Y-136281250D02*
X74725000Y-135718750D01*
G75*
G02*
X74968750Y-135475000I243750J0D01*
G01*
X75456250Y-135475000D01*
G75*
G02*
X75700000Y-135718750I0J-243750D01*
G01*
X75700000Y-136281250D01*
G75*
G02*
X75456250Y-136525000I-243750J0D01*
G01*
X74968750Y-136525000D01*
G75*
G02*
X74725000Y-136281250I0J243750D01*
G01*
G37*
G36*
G01*
X76300000Y-136281250D02*
X76300000Y-135718750D01*
G75*
G02*
X76543750Y-135475000I243750J0D01*
G01*
X77031250Y-135475000D01*
G75*
G02*
X77275000Y-135718750I0J-243750D01*
G01*
X77275000Y-136281250D01*
G75*
G02*
X77031250Y-136525000I-243750J0D01*
G01*
X76543750Y-136525000D01*
G75*
G02*
X76300000Y-136281250I0J243750D01*
G01*
G37*
G36*
G01*
X74725000Y-132281250D02*
X74725000Y-131718750D01*
G75*
G02*
X74968750Y-131475000I243750J0D01*
G01*
X75456250Y-131475000D01*
G75*
G02*
X75700000Y-131718750I0J-243750D01*
G01*
X75700000Y-132281250D01*
G75*
G02*
X75456250Y-132525000I-243750J0D01*
G01*
X74968750Y-132525000D01*
G75*
G02*
X74725000Y-132281250I0J243750D01*
G01*
G37*
G36*
G01*
X76300000Y-132281250D02*
X76300000Y-131718750D01*
G75*
G02*
X76543750Y-131475000I243750J0D01*
G01*
X77031250Y-131475000D01*
G75*
G02*
X77275000Y-131718750I0J-243750D01*
G01*
X77275000Y-132281250D01*
G75*
G02*
X77031250Y-132525000I-243750J0D01*
G01*
X76543750Y-132525000D01*
G75*
G02*
X76300000Y-132281250I0J243750D01*
G01*
G37*
G36*
G01*
X74725000Y-128281250D02*
X74725000Y-127718750D01*
G75*
G02*
X74968750Y-127475000I243750J0D01*
G01*
X75456250Y-127475000D01*
G75*
G02*
X75700000Y-127718750I0J-243750D01*
G01*
X75700000Y-128281250D01*
G75*
G02*
X75456250Y-128525000I-243750J0D01*
G01*
X74968750Y-128525000D01*
G75*
G02*
X74725000Y-128281250I0J243750D01*
G01*
G37*
G36*
G01*
X76300000Y-128281250D02*
X76300000Y-127718750D01*
G75*
G02*
X76543750Y-127475000I243750J0D01*
G01*
X77031250Y-127475000D01*
G75*
G02*
X77275000Y-127718750I0J-243750D01*
G01*
X77275000Y-128281250D01*
G75*
G02*
X77031250Y-128525000I-243750J0D01*
G01*
X76543750Y-128525000D01*
G75*
G02*
X76300000Y-128281250I0J243750D01*
G01*
G37*
G36*
G01*
X74725000Y-124281250D02*
X74725000Y-123718750D01*
G75*
G02*
X74968750Y-123475000I243750J0D01*
G01*
X75456250Y-123475000D01*
G75*
G02*
X75700000Y-123718750I0J-243750D01*
G01*
X75700000Y-124281250D01*
G75*
G02*
X75456250Y-124525000I-243750J0D01*
G01*
X74968750Y-124525000D01*
G75*
G02*
X74725000Y-124281250I0J243750D01*
G01*
G37*
G36*
G01*
X76300000Y-124281250D02*
X76300000Y-123718750D01*
G75*
G02*
X76543750Y-123475000I243750J0D01*
G01*
X77031250Y-123475000D01*
G75*
G02*
X77275000Y-123718750I0J-243750D01*
G01*
X77275000Y-124281250D01*
G75*
G02*
X77031250Y-124525000I-243750J0D01*
G01*
X76543750Y-124525000D01*
G75*
G02*
X76300000Y-124281250I0J243750D01*
G01*
G37*
G36*
G01*
X74725000Y-120281250D02*
X74725000Y-119718750D01*
G75*
G02*
X74968750Y-119475000I243750J0D01*
G01*
X75456250Y-119475000D01*
G75*
G02*
X75700000Y-119718750I0J-243750D01*
G01*
X75700000Y-120281250D01*
G75*
G02*
X75456250Y-120525000I-243750J0D01*
G01*
X74968750Y-120525000D01*
G75*
G02*
X74725000Y-120281250I0J243750D01*
G01*
G37*
G36*
G01*
X76300000Y-120281250D02*
X76300000Y-119718750D01*
G75*
G02*
X76543750Y-119475000I243750J0D01*
G01*
X77031250Y-119475000D01*
G75*
G02*
X77275000Y-119718750I0J-243750D01*
G01*
X77275000Y-120281250D01*
G75*
G02*
X77031250Y-120525000I-243750J0D01*
G01*
X76543750Y-120525000D01*
G75*
G02*
X76300000Y-120281250I0J243750D01*
G01*
G37*
G36*
G01*
X74725000Y-116281250D02*
X74725000Y-115718750D01*
G75*
G02*
X74968750Y-115475000I243750J0D01*
G01*
X75456250Y-115475000D01*
G75*
G02*
X75700000Y-115718750I0J-243750D01*
G01*
X75700000Y-116281250D01*
G75*
G02*
X75456250Y-116525000I-243750J0D01*
G01*
X74968750Y-116525000D01*
G75*
G02*
X74725000Y-116281250I0J243750D01*
G01*
G37*
G36*
G01*
X76300000Y-116281250D02*
X76300000Y-115718750D01*
G75*
G02*
X76543750Y-115475000I243750J0D01*
G01*
X77031250Y-115475000D01*
G75*
G02*
X77275000Y-115718750I0J-243750D01*
G01*
X77275000Y-116281250D01*
G75*
G02*
X77031250Y-116525000I-243750J0D01*
G01*
X76543750Y-116525000D01*
G75*
G02*
X76300000Y-116281250I0J243750D01*
G01*
G37*
G36*
G01*
X74725000Y-112281250D02*
X74725000Y-111718750D01*
G75*
G02*
X74968750Y-111475000I243750J0D01*
G01*
X75456250Y-111475000D01*
G75*
G02*
X75700000Y-111718750I0J-243750D01*
G01*
X75700000Y-112281250D01*
G75*
G02*
X75456250Y-112525000I-243750J0D01*
G01*
X74968750Y-112525000D01*
G75*
G02*
X74725000Y-112281250I0J243750D01*
G01*
G37*
G36*
G01*
X76300000Y-112281250D02*
X76300000Y-111718750D01*
G75*
G02*
X76543750Y-111475000I243750J0D01*
G01*
X77031250Y-111475000D01*
G75*
G02*
X77275000Y-111718750I0J-243750D01*
G01*
X77275000Y-112281250D01*
G75*
G02*
X77031250Y-112525000I-243750J0D01*
G01*
X76543750Y-112525000D01*
G75*
G02*
X76300000Y-112281250I0J243750D01*
G01*
G37*
G36*
G01*
X70725000Y-140281250D02*
X70725000Y-139718750D01*
G75*
G02*
X70968750Y-139475000I243750J0D01*
G01*
X71456250Y-139475000D01*
G75*
G02*
X71700000Y-139718750I0J-243750D01*
G01*
X71700000Y-140281250D01*
G75*
G02*
X71456250Y-140525000I-243750J0D01*
G01*
X70968750Y-140525000D01*
G75*
G02*
X70725000Y-140281250I0J243750D01*
G01*
G37*
G36*
G01*
X72300000Y-140281250D02*
X72300000Y-139718750D01*
G75*
G02*
X72543750Y-139475000I243750J0D01*
G01*
X73031250Y-139475000D01*
G75*
G02*
X73275000Y-139718750I0J-243750D01*
G01*
X73275000Y-140281250D01*
G75*
G02*
X73031250Y-140525000I-243750J0D01*
G01*
X72543750Y-140525000D01*
G75*
G02*
X72300000Y-140281250I0J243750D01*
G01*
G37*
G36*
G01*
X70725000Y-136281250D02*
X70725000Y-135718750D01*
G75*
G02*
X70968750Y-135475000I243750J0D01*
G01*
X71456250Y-135475000D01*
G75*
G02*
X71700000Y-135718750I0J-243750D01*
G01*
X71700000Y-136281250D01*
G75*
G02*
X71456250Y-136525000I-243750J0D01*
G01*
X70968750Y-136525000D01*
G75*
G02*
X70725000Y-136281250I0J243750D01*
G01*
G37*
G36*
G01*
X72300000Y-136281250D02*
X72300000Y-135718750D01*
G75*
G02*
X72543750Y-135475000I243750J0D01*
G01*
X73031250Y-135475000D01*
G75*
G02*
X73275000Y-135718750I0J-243750D01*
G01*
X73275000Y-136281250D01*
G75*
G02*
X73031250Y-136525000I-243750J0D01*
G01*
X72543750Y-136525000D01*
G75*
G02*
X72300000Y-136281250I0J243750D01*
G01*
G37*
G36*
G01*
X70725000Y-132281250D02*
X70725000Y-131718750D01*
G75*
G02*
X70968750Y-131475000I243750J0D01*
G01*
X71456250Y-131475000D01*
G75*
G02*
X71700000Y-131718750I0J-243750D01*
G01*
X71700000Y-132281250D01*
G75*
G02*
X71456250Y-132525000I-243750J0D01*
G01*
X70968750Y-132525000D01*
G75*
G02*
X70725000Y-132281250I0J243750D01*
G01*
G37*
G36*
G01*
X72300000Y-132281250D02*
X72300000Y-131718750D01*
G75*
G02*
X72543750Y-131475000I243750J0D01*
G01*
X73031250Y-131475000D01*
G75*
G02*
X73275000Y-131718750I0J-243750D01*
G01*
X73275000Y-132281250D01*
G75*
G02*
X73031250Y-132525000I-243750J0D01*
G01*
X72543750Y-132525000D01*
G75*
G02*
X72300000Y-132281250I0J243750D01*
G01*
G37*
G36*
G01*
X70725000Y-128281250D02*
X70725000Y-127718750D01*
G75*
G02*
X70968750Y-127475000I243750J0D01*
G01*
X71456250Y-127475000D01*
G75*
G02*
X71700000Y-127718750I0J-243750D01*
G01*
X71700000Y-128281250D01*
G75*
G02*
X71456250Y-128525000I-243750J0D01*
G01*
X70968750Y-128525000D01*
G75*
G02*
X70725000Y-128281250I0J243750D01*
G01*
G37*
G36*
G01*
X72300000Y-128281250D02*
X72300000Y-127718750D01*
G75*
G02*
X72543750Y-127475000I243750J0D01*
G01*
X73031250Y-127475000D01*
G75*
G02*
X73275000Y-127718750I0J-243750D01*
G01*
X73275000Y-128281250D01*
G75*
G02*
X73031250Y-128525000I-243750J0D01*
G01*
X72543750Y-128525000D01*
G75*
G02*
X72300000Y-128281250I0J243750D01*
G01*
G37*
G36*
G01*
X70725000Y-124281250D02*
X70725000Y-123718750D01*
G75*
G02*
X70968750Y-123475000I243750J0D01*
G01*
X71456250Y-123475000D01*
G75*
G02*
X71700000Y-123718750I0J-243750D01*
G01*
X71700000Y-124281250D01*
G75*
G02*
X71456250Y-124525000I-243750J0D01*
G01*
X70968750Y-124525000D01*
G75*
G02*
X70725000Y-124281250I0J243750D01*
G01*
G37*
G36*
G01*
X72300000Y-124281250D02*
X72300000Y-123718750D01*
G75*
G02*
X72543750Y-123475000I243750J0D01*
G01*
X73031250Y-123475000D01*
G75*
G02*
X73275000Y-123718750I0J-243750D01*
G01*
X73275000Y-124281250D01*
G75*
G02*
X73031250Y-124525000I-243750J0D01*
G01*
X72543750Y-124525000D01*
G75*
G02*
X72300000Y-124281250I0J243750D01*
G01*
G37*
G36*
G01*
X72300000Y-120281250D02*
X72300000Y-119718750D01*
G75*
G02*
X72543750Y-119475000I243750J0D01*
G01*
X73031250Y-119475000D01*
G75*
G02*
X73275000Y-119718750I0J-243750D01*
G01*
X73275000Y-120281250D01*
G75*
G02*
X73031250Y-120525000I-243750J0D01*
G01*
X72543750Y-120525000D01*
G75*
G02*
X72300000Y-120281250I0J243750D01*
G01*
G37*
G36*
G01*
X70725000Y-120281250D02*
X70725000Y-119718750D01*
G75*
G02*
X70968750Y-119475000I243750J0D01*
G01*
X71456250Y-119475000D01*
G75*
G02*
X71700000Y-119718750I0J-243750D01*
G01*
X71700000Y-120281250D01*
G75*
G02*
X71456250Y-120525000I-243750J0D01*
G01*
X70968750Y-120525000D01*
G75*
G02*
X70725000Y-120281250I0J243750D01*
G01*
G37*
G36*
G01*
X70725000Y-116281250D02*
X70725000Y-115718750D01*
G75*
G02*
X70968750Y-115475000I243750J0D01*
G01*
X71456250Y-115475000D01*
G75*
G02*
X71700000Y-115718750I0J-243750D01*
G01*
X71700000Y-116281250D01*
G75*
G02*
X71456250Y-116525000I-243750J0D01*
G01*
X70968750Y-116525000D01*
G75*
G02*
X70725000Y-116281250I0J243750D01*
G01*
G37*
G36*
G01*
X72300000Y-116281250D02*
X72300000Y-115718750D01*
G75*
G02*
X72543750Y-115475000I243750J0D01*
G01*
X73031250Y-115475000D01*
G75*
G02*
X73275000Y-115718750I0J-243750D01*
G01*
X73275000Y-116281250D01*
G75*
G02*
X73031250Y-116525000I-243750J0D01*
G01*
X72543750Y-116525000D01*
G75*
G02*
X72300000Y-116281250I0J243750D01*
G01*
G37*
G36*
G01*
X70725000Y-112281250D02*
X70725000Y-111718750D01*
G75*
G02*
X70968750Y-111475000I243750J0D01*
G01*
X71456250Y-111475000D01*
G75*
G02*
X71700000Y-111718750I0J-243750D01*
G01*
X71700000Y-112281250D01*
G75*
G02*
X71456250Y-112525000I-243750J0D01*
G01*
X70968750Y-112525000D01*
G75*
G02*
X70725000Y-112281250I0J243750D01*
G01*
G37*
G36*
G01*
X72300000Y-112281250D02*
X72300000Y-111718750D01*
G75*
G02*
X72543750Y-111475000I243750J0D01*
G01*
X73031250Y-111475000D01*
G75*
G02*
X73275000Y-111718750I0J-243750D01*
G01*
X73275000Y-112281250D01*
G75*
G02*
X73031250Y-112525000I-243750J0D01*
G01*
X72543750Y-112525000D01*
G75*
G02*
X72300000Y-112281250I0J243750D01*
G01*
G37*
G36*
G01*
X66725000Y-140281250D02*
X66725000Y-139718750D01*
G75*
G02*
X66968750Y-139475000I243750J0D01*
G01*
X67456250Y-139475000D01*
G75*
G02*
X67700000Y-139718750I0J-243750D01*
G01*
X67700000Y-140281250D01*
G75*
G02*
X67456250Y-140525000I-243750J0D01*
G01*
X66968750Y-140525000D01*
G75*
G02*
X66725000Y-140281250I0J243750D01*
G01*
G37*
G36*
G01*
X68300000Y-140281250D02*
X68300000Y-139718750D01*
G75*
G02*
X68543750Y-139475000I243750J0D01*
G01*
X69031250Y-139475000D01*
G75*
G02*
X69275000Y-139718750I0J-243750D01*
G01*
X69275000Y-140281250D01*
G75*
G02*
X69031250Y-140525000I-243750J0D01*
G01*
X68543750Y-140525000D01*
G75*
G02*
X68300000Y-140281250I0J243750D01*
G01*
G37*
G36*
G01*
X66725000Y-136281250D02*
X66725000Y-135718750D01*
G75*
G02*
X66968750Y-135475000I243750J0D01*
G01*
X67456250Y-135475000D01*
G75*
G02*
X67700000Y-135718750I0J-243750D01*
G01*
X67700000Y-136281250D01*
G75*
G02*
X67456250Y-136525000I-243750J0D01*
G01*
X66968750Y-136525000D01*
G75*
G02*
X66725000Y-136281250I0J243750D01*
G01*
G37*
G36*
G01*
X68300000Y-136281250D02*
X68300000Y-135718750D01*
G75*
G02*
X68543750Y-135475000I243750J0D01*
G01*
X69031250Y-135475000D01*
G75*
G02*
X69275000Y-135718750I0J-243750D01*
G01*
X69275000Y-136281250D01*
G75*
G02*
X69031250Y-136525000I-243750J0D01*
G01*
X68543750Y-136525000D01*
G75*
G02*
X68300000Y-136281250I0J243750D01*
G01*
G37*
G36*
G01*
X66725000Y-132281250D02*
X66725000Y-131718750D01*
G75*
G02*
X66968750Y-131475000I243750J0D01*
G01*
X67456250Y-131475000D01*
G75*
G02*
X67700000Y-131718750I0J-243750D01*
G01*
X67700000Y-132281250D01*
G75*
G02*
X67456250Y-132525000I-243750J0D01*
G01*
X66968750Y-132525000D01*
G75*
G02*
X66725000Y-132281250I0J243750D01*
G01*
G37*
G36*
G01*
X68300000Y-132281250D02*
X68300000Y-131718750D01*
G75*
G02*
X68543750Y-131475000I243750J0D01*
G01*
X69031250Y-131475000D01*
G75*
G02*
X69275000Y-131718750I0J-243750D01*
G01*
X69275000Y-132281250D01*
G75*
G02*
X69031250Y-132525000I-243750J0D01*
G01*
X68543750Y-132525000D01*
G75*
G02*
X68300000Y-132281250I0J243750D01*
G01*
G37*
G36*
G01*
X66725000Y-128281250D02*
X66725000Y-127718750D01*
G75*
G02*
X66968750Y-127475000I243750J0D01*
G01*
X67456250Y-127475000D01*
G75*
G02*
X67700000Y-127718750I0J-243750D01*
G01*
X67700000Y-128281250D01*
G75*
G02*
X67456250Y-128525000I-243750J0D01*
G01*
X66968750Y-128525000D01*
G75*
G02*
X66725000Y-128281250I0J243750D01*
G01*
G37*
G36*
G01*
X68300000Y-128281250D02*
X68300000Y-127718750D01*
G75*
G02*
X68543750Y-127475000I243750J0D01*
G01*
X69031250Y-127475000D01*
G75*
G02*
X69275000Y-127718750I0J-243750D01*
G01*
X69275000Y-128281250D01*
G75*
G02*
X69031250Y-128525000I-243750J0D01*
G01*
X68543750Y-128525000D01*
G75*
G02*
X68300000Y-128281250I0J243750D01*
G01*
G37*
G36*
G01*
X66725000Y-124281250D02*
X66725000Y-123718750D01*
G75*
G02*
X66968750Y-123475000I243750J0D01*
G01*
X67456250Y-123475000D01*
G75*
G02*
X67700000Y-123718750I0J-243750D01*
G01*
X67700000Y-124281250D01*
G75*
G02*
X67456250Y-124525000I-243750J0D01*
G01*
X66968750Y-124525000D01*
G75*
G02*
X66725000Y-124281250I0J243750D01*
G01*
G37*
G36*
G01*
X68300000Y-124281250D02*
X68300000Y-123718750D01*
G75*
G02*
X68543750Y-123475000I243750J0D01*
G01*
X69031250Y-123475000D01*
G75*
G02*
X69275000Y-123718750I0J-243750D01*
G01*
X69275000Y-124281250D01*
G75*
G02*
X69031250Y-124525000I-243750J0D01*
G01*
X68543750Y-124525000D01*
G75*
G02*
X68300000Y-124281250I0J243750D01*
G01*
G37*
G36*
G01*
X68300000Y-120281250D02*
X68300000Y-119718750D01*
G75*
G02*
X68543750Y-119475000I243750J0D01*
G01*
X69031250Y-119475000D01*
G75*
G02*
X69275000Y-119718750I0J-243750D01*
G01*
X69275000Y-120281250D01*
G75*
G02*
X69031250Y-120525000I-243750J0D01*
G01*
X68543750Y-120525000D01*
G75*
G02*
X68300000Y-120281250I0J243750D01*
G01*
G37*
G36*
G01*
X66725000Y-120281250D02*
X66725000Y-119718750D01*
G75*
G02*
X66968750Y-119475000I243750J0D01*
G01*
X67456250Y-119475000D01*
G75*
G02*
X67700000Y-119718750I0J-243750D01*
G01*
X67700000Y-120281250D01*
G75*
G02*
X67456250Y-120525000I-243750J0D01*
G01*
X66968750Y-120525000D01*
G75*
G02*
X66725000Y-120281250I0J243750D01*
G01*
G37*
G36*
G01*
X66725000Y-116281250D02*
X66725000Y-115718750D01*
G75*
G02*
X66968750Y-115475000I243750J0D01*
G01*
X67456250Y-115475000D01*
G75*
G02*
X67700000Y-115718750I0J-243750D01*
G01*
X67700000Y-116281250D01*
G75*
G02*
X67456250Y-116525000I-243750J0D01*
G01*
X66968750Y-116525000D01*
G75*
G02*
X66725000Y-116281250I0J243750D01*
G01*
G37*
G36*
G01*
X68300000Y-116281250D02*
X68300000Y-115718750D01*
G75*
G02*
X68543750Y-115475000I243750J0D01*
G01*
X69031250Y-115475000D01*
G75*
G02*
X69275000Y-115718750I0J-243750D01*
G01*
X69275000Y-116281250D01*
G75*
G02*
X69031250Y-116525000I-243750J0D01*
G01*
X68543750Y-116525000D01*
G75*
G02*
X68300000Y-116281250I0J243750D01*
G01*
G37*
G36*
G01*
X66725000Y-112281250D02*
X66725000Y-111718750D01*
G75*
G02*
X66968750Y-111475000I243750J0D01*
G01*
X67456250Y-111475000D01*
G75*
G02*
X67700000Y-111718750I0J-243750D01*
G01*
X67700000Y-112281250D01*
G75*
G02*
X67456250Y-112525000I-243750J0D01*
G01*
X66968750Y-112525000D01*
G75*
G02*
X66725000Y-112281250I0J243750D01*
G01*
G37*
G36*
G01*
X68300000Y-112281250D02*
X68300000Y-111718750D01*
G75*
G02*
X68543750Y-111475000I243750J0D01*
G01*
X69031250Y-111475000D01*
G75*
G02*
X69275000Y-111718750I0J-243750D01*
G01*
X69275000Y-112281250D01*
G75*
G02*
X69031250Y-112525000I-243750J0D01*
G01*
X68543750Y-112525000D01*
G75*
G02*
X68300000Y-112281250I0J243750D01*
G01*
G37*
G36*
G01*
X62725000Y-140281250D02*
X62725000Y-139718750D01*
G75*
G02*
X62968750Y-139475000I243750J0D01*
G01*
X63456250Y-139475000D01*
G75*
G02*
X63700000Y-139718750I0J-243750D01*
G01*
X63700000Y-140281250D01*
G75*
G02*
X63456250Y-140525000I-243750J0D01*
G01*
X62968750Y-140525000D01*
G75*
G02*
X62725000Y-140281250I0J243750D01*
G01*
G37*
G36*
G01*
X64300000Y-140281250D02*
X64300000Y-139718750D01*
G75*
G02*
X64543750Y-139475000I243750J0D01*
G01*
X65031250Y-139475000D01*
G75*
G02*
X65275000Y-139718750I0J-243750D01*
G01*
X65275000Y-140281250D01*
G75*
G02*
X65031250Y-140525000I-243750J0D01*
G01*
X64543750Y-140525000D01*
G75*
G02*
X64300000Y-140281250I0J243750D01*
G01*
G37*
G36*
G01*
X62725000Y-136281250D02*
X62725000Y-135718750D01*
G75*
G02*
X62968750Y-135475000I243750J0D01*
G01*
X63456250Y-135475000D01*
G75*
G02*
X63700000Y-135718750I0J-243750D01*
G01*
X63700000Y-136281250D01*
G75*
G02*
X63456250Y-136525000I-243750J0D01*
G01*
X62968750Y-136525000D01*
G75*
G02*
X62725000Y-136281250I0J243750D01*
G01*
G37*
G36*
G01*
X64300000Y-136281250D02*
X64300000Y-135718750D01*
G75*
G02*
X64543750Y-135475000I243750J0D01*
G01*
X65031250Y-135475000D01*
G75*
G02*
X65275000Y-135718750I0J-243750D01*
G01*
X65275000Y-136281250D01*
G75*
G02*
X65031250Y-136525000I-243750J0D01*
G01*
X64543750Y-136525000D01*
G75*
G02*
X64300000Y-136281250I0J243750D01*
G01*
G37*
G36*
G01*
X62725000Y-132281250D02*
X62725000Y-131718750D01*
G75*
G02*
X62968750Y-131475000I243750J0D01*
G01*
X63456250Y-131475000D01*
G75*
G02*
X63700000Y-131718750I0J-243750D01*
G01*
X63700000Y-132281250D01*
G75*
G02*
X63456250Y-132525000I-243750J0D01*
G01*
X62968750Y-132525000D01*
G75*
G02*
X62725000Y-132281250I0J243750D01*
G01*
G37*
G36*
G01*
X64300000Y-132281250D02*
X64300000Y-131718750D01*
G75*
G02*
X64543750Y-131475000I243750J0D01*
G01*
X65031250Y-131475000D01*
G75*
G02*
X65275000Y-131718750I0J-243750D01*
G01*
X65275000Y-132281250D01*
G75*
G02*
X65031250Y-132525000I-243750J0D01*
G01*
X64543750Y-132525000D01*
G75*
G02*
X64300000Y-132281250I0J243750D01*
G01*
G37*
G36*
G01*
X62709000Y-128281250D02*
X62709000Y-127718750D01*
G75*
G02*
X62952750Y-127475000I243750J0D01*
G01*
X63440250Y-127475000D01*
G75*
G02*
X63684000Y-127718750I0J-243750D01*
G01*
X63684000Y-128281250D01*
G75*
G02*
X63440250Y-128525000I-243750J0D01*
G01*
X62952750Y-128525000D01*
G75*
G02*
X62709000Y-128281250I0J243750D01*
G01*
G37*
G36*
G01*
X64284000Y-128281250D02*
X64284000Y-127718750D01*
G75*
G02*
X64527750Y-127475000I243750J0D01*
G01*
X65015250Y-127475000D01*
G75*
G02*
X65259000Y-127718750I0J-243750D01*
G01*
X65259000Y-128281250D01*
G75*
G02*
X65015250Y-128525000I-243750J0D01*
G01*
X64527750Y-128525000D01*
G75*
G02*
X64284000Y-128281250I0J243750D01*
G01*
G37*
G36*
G01*
X62725000Y-124281250D02*
X62725000Y-123718750D01*
G75*
G02*
X62968750Y-123475000I243750J0D01*
G01*
X63456250Y-123475000D01*
G75*
G02*
X63700000Y-123718750I0J-243750D01*
G01*
X63700000Y-124281250D01*
G75*
G02*
X63456250Y-124525000I-243750J0D01*
G01*
X62968750Y-124525000D01*
G75*
G02*
X62725000Y-124281250I0J243750D01*
G01*
G37*
G36*
G01*
X64300000Y-124281250D02*
X64300000Y-123718750D01*
G75*
G02*
X64543750Y-123475000I243750J0D01*
G01*
X65031250Y-123475000D01*
G75*
G02*
X65275000Y-123718750I0J-243750D01*
G01*
X65275000Y-124281250D01*
G75*
G02*
X65031250Y-124525000I-243750J0D01*
G01*
X64543750Y-124525000D01*
G75*
G02*
X64300000Y-124281250I0J243750D01*
G01*
G37*
G36*
G01*
X62725000Y-120281250D02*
X62725000Y-119718750D01*
G75*
G02*
X62968750Y-119475000I243750J0D01*
G01*
X63456250Y-119475000D01*
G75*
G02*
X63700000Y-119718750I0J-243750D01*
G01*
X63700000Y-120281250D01*
G75*
G02*
X63456250Y-120525000I-243750J0D01*
G01*
X62968750Y-120525000D01*
G75*
G02*
X62725000Y-120281250I0J243750D01*
G01*
G37*
G36*
G01*
X64300000Y-120281250D02*
X64300000Y-119718750D01*
G75*
G02*
X64543750Y-119475000I243750J0D01*
G01*
X65031250Y-119475000D01*
G75*
G02*
X65275000Y-119718750I0J-243750D01*
G01*
X65275000Y-120281250D01*
G75*
G02*
X65031250Y-120525000I-243750J0D01*
G01*
X64543750Y-120525000D01*
G75*
G02*
X64300000Y-120281250I0J243750D01*
G01*
G37*
G36*
G01*
X62725000Y-116281250D02*
X62725000Y-115718750D01*
G75*
G02*
X62968750Y-115475000I243750J0D01*
G01*
X63456250Y-115475000D01*
G75*
G02*
X63700000Y-115718750I0J-243750D01*
G01*
X63700000Y-116281250D01*
G75*
G02*
X63456250Y-116525000I-243750J0D01*
G01*
X62968750Y-116525000D01*
G75*
G02*
X62725000Y-116281250I0J243750D01*
G01*
G37*
G36*
G01*
X64300000Y-116281250D02*
X64300000Y-115718750D01*
G75*
G02*
X64543750Y-115475000I243750J0D01*
G01*
X65031250Y-115475000D01*
G75*
G02*
X65275000Y-115718750I0J-243750D01*
G01*
X65275000Y-116281250D01*
G75*
G02*
X65031250Y-116525000I-243750J0D01*
G01*
X64543750Y-116525000D01*
G75*
G02*
X64300000Y-116281250I0J243750D01*
G01*
G37*
G36*
G01*
X62725000Y-112281250D02*
X62725000Y-111718750D01*
G75*
G02*
X62968750Y-111475000I243750J0D01*
G01*
X63456250Y-111475000D01*
G75*
G02*
X63700000Y-111718750I0J-243750D01*
G01*
X63700000Y-112281250D01*
G75*
G02*
X63456250Y-112525000I-243750J0D01*
G01*
X62968750Y-112525000D01*
G75*
G02*
X62725000Y-112281250I0J243750D01*
G01*
G37*
G36*
G01*
X64300000Y-112281250D02*
X64300000Y-111718750D01*
G75*
G02*
X64543750Y-111475000I243750J0D01*
G01*
X65031250Y-111475000D01*
G75*
G02*
X65275000Y-111718750I0J-243750D01*
G01*
X65275000Y-112281250D01*
G75*
G02*
X65031250Y-112525000I-243750J0D01*
G01*
X64543750Y-112525000D01*
G75*
G02*
X64300000Y-112281250I0J243750D01*
G01*
G37*
G36*
G01*
X58725000Y-140281250D02*
X58725000Y-139718750D01*
G75*
G02*
X58968750Y-139475000I243750J0D01*
G01*
X59456250Y-139475000D01*
G75*
G02*
X59700000Y-139718750I0J-243750D01*
G01*
X59700000Y-140281250D01*
G75*
G02*
X59456250Y-140525000I-243750J0D01*
G01*
X58968750Y-140525000D01*
G75*
G02*
X58725000Y-140281250I0J243750D01*
G01*
G37*
G36*
G01*
X60300000Y-140281250D02*
X60300000Y-139718750D01*
G75*
G02*
X60543750Y-139475000I243750J0D01*
G01*
X61031250Y-139475000D01*
G75*
G02*
X61275000Y-139718750I0J-243750D01*
G01*
X61275000Y-140281250D01*
G75*
G02*
X61031250Y-140525000I-243750J0D01*
G01*
X60543750Y-140525000D01*
G75*
G02*
X60300000Y-140281250I0J243750D01*
G01*
G37*
G36*
G01*
X58725000Y-136281250D02*
X58725000Y-135718750D01*
G75*
G02*
X58968750Y-135475000I243750J0D01*
G01*
X59456250Y-135475000D01*
G75*
G02*
X59700000Y-135718750I0J-243750D01*
G01*
X59700000Y-136281250D01*
G75*
G02*
X59456250Y-136525000I-243750J0D01*
G01*
X58968750Y-136525000D01*
G75*
G02*
X58725000Y-136281250I0J243750D01*
G01*
G37*
G36*
G01*
X60300000Y-136281250D02*
X60300000Y-135718750D01*
G75*
G02*
X60543750Y-135475000I243750J0D01*
G01*
X61031250Y-135475000D01*
G75*
G02*
X61275000Y-135718750I0J-243750D01*
G01*
X61275000Y-136281250D01*
G75*
G02*
X61031250Y-136525000I-243750J0D01*
G01*
X60543750Y-136525000D01*
G75*
G02*
X60300000Y-136281250I0J243750D01*
G01*
G37*
G36*
G01*
X58725000Y-132281250D02*
X58725000Y-131718750D01*
G75*
G02*
X58968750Y-131475000I243750J0D01*
G01*
X59456250Y-131475000D01*
G75*
G02*
X59700000Y-131718750I0J-243750D01*
G01*
X59700000Y-132281250D01*
G75*
G02*
X59456250Y-132525000I-243750J0D01*
G01*
X58968750Y-132525000D01*
G75*
G02*
X58725000Y-132281250I0J243750D01*
G01*
G37*
G36*
G01*
X60300000Y-132281250D02*
X60300000Y-131718750D01*
G75*
G02*
X60543750Y-131475000I243750J0D01*
G01*
X61031250Y-131475000D01*
G75*
G02*
X61275000Y-131718750I0J-243750D01*
G01*
X61275000Y-132281250D01*
G75*
G02*
X61031250Y-132525000I-243750J0D01*
G01*
X60543750Y-132525000D01*
G75*
G02*
X60300000Y-132281250I0J243750D01*
G01*
G37*
G36*
G01*
X58725000Y-128281250D02*
X58725000Y-127718750D01*
G75*
G02*
X58968750Y-127475000I243750J0D01*
G01*
X59456250Y-127475000D01*
G75*
G02*
X59700000Y-127718750I0J-243750D01*
G01*
X59700000Y-128281250D01*
G75*
G02*
X59456250Y-128525000I-243750J0D01*
G01*
X58968750Y-128525000D01*
G75*
G02*
X58725000Y-128281250I0J243750D01*
G01*
G37*
G36*
G01*
X60300000Y-128281250D02*
X60300000Y-127718750D01*
G75*
G02*
X60543750Y-127475000I243750J0D01*
G01*
X61031250Y-127475000D01*
G75*
G02*
X61275000Y-127718750I0J-243750D01*
G01*
X61275000Y-128281250D01*
G75*
G02*
X61031250Y-128525000I-243750J0D01*
G01*
X60543750Y-128525000D01*
G75*
G02*
X60300000Y-128281250I0J243750D01*
G01*
G37*
G36*
G01*
X58725000Y-124281250D02*
X58725000Y-123718750D01*
G75*
G02*
X58968750Y-123475000I243750J0D01*
G01*
X59456250Y-123475000D01*
G75*
G02*
X59700000Y-123718750I0J-243750D01*
G01*
X59700000Y-124281250D01*
G75*
G02*
X59456250Y-124525000I-243750J0D01*
G01*
X58968750Y-124525000D01*
G75*
G02*
X58725000Y-124281250I0J243750D01*
G01*
G37*
G36*
G01*
X60300000Y-124281250D02*
X60300000Y-123718750D01*
G75*
G02*
X60543750Y-123475000I243750J0D01*
G01*
X61031250Y-123475000D01*
G75*
G02*
X61275000Y-123718750I0J-243750D01*
G01*
X61275000Y-124281250D01*
G75*
G02*
X61031250Y-124525000I-243750J0D01*
G01*
X60543750Y-124525000D01*
G75*
G02*
X60300000Y-124281250I0J243750D01*
G01*
G37*
G36*
G01*
X60300000Y-120281250D02*
X60300000Y-119718750D01*
G75*
G02*
X60543750Y-119475000I243750J0D01*
G01*
X61031250Y-119475000D01*
G75*
G02*
X61275000Y-119718750I0J-243750D01*
G01*
X61275000Y-120281250D01*
G75*
G02*
X61031250Y-120525000I-243750J0D01*
G01*
X60543750Y-120525000D01*
G75*
G02*
X60300000Y-120281250I0J243750D01*
G01*
G37*
G36*
G01*
X58725000Y-120281250D02*
X58725000Y-119718750D01*
G75*
G02*
X58968750Y-119475000I243750J0D01*
G01*
X59456250Y-119475000D01*
G75*
G02*
X59700000Y-119718750I0J-243750D01*
G01*
X59700000Y-120281250D01*
G75*
G02*
X59456250Y-120525000I-243750J0D01*
G01*
X58968750Y-120525000D01*
G75*
G02*
X58725000Y-120281250I0J243750D01*
G01*
G37*
G36*
G01*
X58725000Y-116281250D02*
X58725000Y-115718750D01*
G75*
G02*
X58968750Y-115475000I243750J0D01*
G01*
X59456250Y-115475000D01*
G75*
G02*
X59700000Y-115718750I0J-243750D01*
G01*
X59700000Y-116281250D01*
G75*
G02*
X59456250Y-116525000I-243750J0D01*
G01*
X58968750Y-116525000D01*
G75*
G02*
X58725000Y-116281250I0J243750D01*
G01*
G37*
G36*
G01*
X60300000Y-116281250D02*
X60300000Y-115718750D01*
G75*
G02*
X60543750Y-115475000I243750J0D01*
G01*
X61031250Y-115475000D01*
G75*
G02*
X61275000Y-115718750I0J-243750D01*
G01*
X61275000Y-116281250D01*
G75*
G02*
X61031250Y-116525000I-243750J0D01*
G01*
X60543750Y-116525000D01*
G75*
G02*
X60300000Y-116281250I0J243750D01*
G01*
G37*
G36*
G01*
X60300000Y-112281250D02*
X60300000Y-111718750D01*
G75*
G02*
X60543750Y-111475000I243750J0D01*
G01*
X61031250Y-111475000D01*
G75*
G02*
X61275000Y-111718750I0J-243750D01*
G01*
X61275000Y-112281250D01*
G75*
G02*
X61031250Y-112525000I-243750J0D01*
G01*
X60543750Y-112525000D01*
G75*
G02*
X60300000Y-112281250I0J243750D01*
G01*
G37*
G36*
G01*
X58725000Y-112281250D02*
X58725000Y-111718750D01*
G75*
G02*
X58968750Y-111475000I243750J0D01*
G01*
X59456250Y-111475000D01*
G75*
G02*
X59700000Y-111718750I0J-243750D01*
G01*
X59700000Y-112281250D01*
G75*
G02*
X59456250Y-112525000I-243750J0D01*
G01*
X58968750Y-112525000D01*
G75*
G02*
X58725000Y-112281250I0J243750D01*
G01*
G37*
G36*
G01*
X54725000Y-140281250D02*
X54725000Y-139718750D01*
G75*
G02*
X54968750Y-139475000I243750J0D01*
G01*
X55456250Y-139475000D01*
G75*
G02*
X55700000Y-139718750I0J-243750D01*
G01*
X55700000Y-140281250D01*
G75*
G02*
X55456250Y-140525000I-243750J0D01*
G01*
X54968750Y-140525000D01*
G75*
G02*
X54725000Y-140281250I0J243750D01*
G01*
G37*
G36*
G01*
X56300000Y-140281250D02*
X56300000Y-139718750D01*
G75*
G02*
X56543750Y-139475000I243750J0D01*
G01*
X57031250Y-139475000D01*
G75*
G02*
X57275000Y-139718750I0J-243750D01*
G01*
X57275000Y-140281250D01*
G75*
G02*
X57031250Y-140525000I-243750J0D01*
G01*
X56543750Y-140525000D01*
G75*
G02*
X56300000Y-140281250I0J243750D01*
G01*
G37*
G36*
G01*
X54725000Y-136281250D02*
X54725000Y-135718750D01*
G75*
G02*
X54968750Y-135475000I243750J0D01*
G01*
X55456250Y-135475000D01*
G75*
G02*
X55700000Y-135718750I0J-243750D01*
G01*
X55700000Y-136281250D01*
G75*
G02*
X55456250Y-136525000I-243750J0D01*
G01*
X54968750Y-136525000D01*
G75*
G02*
X54725000Y-136281250I0J243750D01*
G01*
G37*
G36*
G01*
X56300000Y-136281250D02*
X56300000Y-135718750D01*
G75*
G02*
X56543750Y-135475000I243750J0D01*
G01*
X57031250Y-135475000D01*
G75*
G02*
X57275000Y-135718750I0J-243750D01*
G01*
X57275000Y-136281250D01*
G75*
G02*
X57031250Y-136525000I-243750J0D01*
G01*
X56543750Y-136525000D01*
G75*
G02*
X56300000Y-136281250I0J243750D01*
G01*
G37*
G36*
G01*
X54725000Y-132281250D02*
X54725000Y-131718750D01*
G75*
G02*
X54968750Y-131475000I243750J0D01*
G01*
X55456250Y-131475000D01*
G75*
G02*
X55700000Y-131718750I0J-243750D01*
G01*
X55700000Y-132281250D01*
G75*
G02*
X55456250Y-132525000I-243750J0D01*
G01*
X54968750Y-132525000D01*
G75*
G02*
X54725000Y-132281250I0J243750D01*
G01*
G37*
G36*
G01*
X56300000Y-132281250D02*
X56300000Y-131718750D01*
G75*
G02*
X56543750Y-131475000I243750J0D01*
G01*
X57031250Y-131475000D01*
G75*
G02*
X57275000Y-131718750I0J-243750D01*
G01*
X57275000Y-132281250D01*
G75*
G02*
X57031250Y-132525000I-243750J0D01*
G01*
X56543750Y-132525000D01*
G75*
G02*
X56300000Y-132281250I0J243750D01*
G01*
G37*
G36*
G01*
X54725000Y-128281250D02*
X54725000Y-127718750D01*
G75*
G02*
X54968750Y-127475000I243750J0D01*
G01*
X55456250Y-127475000D01*
G75*
G02*
X55700000Y-127718750I0J-243750D01*
G01*
X55700000Y-128281250D01*
G75*
G02*
X55456250Y-128525000I-243750J0D01*
G01*
X54968750Y-128525000D01*
G75*
G02*
X54725000Y-128281250I0J243750D01*
G01*
G37*
G36*
G01*
X56300000Y-128281250D02*
X56300000Y-127718750D01*
G75*
G02*
X56543750Y-127475000I243750J0D01*
G01*
X57031250Y-127475000D01*
G75*
G02*
X57275000Y-127718750I0J-243750D01*
G01*
X57275000Y-128281250D01*
G75*
G02*
X57031250Y-128525000I-243750J0D01*
G01*
X56543750Y-128525000D01*
G75*
G02*
X56300000Y-128281250I0J243750D01*
G01*
G37*
G36*
G01*
X54725000Y-124281250D02*
X54725000Y-123718750D01*
G75*
G02*
X54968750Y-123475000I243750J0D01*
G01*
X55456250Y-123475000D01*
G75*
G02*
X55700000Y-123718750I0J-243750D01*
G01*
X55700000Y-124281250D01*
G75*
G02*
X55456250Y-124525000I-243750J0D01*
G01*
X54968750Y-124525000D01*
G75*
G02*
X54725000Y-124281250I0J243750D01*
G01*
G37*
G36*
G01*
X56300000Y-124281250D02*
X56300000Y-123718750D01*
G75*
G02*
X56543750Y-123475000I243750J0D01*
G01*
X57031250Y-123475000D01*
G75*
G02*
X57275000Y-123718750I0J-243750D01*
G01*
X57275000Y-124281250D01*
G75*
G02*
X57031250Y-124525000I-243750J0D01*
G01*
X56543750Y-124525000D01*
G75*
G02*
X56300000Y-124281250I0J243750D01*
G01*
G37*
G36*
G01*
X56300000Y-120281250D02*
X56300000Y-119718750D01*
G75*
G02*
X56543750Y-119475000I243750J0D01*
G01*
X57031250Y-119475000D01*
G75*
G02*
X57275000Y-119718750I0J-243750D01*
G01*
X57275000Y-120281250D01*
G75*
G02*
X57031250Y-120525000I-243750J0D01*
G01*
X56543750Y-120525000D01*
G75*
G02*
X56300000Y-120281250I0J243750D01*
G01*
G37*
G36*
G01*
X54725000Y-120281250D02*
X54725000Y-119718750D01*
G75*
G02*
X54968750Y-119475000I243750J0D01*
G01*
X55456250Y-119475000D01*
G75*
G02*
X55700000Y-119718750I0J-243750D01*
G01*
X55700000Y-120281250D01*
G75*
G02*
X55456250Y-120525000I-243750J0D01*
G01*
X54968750Y-120525000D01*
G75*
G02*
X54725000Y-120281250I0J243750D01*
G01*
G37*
G36*
G01*
X54725000Y-116281250D02*
X54725000Y-115718750D01*
G75*
G02*
X54968750Y-115475000I243750J0D01*
G01*
X55456250Y-115475000D01*
G75*
G02*
X55700000Y-115718750I0J-243750D01*
G01*
X55700000Y-116281250D01*
G75*
G02*
X55456250Y-116525000I-243750J0D01*
G01*
X54968750Y-116525000D01*
G75*
G02*
X54725000Y-116281250I0J243750D01*
G01*
G37*
G36*
G01*
X56300000Y-116281250D02*
X56300000Y-115718750D01*
G75*
G02*
X56543750Y-115475000I243750J0D01*
G01*
X57031250Y-115475000D01*
G75*
G02*
X57275000Y-115718750I0J-243750D01*
G01*
X57275000Y-116281250D01*
G75*
G02*
X57031250Y-116525000I-243750J0D01*
G01*
X56543750Y-116525000D01*
G75*
G02*
X56300000Y-116281250I0J243750D01*
G01*
G37*
M02*
