M48
; DRILL file {KiCad (5.1.6)-1} date 05/09/21 16:16:53
; FORMAT={-:-/ absolute / inch / decimal}
; #@! TF.CreationDate,2021-05-09T16:16:53+05:30
; #@! TF.GenerationSoftware,Kicad,Pcbnew,(5.1.6)-1
FMAT,2
INCH
T1C0.0157
T2C0.0394
T3C0.0606
T4C0.0354
%
G90
G05
T1
X2.185Y-4.3504
X2.185Y-4.4685
X2.185Y-4.626
X2.185Y-4.7835
X2.185Y-4.9409
X2.185Y-5.0984
X2.185Y-5.2559
X2.185Y-5.4134
X2.185Y-5.6693
X2.3425Y-4.3504
X2.3425Y-4.4685
X2.3425Y-4.626
X2.3425Y-4.7835
X2.3425Y-4.9409
X2.3425Y-5.0984
X2.3425Y-5.2559
X2.3425Y-5.4134
X2.3425Y-6.122
X2.3622Y-6.0433
X2.4016Y-6.0827
X2.4803Y-5.8858
X2.5Y-4.3504
X2.5Y-4.4685
X2.5Y-4.626
X2.5Y-4.7835
X2.5Y-4.9409
X2.5Y-5.0984
X2.5Y-5.2559
X2.5Y-5.4134
X2.6181Y-6.122
X2.6575Y-4.3504
X2.6575Y-4.4685
X2.6575Y-4.626
X2.6575Y-4.7835
X2.6575Y-4.9409
X2.6575Y-5.0984
X2.6575Y-5.2559
X2.6575Y-5.4134
X2.815Y-4.3504
X2.815Y-4.4685
X2.815Y-4.626
X2.815Y-4.7835
X2.815Y-4.9409
X2.815Y-5.0984
X2.815Y-5.2559
X2.815Y-5.4134
X2.9724Y-4.3504
X2.9724Y-4.4685
X2.9724Y-4.626
X2.9724Y-4.7835
X2.9724Y-4.9409
X2.9724Y-5.0984
X2.9724Y-5.2559
X2.9724Y-5.4134
X3.1102Y-6.9685
X3.1299Y-4.3504
X3.1299Y-4.4685
X3.1299Y-4.626
X3.1299Y-4.7835
X3.1299Y-4.9409
X3.1299Y-5.0984
X3.1299Y-5.2559
X3.1299Y-5.4134
X3.1299Y-6.122
X3.189Y-5.6693
X3.248Y-6.122
X3.2874Y-4.3504
X3.2874Y-4.4685
X3.2874Y-4.626
X3.2874Y-4.7835
X3.2874Y-4.9409
X3.2874Y-5.0984
X3.2874Y-5.2559
X3.2874Y-5.4134
X3.3071Y-6.0433
X3.3465Y-5.8858
X3.3661Y-6.0827
X3.3858Y-5.1378
X3.3858Y-5.4528
X3.4252Y-5.8661
X3.4449Y-4.3504
X3.4449Y-4.4685
X3.4449Y-4.626
X3.4449Y-4.7835
X3.4449Y-4.9409
X3.4449Y-5.0984
X3.4449Y-5.2559
X3.4449Y-5.4134
X3.4843Y-6.122
X3.4898Y-6.4811
X3.51Y-6.7806
X3.5433Y-5.2953
X3.5433Y-5.4528
X3.563Y-6.9488
X3.6024Y-4.3504
X3.6024Y-4.4685
X3.6024Y-4.626
X3.6024Y-4.7835
X3.6024Y-4.9409
X3.6024Y-5.0984
X3.6024Y-5.2559
X3.6024Y-5.4134
X3.7008Y-4.9803
X3.7008Y-5.4528
X3.7598Y-4.3504
X3.7598Y-4.4685
X3.7598Y-4.626
X3.7598Y-4.7835
X3.7598Y-4.9409
X3.7598Y-5.0984
X3.7598Y-5.2559
X3.7598Y-5.4134
X3.7654Y-6.6701
X3.7795Y-6.3386
X3.8002Y-5.9636
X3.8386Y-6.4173
X3.8583Y-4.8228
X3.8583Y-5.4528
X3.88Y-6.6606
X3.9173Y-4.3504
X3.9173Y-4.4685
X3.9173Y-4.626
X3.9173Y-4.7835
X3.9173Y-4.9409
X3.9173Y-5.0984
X3.9173Y-5.2559
X3.9173Y-5.4134
X3.9173Y-5.8465
X3.9567Y-6.0433
X4.0157Y-5.6102
X4.0551Y-6.9488
X4.0748Y-4.3504
X4.0748Y-4.4685
X4.0748Y-4.626
X4.0748Y-4.7835
X4.0748Y-4.9409
X4.0748Y-5.0984
X4.0748Y-5.2559
X4.0748Y-5.4134
X4.0748Y-5.5709
X4.1142Y-6.3386
X4.1929Y-5.8465
X4.1929Y-6.122
X4.2323Y-4.3504
X4.2323Y-4.4685
X4.2323Y-4.626
X4.2323Y-4.7835
X4.2323Y-4.9409
X4.2323Y-5.0984
X4.2323Y-5.2559
X4.2323Y-5.4134
X4.2323Y-6.0433
X4.2717Y-5.5709
X4.2913Y-5.8465
X4.2913Y-6.0827
X4.3504Y-5.8465
X4.3504Y-6.063
X4.3898Y-4.3504
X4.3898Y-4.4685
X4.3898Y-4.626
X4.3898Y-4.7835
X4.3898Y-4.9409
X4.3898Y-5.0984
X4.3898Y-5.2559
X4.3898Y-5.4134
X4.4094Y-5.8465
X4.4094Y-6.063
X4.4291Y-5.5709
X4.4685Y-5.8465
X4.4882Y-4.6654
X4.4882Y-5.4528
X4.5079Y-6.122
X4.5472Y-4.3504
X4.5472Y-4.4685
X4.5472Y-4.626
X4.5472Y-4.7835
X4.5472Y-4.9409
X4.5472Y-5.0984
X4.5472Y-5.2559
X4.5472Y-5.4134
X4.685Y-4.3504
X4.685Y-4.4685
X4.685Y-4.626
X4.685Y-4.7835
X4.685Y-4.9409
X4.685Y-5.0984
X4.685Y-5.2559
X4.685Y-5.4134
X4.7244Y-5.9646
X4.7638Y-4.6654
X4.7638Y-4.8228
X4.7638Y-4.9803
X4.7638Y-5.1378
X4.7638Y-5.2953
T2
X4.8031Y-6.3323
X4.8031Y-6.4323
X4.8031Y-6.5323
X4.8031Y-6.6323
X4.8031Y-6.7323
T3
X2.0354Y-6.2638
X2.0354Y-6.8228
X2.937Y-6.2638
X2.937Y-6.4016
X2.937Y-6.7008
X2.937Y-6.8346
T4
X4.8752Y-5.8858
X4.8752Y-6.0039
T0
M30
