G04 #@! TF.GenerationSoftware,KiCad,Pcbnew,(5.1.6)-1*
G04 #@! TF.CreationDate,2021-05-09T16:16:57+05:30*
G04 #@! TF.ProjectId,keychain,6b657963-6861-4696-9e2e-6b696361645f,rev?*
G04 #@! TF.SameCoordinates,Original*
G04 #@! TF.FileFunction,Copper,L1,Top*
G04 #@! TF.FilePolarity,Positive*
%FSLAX46Y46*%
G04 Gerber Fmt 4.6, Leading zero omitted, Abs format (unit mm)*
G04 Created by KiCad (PCBNEW (5.1.6)-1) date 2021-05-09 16:16:57*
%MOMM*%
%LPD*%
G01*
G04 APERTURE LIST*
G04 #@! TA.AperFunction,SMDPad,CuDef*
%ADD10R,1.060000X0.650000*%
G04 #@! TD*
G04 #@! TA.AperFunction,SMDPad,CuDef*
%ADD11R,1.500000X1.500000*%
G04 #@! TD*
G04 #@! TA.AperFunction,SMDPad,CuDef*
%ADD12R,0.800000X1.000000*%
G04 #@! TD*
G04 #@! TA.AperFunction,SMDPad,CuDef*
%ADD13R,1.500000X0.700000*%
G04 #@! TD*
G04 #@! TA.AperFunction,ComponentPad*
%ADD14O,1.700000X1.700000*%
G04 #@! TD*
G04 #@! TA.AperFunction,ComponentPad*
%ADD15R,1.700000X1.700000*%
G04 #@! TD*
G04 #@! TA.AperFunction,ComponentPad*
%ADD16R,2.800000X2.800000*%
G04 #@! TD*
G04 #@! TA.AperFunction,SMDPad,CuDef*
%ADD17R,1.000000X2.500000*%
G04 #@! TD*
G04 #@! TA.AperFunction,SMDPad,CuDef*
%ADD18R,1.800000X1.000000*%
G04 #@! TD*
G04 #@! TA.AperFunction,ViaPad*
%ADD19C,0.800000*%
G04 #@! TD*
G04 #@! TA.AperFunction,Conductor*
%ADD20C,0.250000*%
G04 #@! TD*
G04 APERTURE END LIST*
G04 #@! TA.AperFunction,SMDPad,CuDef*
G36*
G01*
X66295000Y-150500000D02*
X66595000Y-150500000D01*
G75*
G02*
X66745000Y-150650000I0J-150000D01*
G01*
X66745000Y-152300000D01*
G75*
G02*
X66595000Y-152450000I-150000J0D01*
G01*
X66295000Y-152450000D01*
G75*
G02*
X66145000Y-152300000I0J150000D01*
G01*
X66145000Y-150650000D01*
G75*
G02*
X66295000Y-150500000I150000J0D01*
G01*
G37*
G04 #@! TD.AperFunction*
G04 #@! TA.AperFunction,SMDPad,CuDef*
G36*
G01*
X65025000Y-150500000D02*
X65325000Y-150500000D01*
G75*
G02*
X65475000Y-150650000I0J-150000D01*
G01*
X65475000Y-152300000D01*
G75*
G02*
X65325000Y-152450000I-150000J0D01*
G01*
X65025000Y-152450000D01*
G75*
G02*
X64875000Y-152300000I0J150000D01*
G01*
X64875000Y-150650000D01*
G75*
G02*
X65025000Y-150500000I150000J0D01*
G01*
G37*
G04 #@! TD.AperFunction*
G04 #@! TA.AperFunction,SMDPad,CuDef*
G36*
G01*
X63755000Y-150500000D02*
X64055000Y-150500000D01*
G75*
G02*
X64205000Y-150650000I0J-150000D01*
G01*
X64205000Y-152300000D01*
G75*
G02*
X64055000Y-152450000I-150000J0D01*
G01*
X63755000Y-152450000D01*
G75*
G02*
X63605000Y-152300000I0J150000D01*
G01*
X63605000Y-150650000D01*
G75*
G02*
X63755000Y-150500000I150000J0D01*
G01*
G37*
G04 #@! TD.AperFunction*
G04 #@! TA.AperFunction,SMDPad,CuDef*
G36*
G01*
X62485000Y-150500000D02*
X62785000Y-150500000D01*
G75*
G02*
X62935000Y-150650000I0J-150000D01*
G01*
X62935000Y-152300000D01*
G75*
G02*
X62785000Y-152450000I-150000J0D01*
G01*
X62485000Y-152450000D01*
G75*
G02*
X62335000Y-152300000I0J150000D01*
G01*
X62335000Y-150650000D01*
G75*
G02*
X62485000Y-150500000I150000J0D01*
G01*
G37*
G04 #@! TD.AperFunction*
G04 #@! TA.AperFunction,SMDPad,CuDef*
G36*
G01*
X61215000Y-150500000D02*
X61515000Y-150500000D01*
G75*
G02*
X61665000Y-150650000I0J-150000D01*
G01*
X61665000Y-152300000D01*
G75*
G02*
X61515000Y-152450000I-150000J0D01*
G01*
X61215000Y-152450000D01*
G75*
G02*
X61065000Y-152300000I0J150000D01*
G01*
X61065000Y-150650000D01*
G75*
G02*
X61215000Y-150500000I150000J0D01*
G01*
G37*
G04 #@! TD.AperFunction*
G04 #@! TA.AperFunction,SMDPad,CuDef*
G36*
G01*
X59945000Y-150500000D02*
X60245000Y-150500000D01*
G75*
G02*
X60395000Y-150650000I0J-150000D01*
G01*
X60395000Y-152300000D01*
G75*
G02*
X60245000Y-152450000I-150000J0D01*
G01*
X59945000Y-152450000D01*
G75*
G02*
X59795000Y-152300000I0J150000D01*
G01*
X59795000Y-150650000D01*
G75*
G02*
X59945000Y-150500000I150000J0D01*
G01*
G37*
G04 #@! TD.AperFunction*
G04 #@! TA.AperFunction,SMDPad,CuDef*
G36*
G01*
X58675000Y-150500000D02*
X58975000Y-150500000D01*
G75*
G02*
X59125000Y-150650000I0J-150000D01*
G01*
X59125000Y-152300000D01*
G75*
G02*
X58975000Y-152450000I-150000J0D01*
G01*
X58675000Y-152450000D01*
G75*
G02*
X58525000Y-152300000I0J150000D01*
G01*
X58525000Y-150650000D01*
G75*
G02*
X58675000Y-150500000I150000J0D01*
G01*
G37*
G04 #@! TD.AperFunction*
G04 #@! TA.AperFunction,SMDPad,CuDef*
G36*
G01*
X57405000Y-150500000D02*
X57705000Y-150500000D01*
G75*
G02*
X57855000Y-150650000I0J-150000D01*
G01*
X57855000Y-152300000D01*
G75*
G02*
X57705000Y-152450000I-150000J0D01*
G01*
X57405000Y-152450000D01*
G75*
G02*
X57255000Y-152300000I0J150000D01*
G01*
X57255000Y-150650000D01*
G75*
G02*
X57405000Y-150500000I150000J0D01*
G01*
G37*
G04 #@! TD.AperFunction*
G04 #@! TA.AperFunction,SMDPad,CuDef*
G36*
G01*
X57405000Y-145550000D02*
X57705000Y-145550000D01*
G75*
G02*
X57855000Y-145700000I0J-150000D01*
G01*
X57855000Y-147350000D01*
G75*
G02*
X57705000Y-147500000I-150000J0D01*
G01*
X57405000Y-147500000D01*
G75*
G02*
X57255000Y-147350000I0J150000D01*
G01*
X57255000Y-145700000D01*
G75*
G02*
X57405000Y-145550000I150000J0D01*
G01*
G37*
G04 #@! TD.AperFunction*
G04 #@! TA.AperFunction,SMDPad,CuDef*
G36*
G01*
X58675000Y-145550000D02*
X58975000Y-145550000D01*
G75*
G02*
X59125000Y-145700000I0J-150000D01*
G01*
X59125000Y-147350000D01*
G75*
G02*
X58975000Y-147500000I-150000J0D01*
G01*
X58675000Y-147500000D01*
G75*
G02*
X58525000Y-147350000I0J150000D01*
G01*
X58525000Y-145700000D01*
G75*
G02*
X58675000Y-145550000I150000J0D01*
G01*
G37*
G04 #@! TD.AperFunction*
G04 #@! TA.AperFunction,SMDPad,CuDef*
G36*
G01*
X59945000Y-145550000D02*
X60245000Y-145550000D01*
G75*
G02*
X60395000Y-145700000I0J-150000D01*
G01*
X60395000Y-147350000D01*
G75*
G02*
X60245000Y-147500000I-150000J0D01*
G01*
X59945000Y-147500000D01*
G75*
G02*
X59795000Y-147350000I0J150000D01*
G01*
X59795000Y-145700000D01*
G75*
G02*
X59945000Y-145550000I150000J0D01*
G01*
G37*
G04 #@! TD.AperFunction*
G04 #@! TA.AperFunction,SMDPad,CuDef*
G36*
G01*
X61215000Y-145550000D02*
X61515000Y-145550000D01*
G75*
G02*
X61665000Y-145700000I0J-150000D01*
G01*
X61665000Y-147350000D01*
G75*
G02*
X61515000Y-147500000I-150000J0D01*
G01*
X61215000Y-147500000D01*
G75*
G02*
X61065000Y-147350000I0J150000D01*
G01*
X61065000Y-145700000D01*
G75*
G02*
X61215000Y-145550000I150000J0D01*
G01*
G37*
G04 #@! TD.AperFunction*
G04 #@! TA.AperFunction,SMDPad,CuDef*
G36*
G01*
X62485000Y-145550000D02*
X62785000Y-145550000D01*
G75*
G02*
X62935000Y-145700000I0J-150000D01*
G01*
X62935000Y-147350000D01*
G75*
G02*
X62785000Y-147500000I-150000J0D01*
G01*
X62485000Y-147500000D01*
G75*
G02*
X62335000Y-147350000I0J150000D01*
G01*
X62335000Y-145700000D01*
G75*
G02*
X62485000Y-145550000I150000J0D01*
G01*
G37*
G04 #@! TD.AperFunction*
G04 #@! TA.AperFunction,SMDPad,CuDef*
G36*
G01*
X63755000Y-145550000D02*
X64055000Y-145550000D01*
G75*
G02*
X64205000Y-145700000I0J-150000D01*
G01*
X64205000Y-147350000D01*
G75*
G02*
X64055000Y-147500000I-150000J0D01*
G01*
X63755000Y-147500000D01*
G75*
G02*
X63605000Y-147350000I0J150000D01*
G01*
X63605000Y-145700000D01*
G75*
G02*
X63755000Y-145550000I150000J0D01*
G01*
G37*
G04 #@! TD.AperFunction*
G04 #@! TA.AperFunction,SMDPad,CuDef*
G36*
G01*
X65025000Y-145550000D02*
X65325000Y-145550000D01*
G75*
G02*
X65475000Y-145700000I0J-150000D01*
G01*
X65475000Y-147350000D01*
G75*
G02*
X65325000Y-147500000I-150000J0D01*
G01*
X65025000Y-147500000D01*
G75*
G02*
X64875000Y-147350000I0J150000D01*
G01*
X64875000Y-145700000D01*
G75*
G02*
X65025000Y-145550000I150000J0D01*
G01*
G37*
G04 #@! TD.AperFunction*
G04 #@! TA.AperFunction,SMDPad,CuDef*
G36*
G01*
X66295000Y-145550000D02*
X66595000Y-145550000D01*
G75*
G02*
X66745000Y-145700000I0J-150000D01*
G01*
X66745000Y-147350000D01*
G75*
G02*
X66595000Y-147500000I-150000J0D01*
G01*
X66295000Y-147500000D01*
G75*
G02*
X66145000Y-147350000I0J150000D01*
G01*
X66145000Y-145700000D01*
G75*
G02*
X66295000Y-145550000I150000J0D01*
G01*
G37*
G04 #@! TD.AperFunction*
G04 #@! TA.AperFunction,SMDPad,CuDef*
G36*
G01*
X90295000Y-150500000D02*
X90595000Y-150500000D01*
G75*
G02*
X90745000Y-150650000I0J-150000D01*
G01*
X90745000Y-152300000D01*
G75*
G02*
X90595000Y-152450000I-150000J0D01*
G01*
X90295000Y-152450000D01*
G75*
G02*
X90145000Y-152300000I0J150000D01*
G01*
X90145000Y-150650000D01*
G75*
G02*
X90295000Y-150500000I150000J0D01*
G01*
G37*
G04 #@! TD.AperFunction*
G04 #@! TA.AperFunction,SMDPad,CuDef*
G36*
G01*
X89025000Y-150500000D02*
X89325000Y-150500000D01*
G75*
G02*
X89475000Y-150650000I0J-150000D01*
G01*
X89475000Y-152300000D01*
G75*
G02*
X89325000Y-152450000I-150000J0D01*
G01*
X89025000Y-152450000D01*
G75*
G02*
X88875000Y-152300000I0J150000D01*
G01*
X88875000Y-150650000D01*
G75*
G02*
X89025000Y-150500000I150000J0D01*
G01*
G37*
G04 #@! TD.AperFunction*
G04 #@! TA.AperFunction,SMDPad,CuDef*
G36*
G01*
X87755000Y-150500000D02*
X88055000Y-150500000D01*
G75*
G02*
X88205000Y-150650000I0J-150000D01*
G01*
X88205000Y-152300000D01*
G75*
G02*
X88055000Y-152450000I-150000J0D01*
G01*
X87755000Y-152450000D01*
G75*
G02*
X87605000Y-152300000I0J150000D01*
G01*
X87605000Y-150650000D01*
G75*
G02*
X87755000Y-150500000I150000J0D01*
G01*
G37*
G04 #@! TD.AperFunction*
G04 #@! TA.AperFunction,SMDPad,CuDef*
G36*
G01*
X86485000Y-150500000D02*
X86785000Y-150500000D01*
G75*
G02*
X86935000Y-150650000I0J-150000D01*
G01*
X86935000Y-152300000D01*
G75*
G02*
X86785000Y-152450000I-150000J0D01*
G01*
X86485000Y-152450000D01*
G75*
G02*
X86335000Y-152300000I0J150000D01*
G01*
X86335000Y-150650000D01*
G75*
G02*
X86485000Y-150500000I150000J0D01*
G01*
G37*
G04 #@! TD.AperFunction*
G04 #@! TA.AperFunction,SMDPad,CuDef*
G36*
G01*
X85215000Y-150500000D02*
X85515000Y-150500000D01*
G75*
G02*
X85665000Y-150650000I0J-150000D01*
G01*
X85665000Y-152300000D01*
G75*
G02*
X85515000Y-152450000I-150000J0D01*
G01*
X85215000Y-152450000D01*
G75*
G02*
X85065000Y-152300000I0J150000D01*
G01*
X85065000Y-150650000D01*
G75*
G02*
X85215000Y-150500000I150000J0D01*
G01*
G37*
G04 #@! TD.AperFunction*
G04 #@! TA.AperFunction,SMDPad,CuDef*
G36*
G01*
X83945000Y-150500000D02*
X84245000Y-150500000D01*
G75*
G02*
X84395000Y-150650000I0J-150000D01*
G01*
X84395000Y-152300000D01*
G75*
G02*
X84245000Y-152450000I-150000J0D01*
G01*
X83945000Y-152450000D01*
G75*
G02*
X83795000Y-152300000I0J150000D01*
G01*
X83795000Y-150650000D01*
G75*
G02*
X83945000Y-150500000I150000J0D01*
G01*
G37*
G04 #@! TD.AperFunction*
G04 #@! TA.AperFunction,SMDPad,CuDef*
G36*
G01*
X82675000Y-150500000D02*
X82975000Y-150500000D01*
G75*
G02*
X83125000Y-150650000I0J-150000D01*
G01*
X83125000Y-152300000D01*
G75*
G02*
X82975000Y-152450000I-150000J0D01*
G01*
X82675000Y-152450000D01*
G75*
G02*
X82525000Y-152300000I0J150000D01*
G01*
X82525000Y-150650000D01*
G75*
G02*
X82675000Y-150500000I150000J0D01*
G01*
G37*
G04 #@! TD.AperFunction*
G04 #@! TA.AperFunction,SMDPad,CuDef*
G36*
G01*
X81405000Y-150500000D02*
X81705000Y-150500000D01*
G75*
G02*
X81855000Y-150650000I0J-150000D01*
G01*
X81855000Y-152300000D01*
G75*
G02*
X81705000Y-152450000I-150000J0D01*
G01*
X81405000Y-152450000D01*
G75*
G02*
X81255000Y-152300000I0J150000D01*
G01*
X81255000Y-150650000D01*
G75*
G02*
X81405000Y-150500000I150000J0D01*
G01*
G37*
G04 #@! TD.AperFunction*
G04 #@! TA.AperFunction,SMDPad,CuDef*
G36*
G01*
X81405000Y-145550000D02*
X81705000Y-145550000D01*
G75*
G02*
X81855000Y-145700000I0J-150000D01*
G01*
X81855000Y-147350000D01*
G75*
G02*
X81705000Y-147500000I-150000J0D01*
G01*
X81405000Y-147500000D01*
G75*
G02*
X81255000Y-147350000I0J150000D01*
G01*
X81255000Y-145700000D01*
G75*
G02*
X81405000Y-145550000I150000J0D01*
G01*
G37*
G04 #@! TD.AperFunction*
G04 #@! TA.AperFunction,SMDPad,CuDef*
G36*
G01*
X82675000Y-145550000D02*
X82975000Y-145550000D01*
G75*
G02*
X83125000Y-145700000I0J-150000D01*
G01*
X83125000Y-147350000D01*
G75*
G02*
X82975000Y-147500000I-150000J0D01*
G01*
X82675000Y-147500000D01*
G75*
G02*
X82525000Y-147350000I0J150000D01*
G01*
X82525000Y-145700000D01*
G75*
G02*
X82675000Y-145550000I150000J0D01*
G01*
G37*
G04 #@! TD.AperFunction*
G04 #@! TA.AperFunction,SMDPad,CuDef*
G36*
G01*
X83945000Y-145550000D02*
X84245000Y-145550000D01*
G75*
G02*
X84395000Y-145700000I0J-150000D01*
G01*
X84395000Y-147350000D01*
G75*
G02*
X84245000Y-147500000I-150000J0D01*
G01*
X83945000Y-147500000D01*
G75*
G02*
X83795000Y-147350000I0J150000D01*
G01*
X83795000Y-145700000D01*
G75*
G02*
X83945000Y-145550000I150000J0D01*
G01*
G37*
G04 #@! TD.AperFunction*
G04 #@! TA.AperFunction,SMDPad,CuDef*
G36*
G01*
X85215000Y-145550000D02*
X85515000Y-145550000D01*
G75*
G02*
X85665000Y-145700000I0J-150000D01*
G01*
X85665000Y-147350000D01*
G75*
G02*
X85515000Y-147500000I-150000J0D01*
G01*
X85215000Y-147500000D01*
G75*
G02*
X85065000Y-147350000I0J150000D01*
G01*
X85065000Y-145700000D01*
G75*
G02*
X85215000Y-145550000I150000J0D01*
G01*
G37*
G04 #@! TD.AperFunction*
G04 #@! TA.AperFunction,SMDPad,CuDef*
G36*
G01*
X86485000Y-145550000D02*
X86785000Y-145550000D01*
G75*
G02*
X86935000Y-145700000I0J-150000D01*
G01*
X86935000Y-147350000D01*
G75*
G02*
X86785000Y-147500000I-150000J0D01*
G01*
X86485000Y-147500000D01*
G75*
G02*
X86335000Y-147350000I0J150000D01*
G01*
X86335000Y-145700000D01*
G75*
G02*
X86485000Y-145550000I150000J0D01*
G01*
G37*
G04 #@! TD.AperFunction*
G04 #@! TA.AperFunction,SMDPad,CuDef*
G36*
G01*
X87755000Y-145550000D02*
X88055000Y-145550000D01*
G75*
G02*
X88205000Y-145700000I0J-150000D01*
G01*
X88205000Y-147350000D01*
G75*
G02*
X88055000Y-147500000I-150000J0D01*
G01*
X87755000Y-147500000D01*
G75*
G02*
X87605000Y-147350000I0J150000D01*
G01*
X87605000Y-145700000D01*
G75*
G02*
X87755000Y-145550000I150000J0D01*
G01*
G37*
G04 #@! TD.AperFunction*
G04 #@! TA.AperFunction,SMDPad,CuDef*
G36*
G01*
X89025000Y-145550000D02*
X89325000Y-145550000D01*
G75*
G02*
X89475000Y-145700000I0J-150000D01*
G01*
X89475000Y-147350000D01*
G75*
G02*
X89325000Y-147500000I-150000J0D01*
G01*
X89025000Y-147500000D01*
G75*
G02*
X88875000Y-147350000I0J150000D01*
G01*
X88875000Y-145700000D01*
G75*
G02*
X89025000Y-145550000I150000J0D01*
G01*
G37*
G04 #@! TD.AperFunction*
G04 #@! TA.AperFunction,SMDPad,CuDef*
G36*
G01*
X90295000Y-145550000D02*
X90595000Y-145550000D01*
G75*
G02*
X90745000Y-145700000I0J-150000D01*
G01*
X90745000Y-147350000D01*
G75*
G02*
X90595000Y-147500000I-150000J0D01*
G01*
X90295000Y-147500000D01*
G75*
G02*
X90145000Y-147350000I0J150000D01*
G01*
X90145000Y-145700000D01*
G75*
G02*
X90295000Y-145550000I150000J0D01*
G01*
G37*
G04 #@! TD.AperFunction*
G04 #@! TA.AperFunction,SMDPad,CuDef*
G36*
G01*
X114295000Y-150500000D02*
X114595000Y-150500000D01*
G75*
G02*
X114745000Y-150650000I0J-150000D01*
G01*
X114745000Y-152300000D01*
G75*
G02*
X114595000Y-152450000I-150000J0D01*
G01*
X114295000Y-152450000D01*
G75*
G02*
X114145000Y-152300000I0J150000D01*
G01*
X114145000Y-150650000D01*
G75*
G02*
X114295000Y-150500000I150000J0D01*
G01*
G37*
G04 #@! TD.AperFunction*
G04 #@! TA.AperFunction,SMDPad,CuDef*
G36*
G01*
X113025000Y-150500000D02*
X113325000Y-150500000D01*
G75*
G02*
X113475000Y-150650000I0J-150000D01*
G01*
X113475000Y-152300000D01*
G75*
G02*
X113325000Y-152450000I-150000J0D01*
G01*
X113025000Y-152450000D01*
G75*
G02*
X112875000Y-152300000I0J150000D01*
G01*
X112875000Y-150650000D01*
G75*
G02*
X113025000Y-150500000I150000J0D01*
G01*
G37*
G04 #@! TD.AperFunction*
G04 #@! TA.AperFunction,SMDPad,CuDef*
G36*
G01*
X111755000Y-150500000D02*
X112055000Y-150500000D01*
G75*
G02*
X112205000Y-150650000I0J-150000D01*
G01*
X112205000Y-152300000D01*
G75*
G02*
X112055000Y-152450000I-150000J0D01*
G01*
X111755000Y-152450000D01*
G75*
G02*
X111605000Y-152300000I0J150000D01*
G01*
X111605000Y-150650000D01*
G75*
G02*
X111755000Y-150500000I150000J0D01*
G01*
G37*
G04 #@! TD.AperFunction*
G04 #@! TA.AperFunction,SMDPad,CuDef*
G36*
G01*
X110485000Y-150500000D02*
X110785000Y-150500000D01*
G75*
G02*
X110935000Y-150650000I0J-150000D01*
G01*
X110935000Y-152300000D01*
G75*
G02*
X110785000Y-152450000I-150000J0D01*
G01*
X110485000Y-152450000D01*
G75*
G02*
X110335000Y-152300000I0J150000D01*
G01*
X110335000Y-150650000D01*
G75*
G02*
X110485000Y-150500000I150000J0D01*
G01*
G37*
G04 #@! TD.AperFunction*
G04 #@! TA.AperFunction,SMDPad,CuDef*
G36*
G01*
X109215000Y-150500000D02*
X109515000Y-150500000D01*
G75*
G02*
X109665000Y-150650000I0J-150000D01*
G01*
X109665000Y-152300000D01*
G75*
G02*
X109515000Y-152450000I-150000J0D01*
G01*
X109215000Y-152450000D01*
G75*
G02*
X109065000Y-152300000I0J150000D01*
G01*
X109065000Y-150650000D01*
G75*
G02*
X109215000Y-150500000I150000J0D01*
G01*
G37*
G04 #@! TD.AperFunction*
G04 #@! TA.AperFunction,SMDPad,CuDef*
G36*
G01*
X107945000Y-150500000D02*
X108245000Y-150500000D01*
G75*
G02*
X108395000Y-150650000I0J-150000D01*
G01*
X108395000Y-152300000D01*
G75*
G02*
X108245000Y-152450000I-150000J0D01*
G01*
X107945000Y-152450000D01*
G75*
G02*
X107795000Y-152300000I0J150000D01*
G01*
X107795000Y-150650000D01*
G75*
G02*
X107945000Y-150500000I150000J0D01*
G01*
G37*
G04 #@! TD.AperFunction*
G04 #@! TA.AperFunction,SMDPad,CuDef*
G36*
G01*
X106675000Y-150500000D02*
X106975000Y-150500000D01*
G75*
G02*
X107125000Y-150650000I0J-150000D01*
G01*
X107125000Y-152300000D01*
G75*
G02*
X106975000Y-152450000I-150000J0D01*
G01*
X106675000Y-152450000D01*
G75*
G02*
X106525000Y-152300000I0J150000D01*
G01*
X106525000Y-150650000D01*
G75*
G02*
X106675000Y-150500000I150000J0D01*
G01*
G37*
G04 #@! TD.AperFunction*
G04 #@! TA.AperFunction,SMDPad,CuDef*
G36*
G01*
X105405000Y-150500000D02*
X105705000Y-150500000D01*
G75*
G02*
X105855000Y-150650000I0J-150000D01*
G01*
X105855000Y-152300000D01*
G75*
G02*
X105705000Y-152450000I-150000J0D01*
G01*
X105405000Y-152450000D01*
G75*
G02*
X105255000Y-152300000I0J150000D01*
G01*
X105255000Y-150650000D01*
G75*
G02*
X105405000Y-150500000I150000J0D01*
G01*
G37*
G04 #@! TD.AperFunction*
G04 #@! TA.AperFunction,SMDPad,CuDef*
G36*
G01*
X105405000Y-145550000D02*
X105705000Y-145550000D01*
G75*
G02*
X105855000Y-145700000I0J-150000D01*
G01*
X105855000Y-147350000D01*
G75*
G02*
X105705000Y-147500000I-150000J0D01*
G01*
X105405000Y-147500000D01*
G75*
G02*
X105255000Y-147350000I0J150000D01*
G01*
X105255000Y-145700000D01*
G75*
G02*
X105405000Y-145550000I150000J0D01*
G01*
G37*
G04 #@! TD.AperFunction*
G04 #@! TA.AperFunction,SMDPad,CuDef*
G36*
G01*
X106675000Y-145550000D02*
X106975000Y-145550000D01*
G75*
G02*
X107125000Y-145700000I0J-150000D01*
G01*
X107125000Y-147350000D01*
G75*
G02*
X106975000Y-147500000I-150000J0D01*
G01*
X106675000Y-147500000D01*
G75*
G02*
X106525000Y-147350000I0J150000D01*
G01*
X106525000Y-145700000D01*
G75*
G02*
X106675000Y-145550000I150000J0D01*
G01*
G37*
G04 #@! TD.AperFunction*
G04 #@! TA.AperFunction,SMDPad,CuDef*
G36*
G01*
X107945000Y-145550000D02*
X108245000Y-145550000D01*
G75*
G02*
X108395000Y-145700000I0J-150000D01*
G01*
X108395000Y-147350000D01*
G75*
G02*
X108245000Y-147500000I-150000J0D01*
G01*
X107945000Y-147500000D01*
G75*
G02*
X107795000Y-147350000I0J150000D01*
G01*
X107795000Y-145700000D01*
G75*
G02*
X107945000Y-145550000I150000J0D01*
G01*
G37*
G04 #@! TD.AperFunction*
G04 #@! TA.AperFunction,SMDPad,CuDef*
G36*
G01*
X109215000Y-145550000D02*
X109515000Y-145550000D01*
G75*
G02*
X109665000Y-145700000I0J-150000D01*
G01*
X109665000Y-147350000D01*
G75*
G02*
X109515000Y-147500000I-150000J0D01*
G01*
X109215000Y-147500000D01*
G75*
G02*
X109065000Y-147350000I0J150000D01*
G01*
X109065000Y-145700000D01*
G75*
G02*
X109215000Y-145550000I150000J0D01*
G01*
G37*
G04 #@! TD.AperFunction*
G04 #@! TA.AperFunction,SMDPad,CuDef*
G36*
G01*
X110485000Y-145550000D02*
X110785000Y-145550000D01*
G75*
G02*
X110935000Y-145700000I0J-150000D01*
G01*
X110935000Y-147350000D01*
G75*
G02*
X110785000Y-147500000I-150000J0D01*
G01*
X110485000Y-147500000D01*
G75*
G02*
X110335000Y-147350000I0J150000D01*
G01*
X110335000Y-145700000D01*
G75*
G02*
X110485000Y-145550000I150000J0D01*
G01*
G37*
G04 #@! TD.AperFunction*
G04 #@! TA.AperFunction,SMDPad,CuDef*
G36*
G01*
X111755000Y-145550000D02*
X112055000Y-145550000D01*
G75*
G02*
X112205000Y-145700000I0J-150000D01*
G01*
X112205000Y-147350000D01*
G75*
G02*
X112055000Y-147500000I-150000J0D01*
G01*
X111755000Y-147500000D01*
G75*
G02*
X111605000Y-147350000I0J150000D01*
G01*
X111605000Y-145700000D01*
G75*
G02*
X111755000Y-145550000I150000J0D01*
G01*
G37*
G04 #@! TD.AperFunction*
G04 #@! TA.AperFunction,SMDPad,CuDef*
G36*
G01*
X113025000Y-145550000D02*
X113325000Y-145550000D01*
G75*
G02*
X113475000Y-145700000I0J-150000D01*
G01*
X113475000Y-147350000D01*
G75*
G02*
X113325000Y-147500000I-150000J0D01*
G01*
X113025000Y-147500000D01*
G75*
G02*
X112875000Y-147350000I0J150000D01*
G01*
X112875000Y-145700000D01*
G75*
G02*
X113025000Y-145550000I150000J0D01*
G01*
G37*
G04 #@! TD.AperFunction*
G04 #@! TA.AperFunction,SMDPad,CuDef*
G36*
G01*
X114295000Y-145550000D02*
X114595000Y-145550000D01*
G75*
G02*
X114745000Y-145700000I0J-150000D01*
G01*
X114745000Y-147350000D01*
G75*
G02*
X114595000Y-147500000I-150000J0D01*
G01*
X114295000Y-147500000D01*
G75*
G02*
X114145000Y-147350000I0J150000D01*
G01*
X114145000Y-145700000D01*
G75*
G02*
X114295000Y-145550000I150000J0D01*
G01*
G37*
G04 #@! TD.AperFunction*
G04 #@! TA.AperFunction,SMDPad,CuDef*
G36*
G01*
X85190000Y-163182500D02*
X85190000Y-163657500D01*
G75*
G02*
X84952500Y-163895000I-237500J0D01*
G01*
X84377500Y-163895000D01*
G75*
G02*
X84140000Y-163657500I0J237500D01*
G01*
X84140000Y-163182500D01*
G75*
G02*
X84377500Y-162945000I237500J0D01*
G01*
X84952500Y-162945000D01*
G75*
G02*
X85190000Y-163182500I0J-237500D01*
G01*
G37*
G04 #@! TD.AperFunction*
G04 #@! TA.AperFunction,SMDPad,CuDef*
G36*
G01*
X86940000Y-163182500D02*
X86940000Y-163657500D01*
G75*
G02*
X86702500Y-163895000I-237500J0D01*
G01*
X86127500Y-163895000D01*
G75*
G02*
X85890000Y-163657500I0J237500D01*
G01*
X85890000Y-163182500D01*
G75*
G02*
X86127500Y-162945000I237500J0D01*
G01*
X86702500Y-162945000D01*
G75*
G02*
X86940000Y-163182500I0J-237500D01*
G01*
G37*
G04 #@! TD.AperFunction*
D10*
X86600000Y-158550000D03*
X86600000Y-160450000D03*
X84400000Y-160450000D03*
X84400000Y-159500000D03*
X84400000Y-158550000D03*
D11*
X85540000Y-166520000D03*
X85540000Y-174320000D03*
D12*
X122720000Y-154650000D03*
X122720000Y-147350000D03*
X124930000Y-147350000D03*
X124930000Y-154650000D03*
D13*
X122070000Y-148750000D03*
X122070000Y-150250000D03*
X122070000Y-153250000D03*
D14*
X122000000Y-160840000D03*
X122000000Y-163380000D03*
X122000000Y-165920000D03*
X122000000Y-168460000D03*
D15*
X122000000Y-171000000D03*
D16*
X51700000Y-159100000D03*
X51700000Y-173300000D03*
X74600000Y-159100000D03*
X74600000Y-173600000D03*
X74600000Y-162600000D03*
X74600000Y-170200000D03*
D17*
X108500000Y-173600000D03*
X106500000Y-173600000D03*
X104500000Y-173600000D03*
X102500000Y-173600000D03*
X100500000Y-173600000D03*
X98500000Y-173600000D03*
X96500000Y-173600000D03*
X94500000Y-173600000D03*
D18*
X93000000Y-171000000D03*
X93000000Y-169000000D03*
X93000000Y-167000000D03*
X93000000Y-165000000D03*
X93000000Y-163000000D03*
X93000000Y-161000000D03*
D17*
X94500000Y-158400000D03*
X96500000Y-158400000D03*
X98500000Y-158400000D03*
X100500000Y-158400000D03*
X102500000Y-158400000D03*
X104500000Y-158400000D03*
X106500000Y-158400000D03*
X108500000Y-158400000D03*
G04 #@! TA.AperFunction,SMDPad,CuDef*
G36*
G01*
X56350000Y-112256250D02*
X56350000Y-111743750D01*
G75*
G02*
X56568750Y-111525000I218750J0D01*
G01*
X57006250Y-111525000D01*
G75*
G02*
X57225000Y-111743750I0J-218750D01*
G01*
X57225000Y-112256250D01*
G75*
G02*
X57006250Y-112475000I-218750J0D01*
G01*
X56568750Y-112475000D01*
G75*
G02*
X56350000Y-112256250I0J218750D01*
G01*
G37*
G04 #@! TD.AperFunction*
G04 #@! TA.AperFunction,SMDPad,CuDef*
G36*
G01*
X54775000Y-112256250D02*
X54775000Y-111743750D01*
G75*
G02*
X54993750Y-111525000I218750J0D01*
G01*
X55431250Y-111525000D01*
G75*
G02*
X55650000Y-111743750I0J-218750D01*
G01*
X55650000Y-112256250D01*
G75*
G02*
X55431250Y-112475000I-218750J0D01*
G01*
X54993750Y-112475000D01*
G75*
G02*
X54775000Y-112256250I0J218750D01*
G01*
G37*
G04 #@! TD.AperFunction*
G04 #@! TA.AperFunction,SMDPad,CuDef*
G36*
G01*
X121400000Y-139762500D02*
X121400000Y-140237500D01*
G75*
G02*
X121162500Y-140475000I-237500J0D01*
G01*
X120587500Y-140475000D01*
G75*
G02*
X120350000Y-140237500I0J237500D01*
G01*
X120350000Y-139762500D01*
G75*
G02*
X120587500Y-139525000I237500J0D01*
G01*
X121162500Y-139525000D01*
G75*
G02*
X121400000Y-139762500I0J-237500D01*
G01*
G37*
G04 #@! TD.AperFunction*
G04 #@! TA.AperFunction,SMDPad,CuDef*
G36*
G01*
X119650000Y-139762500D02*
X119650000Y-140237500D01*
G75*
G02*
X119412500Y-140475000I-237500J0D01*
G01*
X118837500Y-140475000D01*
G75*
G02*
X118600000Y-140237500I0J237500D01*
G01*
X118600000Y-139762500D01*
G75*
G02*
X118837500Y-139525000I237500J0D01*
G01*
X119412500Y-139525000D01*
G75*
G02*
X119650000Y-139762500I0J-237500D01*
G01*
G37*
G04 #@! TD.AperFunction*
G04 #@! TA.AperFunction,SMDPad,CuDef*
G36*
G01*
X121400000Y-135762500D02*
X121400000Y-136237500D01*
G75*
G02*
X121162500Y-136475000I-237500J0D01*
G01*
X120587500Y-136475000D01*
G75*
G02*
X120350000Y-136237500I0J237500D01*
G01*
X120350000Y-135762500D01*
G75*
G02*
X120587500Y-135525000I237500J0D01*
G01*
X121162500Y-135525000D01*
G75*
G02*
X121400000Y-135762500I0J-237500D01*
G01*
G37*
G04 #@! TD.AperFunction*
G04 #@! TA.AperFunction,SMDPad,CuDef*
G36*
G01*
X119650000Y-135762500D02*
X119650000Y-136237500D01*
G75*
G02*
X119412500Y-136475000I-237500J0D01*
G01*
X118837500Y-136475000D01*
G75*
G02*
X118600000Y-136237500I0J237500D01*
G01*
X118600000Y-135762500D01*
G75*
G02*
X118837500Y-135525000I237500J0D01*
G01*
X119412500Y-135525000D01*
G75*
G02*
X119650000Y-135762500I0J-237500D01*
G01*
G37*
G04 #@! TD.AperFunction*
G04 #@! TA.AperFunction,SMDPad,CuDef*
G36*
G01*
X121400000Y-131762500D02*
X121400000Y-132237500D01*
G75*
G02*
X121162500Y-132475000I-237500J0D01*
G01*
X120587500Y-132475000D01*
G75*
G02*
X120350000Y-132237500I0J237500D01*
G01*
X120350000Y-131762500D01*
G75*
G02*
X120587500Y-131525000I237500J0D01*
G01*
X121162500Y-131525000D01*
G75*
G02*
X121400000Y-131762500I0J-237500D01*
G01*
G37*
G04 #@! TD.AperFunction*
G04 #@! TA.AperFunction,SMDPad,CuDef*
G36*
G01*
X119650000Y-131762500D02*
X119650000Y-132237500D01*
G75*
G02*
X119412500Y-132475000I-237500J0D01*
G01*
X118837500Y-132475000D01*
G75*
G02*
X118600000Y-132237500I0J237500D01*
G01*
X118600000Y-131762500D01*
G75*
G02*
X118837500Y-131525000I237500J0D01*
G01*
X119412500Y-131525000D01*
G75*
G02*
X119650000Y-131762500I0J-237500D01*
G01*
G37*
G04 #@! TD.AperFunction*
G04 #@! TA.AperFunction,SMDPad,CuDef*
G36*
G01*
X121400000Y-127762500D02*
X121400000Y-128237500D01*
G75*
G02*
X121162500Y-128475000I-237500J0D01*
G01*
X120587500Y-128475000D01*
G75*
G02*
X120350000Y-128237500I0J237500D01*
G01*
X120350000Y-127762500D01*
G75*
G02*
X120587500Y-127525000I237500J0D01*
G01*
X121162500Y-127525000D01*
G75*
G02*
X121400000Y-127762500I0J-237500D01*
G01*
G37*
G04 #@! TD.AperFunction*
G04 #@! TA.AperFunction,SMDPad,CuDef*
G36*
G01*
X119650000Y-127762500D02*
X119650000Y-128237500D01*
G75*
G02*
X119412500Y-128475000I-237500J0D01*
G01*
X118837500Y-128475000D01*
G75*
G02*
X118600000Y-128237500I0J237500D01*
G01*
X118600000Y-127762500D01*
G75*
G02*
X118837500Y-127525000I237500J0D01*
G01*
X119412500Y-127525000D01*
G75*
G02*
X119650000Y-127762500I0J-237500D01*
G01*
G37*
G04 #@! TD.AperFunction*
G04 #@! TA.AperFunction,SMDPad,CuDef*
G36*
G01*
X121400000Y-123762500D02*
X121400000Y-124237500D01*
G75*
G02*
X121162500Y-124475000I-237500J0D01*
G01*
X120587500Y-124475000D01*
G75*
G02*
X120350000Y-124237500I0J237500D01*
G01*
X120350000Y-123762500D01*
G75*
G02*
X120587500Y-123525000I237500J0D01*
G01*
X121162500Y-123525000D01*
G75*
G02*
X121400000Y-123762500I0J-237500D01*
G01*
G37*
G04 #@! TD.AperFunction*
G04 #@! TA.AperFunction,SMDPad,CuDef*
G36*
G01*
X119650000Y-123762500D02*
X119650000Y-124237500D01*
G75*
G02*
X119412500Y-124475000I-237500J0D01*
G01*
X118837500Y-124475000D01*
G75*
G02*
X118600000Y-124237500I0J237500D01*
G01*
X118600000Y-123762500D01*
G75*
G02*
X118837500Y-123525000I237500J0D01*
G01*
X119412500Y-123525000D01*
G75*
G02*
X119650000Y-123762500I0J-237500D01*
G01*
G37*
G04 #@! TD.AperFunction*
G04 #@! TA.AperFunction,SMDPad,CuDef*
G36*
G01*
X121400000Y-119762500D02*
X121400000Y-120237500D01*
G75*
G02*
X121162500Y-120475000I-237500J0D01*
G01*
X120587500Y-120475000D01*
G75*
G02*
X120350000Y-120237500I0J237500D01*
G01*
X120350000Y-119762500D01*
G75*
G02*
X120587500Y-119525000I237500J0D01*
G01*
X121162500Y-119525000D01*
G75*
G02*
X121400000Y-119762500I0J-237500D01*
G01*
G37*
G04 #@! TD.AperFunction*
G04 #@! TA.AperFunction,SMDPad,CuDef*
G36*
G01*
X119650000Y-119762500D02*
X119650000Y-120237500D01*
G75*
G02*
X119412500Y-120475000I-237500J0D01*
G01*
X118837500Y-120475000D01*
G75*
G02*
X118600000Y-120237500I0J237500D01*
G01*
X118600000Y-119762500D01*
G75*
G02*
X118837500Y-119525000I237500J0D01*
G01*
X119412500Y-119525000D01*
G75*
G02*
X119650000Y-119762500I0J-237500D01*
G01*
G37*
G04 #@! TD.AperFunction*
G04 #@! TA.AperFunction,SMDPad,CuDef*
G36*
G01*
X119650000Y-115762500D02*
X119650000Y-116237500D01*
G75*
G02*
X119412500Y-116475000I-237500J0D01*
G01*
X118837500Y-116475000D01*
G75*
G02*
X118600000Y-116237500I0J237500D01*
G01*
X118600000Y-115762500D01*
G75*
G02*
X118837500Y-115525000I237500J0D01*
G01*
X119412500Y-115525000D01*
G75*
G02*
X119650000Y-115762500I0J-237500D01*
G01*
G37*
G04 #@! TD.AperFunction*
G04 #@! TA.AperFunction,SMDPad,CuDef*
G36*
G01*
X121400000Y-115762500D02*
X121400000Y-116237500D01*
G75*
G02*
X121162500Y-116475000I-237500J0D01*
G01*
X120587500Y-116475000D01*
G75*
G02*
X120350000Y-116237500I0J237500D01*
G01*
X120350000Y-115762500D01*
G75*
G02*
X120587500Y-115525000I237500J0D01*
G01*
X121162500Y-115525000D01*
G75*
G02*
X121400000Y-115762500I0J-237500D01*
G01*
G37*
G04 #@! TD.AperFunction*
G04 #@! TA.AperFunction,SMDPad,CuDef*
G36*
G01*
X119650000Y-111762500D02*
X119650000Y-112237500D01*
G75*
G02*
X119412500Y-112475000I-237500J0D01*
G01*
X118837500Y-112475000D01*
G75*
G02*
X118600000Y-112237500I0J237500D01*
G01*
X118600000Y-111762500D01*
G75*
G02*
X118837500Y-111525000I237500J0D01*
G01*
X119412500Y-111525000D01*
G75*
G02*
X119650000Y-111762500I0J-237500D01*
G01*
G37*
G04 #@! TD.AperFunction*
G04 #@! TA.AperFunction,SMDPad,CuDef*
G36*
G01*
X121400000Y-111762500D02*
X121400000Y-112237500D01*
G75*
G02*
X121162500Y-112475000I-237500J0D01*
G01*
X120587500Y-112475000D01*
G75*
G02*
X120350000Y-112237500I0J237500D01*
G01*
X120350000Y-111762500D01*
G75*
G02*
X120587500Y-111525000I237500J0D01*
G01*
X121162500Y-111525000D01*
G75*
G02*
X121400000Y-111762500I0J-237500D01*
G01*
G37*
G04 #@! TD.AperFunction*
G04 #@! TA.AperFunction,SMDPad,CuDef*
G36*
G01*
X114775000Y-140256250D02*
X114775000Y-139743750D01*
G75*
G02*
X114993750Y-139525000I218750J0D01*
G01*
X115431250Y-139525000D01*
G75*
G02*
X115650000Y-139743750I0J-218750D01*
G01*
X115650000Y-140256250D01*
G75*
G02*
X115431250Y-140475000I-218750J0D01*
G01*
X114993750Y-140475000D01*
G75*
G02*
X114775000Y-140256250I0J218750D01*
G01*
G37*
G04 #@! TD.AperFunction*
G04 #@! TA.AperFunction,SMDPad,CuDef*
G36*
G01*
X116350000Y-140256250D02*
X116350000Y-139743750D01*
G75*
G02*
X116568750Y-139525000I218750J0D01*
G01*
X117006250Y-139525000D01*
G75*
G02*
X117225000Y-139743750I0J-218750D01*
G01*
X117225000Y-140256250D01*
G75*
G02*
X117006250Y-140475000I-218750J0D01*
G01*
X116568750Y-140475000D01*
G75*
G02*
X116350000Y-140256250I0J218750D01*
G01*
G37*
G04 #@! TD.AperFunction*
G04 #@! TA.AperFunction,SMDPad,CuDef*
G36*
G01*
X114775000Y-136256250D02*
X114775000Y-135743750D01*
G75*
G02*
X114993750Y-135525000I218750J0D01*
G01*
X115431250Y-135525000D01*
G75*
G02*
X115650000Y-135743750I0J-218750D01*
G01*
X115650000Y-136256250D01*
G75*
G02*
X115431250Y-136475000I-218750J0D01*
G01*
X114993750Y-136475000D01*
G75*
G02*
X114775000Y-136256250I0J218750D01*
G01*
G37*
G04 #@! TD.AperFunction*
G04 #@! TA.AperFunction,SMDPad,CuDef*
G36*
G01*
X116350000Y-136256250D02*
X116350000Y-135743750D01*
G75*
G02*
X116568750Y-135525000I218750J0D01*
G01*
X117006250Y-135525000D01*
G75*
G02*
X117225000Y-135743750I0J-218750D01*
G01*
X117225000Y-136256250D01*
G75*
G02*
X117006250Y-136475000I-218750J0D01*
G01*
X116568750Y-136475000D01*
G75*
G02*
X116350000Y-136256250I0J218750D01*
G01*
G37*
G04 #@! TD.AperFunction*
G04 #@! TA.AperFunction,SMDPad,CuDef*
G36*
G01*
X114775000Y-132256250D02*
X114775000Y-131743750D01*
G75*
G02*
X114993750Y-131525000I218750J0D01*
G01*
X115431250Y-131525000D01*
G75*
G02*
X115650000Y-131743750I0J-218750D01*
G01*
X115650000Y-132256250D01*
G75*
G02*
X115431250Y-132475000I-218750J0D01*
G01*
X114993750Y-132475000D01*
G75*
G02*
X114775000Y-132256250I0J218750D01*
G01*
G37*
G04 #@! TD.AperFunction*
G04 #@! TA.AperFunction,SMDPad,CuDef*
G36*
G01*
X116350000Y-132256250D02*
X116350000Y-131743750D01*
G75*
G02*
X116568750Y-131525000I218750J0D01*
G01*
X117006250Y-131525000D01*
G75*
G02*
X117225000Y-131743750I0J-218750D01*
G01*
X117225000Y-132256250D01*
G75*
G02*
X117006250Y-132475000I-218750J0D01*
G01*
X116568750Y-132475000D01*
G75*
G02*
X116350000Y-132256250I0J218750D01*
G01*
G37*
G04 #@! TD.AperFunction*
G04 #@! TA.AperFunction,SMDPad,CuDef*
G36*
G01*
X114775000Y-128256250D02*
X114775000Y-127743750D01*
G75*
G02*
X114993750Y-127525000I218750J0D01*
G01*
X115431250Y-127525000D01*
G75*
G02*
X115650000Y-127743750I0J-218750D01*
G01*
X115650000Y-128256250D01*
G75*
G02*
X115431250Y-128475000I-218750J0D01*
G01*
X114993750Y-128475000D01*
G75*
G02*
X114775000Y-128256250I0J218750D01*
G01*
G37*
G04 #@! TD.AperFunction*
G04 #@! TA.AperFunction,SMDPad,CuDef*
G36*
G01*
X116350000Y-128256250D02*
X116350000Y-127743750D01*
G75*
G02*
X116568750Y-127525000I218750J0D01*
G01*
X117006250Y-127525000D01*
G75*
G02*
X117225000Y-127743750I0J-218750D01*
G01*
X117225000Y-128256250D01*
G75*
G02*
X117006250Y-128475000I-218750J0D01*
G01*
X116568750Y-128475000D01*
G75*
G02*
X116350000Y-128256250I0J218750D01*
G01*
G37*
G04 #@! TD.AperFunction*
G04 #@! TA.AperFunction,SMDPad,CuDef*
G36*
G01*
X114775000Y-124256250D02*
X114775000Y-123743750D01*
G75*
G02*
X114993750Y-123525000I218750J0D01*
G01*
X115431250Y-123525000D01*
G75*
G02*
X115650000Y-123743750I0J-218750D01*
G01*
X115650000Y-124256250D01*
G75*
G02*
X115431250Y-124475000I-218750J0D01*
G01*
X114993750Y-124475000D01*
G75*
G02*
X114775000Y-124256250I0J218750D01*
G01*
G37*
G04 #@! TD.AperFunction*
G04 #@! TA.AperFunction,SMDPad,CuDef*
G36*
G01*
X116350000Y-124256250D02*
X116350000Y-123743750D01*
G75*
G02*
X116568750Y-123525000I218750J0D01*
G01*
X117006250Y-123525000D01*
G75*
G02*
X117225000Y-123743750I0J-218750D01*
G01*
X117225000Y-124256250D01*
G75*
G02*
X117006250Y-124475000I-218750J0D01*
G01*
X116568750Y-124475000D01*
G75*
G02*
X116350000Y-124256250I0J218750D01*
G01*
G37*
G04 #@! TD.AperFunction*
G04 #@! TA.AperFunction,SMDPad,CuDef*
G36*
G01*
X114775000Y-120256250D02*
X114775000Y-119743750D01*
G75*
G02*
X114993750Y-119525000I218750J0D01*
G01*
X115431250Y-119525000D01*
G75*
G02*
X115650000Y-119743750I0J-218750D01*
G01*
X115650000Y-120256250D01*
G75*
G02*
X115431250Y-120475000I-218750J0D01*
G01*
X114993750Y-120475000D01*
G75*
G02*
X114775000Y-120256250I0J218750D01*
G01*
G37*
G04 #@! TD.AperFunction*
G04 #@! TA.AperFunction,SMDPad,CuDef*
G36*
G01*
X116350000Y-120256250D02*
X116350000Y-119743750D01*
G75*
G02*
X116568750Y-119525000I218750J0D01*
G01*
X117006250Y-119525000D01*
G75*
G02*
X117225000Y-119743750I0J-218750D01*
G01*
X117225000Y-120256250D01*
G75*
G02*
X117006250Y-120475000I-218750J0D01*
G01*
X116568750Y-120475000D01*
G75*
G02*
X116350000Y-120256250I0J218750D01*
G01*
G37*
G04 #@! TD.AperFunction*
G04 #@! TA.AperFunction,SMDPad,CuDef*
G36*
G01*
X116350000Y-116256250D02*
X116350000Y-115743750D01*
G75*
G02*
X116568750Y-115525000I218750J0D01*
G01*
X117006250Y-115525000D01*
G75*
G02*
X117225000Y-115743750I0J-218750D01*
G01*
X117225000Y-116256250D01*
G75*
G02*
X117006250Y-116475000I-218750J0D01*
G01*
X116568750Y-116475000D01*
G75*
G02*
X116350000Y-116256250I0J218750D01*
G01*
G37*
G04 #@! TD.AperFunction*
G04 #@! TA.AperFunction,SMDPad,CuDef*
G36*
G01*
X114775000Y-116256250D02*
X114775000Y-115743750D01*
G75*
G02*
X114993750Y-115525000I218750J0D01*
G01*
X115431250Y-115525000D01*
G75*
G02*
X115650000Y-115743750I0J-218750D01*
G01*
X115650000Y-116256250D01*
G75*
G02*
X115431250Y-116475000I-218750J0D01*
G01*
X114993750Y-116475000D01*
G75*
G02*
X114775000Y-116256250I0J218750D01*
G01*
G37*
G04 #@! TD.AperFunction*
G04 #@! TA.AperFunction,SMDPad,CuDef*
G36*
G01*
X114775000Y-112256250D02*
X114775000Y-111743750D01*
G75*
G02*
X114993750Y-111525000I218750J0D01*
G01*
X115431250Y-111525000D01*
G75*
G02*
X115650000Y-111743750I0J-218750D01*
G01*
X115650000Y-112256250D01*
G75*
G02*
X115431250Y-112475000I-218750J0D01*
G01*
X114993750Y-112475000D01*
G75*
G02*
X114775000Y-112256250I0J218750D01*
G01*
G37*
G04 #@! TD.AperFunction*
G04 #@! TA.AperFunction,SMDPad,CuDef*
G36*
G01*
X116350000Y-112256250D02*
X116350000Y-111743750D01*
G75*
G02*
X116568750Y-111525000I218750J0D01*
G01*
X117006250Y-111525000D01*
G75*
G02*
X117225000Y-111743750I0J-218750D01*
G01*
X117225000Y-112256250D01*
G75*
G02*
X117006250Y-112475000I-218750J0D01*
G01*
X116568750Y-112475000D01*
G75*
G02*
X116350000Y-112256250I0J218750D01*
G01*
G37*
G04 #@! TD.AperFunction*
G04 #@! TA.AperFunction,SMDPad,CuDef*
G36*
G01*
X110775000Y-140256250D02*
X110775000Y-139743750D01*
G75*
G02*
X110993750Y-139525000I218750J0D01*
G01*
X111431250Y-139525000D01*
G75*
G02*
X111650000Y-139743750I0J-218750D01*
G01*
X111650000Y-140256250D01*
G75*
G02*
X111431250Y-140475000I-218750J0D01*
G01*
X110993750Y-140475000D01*
G75*
G02*
X110775000Y-140256250I0J218750D01*
G01*
G37*
G04 #@! TD.AperFunction*
G04 #@! TA.AperFunction,SMDPad,CuDef*
G36*
G01*
X112350000Y-140256250D02*
X112350000Y-139743750D01*
G75*
G02*
X112568750Y-139525000I218750J0D01*
G01*
X113006250Y-139525000D01*
G75*
G02*
X113225000Y-139743750I0J-218750D01*
G01*
X113225000Y-140256250D01*
G75*
G02*
X113006250Y-140475000I-218750J0D01*
G01*
X112568750Y-140475000D01*
G75*
G02*
X112350000Y-140256250I0J218750D01*
G01*
G37*
G04 #@! TD.AperFunction*
G04 #@! TA.AperFunction,SMDPad,CuDef*
G36*
G01*
X110775000Y-136256250D02*
X110775000Y-135743750D01*
G75*
G02*
X110993750Y-135525000I218750J0D01*
G01*
X111431250Y-135525000D01*
G75*
G02*
X111650000Y-135743750I0J-218750D01*
G01*
X111650000Y-136256250D01*
G75*
G02*
X111431250Y-136475000I-218750J0D01*
G01*
X110993750Y-136475000D01*
G75*
G02*
X110775000Y-136256250I0J218750D01*
G01*
G37*
G04 #@! TD.AperFunction*
G04 #@! TA.AperFunction,SMDPad,CuDef*
G36*
G01*
X112350000Y-136256250D02*
X112350000Y-135743750D01*
G75*
G02*
X112568750Y-135525000I218750J0D01*
G01*
X113006250Y-135525000D01*
G75*
G02*
X113225000Y-135743750I0J-218750D01*
G01*
X113225000Y-136256250D01*
G75*
G02*
X113006250Y-136475000I-218750J0D01*
G01*
X112568750Y-136475000D01*
G75*
G02*
X112350000Y-136256250I0J218750D01*
G01*
G37*
G04 #@! TD.AperFunction*
G04 #@! TA.AperFunction,SMDPad,CuDef*
G36*
G01*
X110775000Y-132256250D02*
X110775000Y-131743750D01*
G75*
G02*
X110993750Y-131525000I218750J0D01*
G01*
X111431250Y-131525000D01*
G75*
G02*
X111650000Y-131743750I0J-218750D01*
G01*
X111650000Y-132256250D01*
G75*
G02*
X111431250Y-132475000I-218750J0D01*
G01*
X110993750Y-132475000D01*
G75*
G02*
X110775000Y-132256250I0J218750D01*
G01*
G37*
G04 #@! TD.AperFunction*
G04 #@! TA.AperFunction,SMDPad,CuDef*
G36*
G01*
X112350000Y-132256250D02*
X112350000Y-131743750D01*
G75*
G02*
X112568750Y-131525000I218750J0D01*
G01*
X113006250Y-131525000D01*
G75*
G02*
X113225000Y-131743750I0J-218750D01*
G01*
X113225000Y-132256250D01*
G75*
G02*
X113006250Y-132475000I-218750J0D01*
G01*
X112568750Y-132475000D01*
G75*
G02*
X112350000Y-132256250I0J218750D01*
G01*
G37*
G04 #@! TD.AperFunction*
G04 #@! TA.AperFunction,SMDPad,CuDef*
G36*
G01*
X110775000Y-128256250D02*
X110775000Y-127743750D01*
G75*
G02*
X110993750Y-127525000I218750J0D01*
G01*
X111431250Y-127525000D01*
G75*
G02*
X111650000Y-127743750I0J-218750D01*
G01*
X111650000Y-128256250D01*
G75*
G02*
X111431250Y-128475000I-218750J0D01*
G01*
X110993750Y-128475000D01*
G75*
G02*
X110775000Y-128256250I0J218750D01*
G01*
G37*
G04 #@! TD.AperFunction*
G04 #@! TA.AperFunction,SMDPad,CuDef*
G36*
G01*
X112350000Y-128256250D02*
X112350000Y-127743750D01*
G75*
G02*
X112568750Y-127525000I218750J0D01*
G01*
X113006250Y-127525000D01*
G75*
G02*
X113225000Y-127743750I0J-218750D01*
G01*
X113225000Y-128256250D01*
G75*
G02*
X113006250Y-128475000I-218750J0D01*
G01*
X112568750Y-128475000D01*
G75*
G02*
X112350000Y-128256250I0J218750D01*
G01*
G37*
G04 #@! TD.AperFunction*
G04 #@! TA.AperFunction,SMDPad,CuDef*
G36*
G01*
X110775000Y-124256250D02*
X110775000Y-123743750D01*
G75*
G02*
X110993750Y-123525000I218750J0D01*
G01*
X111431250Y-123525000D01*
G75*
G02*
X111650000Y-123743750I0J-218750D01*
G01*
X111650000Y-124256250D01*
G75*
G02*
X111431250Y-124475000I-218750J0D01*
G01*
X110993750Y-124475000D01*
G75*
G02*
X110775000Y-124256250I0J218750D01*
G01*
G37*
G04 #@! TD.AperFunction*
G04 #@! TA.AperFunction,SMDPad,CuDef*
G36*
G01*
X112350000Y-124256250D02*
X112350000Y-123743750D01*
G75*
G02*
X112568750Y-123525000I218750J0D01*
G01*
X113006250Y-123525000D01*
G75*
G02*
X113225000Y-123743750I0J-218750D01*
G01*
X113225000Y-124256250D01*
G75*
G02*
X113006250Y-124475000I-218750J0D01*
G01*
X112568750Y-124475000D01*
G75*
G02*
X112350000Y-124256250I0J218750D01*
G01*
G37*
G04 #@! TD.AperFunction*
G04 #@! TA.AperFunction,SMDPad,CuDef*
G36*
G01*
X110775000Y-120256250D02*
X110775000Y-119743750D01*
G75*
G02*
X110993750Y-119525000I218750J0D01*
G01*
X111431250Y-119525000D01*
G75*
G02*
X111650000Y-119743750I0J-218750D01*
G01*
X111650000Y-120256250D01*
G75*
G02*
X111431250Y-120475000I-218750J0D01*
G01*
X110993750Y-120475000D01*
G75*
G02*
X110775000Y-120256250I0J218750D01*
G01*
G37*
G04 #@! TD.AperFunction*
G04 #@! TA.AperFunction,SMDPad,CuDef*
G36*
G01*
X112350000Y-120256250D02*
X112350000Y-119743750D01*
G75*
G02*
X112568750Y-119525000I218750J0D01*
G01*
X113006250Y-119525000D01*
G75*
G02*
X113225000Y-119743750I0J-218750D01*
G01*
X113225000Y-120256250D01*
G75*
G02*
X113006250Y-120475000I-218750J0D01*
G01*
X112568750Y-120475000D01*
G75*
G02*
X112350000Y-120256250I0J218750D01*
G01*
G37*
G04 #@! TD.AperFunction*
G04 #@! TA.AperFunction,SMDPad,CuDef*
G36*
G01*
X112350000Y-116256250D02*
X112350000Y-115743750D01*
G75*
G02*
X112568750Y-115525000I218750J0D01*
G01*
X113006250Y-115525000D01*
G75*
G02*
X113225000Y-115743750I0J-218750D01*
G01*
X113225000Y-116256250D01*
G75*
G02*
X113006250Y-116475000I-218750J0D01*
G01*
X112568750Y-116475000D01*
G75*
G02*
X112350000Y-116256250I0J218750D01*
G01*
G37*
G04 #@! TD.AperFunction*
G04 #@! TA.AperFunction,SMDPad,CuDef*
G36*
G01*
X110775000Y-116256250D02*
X110775000Y-115743750D01*
G75*
G02*
X110993750Y-115525000I218750J0D01*
G01*
X111431250Y-115525000D01*
G75*
G02*
X111650000Y-115743750I0J-218750D01*
G01*
X111650000Y-116256250D01*
G75*
G02*
X111431250Y-116475000I-218750J0D01*
G01*
X110993750Y-116475000D01*
G75*
G02*
X110775000Y-116256250I0J218750D01*
G01*
G37*
G04 #@! TD.AperFunction*
G04 #@! TA.AperFunction,SMDPad,CuDef*
G36*
G01*
X110775000Y-112256250D02*
X110775000Y-111743750D01*
G75*
G02*
X110993750Y-111525000I218750J0D01*
G01*
X111431250Y-111525000D01*
G75*
G02*
X111650000Y-111743750I0J-218750D01*
G01*
X111650000Y-112256250D01*
G75*
G02*
X111431250Y-112475000I-218750J0D01*
G01*
X110993750Y-112475000D01*
G75*
G02*
X110775000Y-112256250I0J218750D01*
G01*
G37*
G04 #@! TD.AperFunction*
G04 #@! TA.AperFunction,SMDPad,CuDef*
G36*
G01*
X112350000Y-112256250D02*
X112350000Y-111743750D01*
G75*
G02*
X112568750Y-111525000I218750J0D01*
G01*
X113006250Y-111525000D01*
G75*
G02*
X113225000Y-111743750I0J-218750D01*
G01*
X113225000Y-112256250D01*
G75*
G02*
X113006250Y-112475000I-218750J0D01*
G01*
X112568750Y-112475000D01*
G75*
G02*
X112350000Y-112256250I0J218750D01*
G01*
G37*
G04 #@! TD.AperFunction*
G04 #@! TA.AperFunction,SMDPad,CuDef*
G36*
G01*
X106775000Y-140256250D02*
X106775000Y-139743750D01*
G75*
G02*
X106993750Y-139525000I218750J0D01*
G01*
X107431250Y-139525000D01*
G75*
G02*
X107650000Y-139743750I0J-218750D01*
G01*
X107650000Y-140256250D01*
G75*
G02*
X107431250Y-140475000I-218750J0D01*
G01*
X106993750Y-140475000D01*
G75*
G02*
X106775000Y-140256250I0J218750D01*
G01*
G37*
G04 #@! TD.AperFunction*
G04 #@! TA.AperFunction,SMDPad,CuDef*
G36*
G01*
X108350000Y-140256250D02*
X108350000Y-139743750D01*
G75*
G02*
X108568750Y-139525000I218750J0D01*
G01*
X109006250Y-139525000D01*
G75*
G02*
X109225000Y-139743750I0J-218750D01*
G01*
X109225000Y-140256250D01*
G75*
G02*
X109006250Y-140475000I-218750J0D01*
G01*
X108568750Y-140475000D01*
G75*
G02*
X108350000Y-140256250I0J218750D01*
G01*
G37*
G04 #@! TD.AperFunction*
G04 #@! TA.AperFunction,SMDPad,CuDef*
G36*
G01*
X106775000Y-136256250D02*
X106775000Y-135743750D01*
G75*
G02*
X106993750Y-135525000I218750J0D01*
G01*
X107431250Y-135525000D01*
G75*
G02*
X107650000Y-135743750I0J-218750D01*
G01*
X107650000Y-136256250D01*
G75*
G02*
X107431250Y-136475000I-218750J0D01*
G01*
X106993750Y-136475000D01*
G75*
G02*
X106775000Y-136256250I0J218750D01*
G01*
G37*
G04 #@! TD.AperFunction*
G04 #@! TA.AperFunction,SMDPad,CuDef*
G36*
G01*
X108350000Y-136256250D02*
X108350000Y-135743750D01*
G75*
G02*
X108568750Y-135525000I218750J0D01*
G01*
X109006250Y-135525000D01*
G75*
G02*
X109225000Y-135743750I0J-218750D01*
G01*
X109225000Y-136256250D01*
G75*
G02*
X109006250Y-136475000I-218750J0D01*
G01*
X108568750Y-136475000D01*
G75*
G02*
X108350000Y-136256250I0J218750D01*
G01*
G37*
G04 #@! TD.AperFunction*
G04 #@! TA.AperFunction,SMDPad,CuDef*
G36*
G01*
X106775000Y-132256250D02*
X106775000Y-131743750D01*
G75*
G02*
X106993750Y-131525000I218750J0D01*
G01*
X107431250Y-131525000D01*
G75*
G02*
X107650000Y-131743750I0J-218750D01*
G01*
X107650000Y-132256250D01*
G75*
G02*
X107431250Y-132475000I-218750J0D01*
G01*
X106993750Y-132475000D01*
G75*
G02*
X106775000Y-132256250I0J218750D01*
G01*
G37*
G04 #@! TD.AperFunction*
G04 #@! TA.AperFunction,SMDPad,CuDef*
G36*
G01*
X108350000Y-132256250D02*
X108350000Y-131743750D01*
G75*
G02*
X108568750Y-131525000I218750J0D01*
G01*
X109006250Y-131525000D01*
G75*
G02*
X109225000Y-131743750I0J-218750D01*
G01*
X109225000Y-132256250D01*
G75*
G02*
X109006250Y-132475000I-218750J0D01*
G01*
X108568750Y-132475000D01*
G75*
G02*
X108350000Y-132256250I0J218750D01*
G01*
G37*
G04 #@! TD.AperFunction*
G04 #@! TA.AperFunction,SMDPad,CuDef*
G36*
G01*
X106775000Y-128256250D02*
X106775000Y-127743750D01*
G75*
G02*
X106993750Y-127525000I218750J0D01*
G01*
X107431250Y-127525000D01*
G75*
G02*
X107650000Y-127743750I0J-218750D01*
G01*
X107650000Y-128256250D01*
G75*
G02*
X107431250Y-128475000I-218750J0D01*
G01*
X106993750Y-128475000D01*
G75*
G02*
X106775000Y-128256250I0J218750D01*
G01*
G37*
G04 #@! TD.AperFunction*
G04 #@! TA.AperFunction,SMDPad,CuDef*
G36*
G01*
X108350000Y-128256250D02*
X108350000Y-127743750D01*
G75*
G02*
X108568750Y-127525000I218750J0D01*
G01*
X109006250Y-127525000D01*
G75*
G02*
X109225000Y-127743750I0J-218750D01*
G01*
X109225000Y-128256250D01*
G75*
G02*
X109006250Y-128475000I-218750J0D01*
G01*
X108568750Y-128475000D01*
G75*
G02*
X108350000Y-128256250I0J218750D01*
G01*
G37*
G04 #@! TD.AperFunction*
G04 #@! TA.AperFunction,SMDPad,CuDef*
G36*
G01*
X106775000Y-124256250D02*
X106775000Y-123743750D01*
G75*
G02*
X106993750Y-123525000I218750J0D01*
G01*
X107431250Y-123525000D01*
G75*
G02*
X107650000Y-123743750I0J-218750D01*
G01*
X107650000Y-124256250D01*
G75*
G02*
X107431250Y-124475000I-218750J0D01*
G01*
X106993750Y-124475000D01*
G75*
G02*
X106775000Y-124256250I0J218750D01*
G01*
G37*
G04 #@! TD.AperFunction*
G04 #@! TA.AperFunction,SMDPad,CuDef*
G36*
G01*
X108350000Y-124256250D02*
X108350000Y-123743750D01*
G75*
G02*
X108568750Y-123525000I218750J0D01*
G01*
X109006250Y-123525000D01*
G75*
G02*
X109225000Y-123743750I0J-218750D01*
G01*
X109225000Y-124256250D01*
G75*
G02*
X109006250Y-124475000I-218750J0D01*
G01*
X108568750Y-124475000D01*
G75*
G02*
X108350000Y-124256250I0J218750D01*
G01*
G37*
G04 #@! TD.AperFunction*
G04 #@! TA.AperFunction,SMDPad,CuDef*
G36*
G01*
X106775000Y-120256250D02*
X106775000Y-119743750D01*
G75*
G02*
X106993750Y-119525000I218750J0D01*
G01*
X107431250Y-119525000D01*
G75*
G02*
X107650000Y-119743750I0J-218750D01*
G01*
X107650000Y-120256250D01*
G75*
G02*
X107431250Y-120475000I-218750J0D01*
G01*
X106993750Y-120475000D01*
G75*
G02*
X106775000Y-120256250I0J218750D01*
G01*
G37*
G04 #@! TD.AperFunction*
G04 #@! TA.AperFunction,SMDPad,CuDef*
G36*
G01*
X108350000Y-120256250D02*
X108350000Y-119743750D01*
G75*
G02*
X108568750Y-119525000I218750J0D01*
G01*
X109006250Y-119525000D01*
G75*
G02*
X109225000Y-119743750I0J-218750D01*
G01*
X109225000Y-120256250D01*
G75*
G02*
X109006250Y-120475000I-218750J0D01*
G01*
X108568750Y-120475000D01*
G75*
G02*
X108350000Y-120256250I0J218750D01*
G01*
G37*
G04 #@! TD.AperFunction*
G04 #@! TA.AperFunction,SMDPad,CuDef*
G36*
G01*
X108350000Y-116256250D02*
X108350000Y-115743750D01*
G75*
G02*
X108568750Y-115525000I218750J0D01*
G01*
X109006250Y-115525000D01*
G75*
G02*
X109225000Y-115743750I0J-218750D01*
G01*
X109225000Y-116256250D01*
G75*
G02*
X109006250Y-116475000I-218750J0D01*
G01*
X108568750Y-116475000D01*
G75*
G02*
X108350000Y-116256250I0J218750D01*
G01*
G37*
G04 #@! TD.AperFunction*
G04 #@! TA.AperFunction,SMDPad,CuDef*
G36*
G01*
X106775000Y-116256250D02*
X106775000Y-115743750D01*
G75*
G02*
X106993750Y-115525000I218750J0D01*
G01*
X107431250Y-115525000D01*
G75*
G02*
X107650000Y-115743750I0J-218750D01*
G01*
X107650000Y-116256250D01*
G75*
G02*
X107431250Y-116475000I-218750J0D01*
G01*
X106993750Y-116475000D01*
G75*
G02*
X106775000Y-116256250I0J218750D01*
G01*
G37*
G04 #@! TD.AperFunction*
G04 #@! TA.AperFunction,SMDPad,CuDef*
G36*
G01*
X106775000Y-112256250D02*
X106775000Y-111743750D01*
G75*
G02*
X106993750Y-111525000I218750J0D01*
G01*
X107431250Y-111525000D01*
G75*
G02*
X107650000Y-111743750I0J-218750D01*
G01*
X107650000Y-112256250D01*
G75*
G02*
X107431250Y-112475000I-218750J0D01*
G01*
X106993750Y-112475000D01*
G75*
G02*
X106775000Y-112256250I0J218750D01*
G01*
G37*
G04 #@! TD.AperFunction*
G04 #@! TA.AperFunction,SMDPad,CuDef*
G36*
G01*
X108350000Y-112256250D02*
X108350000Y-111743750D01*
G75*
G02*
X108568750Y-111525000I218750J0D01*
G01*
X109006250Y-111525000D01*
G75*
G02*
X109225000Y-111743750I0J-218750D01*
G01*
X109225000Y-112256250D01*
G75*
G02*
X109006250Y-112475000I-218750J0D01*
G01*
X108568750Y-112475000D01*
G75*
G02*
X108350000Y-112256250I0J218750D01*
G01*
G37*
G04 #@! TD.AperFunction*
G04 #@! TA.AperFunction,SMDPad,CuDef*
G36*
G01*
X102775000Y-140256250D02*
X102775000Y-139743750D01*
G75*
G02*
X102993750Y-139525000I218750J0D01*
G01*
X103431250Y-139525000D01*
G75*
G02*
X103650000Y-139743750I0J-218750D01*
G01*
X103650000Y-140256250D01*
G75*
G02*
X103431250Y-140475000I-218750J0D01*
G01*
X102993750Y-140475000D01*
G75*
G02*
X102775000Y-140256250I0J218750D01*
G01*
G37*
G04 #@! TD.AperFunction*
G04 #@! TA.AperFunction,SMDPad,CuDef*
G36*
G01*
X104350000Y-140256250D02*
X104350000Y-139743750D01*
G75*
G02*
X104568750Y-139525000I218750J0D01*
G01*
X105006250Y-139525000D01*
G75*
G02*
X105225000Y-139743750I0J-218750D01*
G01*
X105225000Y-140256250D01*
G75*
G02*
X105006250Y-140475000I-218750J0D01*
G01*
X104568750Y-140475000D01*
G75*
G02*
X104350000Y-140256250I0J218750D01*
G01*
G37*
G04 #@! TD.AperFunction*
G04 #@! TA.AperFunction,SMDPad,CuDef*
G36*
G01*
X102775000Y-136256250D02*
X102775000Y-135743750D01*
G75*
G02*
X102993750Y-135525000I218750J0D01*
G01*
X103431250Y-135525000D01*
G75*
G02*
X103650000Y-135743750I0J-218750D01*
G01*
X103650000Y-136256250D01*
G75*
G02*
X103431250Y-136475000I-218750J0D01*
G01*
X102993750Y-136475000D01*
G75*
G02*
X102775000Y-136256250I0J218750D01*
G01*
G37*
G04 #@! TD.AperFunction*
G04 #@! TA.AperFunction,SMDPad,CuDef*
G36*
G01*
X104350000Y-136256250D02*
X104350000Y-135743750D01*
G75*
G02*
X104568750Y-135525000I218750J0D01*
G01*
X105006250Y-135525000D01*
G75*
G02*
X105225000Y-135743750I0J-218750D01*
G01*
X105225000Y-136256250D01*
G75*
G02*
X105006250Y-136475000I-218750J0D01*
G01*
X104568750Y-136475000D01*
G75*
G02*
X104350000Y-136256250I0J218750D01*
G01*
G37*
G04 #@! TD.AperFunction*
G04 #@! TA.AperFunction,SMDPad,CuDef*
G36*
G01*
X102775000Y-132256250D02*
X102775000Y-131743750D01*
G75*
G02*
X102993750Y-131525000I218750J0D01*
G01*
X103431250Y-131525000D01*
G75*
G02*
X103650000Y-131743750I0J-218750D01*
G01*
X103650000Y-132256250D01*
G75*
G02*
X103431250Y-132475000I-218750J0D01*
G01*
X102993750Y-132475000D01*
G75*
G02*
X102775000Y-132256250I0J218750D01*
G01*
G37*
G04 #@! TD.AperFunction*
G04 #@! TA.AperFunction,SMDPad,CuDef*
G36*
G01*
X104350000Y-132256250D02*
X104350000Y-131743750D01*
G75*
G02*
X104568750Y-131525000I218750J0D01*
G01*
X105006250Y-131525000D01*
G75*
G02*
X105225000Y-131743750I0J-218750D01*
G01*
X105225000Y-132256250D01*
G75*
G02*
X105006250Y-132475000I-218750J0D01*
G01*
X104568750Y-132475000D01*
G75*
G02*
X104350000Y-132256250I0J218750D01*
G01*
G37*
G04 #@! TD.AperFunction*
G04 #@! TA.AperFunction,SMDPad,CuDef*
G36*
G01*
X102775000Y-128256250D02*
X102775000Y-127743750D01*
G75*
G02*
X102993750Y-127525000I218750J0D01*
G01*
X103431250Y-127525000D01*
G75*
G02*
X103650000Y-127743750I0J-218750D01*
G01*
X103650000Y-128256250D01*
G75*
G02*
X103431250Y-128475000I-218750J0D01*
G01*
X102993750Y-128475000D01*
G75*
G02*
X102775000Y-128256250I0J218750D01*
G01*
G37*
G04 #@! TD.AperFunction*
G04 #@! TA.AperFunction,SMDPad,CuDef*
G36*
G01*
X104350000Y-128256250D02*
X104350000Y-127743750D01*
G75*
G02*
X104568750Y-127525000I218750J0D01*
G01*
X105006250Y-127525000D01*
G75*
G02*
X105225000Y-127743750I0J-218750D01*
G01*
X105225000Y-128256250D01*
G75*
G02*
X105006250Y-128475000I-218750J0D01*
G01*
X104568750Y-128475000D01*
G75*
G02*
X104350000Y-128256250I0J218750D01*
G01*
G37*
G04 #@! TD.AperFunction*
G04 #@! TA.AperFunction,SMDPad,CuDef*
G36*
G01*
X102775000Y-124256250D02*
X102775000Y-123743750D01*
G75*
G02*
X102993750Y-123525000I218750J0D01*
G01*
X103431250Y-123525000D01*
G75*
G02*
X103650000Y-123743750I0J-218750D01*
G01*
X103650000Y-124256250D01*
G75*
G02*
X103431250Y-124475000I-218750J0D01*
G01*
X102993750Y-124475000D01*
G75*
G02*
X102775000Y-124256250I0J218750D01*
G01*
G37*
G04 #@! TD.AperFunction*
G04 #@! TA.AperFunction,SMDPad,CuDef*
G36*
G01*
X104350000Y-124256250D02*
X104350000Y-123743750D01*
G75*
G02*
X104568750Y-123525000I218750J0D01*
G01*
X105006250Y-123525000D01*
G75*
G02*
X105225000Y-123743750I0J-218750D01*
G01*
X105225000Y-124256250D01*
G75*
G02*
X105006250Y-124475000I-218750J0D01*
G01*
X104568750Y-124475000D01*
G75*
G02*
X104350000Y-124256250I0J218750D01*
G01*
G37*
G04 #@! TD.AperFunction*
G04 #@! TA.AperFunction,SMDPad,CuDef*
G36*
G01*
X102775000Y-120256250D02*
X102775000Y-119743750D01*
G75*
G02*
X102993750Y-119525000I218750J0D01*
G01*
X103431250Y-119525000D01*
G75*
G02*
X103650000Y-119743750I0J-218750D01*
G01*
X103650000Y-120256250D01*
G75*
G02*
X103431250Y-120475000I-218750J0D01*
G01*
X102993750Y-120475000D01*
G75*
G02*
X102775000Y-120256250I0J218750D01*
G01*
G37*
G04 #@! TD.AperFunction*
G04 #@! TA.AperFunction,SMDPad,CuDef*
G36*
G01*
X104350000Y-120256250D02*
X104350000Y-119743750D01*
G75*
G02*
X104568750Y-119525000I218750J0D01*
G01*
X105006250Y-119525000D01*
G75*
G02*
X105225000Y-119743750I0J-218750D01*
G01*
X105225000Y-120256250D01*
G75*
G02*
X105006250Y-120475000I-218750J0D01*
G01*
X104568750Y-120475000D01*
G75*
G02*
X104350000Y-120256250I0J218750D01*
G01*
G37*
G04 #@! TD.AperFunction*
G04 #@! TA.AperFunction,SMDPad,CuDef*
G36*
G01*
X104350000Y-116256250D02*
X104350000Y-115743750D01*
G75*
G02*
X104568750Y-115525000I218750J0D01*
G01*
X105006250Y-115525000D01*
G75*
G02*
X105225000Y-115743750I0J-218750D01*
G01*
X105225000Y-116256250D01*
G75*
G02*
X105006250Y-116475000I-218750J0D01*
G01*
X104568750Y-116475000D01*
G75*
G02*
X104350000Y-116256250I0J218750D01*
G01*
G37*
G04 #@! TD.AperFunction*
G04 #@! TA.AperFunction,SMDPad,CuDef*
G36*
G01*
X102775000Y-116256250D02*
X102775000Y-115743750D01*
G75*
G02*
X102993750Y-115525000I218750J0D01*
G01*
X103431250Y-115525000D01*
G75*
G02*
X103650000Y-115743750I0J-218750D01*
G01*
X103650000Y-116256250D01*
G75*
G02*
X103431250Y-116475000I-218750J0D01*
G01*
X102993750Y-116475000D01*
G75*
G02*
X102775000Y-116256250I0J218750D01*
G01*
G37*
G04 #@! TD.AperFunction*
G04 #@! TA.AperFunction,SMDPad,CuDef*
G36*
G01*
X102759000Y-112256250D02*
X102759000Y-111743750D01*
G75*
G02*
X102977750Y-111525000I218750J0D01*
G01*
X103415250Y-111525000D01*
G75*
G02*
X103634000Y-111743750I0J-218750D01*
G01*
X103634000Y-112256250D01*
G75*
G02*
X103415250Y-112475000I-218750J0D01*
G01*
X102977750Y-112475000D01*
G75*
G02*
X102759000Y-112256250I0J218750D01*
G01*
G37*
G04 #@! TD.AperFunction*
G04 #@! TA.AperFunction,SMDPad,CuDef*
G36*
G01*
X104334000Y-112256250D02*
X104334000Y-111743750D01*
G75*
G02*
X104552750Y-111525000I218750J0D01*
G01*
X104990250Y-111525000D01*
G75*
G02*
X105209000Y-111743750I0J-218750D01*
G01*
X105209000Y-112256250D01*
G75*
G02*
X104990250Y-112475000I-218750J0D01*
G01*
X104552750Y-112475000D01*
G75*
G02*
X104334000Y-112256250I0J218750D01*
G01*
G37*
G04 #@! TD.AperFunction*
G04 #@! TA.AperFunction,SMDPad,CuDef*
G36*
G01*
X98775000Y-140256250D02*
X98775000Y-139743750D01*
G75*
G02*
X98993750Y-139525000I218750J0D01*
G01*
X99431250Y-139525000D01*
G75*
G02*
X99650000Y-139743750I0J-218750D01*
G01*
X99650000Y-140256250D01*
G75*
G02*
X99431250Y-140475000I-218750J0D01*
G01*
X98993750Y-140475000D01*
G75*
G02*
X98775000Y-140256250I0J218750D01*
G01*
G37*
G04 #@! TD.AperFunction*
G04 #@! TA.AperFunction,SMDPad,CuDef*
G36*
G01*
X100350000Y-140256250D02*
X100350000Y-139743750D01*
G75*
G02*
X100568750Y-139525000I218750J0D01*
G01*
X101006250Y-139525000D01*
G75*
G02*
X101225000Y-139743750I0J-218750D01*
G01*
X101225000Y-140256250D01*
G75*
G02*
X101006250Y-140475000I-218750J0D01*
G01*
X100568750Y-140475000D01*
G75*
G02*
X100350000Y-140256250I0J218750D01*
G01*
G37*
G04 #@! TD.AperFunction*
G04 #@! TA.AperFunction,SMDPad,CuDef*
G36*
G01*
X98775000Y-136256250D02*
X98775000Y-135743750D01*
G75*
G02*
X98993750Y-135525000I218750J0D01*
G01*
X99431250Y-135525000D01*
G75*
G02*
X99650000Y-135743750I0J-218750D01*
G01*
X99650000Y-136256250D01*
G75*
G02*
X99431250Y-136475000I-218750J0D01*
G01*
X98993750Y-136475000D01*
G75*
G02*
X98775000Y-136256250I0J218750D01*
G01*
G37*
G04 #@! TD.AperFunction*
G04 #@! TA.AperFunction,SMDPad,CuDef*
G36*
G01*
X100350000Y-136256250D02*
X100350000Y-135743750D01*
G75*
G02*
X100568750Y-135525000I218750J0D01*
G01*
X101006250Y-135525000D01*
G75*
G02*
X101225000Y-135743750I0J-218750D01*
G01*
X101225000Y-136256250D01*
G75*
G02*
X101006250Y-136475000I-218750J0D01*
G01*
X100568750Y-136475000D01*
G75*
G02*
X100350000Y-136256250I0J218750D01*
G01*
G37*
G04 #@! TD.AperFunction*
G04 #@! TA.AperFunction,SMDPad,CuDef*
G36*
G01*
X98775000Y-132256250D02*
X98775000Y-131743750D01*
G75*
G02*
X98993750Y-131525000I218750J0D01*
G01*
X99431250Y-131525000D01*
G75*
G02*
X99650000Y-131743750I0J-218750D01*
G01*
X99650000Y-132256250D01*
G75*
G02*
X99431250Y-132475000I-218750J0D01*
G01*
X98993750Y-132475000D01*
G75*
G02*
X98775000Y-132256250I0J218750D01*
G01*
G37*
G04 #@! TD.AperFunction*
G04 #@! TA.AperFunction,SMDPad,CuDef*
G36*
G01*
X100350000Y-132256250D02*
X100350000Y-131743750D01*
G75*
G02*
X100568750Y-131525000I218750J0D01*
G01*
X101006250Y-131525000D01*
G75*
G02*
X101225000Y-131743750I0J-218750D01*
G01*
X101225000Y-132256250D01*
G75*
G02*
X101006250Y-132475000I-218750J0D01*
G01*
X100568750Y-132475000D01*
G75*
G02*
X100350000Y-132256250I0J218750D01*
G01*
G37*
G04 #@! TD.AperFunction*
G04 #@! TA.AperFunction,SMDPad,CuDef*
G36*
G01*
X98775000Y-128256250D02*
X98775000Y-127743750D01*
G75*
G02*
X98993750Y-127525000I218750J0D01*
G01*
X99431250Y-127525000D01*
G75*
G02*
X99650000Y-127743750I0J-218750D01*
G01*
X99650000Y-128256250D01*
G75*
G02*
X99431250Y-128475000I-218750J0D01*
G01*
X98993750Y-128475000D01*
G75*
G02*
X98775000Y-128256250I0J218750D01*
G01*
G37*
G04 #@! TD.AperFunction*
G04 #@! TA.AperFunction,SMDPad,CuDef*
G36*
G01*
X100350000Y-128256250D02*
X100350000Y-127743750D01*
G75*
G02*
X100568750Y-127525000I218750J0D01*
G01*
X101006250Y-127525000D01*
G75*
G02*
X101225000Y-127743750I0J-218750D01*
G01*
X101225000Y-128256250D01*
G75*
G02*
X101006250Y-128475000I-218750J0D01*
G01*
X100568750Y-128475000D01*
G75*
G02*
X100350000Y-128256250I0J218750D01*
G01*
G37*
G04 #@! TD.AperFunction*
G04 #@! TA.AperFunction,SMDPad,CuDef*
G36*
G01*
X98775000Y-124256250D02*
X98775000Y-123743750D01*
G75*
G02*
X98993750Y-123525000I218750J0D01*
G01*
X99431250Y-123525000D01*
G75*
G02*
X99650000Y-123743750I0J-218750D01*
G01*
X99650000Y-124256250D01*
G75*
G02*
X99431250Y-124475000I-218750J0D01*
G01*
X98993750Y-124475000D01*
G75*
G02*
X98775000Y-124256250I0J218750D01*
G01*
G37*
G04 #@! TD.AperFunction*
G04 #@! TA.AperFunction,SMDPad,CuDef*
G36*
G01*
X100350000Y-124256250D02*
X100350000Y-123743750D01*
G75*
G02*
X100568750Y-123525000I218750J0D01*
G01*
X101006250Y-123525000D01*
G75*
G02*
X101225000Y-123743750I0J-218750D01*
G01*
X101225000Y-124256250D01*
G75*
G02*
X101006250Y-124475000I-218750J0D01*
G01*
X100568750Y-124475000D01*
G75*
G02*
X100350000Y-124256250I0J218750D01*
G01*
G37*
G04 #@! TD.AperFunction*
G04 #@! TA.AperFunction,SMDPad,CuDef*
G36*
G01*
X98775000Y-120256250D02*
X98775000Y-119743750D01*
G75*
G02*
X98993750Y-119525000I218750J0D01*
G01*
X99431250Y-119525000D01*
G75*
G02*
X99650000Y-119743750I0J-218750D01*
G01*
X99650000Y-120256250D01*
G75*
G02*
X99431250Y-120475000I-218750J0D01*
G01*
X98993750Y-120475000D01*
G75*
G02*
X98775000Y-120256250I0J218750D01*
G01*
G37*
G04 #@! TD.AperFunction*
G04 #@! TA.AperFunction,SMDPad,CuDef*
G36*
G01*
X100350000Y-120256250D02*
X100350000Y-119743750D01*
G75*
G02*
X100568750Y-119525000I218750J0D01*
G01*
X101006250Y-119525000D01*
G75*
G02*
X101225000Y-119743750I0J-218750D01*
G01*
X101225000Y-120256250D01*
G75*
G02*
X101006250Y-120475000I-218750J0D01*
G01*
X100568750Y-120475000D01*
G75*
G02*
X100350000Y-120256250I0J218750D01*
G01*
G37*
G04 #@! TD.AperFunction*
G04 #@! TA.AperFunction,SMDPad,CuDef*
G36*
G01*
X100350000Y-116256250D02*
X100350000Y-115743750D01*
G75*
G02*
X100568750Y-115525000I218750J0D01*
G01*
X101006250Y-115525000D01*
G75*
G02*
X101225000Y-115743750I0J-218750D01*
G01*
X101225000Y-116256250D01*
G75*
G02*
X101006250Y-116475000I-218750J0D01*
G01*
X100568750Y-116475000D01*
G75*
G02*
X100350000Y-116256250I0J218750D01*
G01*
G37*
G04 #@! TD.AperFunction*
G04 #@! TA.AperFunction,SMDPad,CuDef*
G36*
G01*
X98775000Y-116256250D02*
X98775000Y-115743750D01*
G75*
G02*
X98993750Y-115525000I218750J0D01*
G01*
X99431250Y-115525000D01*
G75*
G02*
X99650000Y-115743750I0J-218750D01*
G01*
X99650000Y-116256250D01*
G75*
G02*
X99431250Y-116475000I-218750J0D01*
G01*
X98993750Y-116475000D01*
G75*
G02*
X98775000Y-116256250I0J218750D01*
G01*
G37*
G04 #@! TD.AperFunction*
G04 #@! TA.AperFunction,SMDPad,CuDef*
G36*
G01*
X98775000Y-112256250D02*
X98775000Y-111743750D01*
G75*
G02*
X98993750Y-111525000I218750J0D01*
G01*
X99431250Y-111525000D01*
G75*
G02*
X99650000Y-111743750I0J-218750D01*
G01*
X99650000Y-112256250D01*
G75*
G02*
X99431250Y-112475000I-218750J0D01*
G01*
X98993750Y-112475000D01*
G75*
G02*
X98775000Y-112256250I0J218750D01*
G01*
G37*
G04 #@! TD.AperFunction*
G04 #@! TA.AperFunction,SMDPad,CuDef*
G36*
G01*
X100350000Y-112256250D02*
X100350000Y-111743750D01*
G75*
G02*
X100568750Y-111525000I218750J0D01*
G01*
X101006250Y-111525000D01*
G75*
G02*
X101225000Y-111743750I0J-218750D01*
G01*
X101225000Y-112256250D01*
G75*
G02*
X101006250Y-112475000I-218750J0D01*
G01*
X100568750Y-112475000D01*
G75*
G02*
X100350000Y-112256250I0J218750D01*
G01*
G37*
G04 #@! TD.AperFunction*
G04 #@! TA.AperFunction,SMDPad,CuDef*
G36*
G01*
X94775000Y-140256250D02*
X94775000Y-139743750D01*
G75*
G02*
X94993750Y-139525000I218750J0D01*
G01*
X95431250Y-139525000D01*
G75*
G02*
X95650000Y-139743750I0J-218750D01*
G01*
X95650000Y-140256250D01*
G75*
G02*
X95431250Y-140475000I-218750J0D01*
G01*
X94993750Y-140475000D01*
G75*
G02*
X94775000Y-140256250I0J218750D01*
G01*
G37*
G04 #@! TD.AperFunction*
G04 #@! TA.AperFunction,SMDPad,CuDef*
G36*
G01*
X96350000Y-140256250D02*
X96350000Y-139743750D01*
G75*
G02*
X96568750Y-139525000I218750J0D01*
G01*
X97006250Y-139525000D01*
G75*
G02*
X97225000Y-139743750I0J-218750D01*
G01*
X97225000Y-140256250D01*
G75*
G02*
X97006250Y-140475000I-218750J0D01*
G01*
X96568750Y-140475000D01*
G75*
G02*
X96350000Y-140256250I0J218750D01*
G01*
G37*
G04 #@! TD.AperFunction*
G04 #@! TA.AperFunction,SMDPad,CuDef*
G36*
G01*
X94775000Y-136256250D02*
X94775000Y-135743750D01*
G75*
G02*
X94993750Y-135525000I218750J0D01*
G01*
X95431250Y-135525000D01*
G75*
G02*
X95650000Y-135743750I0J-218750D01*
G01*
X95650000Y-136256250D01*
G75*
G02*
X95431250Y-136475000I-218750J0D01*
G01*
X94993750Y-136475000D01*
G75*
G02*
X94775000Y-136256250I0J218750D01*
G01*
G37*
G04 #@! TD.AperFunction*
G04 #@! TA.AperFunction,SMDPad,CuDef*
G36*
G01*
X96350000Y-136256250D02*
X96350000Y-135743750D01*
G75*
G02*
X96568750Y-135525000I218750J0D01*
G01*
X97006250Y-135525000D01*
G75*
G02*
X97225000Y-135743750I0J-218750D01*
G01*
X97225000Y-136256250D01*
G75*
G02*
X97006250Y-136475000I-218750J0D01*
G01*
X96568750Y-136475000D01*
G75*
G02*
X96350000Y-136256250I0J218750D01*
G01*
G37*
G04 #@! TD.AperFunction*
G04 #@! TA.AperFunction,SMDPad,CuDef*
G36*
G01*
X94775000Y-132256250D02*
X94775000Y-131743750D01*
G75*
G02*
X94993750Y-131525000I218750J0D01*
G01*
X95431250Y-131525000D01*
G75*
G02*
X95650000Y-131743750I0J-218750D01*
G01*
X95650000Y-132256250D01*
G75*
G02*
X95431250Y-132475000I-218750J0D01*
G01*
X94993750Y-132475000D01*
G75*
G02*
X94775000Y-132256250I0J218750D01*
G01*
G37*
G04 #@! TD.AperFunction*
G04 #@! TA.AperFunction,SMDPad,CuDef*
G36*
G01*
X96350000Y-132256250D02*
X96350000Y-131743750D01*
G75*
G02*
X96568750Y-131525000I218750J0D01*
G01*
X97006250Y-131525000D01*
G75*
G02*
X97225000Y-131743750I0J-218750D01*
G01*
X97225000Y-132256250D01*
G75*
G02*
X97006250Y-132475000I-218750J0D01*
G01*
X96568750Y-132475000D01*
G75*
G02*
X96350000Y-132256250I0J218750D01*
G01*
G37*
G04 #@! TD.AperFunction*
G04 #@! TA.AperFunction,SMDPad,CuDef*
G36*
G01*
X94775000Y-128256250D02*
X94775000Y-127743750D01*
G75*
G02*
X94993750Y-127525000I218750J0D01*
G01*
X95431250Y-127525000D01*
G75*
G02*
X95650000Y-127743750I0J-218750D01*
G01*
X95650000Y-128256250D01*
G75*
G02*
X95431250Y-128475000I-218750J0D01*
G01*
X94993750Y-128475000D01*
G75*
G02*
X94775000Y-128256250I0J218750D01*
G01*
G37*
G04 #@! TD.AperFunction*
G04 #@! TA.AperFunction,SMDPad,CuDef*
G36*
G01*
X96350000Y-128256250D02*
X96350000Y-127743750D01*
G75*
G02*
X96568750Y-127525000I218750J0D01*
G01*
X97006250Y-127525000D01*
G75*
G02*
X97225000Y-127743750I0J-218750D01*
G01*
X97225000Y-128256250D01*
G75*
G02*
X97006250Y-128475000I-218750J0D01*
G01*
X96568750Y-128475000D01*
G75*
G02*
X96350000Y-128256250I0J218750D01*
G01*
G37*
G04 #@! TD.AperFunction*
G04 #@! TA.AperFunction,SMDPad,CuDef*
G36*
G01*
X94775000Y-124256250D02*
X94775000Y-123743750D01*
G75*
G02*
X94993750Y-123525000I218750J0D01*
G01*
X95431250Y-123525000D01*
G75*
G02*
X95650000Y-123743750I0J-218750D01*
G01*
X95650000Y-124256250D01*
G75*
G02*
X95431250Y-124475000I-218750J0D01*
G01*
X94993750Y-124475000D01*
G75*
G02*
X94775000Y-124256250I0J218750D01*
G01*
G37*
G04 #@! TD.AperFunction*
G04 #@! TA.AperFunction,SMDPad,CuDef*
G36*
G01*
X96350000Y-124256250D02*
X96350000Y-123743750D01*
G75*
G02*
X96568750Y-123525000I218750J0D01*
G01*
X97006250Y-123525000D01*
G75*
G02*
X97225000Y-123743750I0J-218750D01*
G01*
X97225000Y-124256250D01*
G75*
G02*
X97006250Y-124475000I-218750J0D01*
G01*
X96568750Y-124475000D01*
G75*
G02*
X96350000Y-124256250I0J218750D01*
G01*
G37*
G04 #@! TD.AperFunction*
G04 #@! TA.AperFunction,SMDPad,CuDef*
G36*
G01*
X94775000Y-120256250D02*
X94775000Y-119743750D01*
G75*
G02*
X94993750Y-119525000I218750J0D01*
G01*
X95431250Y-119525000D01*
G75*
G02*
X95650000Y-119743750I0J-218750D01*
G01*
X95650000Y-120256250D01*
G75*
G02*
X95431250Y-120475000I-218750J0D01*
G01*
X94993750Y-120475000D01*
G75*
G02*
X94775000Y-120256250I0J218750D01*
G01*
G37*
G04 #@! TD.AperFunction*
G04 #@! TA.AperFunction,SMDPad,CuDef*
G36*
G01*
X96350000Y-120256250D02*
X96350000Y-119743750D01*
G75*
G02*
X96568750Y-119525000I218750J0D01*
G01*
X97006250Y-119525000D01*
G75*
G02*
X97225000Y-119743750I0J-218750D01*
G01*
X97225000Y-120256250D01*
G75*
G02*
X97006250Y-120475000I-218750J0D01*
G01*
X96568750Y-120475000D01*
G75*
G02*
X96350000Y-120256250I0J218750D01*
G01*
G37*
G04 #@! TD.AperFunction*
G04 #@! TA.AperFunction,SMDPad,CuDef*
G36*
G01*
X96350000Y-116256250D02*
X96350000Y-115743750D01*
G75*
G02*
X96568750Y-115525000I218750J0D01*
G01*
X97006250Y-115525000D01*
G75*
G02*
X97225000Y-115743750I0J-218750D01*
G01*
X97225000Y-116256250D01*
G75*
G02*
X97006250Y-116475000I-218750J0D01*
G01*
X96568750Y-116475000D01*
G75*
G02*
X96350000Y-116256250I0J218750D01*
G01*
G37*
G04 #@! TD.AperFunction*
G04 #@! TA.AperFunction,SMDPad,CuDef*
G36*
G01*
X94775000Y-116256250D02*
X94775000Y-115743750D01*
G75*
G02*
X94993750Y-115525000I218750J0D01*
G01*
X95431250Y-115525000D01*
G75*
G02*
X95650000Y-115743750I0J-218750D01*
G01*
X95650000Y-116256250D01*
G75*
G02*
X95431250Y-116475000I-218750J0D01*
G01*
X94993750Y-116475000D01*
G75*
G02*
X94775000Y-116256250I0J218750D01*
G01*
G37*
G04 #@! TD.AperFunction*
G04 #@! TA.AperFunction,SMDPad,CuDef*
G36*
G01*
X94775000Y-112256250D02*
X94775000Y-111743750D01*
G75*
G02*
X94993750Y-111525000I218750J0D01*
G01*
X95431250Y-111525000D01*
G75*
G02*
X95650000Y-111743750I0J-218750D01*
G01*
X95650000Y-112256250D01*
G75*
G02*
X95431250Y-112475000I-218750J0D01*
G01*
X94993750Y-112475000D01*
G75*
G02*
X94775000Y-112256250I0J218750D01*
G01*
G37*
G04 #@! TD.AperFunction*
G04 #@! TA.AperFunction,SMDPad,CuDef*
G36*
G01*
X96350000Y-112256250D02*
X96350000Y-111743750D01*
G75*
G02*
X96568750Y-111525000I218750J0D01*
G01*
X97006250Y-111525000D01*
G75*
G02*
X97225000Y-111743750I0J-218750D01*
G01*
X97225000Y-112256250D01*
G75*
G02*
X97006250Y-112475000I-218750J0D01*
G01*
X96568750Y-112475000D01*
G75*
G02*
X96350000Y-112256250I0J218750D01*
G01*
G37*
G04 #@! TD.AperFunction*
G04 #@! TA.AperFunction,SMDPad,CuDef*
G36*
G01*
X90775000Y-140256250D02*
X90775000Y-139743750D01*
G75*
G02*
X90993750Y-139525000I218750J0D01*
G01*
X91431250Y-139525000D01*
G75*
G02*
X91650000Y-139743750I0J-218750D01*
G01*
X91650000Y-140256250D01*
G75*
G02*
X91431250Y-140475000I-218750J0D01*
G01*
X90993750Y-140475000D01*
G75*
G02*
X90775000Y-140256250I0J218750D01*
G01*
G37*
G04 #@! TD.AperFunction*
G04 #@! TA.AperFunction,SMDPad,CuDef*
G36*
G01*
X92350000Y-140256250D02*
X92350000Y-139743750D01*
G75*
G02*
X92568750Y-139525000I218750J0D01*
G01*
X93006250Y-139525000D01*
G75*
G02*
X93225000Y-139743750I0J-218750D01*
G01*
X93225000Y-140256250D01*
G75*
G02*
X93006250Y-140475000I-218750J0D01*
G01*
X92568750Y-140475000D01*
G75*
G02*
X92350000Y-140256250I0J218750D01*
G01*
G37*
G04 #@! TD.AperFunction*
G04 #@! TA.AperFunction,SMDPad,CuDef*
G36*
G01*
X90775000Y-136256250D02*
X90775000Y-135743750D01*
G75*
G02*
X90993750Y-135525000I218750J0D01*
G01*
X91431250Y-135525000D01*
G75*
G02*
X91650000Y-135743750I0J-218750D01*
G01*
X91650000Y-136256250D01*
G75*
G02*
X91431250Y-136475000I-218750J0D01*
G01*
X90993750Y-136475000D01*
G75*
G02*
X90775000Y-136256250I0J218750D01*
G01*
G37*
G04 #@! TD.AperFunction*
G04 #@! TA.AperFunction,SMDPad,CuDef*
G36*
G01*
X92350000Y-136256250D02*
X92350000Y-135743750D01*
G75*
G02*
X92568750Y-135525000I218750J0D01*
G01*
X93006250Y-135525000D01*
G75*
G02*
X93225000Y-135743750I0J-218750D01*
G01*
X93225000Y-136256250D01*
G75*
G02*
X93006250Y-136475000I-218750J0D01*
G01*
X92568750Y-136475000D01*
G75*
G02*
X92350000Y-136256250I0J218750D01*
G01*
G37*
G04 #@! TD.AperFunction*
G04 #@! TA.AperFunction,SMDPad,CuDef*
G36*
G01*
X90775000Y-132256250D02*
X90775000Y-131743750D01*
G75*
G02*
X90993750Y-131525000I218750J0D01*
G01*
X91431250Y-131525000D01*
G75*
G02*
X91650000Y-131743750I0J-218750D01*
G01*
X91650000Y-132256250D01*
G75*
G02*
X91431250Y-132475000I-218750J0D01*
G01*
X90993750Y-132475000D01*
G75*
G02*
X90775000Y-132256250I0J218750D01*
G01*
G37*
G04 #@! TD.AperFunction*
G04 #@! TA.AperFunction,SMDPad,CuDef*
G36*
G01*
X92350000Y-132256250D02*
X92350000Y-131743750D01*
G75*
G02*
X92568750Y-131525000I218750J0D01*
G01*
X93006250Y-131525000D01*
G75*
G02*
X93225000Y-131743750I0J-218750D01*
G01*
X93225000Y-132256250D01*
G75*
G02*
X93006250Y-132475000I-218750J0D01*
G01*
X92568750Y-132475000D01*
G75*
G02*
X92350000Y-132256250I0J218750D01*
G01*
G37*
G04 #@! TD.AperFunction*
G04 #@! TA.AperFunction,SMDPad,CuDef*
G36*
G01*
X90775000Y-128256250D02*
X90775000Y-127743750D01*
G75*
G02*
X90993750Y-127525000I218750J0D01*
G01*
X91431250Y-127525000D01*
G75*
G02*
X91650000Y-127743750I0J-218750D01*
G01*
X91650000Y-128256250D01*
G75*
G02*
X91431250Y-128475000I-218750J0D01*
G01*
X90993750Y-128475000D01*
G75*
G02*
X90775000Y-128256250I0J218750D01*
G01*
G37*
G04 #@! TD.AperFunction*
G04 #@! TA.AperFunction,SMDPad,CuDef*
G36*
G01*
X92350000Y-128256250D02*
X92350000Y-127743750D01*
G75*
G02*
X92568750Y-127525000I218750J0D01*
G01*
X93006250Y-127525000D01*
G75*
G02*
X93225000Y-127743750I0J-218750D01*
G01*
X93225000Y-128256250D01*
G75*
G02*
X93006250Y-128475000I-218750J0D01*
G01*
X92568750Y-128475000D01*
G75*
G02*
X92350000Y-128256250I0J218750D01*
G01*
G37*
G04 #@! TD.AperFunction*
G04 #@! TA.AperFunction,SMDPad,CuDef*
G36*
G01*
X90775000Y-124256250D02*
X90775000Y-123743750D01*
G75*
G02*
X90993750Y-123525000I218750J0D01*
G01*
X91431250Y-123525000D01*
G75*
G02*
X91650000Y-123743750I0J-218750D01*
G01*
X91650000Y-124256250D01*
G75*
G02*
X91431250Y-124475000I-218750J0D01*
G01*
X90993750Y-124475000D01*
G75*
G02*
X90775000Y-124256250I0J218750D01*
G01*
G37*
G04 #@! TD.AperFunction*
G04 #@! TA.AperFunction,SMDPad,CuDef*
G36*
G01*
X92350000Y-124256250D02*
X92350000Y-123743750D01*
G75*
G02*
X92568750Y-123525000I218750J0D01*
G01*
X93006250Y-123525000D01*
G75*
G02*
X93225000Y-123743750I0J-218750D01*
G01*
X93225000Y-124256250D01*
G75*
G02*
X93006250Y-124475000I-218750J0D01*
G01*
X92568750Y-124475000D01*
G75*
G02*
X92350000Y-124256250I0J218750D01*
G01*
G37*
G04 #@! TD.AperFunction*
G04 #@! TA.AperFunction,SMDPad,CuDef*
G36*
G01*
X90775000Y-120256250D02*
X90775000Y-119743750D01*
G75*
G02*
X90993750Y-119525000I218750J0D01*
G01*
X91431250Y-119525000D01*
G75*
G02*
X91650000Y-119743750I0J-218750D01*
G01*
X91650000Y-120256250D01*
G75*
G02*
X91431250Y-120475000I-218750J0D01*
G01*
X90993750Y-120475000D01*
G75*
G02*
X90775000Y-120256250I0J218750D01*
G01*
G37*
G04 #@! TD.AperFunction*
G04 #@! TA.AperFunction,SMDPad,CuDef*
G36*
G01*
X92350000Y-120256250D02*
X92350000Y-119743750D01*
G75*
G02*
X92568750Y-119525000I218750J0D01*
G01*
X93006250Y-119525000D01*
G75*
G02*
X93225000Y-119743750I0J-218750D01*
G01*
X93225000Y-120256250D01*
G75*
G02*
X93006250Y-120475000I-218750J0D01*
G01*
X92568750Y-120475000D01*
G75*
G02*
X92350000Y-120256250I0J218750D01*
G01*
G37*
G04 #@! TD.AperFunction*
G04 #@! TA.AperFunction,SMDPad,CuDef*
G36*
G01*
X92350000Y-116256250D02*
X92350000Y-115743750D01*
G75*
G02*
X92568750Y-115525000I218750J0D01*
G01*
X93006250Y-115525000D01*
G75*
G02*
X93225000Y-115743750I0J-218750D01*
G01*
X93225000Y-116256250D01*
G75*
G02*
X93006250Y-116475000I-218750J0D01*
G01*
X92568750Y-116475000D01*
G75*
G02*
X92350000Y-116256250I0J218750D01*
G01*
G37*
G04 #@! TD.AperFunction*
G04 #@! TA.AperFunction,SMDPad,CuDef*
G36*
G01*
X90775000Y-116256250D02*
X90775000Y-115743750D01*
G75*
G02*
X90993750Y-115525000I218750J0D01*
G01*
X91431250Y-115525000D01*
G75*
G02*
X91650000Y-115743750I0J-218750D01*
G01*
X91650000Y-116256250D01*
G75*
G02*
X91431250Y-116475000I-218750J0D01*
G01*
X90993750Y-116475000D01*
G75*
G02*
X90775000Y-116256250I0J218750D01*
G01*
G37*
G04 #@! TD.AperFunction*
G04 #@! TA.AperFunction,SMDPad,CuDef*
G36*
G01*
X90775000Y-112256250D02*
X90775000Y-111743750D01*
G75*
G02*
X90993750Y-111525000I218750J0D01*
G01*
X91431250Y-111525000D01*
G75*
G02*
X91650000Y-111743750I0J-218750D01*
G01*
X91650000Y-112256250D01*
G75*
G02*
X91431250Y-112475000I-218750J0D01*
G01*
X90993750Y-112475000D01*
G75*
G02*
X90775000Y-112256250I0J218750D01*
G01*
G37*
G04 #@! TD.AperFunction*
G04 #@! TA.AperFunction,SMDPad,CuDef*
G36*
G01*
X92350000Y-112256250D02*
X92350000Y-111743750D01*
G75*
G02*
X92568750Y-111525000I218750J0D01*
G01*
X93006250Y-111525000D01*
G75*
G02*
X93225000Y-111743750I0J-218750D01*
G01*
X93225000Y-112256250D01*
G75*
G02*
X93006250Y-112475000I-218750J0D01*
G01*
X92568750Y-112475000D01*
G75*
G02*
X92350000Y-112256250I0J218750D01*
G01*
G37*
G04 #@! TD.AperFunction*
G04 #@! TA.AperFunction,SMDPad,CuDef*
G36*
G01*
X86775000Y-140256250D02*
X86775000Y-139743750D01*
G75*
G02*
X86993750Y-139525000I218750J0D01*
G01*
X87431250Y-139525000D01*
G75*
G02*
X87650000Y-139743750I0J-218750D01*
G01*
X87650000Y-140256250D01*
G75*
G02*
X87431250Y-140475000I-218750J0D01*
G01*
X86993750Y-140475000D01*
G75*
G02*
X86775000Y-140256250I0J218750D01*
G01*
G37*
G04 #@! TD.AperFunction*
G04 #@! TA.AperFunction,SMDPad,CuDef*
G36*
G01*
X88350000Y-140256250D02*
X88350000Y-139743750D01*
G75*
G02*
X88568750Y-139525000I218750J0D01*
G01*
X89006250Y-139525000D01*
G75*
G02*
X89225000Y-139743750I0J-218750D01*
G01*
X89225000Y-140256250D01*
G75*
G02*
X89006250Y-140475000I-218750J0D01*
G01*
X88568750Y-140475000D01*
G75*
G02*
X88350000Y-140256250I0J218750D01*
G01*
G37*
G04 #@! TD.AperFunction*
G04 #@! TA.AperFunction,SMDPad,CuDef*
G36*
G01*
X86775000Y-136256250D02*
X86775000Y-135743750D01*
G75*
G02*
X86993750Y-135525000I218750J0D01*
G01*
X87431250Y-135525000D01*
G75*
G02*
X87650000Y-135743750I0J-218750D01*
G01*
X87650000Y-136256250D01*
G75*
G02*
X87431250Y-136475000I-218750J0D01*
G01*
X86993750Y-136475000D01*
G75*
G02*
X86775000Y-136256250I0J218750D01*
G01*
G37*
G04 #@! TD.AperFunction*
G04 #@! TA.AperFunction,SMDPad,CuDef*
G36*
G01*
X88350000Y-136256250D02*
X88350000Y-135743750D01*
G75*
G02*
X88568750Y-135525000I218750J0D01*
G01*
X89006250Y-135525000D01*
G75*
G02*
X89225000Y-135743750I0J-218750D01*
G01*
X89225000Y-136256250D01*
G75*
G02*
X89006250Y-136475000I-218750J0D01*
G01*
X88568750Y-136475000D01*
G75*
G02*
X88350000Y-136256250I0J218750D01*
G01*
G37*
G04 #@! TD.AperFunction*
G04 #@! TA.AperFunction,SMDPad,CuDef*
G36*
G01*
X86775000Y-132256250D02*
X86775000Y-131743750D01*
G75*
G02*
X86993750Y-131525000I218750J0D01*
G01*
X87431250Y-131525000D01*
G75*
G02*
X87650000Y-131743750I0J-218750D01*
G01*
X87650000Y-132256250D01*
G75*
G02*
X87431250Y-132475000I-218750J0D01*
G01*
X86993750Y-132475000D01*
G75*
G02*
X86775000Y-132256250I0J218750D01*
G01*
G37*
G04 #@! TD.AperFunction*
G04 #@! TA.AperFunction,SMDPad,CuDef*
G36*
G01*
X88350000Y-132256250D02*
X88350000Y-131743750D01*
G75*
G02*
X88568750Y-131525000I218750J0D01*
G01*
X89006250Y-131525000D01*
G75*
G02*
X89225000Y-131743750I0J-218750D01*
G01*
X89225000Y-132256250D01*
G75*
G02*
X89006250Y-132475000I-218750J0D01*
G01*
X88568750Y-132475000D01*
G75*
G02*
X88350000Y-132256250I0J218750D01*
G01*
G37*
G04 #@! TD.AperFunction*
G04 #@! TA.AperFunction,SMDPad,CuDef*
G36*
G01*
X86775000Y-128256250D02*
X86775000Y-127743750D01*
G75*
G02*
X86993750Y-127525000I218750J0D01*
G01*
X87431250Y-127525000D01*
G75*
G02*
X87650000Y-127743750I0J-218750D01*
G01*
X87650000Y-128256250D01*
G75*
G02*
X87431250Y-128475000I-218750J0D01*
G01*
X86993750Y-128475000D01*
G75*
G02*
X86775000Y-128256250I0J218750D01*
G01*
G37*
G04 #@! TD.AperFunction*
G04 #@! TA.AperFunction,SMDPad,CuDef*
G36*
G01*
X88350000Y-128256250D02*
X88350000Y-127743750D01*
G75*
G02*
X88568750Y-127525000I218750J0D01*
G01*
X89006250Y-127525000D01*
G75*
G02*
X89225000Y-127743750I0J-218750D01*
G01*
X89225000Y-128256250D01*
G75*
G02*
X89006250Y-128475000I-218750J0D01*
G01*
X88568750Y-128475000D01*
G75*
G02*
X88350000Y-128256250I0J218750D01*
G01*
G37*
G04 #@! TD.AperFunction*
G04 #@! TA.AperFunction,SMDPad,CuDef*
G36*
G01*
X86775000Y-124256250D02*
X86775000Y-123743750D01*
G75*
G02*
X86993750Y-123525000I218750J0D01*
G01*
X87431250Y-123525000D01*
G75*
G02*
X87650000Y-123743750I0J-218750D01*
G01*
X87650000Y-124256250D01*
G75*
G02*
X87431250Y-124475000I-218750J0D01*
G01*
X86993750Y-124475000D01*
G75*
G02*
X86775000Y-124256250I0J218750D01*
G01*
G37*
G04 #@! TD.AperFunction*
G04 #@! TA.AperFunction,SMDPad,CuDef*
G36*
G01*
X88350000Y-124256250D02*
X88350000Y-123743750D01*
G75*
G02*
X88568750Y-123525000I218750J0D01*
G01*
X89006250Y-123525000D01*
G75*
G02*
X89225000Y-123743750I0J-218750D01*
G01*
X89225000Y-124256250D01*
G75*
G02*
X89006250Y-124475000I-218750J0D01*
G01*
X88568750Y-124475000D01*
G75*
G02*
X88350000Y-124256250I0J218750D01*
G01*
G37*
G04 #@! TD.AperFunction*
G04 #@! TA.AperFunction,SMDPad,CuDef*
G36*
G01*
X86775000Y-120256250D02*
X86775000Y-119743750D01*
G75*
G02*
X86993750Y-119525000I218750J0D01*
G01*
X87431250Y-119525000D01*
G75*
G02*
X87650000Y-119743750I0J-218750D01*
G01*
X87650000Y-120256250D01*
G75*
G02*
X87431250Y-120475000I-218750J0D01*
G01*
X86993750Y-120475000D01*
G75*
G02*
X86775000Y-120256250I0J218750D01*
G01*
G37*
G04 #@! TD.AperFunction*
G04 #@! TA.AperFunction,SMDPad,CuDef*
G36*
G01*
X88350000Y-120256250D02*
X88350000Y-119743750D01*
G75*
G02*
X88568750Y-119525000I218750J0D01*
G01*
X89006250Y-119525000D01*
G75*
G02*
X89225000Y-119743750I0J-218750D01*
G01*
X89225000Y-120256250D01*
G75*
G02*
X89006250Y-120475000I-218750J0D01*
G01*
X88568750Y-120475000D01*
G75*
G02*
X88350000Y-120256250I0J218750D01*
G01*
G37*
G04 #@! TD.AperFunction*
G04 #@! TA.AperFunction,SMDPad,CuDef*
G36*
G01*
X88350000Y-116256250D02*
X88350000Y-115743750D01*
G75*
G02*
X88568750Y-115525000I218750J0D01*
G01*
X89006250Y-115525000D01*
G75*
G02*
X89225000Y-115743750I0J-218750D01*
G01*
X89225000Y-116256250D01*
G75*
G02*
X89006250Y-116475000I-218750J0D01*
G01*
X88568750Y-116475000D01*
G75*
G02*
X88350000Y-116256250I0J218750D01*
G01*
G37*
G04 #@! TD.AperFunction*
G04 #@! TA.AperFunction,SMDPad,CuDef*
G36*
G01*
X86775000Y-116256250D02*
X86775000Y-115743750D01*
G75*
G02*
X86993750Y-115525000I218750J0D01*
G01*
X87431250Y-115525000D01*
G75*
G02*
X87650000Y-115743750I0J-218750D01*
G01*
X87650000Y-116256250D01*
G75*
G02*
X87431250Y-116475000I-218750J0D01*
G01*
X86993750Y-116475000D01*
G75*
G02*
X86775000Y-116256250I0J218750D01*
G01*
G37*
G04 #@! TD.AperFunction*
G04 #@! TA.AperFunction,SMDPad,CuDef*
G36*
G01*
X86775000Y-112256250D02*
X86775000Y-111743750D01*
G75*
G02*
X86993750Y-111525000I218750J0D01*
G01*
X87431250Y-111525000D01*
G75*
G02*
X87650000Y-111743750I0J-218750D01*
G01*
X87650000Y-112256250D01*
G75*
G02*
X87431250Y-112475000I-218750J0D01*
G01*
X86993750Y-112475000D01*
G75*
G02*
X86775000Y-112256250I0J218750D01*
G01*
G37*
G04 #@! TD.AperFunction*
G04 #@! TA.AperFunction,SMDPad,CuDef*
G36*
G01*
X88350000Y-112256250D02*
X88350000Y-111743750D01*
G75*
G02*
X88568750Y-111525000I218750J0D01*
G01*
X89006250Y-111525000D01*
G75*
G02*
X89225000Y-111743750I0J-218750D01*
G01*
X89225000Y-112256250D01*
G75*
G02*
X89006250Y-112475000I-218750J0D01*
G01*
X88568750Y-112475000D01*
G75*
G02*
X88350000Y-112256250I0J218750D01*
G01*
G37*
G04 #@! TD.AperFunction*
G04 #@! TA.AperFunction,SMDPad,CuDef*
G36*
G01*
X82775000Y-140256250D02*
X82775000Y-139743750D01*
G75*
G02*
X82993750Y-139525000I218750J0D01*
G01*
X83431250Y-139525000D01*
G75*
G02*
X83650000Y-139743750I0J-218750D01*
G01*
X83650000Y-140256250D01*
G75*
G02*
X83431250Y-140475000I-218750J0D01*
G01*
X82993750Y-140475000D01*
G75*
G02*
X82775000Y-140256250I0J218750D01*
G01*
G37*
G04 #@! TD.AperFunction*
G04 #@! TA.AperFunction,SMDPad,CuDef*
G36*
G01*
X84350000Y-140256250D02*
X84350000Y-139743750D01*
G75*
G02*
X84568750Y-139525000I218750J0D01*
G01*
X85006250Y-139525000D01*
G75*
G02*
X85225000Y-139743750I0J-218750D01*
G01*
X85225000Y-140256250D01*
G75*
G02*
X85006250Y-140475000I-218750J0D01*
G01*
X84568750Y-140475000D01*
G75*
G02*
X84350000Y-140256250I0J218750D01*
G01*
G37*
G04 #@! TD.AperFunction*
G04 #@! TA.AperFunction,SMDPad,CuDef*
G36*
G01*
X82775000Y-136256250D02*
X82775000Y-135743750D01*
G75*
G02*
X82993750Y-135525000I218750J0D01*
G01*
X83431250Y-135525000D01*
G75*
G02*
X83650000Y-135743750I0J-218750D01*
G01*
X83650000Y-136256250D01*
G75*
G02*
X83431250Y-136475000I-218750J0D01*
G01*
X82993750Y-136475000D01*
G75*
G02*
X82775000Y-136256250I0J218750D01*
G01*
G37*
G04 #@! TD.AperFunction*
G04 #@! TA.AperFunction,SMDPad,CuDef*
G36*
G01*
X84350000Y-136256250D02*
X84350000Y-135743750D01*
G75*
G02*
X84568750Y-135525000I218750J0D01*
G01*
X85006250Y-135525000D01*
G75*
G02*
X85225000Y-135743750I0J-218750D01*
G01*
X85225000Y-136256250D01*
G75*
G02*
X85006250Y-136475000I-218750J0D01*
G01*
X84568750Y-136475000D01*
G75*
G02*
X84350000Y-136256250I0J218750D01*
G01*
G37*
G04 #@! TD.AperFunction*
G04 #@! TA.AperFunction,SMDPad,CuDef*
G36*
G01*
X82775000Y-132256250D02*
X82775000Y-131743750D01*
G75*
G02*
X82993750Y-131525000I218750J0D01*
G01*
X83431250Y-131525000D01*
G75*
G02*
X83650000Y-131743750I0J-218750D01*
G01*
X83650000Y-132256250D01*
G75*
G02*
X83431250Y-132475000I-218750J0D01*
G01*
X82993750Y-132475000D01*
G75*
G02*
X82775000Y-132256250I0J218750D01*
G01*
G37*
G04 #@! TD.AperFunction*
G04 #@! TA.AperFunction,SMDPad,CuDef*
G36*
G01*
X84350000Y-132256250D02*
X84350000Y-131743750D01*
G75*
G02*
X84568750Y-131525000I218750J0D01*
G01*
X85006250Y-131525000D01*
G75*
G02*
X85225000Y-131743750I0J-218750D01*
G01*
X85225000Y-132256250D01*
G75*
G02*
X85006250Y-132475000I-218750J0D01*
G01*
X84568750Y-132475000D01*
G75*
G02*
X84350000Y-132256250I0J218750D01*
G01*
G37*
G04 #@! TD.AperFunction*
G04 #@! TA.AperFunction,SMDPad,CuDef*
G36*
G01*
X82775000Y-128256250D02*
X82775000Y-127743750D01*
G75*
G02*
X82993750Y-127525000I218750J0D01*
G01*
X83431250Y-127525000D01*
G75*
G02*
X83650000Y-127743750I0J-218750D01*
G01*
X83650000Y-128256250D01*
G75*
G02*
X83431250Y-128475000I-218750J0D01*
G01*
X82993750Y-128475000D01*
G75*
G02*
X82775000Y-128256250I0J218750D01*
G01*
G37*
G04 #@! TD.AperFunction*
G04 #@! TA.AperFunction,SMDPad,CuDef*
G36*
G01*
X84350000Y-128256250D02*
X84350000Y-127743750D01*
G75*
G02*
X84568750Y-127525000I218750J0D01*
G01*
X85006250Y-127525000D01*
G75*
G02*
X85225000Y-127743750I0J-218750D01*
G01*
X85225000Y-128256250D01*
G75*
G02*
X85006250Y-128475000I-218750J0D01*
G01*
X84568750Y-128475000D01*
G75*
G02*
X84350000Y-128256250I0J218750D01*
G01*
G37*
G04 #@! TD.AperFunction*
G04 #@! TA.AperFunction,SMDPad,CuDef*
G36*
G01*
X82775000Y-124256250D02*
X82775000Y-123743750D01*
G75*
G02*
X82993750Y-123525000I218750J0D01*
G01*
X83431250Y-123525000D01*
G75*
G02*
X83650000Y-123743750I0J-218750D01*
G01*
X83650000Y-124256250D01*
G75*
G02*
X83431250Y-124475000I-218750J0D01*
G01*
X82993750Y-124475000D01*
G75*
G02*
X82775000Y-124256250I0J218750D01*
G01*
G37*
G04 #@! TD.AperFunction*
G04 #@! TA.AperFunction,SMDPad,CuDef*
G36*
G01*
X84350000Y-124256250D02*
X84350000Y-123743750D01*
G75*
G02*
X84568750Y-123525000I218750J0D01*
G01*
X85006250Y-123525000D01*
G75*
G02*
X85225000Y-123743750I0J-218750D01*
G01*
X85225000Y-124256250D01*
G75*
G02*
X85006250Y-124475000I-218750J0D01*
G01*
X84568750Y-124475000D01*
G75*
G02*
X84350000Y-124256250I0J218750D01*
G01*
G37*
G04 #@! TD.AperFunction*
G04 #@! TA.AperFunction,SMDPad,CuDef*
G36*
G01*
X82775000Y-120256250D02*
X82775000Y-119743750D01*
G75*
G02*
X82993750Y-119525000I218750J0D01*
G01*
X83431250Y-119525000D01*
G75*
G02*
X83650000Y-119743750I0J-218750D01*
G01*
X83650000Y-120256250D01*
G75*
G02*
X83431250Y-120475000I-218750J0D01*
G01*
X82993750Y-120475000D01*
G75*
G02*
X82775000Y-120256250I0J218750D01*
G01*
G37*
G04 #@! TD.AperFunction*
G04 #@! TA.AperFunction,SMDPad,CuDef*
G36*
G01*
X84350000Y-120256250D02*
X84350000Y-119743750D01*
G75*
G02*
X84568750Y-119525000I218750J0D01*
G01*
X85006250Y-119525000D01*
G75*
G02*
X85225000Y-119743750I0J-218750D01*
G01*
X85225000Y-120256250D01*
G75*
G02*
X85006250Y-120475000I-218750J0D01*
G01*
X84568750Y-120475000D01*
G75*
G02*
X84350000Y-120256250I0J218750D01*
G01*
G37*
G04 #@! TD.AperFunction*
G04 #@! TA.AperFunction,SMDPad,CuDef*
G36*
G01*
X84350000Y-116256250D02*
X84350000Y-115743750D01*
G75*
G02*
X84568750Y-115525000I218750J0D01*
G01*
X85006250Y-115525000D01*
G75*
G02*
X85225000Y-115743750I0J-218750D01*
G01*
X85225000Y-116256250D01*
G75*
G02*
X85006250Y-116475000I-218750J0D01*
G01*
X84568750Y-116475000D01*
G75*
G02*
X84350000Y-116256250I0J218750D01*
G01*
G37*
G04 #@! TD.AperFunction*
G04 #@! TA.AperFunction,SMDPad,CuDef*
G36*
G01*
X82775000Y-116256250D02*
X82775000Y-115743750D01*
G75*
G02*
X82993750Y-115525000I218750J0D01*
G01*
X83431250Y-115525000D01*
G75*
G02*
X83650000Y-115743750I0J-218750D01*
G01*
X83650000Y-116256250D01*
G75*
G02*
X83431250Y-116475000I-218750J0D01*
G01*
X82993750Y-116475000D01*
G75*
G02*
X82775000Y-116256250I0J218750D01*
G01*
G37*
G04 #@! TD.AperFunction*
G04 #@! TA.AperFunction,SMDPad,CuDef*
G36*
G01*
X82775000Y-112256250D02*
X82775000Y-111743750D01*
G75*
G02*
X82993750Y-111525000I218750J0D01*
G01*
X83431250Y-111525000D01*
G75*
G02*
X83650000Y-111743750I0J-218750D01*
G01*
X83650000Y-112256250D01*
G75*
G02*
X83431250Y-112475000I-218750J0D01*
G01*
X82993750Y-112475000D01*
G75*
G02*
X82775000Y-112256250I0J218750D01*
G01*
G37*
G04 #@! TD.AperFunction*
G04 #@! TA.AperFunction,SMDPad,CuDef*
G36*
G01*
X84350000Y-112256250D02*
X84350000Y-111743750D01*
G75*
G02*
X84568750Y-111525000I218750J0D01*
G01*
X85006250Y-111525000D01*
G75*
G02*
X85225000Y-111743750I0J-218750D01*
G01*
X85225000Y-112256250D01*
G75*
G02*
X85006250Y-112475000I-218750J0D01*
G01*
X84568750Y-112475000D01*
G75*
G02*
X84350000Y-112256250I0J218750D01*
G01*
G37*
G04 #@! TD.AperFunction*
G04 #@! TA.AperFunction,SMDPad,CuDef*
G36*
G01*
X78775000Y-140256250D02*
X78775000Y-139743750D01*
G75*
G02*
X78993750Y-139525000I218750J0D01*
G01*
X79431250Y-139525000D01*
G75*
G02*
X79650000Y-139743750I0J-218750D01*
G01*
X79650000Y-140256250D01*
G75*
G02*
X79431250Y-140475000I-218750J0D01*
G01*
X78993750Y-140475000D01*
G75*
G02*
X78775000Y-140256250I0J218750D01*
G01*
G37*
G04 #@! TD.AperFunction*
G04 #@! TA.AperFunction,SMDPad,CuDef*
G36*
G01*
X80350000Y-140256250D02*
X80350000Y-139743750D01*
G75*
G02*
X80568750Y-139525000I218750J0D01*
G01*
X81006250Y-139525000D01*
G75*
G02*
X81225000Y-139743750I0J-218750D01*
G01*
X81225000Y-140256250D01*
G75*
G02*
X81006250Y-140475000I-218750J0D01*
G01*
X80568750Y-140475000D01*
G75*
G02*
X80350000Y-140256250I0J218750D01*
G01*
G37*
G04 #@! TD.AperFunction*
G04 #@! TA.AperFunction,SMDPad,CuDef*
G36*
G01*
X78775000Y-136256250D02*
X78775000Y-135743750D01*
G75*
G02*
X78993750Y-135525000I218750J0D01*
G01*
X79431250Y-135525000D01*
G75*
G02*
X79650000Y-135743750I0J-218750D01*
G01*
X79650000Y-136256250D01*
G75*
G02*
X79431250Y-136475000I-218750J0D01*
G01*
X78993750Y-136475000D01*
G75*
G02*
X78775000Y-136256250I0J218750D01*
G01*
G37*
G04 #@! TD.AperFunction*
G04 #@! TA.AperFunction,SMDPad,CuDef*
G36*
G01*
X80350000Y-136256250D02*
X80350000Y-135743750D01*
G75*
G02*
X80568750Y-135525000I218750J0D01*
G01*
X81006250Y-135525000D01*
G75*
G02*
X81225000Y-135743750I0J-218750D01*
G01*
X81225000Y-136256250D01*
G75*
G02*
X81006250Y-136475000I-218750J0D01*
G01*
X80568750Y-136475000D01*
G75*
G02*
X80350000Y-136256250I0J218750D01*
G01*
G37*
G04 #@! TD.AperFunction*
G04 #@! TA.AperFunction,SMDPad,CuDef*
G36*
G01*
X78775000Y-132256250D02*
X78775000Y-131743750D01*
G75*
G02*
X78993750Y-131525000I218750J0D01*
G01*
X79431250Y-131525000D01*
G75*
G02*
X79650000Y-131743750I0J-218750D01*
G01*
X79650000Y-132256250D01*
G75*
G02*
X79431250Y-132475000I-218750J0D01*
G01*
X78993750Y-132475000D01*
G75*
G02*
X78775000Y-132256250I0J218750D01*
G01*
G37*
G04 #@! TD.AperFunction*
G04 #@! TA.AperFunction,SMDPad,CuDef*
G36*
G01*
X80350000Y-132256250D02*
X80350000Y-131743750D01*
G75*
G02*
X80568750Y-131525000I218750J0D01*
G01*
X81006250Y-131525000D01*
G75*
G02*
X81225000Y-131743750I0J-218750D01*
G01*
X81225000Y-132256250D01*
G75*
G02*
X81006250Y-132475000I-218750J0D01*
G01*
X80568750Y-132475000D01*
G75*
G02*
X80350000Y-132256250I0J218750D01*
G01*
G37*
G04 #@! TD.AperFunction*
G04 #@! TA.AperFunction,SMDPad,CuDef*
G36*
G01*
X78775000Y-128256250D02*
X78775000Y-127743750D01*
G75*
G02*
X78993750Y-127525000I218750J0D01*
G01*
X79431250Y-127525000D01*
G75*
G02*
X79650000Y-127743750I0J-218750D01*
G01*
X79650000Y-128256250D01*
G75*
G02*
X79431250Y-128475000I-218750J0D01*
G01*
X78993750Y-128475000D01*
G75*
G02*
X78775000Y-128256250I0J218750D01*
G01*
G37*
G04 #@! TD.AperFunction*
G04 #@! TA.AperFunction,SMDPad,CuDef*
G36*
G01*
X80350000Y-128256250D02*
X80350000Y-127743750D01*
G75*
G02*
X80568750Y-127525000I218750J0D01*
G01*
X81006250Y-127525000D01*
G75*
G02*
X81225000Y-127743750I0J-218750D01*
G01*
X81225000Y-128256250D01*
G75*
G02*
X81006250Y-128475000I-218750J0D01*
G01*
X80568750Y-128475000D01*
G75*
G02*
X80350000Y-128256250I0J218750D01*
G01*
G37*
G04 #@! TD.AperFunction*
G04 #@! TA.AperFunction,SMDPad,CuDef*
G36*
G01*
X78775000Y-124256250D02*
X78775000Y-123743750D01*
G75*
G02*
X78993750Y-123525000I218750J0D01*
G01*
X79431250Y-123525000D01*
G75*
G02*
X79650000Y-123743750I0J-218750D01*
G01*
X79650000Y-124256250D01*
G75*
G02*
X79431250Y-124475000I-218750J0D01*
G01*
X78993750Y-124475000D01*
G75*
G02*
X78775000Y-124256250I0J218750D01*
G01*
G37*
G04 #@! TD.AperFunction*
G04 #@! TA.AperFunction,SMDPad,CuDef*
G36*
G01*
X80350000Y-124256250D02*
X80350000Y-123743750D01*
G75*
G02*
X80568750Y-123525000I218750J0D01*
G01*
X81006250Y-123525000D01*
G75*
G02*
X81225000Y-123743750I0J-218750D01*
G01*
X81225000Y-124256250D01*
G75*
G02*
X81006250Y-124475000I-218750J0D01*
G01*
X80568750Y-124475000D01*
G75*
G02*
X80350000Y-124256250I0J218750D01*
G01*
G37*
G04 #@! TD.AperFunction*
G04 #@! TA.AperFunction,SMDPad,CuDef*
G36*
G01*
X78775000Y-120256250D02*
X78775000Y-119743750D01*
G75*
G02*
X78993750Y-119525000I218750J0D01*
G01*
X79431250Y-119525000D01*
G75*
G02*
X79650000Y-119743750I0J-218750D01*
G01*
X79650000Y-120256250D01*
G75*
G02*
X79431250Y-120475000I-218750J0D01*
G01*
X78993750Y-120475000D01*
G75*
G02*
X78775000Y-120256250I0J218750D01*
G01*
G37*
G04 #@! TD.AperFunction*
G04 #@! TA.AperFunction,SMDPad,CuDef*
G36*
G01*
X80350000Y-120256250D02*
X80350000Y-119743750D01*
G75*
G02*
X80568750Y-119525000I218750J0D01*
G01*
X81006250Y-119525000D01*
G75*
G02*
X81225000Y-119743750I0J-218750D01*
G01*
X81225000Y-120256250D01*
G75*
G02*
X81006250Y-120475000I-218750J0D01*
G01*
X80568750Y-120475000D01*
G75*
G02*
X80350000Y-120256250I0J218750D01*
G01*
G37*
G04 #@! TD.AperFunction*
G04 #@! TA.AperFunction,SMDPad,CuDef*
G36*
G01*
X80350000Y-116256250D02*
X80350000Y-115743750D01*
G75*
G02*
X80568750Y-115525000I218750J0D01*
G01*
X81006250Y-115525000D01*
G75*
G02*
X81225000Y-115743750I0J-218750D01*
G01*
X81225000Y-116256250D01*
G75*
G02*
X81006250Y-116475000I-218750J0D01*
G01*
X80568750Y-116475000D01*
G75*
G02*
X80350000Y-116256250I0J218750D01*
G01*
G37*
G04 #@! TD.AperFunction*
G04 #@! TA.AperFunction,SMDPad,CuDef*
G36*
G01*
X78775000Y-116256250D02*
X78775000Y-115743750D01*
G75*
G02*
X78993750Y-115525000I218750J0D01*
G01*
X79431250Y-115525000D01*
G75*
G02*
X79650000Y-115743750I0J-218750D01*
G01*
X79650000Y-116256250D01*
G75*
G02*
X79431250Y-116475000I-218750J0D01*
G01*
X78993750Y-116475000D01*
G75*
G02*
X78775000Y-116256250I0J218750D01*
G01*
G37*
G04 #@! TD.AperFunction*
G04 #@! TA.AperFunction,SMDPad,CuDef*
G36*
G01*
X78775000Y-112256250D02*
X78775000Y-111743750D01*
G75*
G02*
X78993750Y-111525000I218750J0D01*
G01*
X79431250Y-111525000D01*
G75*
G02*
X79650000Y-111743750I0J-218750D01*
G01*
X79650000Y-112256250D01*
G75*
G02*
X79431250Y-112475000I-218750J0D01*
G01*
X78993750Y-112475000D01*
G75*
G02*
X78775000Y-112256250I0J218750D01*
G01*
G37*
G04 #@! TD.AperFunction*
G04 #@! TA.AperFunction,SMDPad,CuDef*
G36*
G01*
X80350000Y-112256250D02*
X80350000Y-111743750D01*
G75*
G02*
X80568750Y-111525000I218750J0D01*
G01*
X81006250Y-111525000D01*
G75*
G02*
X81225000Y-111743750I0J-218750D01*
G01*
X81225000Y-112256250D01*
G75*
G02*
X81006250Y-112475000I-218750J0D01*
G01*
X80568750Y-112475000D01*
G75*
G02*
X80350000Y-112256250I0J218750D01*
G01*
G37*
G04 #@! TD.AperFunction*
G04 #@! TA.AperFunction,SMDPad,CuDef*
G36*
G01*
X74775000Y-140256250D02*
X74775000Y-139743750D01*
G75*
G02*
X74993750Y-139525000I218750J0D01*
G01*
X75431250Y-139525000D01*
G75*
G02*
X75650000Y-139743750I0J-218750D01*
G01*
X75650000Y-140256250D01*
G75*
G02*
X75431250Y-140475000I-218750J0D01*
G01*
X74993750Y-140475000D01*
G75*
G02*
X74775000Y-140256250I0J218750D01*
G01*
G37*
G04 #@! TD.AperFunction*
G04 #@! TA.AperFunction,SMDPad,CuDef*
G36*
G01*
X76350000Y-140256250D02*
X76350000Y-139743750D01*
G75*
G02*
X76568750Y-139525000I218750J0D01*
G01*
X77006250Y-139525000D01*
G75*
G02*
X77225000Y-139743750I0J-218750D01*
G01*
X77225000Y-140256250D01*
G75*
G02*
X77006250Y-140475000I-218750J0D01*
G01*
X76568750Y-140475000D01*
G75*
G02*
X76350000Y-140256250I0J218750D01*
G01*
G37*
G04 #@! TD.AperFunction*
G04 #@! TA.AperFunction,SMDPad,CuDef*
G36*
G01*
X74775000Y-136256250D02*
X74775000Y-135743750D01*
G75*
G02*
X74993750Y-135525000I218750J0D01*
G01*
X75431250Y-135525000D01*
G75*
G02*
X75650000Y-135743750I0J-218750D01*
G01*
X75650000Y-136256250D01*
G75*
G02*
X75431250Y-136475000I-218750J0D01*
G01*
X74993750Y-136475000D01*
G75*
G02*
X74775000Y-136256250I0J218750D01*
G01*
G37*
G04 #@! TD.AperFunction*
G04 #@! TA.AperFunction,SMDPad,CuDef*
G36*
G01*
X76350000Y-136256250D02*
X76350000Y-135743750D01*
G75*
G02*
X76568750Y-135525000I218750J0D01*
G01*
X77006250Y-135525000D01*
G75*
G02*
X77225000Y-135743750I0J-218750D01*
G01*
X77225000Y-136256250D01*
G75*
G02*
X77006250Y-136475000I-218750J0D01*
G01*
X76568750Y-136475000D01*
G75*
G02*
X76350000Y-136256250I0J218750D01*
G01*
G37*
G04 #@! TD.AperFunction*
G04 #@! TA.AperFunction,SMDPad,CuDef*
G36*
G01*
X74775000Y-132256250D02*
X74775000Y-131743750D01*
G75*
G02*
X74993750Y-131525000I218750J0D01*
G01*
X75431250Y-131525000D01*
G75*
G02*
X75650000Y-131743750I0J-218750D01*
G01*
X75650000Y-132256250D01*
G75*
G02*
X75431250Y-132475000I-218750J0D01*
G01*
X74993750Y-132475000D01*
G75*
G02*
X74775000Y-132256250I0J218750D01*
G01*
G37*
G04 #@! TD.AperFunction*
G04 #@! TA.AperFunction,SMDPad,CuDef*
G36*
G01*
X76350000Y-132256250D02*
X76350000Y-131743750D01*
G75*
G02*
X76568750Y-131525000I218750J0D01*
G01*
X77006250Y-131525000D01*
G75*
G02*
X77225000Y-131743750I0J-218750D01*
G01*
X77225000Y-132256250D01*
G75*
G02*
X77006250Y-132475000I-218750J0D01*
G01*
X76568750Y-132475000D01*
G75*
G02*
X76350000Y-132256250I0J218750D01*
G01*
G37*
G04 #@! TD.AperFunction*
G04 #@! TA.AperFunction,SMDPad,CuDef*
G36*
G01*
X74775000Y-128256250D02*
X74775000Y-127743750D01*
G75*
G02*
X74993750Y-127525000I218750J0D01*
G01*
X75431250Y-127525000D01*
G75*
G02*
X75650000Y-127743750I0J-218750D01*
G01*
X75650000Y-128256250D01*
G75*
G02*
X75431250Y-128475000I-218750J0D01*
G01*
X74993750Y-128475000D01*
G75*
G02*
X74775000Y-128256250I0J218750D01*
G01*
G37*
G04 #@! TD.AperFunction*
G04 #@! TA.AperFunction,SMDPad,CuDef*
G36*
G01*
X76350000Y-128256250D02*
X76350000Y-127743750D01*
G75*
G02*
X76568750Y-127525000I218750J0D01*
G01*
X77006250Y-127525000D01*
G75*
G02*
X77225000Y-127743750I0J-218750D01*
G01*
X77225000Y-128256250D01*
G75*
G02*
X77006250Y-128475000I-218750J0D01*
G01*
X76568750Y-128475000D01*
G75*
G02*
X76350000Y-128256250I0J218750D01*
G01*
G37*
G04 #@! TD.AperFunction*
G04 #@! TA.AperFunction,SMDPad,CuDef*
G36*
G01*
X74775000Y-124256250D02*
X74775000Y-123743750D01*
G75*
G02*
X74993750Y-123525000I218750J0D01*
G01*
X75431250Y-123525000D01*
G75*
G02*
X75650000Y-123743750I0J-218750D01*
G01*
X75650000Y-124256250D01*
G75*
G02*
X75431250Y-124475000I-218750J0D01*
G01*
X74993750Y-124475000D01*
G75*
G02*
X74775000Y-124256250I0J218750D01*
G01*
G37*
G04 #@! TD.AperFunction*
G04 #@! TA.AperFunction,SMDPad,CuDef*
G36*
G01*
X76350000Y-124256250D02*
X76350000Y-123743750D01*
G75*
G02*
X76568750Y-123525000I218750J0D01*
G01*
X77006250Y-123525000D01*
G75*
G02*
X77225000Y-123743750I0J-218750D01*
G01*
X77225000Y-124256250D01*
G75*
G02*
X77006250Y-124475000I-218750J0D01*
G01*
X76568750Y-124475000D01*
G75*
G02*
X76350000Y-124256250I0J218750D01*
G01*
G37*
G04 #@! TD.AperFunction*
G04 #@! TA.AperFunction,SMDPad,CuDef*
G36*
G01*
X74775000Y-120256250D02*
X74775000Y-119743750D01*
G75*
G02*
X74993750Y-119525000I218750J0D01*
G01*
X75431250Y-119525000D01*
G75*
G02*
X75650000Y-119743750I0J-218750D01*
G01*
X75650000Y-120256250D01*
G75*
G02*
X75431250Y-120475000I-218750J0D01*
G01*
X74993750Y-120475000D01*
G75*
G02*
X74775000Y-120256250I0J218750D01*
G01*
G37*
G04 #@! TD.AperFunction*
G04 #@! TA.AperFunction,SMDPad,CuDef*
G36*
G01*
X76350000Y-120256250D02*
X76350000Y-119743750D01*
G75*
G02*
X76568750Y-119525000I218750J0D01*
G01*
X77006250Y-119525000D01*
G75*
G02*
X77225000Y-119743750I0J-218750D01*
G01*
X77225000Y-120256250D01*
G75*
G02*
X77006250Y-120475000I-218750J0D01*
G01*
X76568750Y-120475000D01*
G75*
G02*
X76350000Y-120256250I0J218750D01*
G01*
G37*
G04 #@! TD.AperFunction*
G04 #@! TA.AperFunction,SMDPad,CuDef*
G36*
G01*
X74775000Y-116256250D02*
X74775000Y-115743750D01*
G75*
G02*
X74993750Y-115525000I218750J0D01*
G01*
X75431250Y-115525000D01*
G75*
G02*
X75650000Y-115743750I0J-218750D01*
G01*
X75650000Y-116256250D01*
G75*
G02*
X75431250Y-116475000I-218750J0D01*
G01*
X74993750Y-116475000D01*
G75*
G02*
X74775000Y-116256250I0J218750D01*
G01*
G37*
G04 #@! TD.AperFunction*
G04 #@! TA.AperFunction,SMDPad,CuDef*
G36*
G01*
X76350000Y-116256250D02*
X76350000Y-115743750D01*
G75*
G02*
X76568750Y-115525000I218750J0D01*
G01*
X77006250Y-115525000D01*
G75*
G02*
X77225000Y-115743750I0J-218750D01*
G01*
X77225000Y-116256250D01*
G75*
G02*
X77006250Y-116475000I-218750J0D01*
G01*
X76568750Y-116475000D01*
G75*
G02*
X76350000Y-116256250I0J218750D01*
G01*
G37*
G04 #@! TD.AperFunction*
G04 #@! TA.AperFunction,SMDPad,CuDef*
G36*
G01*
X74775000Y-112256250D02*
X74775000Y-111743750D01*
G75*
G02*
X74993750Y-111525000I218750J0D01*
G01*
X75431250Y-111525000D01*
G75*
G02*
X75650000Y-111743750I0J-218750D01*
G01*
X75650000Y-112256250D01*
G75*
G02*
X75431250Y-112475000I-218750J0D01*
G01*
X74993750Y-112475000D01*
G75*
G02*
X74775000Y-112256250I0J218750D01*
G01*
G37*
G04 #@! TD.AperFunction*
G04 #@! TA.AperFunction,SMDPad,CuDef*
G36*
G01*
X76350000Y-112256250D02*
X76350000Y-111743750D01*
G75*
G02*
X76568750Y-111525000I218750J0D01*
G01*
X77006250Y-111525000D01*
G75*
G02*
X77225000Y-111743750I0J-218750D01*
G01*
X77225000Y-112256250D01*
G75*
G02*
X77006250Y-112475000I-218750J0D01*
G01*
X76568750Y-112475000D01*
G75*
G02*
X76350000Y-112256250I0J218750D01*
G01*
G37*
G04 #@! TD.AperFunction*
G04 #@! TA.AperFunction,SMDPad,CuDef*
G36*
G01*
X70775000Y-140256250D02*
X70775000Y-139743750D01*
G75*
G02*
X70993750Y-139525000I218750J0D01*
G01*
X71431250Y-139525000D01*
G75*
G02*
X71650000Y-139743750I0J-218750D01*
G01*
X71650000Y-140256250D01*
G75*
G02*
X71431250Y-140475000I-218750J0D01*
G01*
X70993750Y-140475000D01*
G75*
G02*
X70775000Y-140256250I0J218750D01*
G01*
G37*
G04 #@! TD.AperFunction*
G04 #@! TA.AperFunction,SMDPad,CuDef*
G36*
G01*
X72350000Y-140256250D02*
X72350000Y-139743750D01*
G75*
G02*
X72568750Y-139525000I218750J0D01*
G01*
X73006250Y-139525000D01*
G75*
G02*
X73225000Y-139743750I0J-218750D01*
G01*
X73225000Y-140256250D01*
G75*
G02*
X73006250Y-140475000I-218750J0D01*
G01*
X72568750Y-140475000D01*
G75*
G02*
X72350000Y-140256250I0J218750D01*
G01*
G37*
G04 #@! TD.AperFunction*
G04 #@! TA.AperFunction,SMDPad,CuDef*
G36*
G01*
X70775000Y-136256250D02*
X70775000Y-135743750D01*
G75*
G02*
X70993750Y-135525000I218750J0D01*
G01*
X71431250Y-135525000D01*
G75*
G02*
X71650000Y-135743750I0J-218750D01*
G01*
X71650000Y-136256250D01*
G75*
G02*
X71431250Y-136475000I-218750J0D01*
G01*
X70993750Y-136475000D01*
G75*
G02*
X70775000Y-136256250I0J218750D01*
G01*
G37*
G04 #@! TD.AperFunction*
G04 #@! TA.AperFunction,SMDPad,CuDef*
G36*
G01*
X72350000Y-136256250D02*
X72350000Y-135743750D01*
G75*
G02*
X72568750Y-135525000I218750J0D01*
G01*
X73006250Y-135525000D01*
G75*
G02*
X73225000Y-135743750I0J-218750D01*
G01*
X73225000Y-136256250D01*
G75*
G02*
X73006250Y-136475000I-218750J0D01*
G01*
X72568750Y-136475000D01*
G75*
G02*
X72350000Y-136256250I0J218750D01*
G01*
G37*
G04 #@! TD.AperFunction*
G04 #@! TA.AperFunction,SMDPad,CuDef*
G36*
G01*
X70775000Y-132256250D02*
X70775000Y-131743750D01*
G75*
G02*
X70993750Y-131525000I218750J0D01*
G01*
X71431250Y-131525000D01*
G75*
G02*
X71650000Y-131743750I0J-218750D01*
G01*
X71650000Y-132256250D01*
G75*
G02*
X71431250Y-132475000I-218750J0D01*
G01*
X70993750Y-132475000D01*
G75*
G02*
X70775000Y-132256250I0J218750D01*
G01*
G37*
G04 #@! TD.AperFunction*
G04 #@! TA.AperFunction,SMDPad,CuDef*
G36*
G01*
X72350000Y-132256250D02*
X72350000Y-131743750D01*
G75*
G02*
X72568750Y-131525000I218750J0D01*
G01*
X73006250Y-131525000D01*
G75*
G02*
X73225000Y-131743750I0J-218750D01*
G01*
X73225000Y-132256250D01*
G75*
G02*
X73006250Y-132475000I-218750J0D01*
G01*
X72568750Y-132475000D01*
G75*
G02*
X72350000Y-132256250I0J218750D01*
G01*
G37*
G04 #@! TD.AperFunction*
G04 #@! TA.AperFunction,SMDPad,CuDef*
G36*
G01*
X70775000Y-128256250D02*
X70775000Y-127743750D01*
G75*
G02*
X70993750Y-127525000I218750J0D01*
G01*
X71431250Y-127525000D01*
G75*
G02*
X71650000Y-127743750I0J-218750D01*
G01*
X71650000Y-128256250D01*
G75*
G02*
X71431250Y-128475000I-218750J0D01*
G01*
X70993750Y-128475000D01*
G75*
G02*
X70775000Y-128256250I0J218750D01*
G01*
G37*
G04 #@! TD.AperFunction*
G04 #@! TA.AperFunction,SMDPad,CuDef*
G36*
G01*
X72350000Y-128256250D02*
X72350000Y-127743750D01*
G75*
G02*
X72568750Y-127525000I218750J0D01*
G01*
X73006250Y-127525000D01*
G75*
G02*
X73225000Y-127743750I0J-218750D01*
G01*
X73225000Y-128256250D01*
G75*
G02*
X73006250Y-128475000I-218750J0D01*
G01*
X72568750Y-128475000D01*
G75*
G02*
X72350000Y-128256250I0J218750D01*
G01*
G37*
G04 #@! TD.AperFunction*
G04 #@! TA.AperFunction,SMDPad,CuDef*
G36*
G01*
X70775000Y-124256250D02*
X70775000Y-123743750D01*
G75*
G02*
X70993750Y-123525000I218750J0D01*
G01*
X71431250Y-123525000D01*
G75*
G02*
X71650000Y-123743750I0J-218750D01*
G01*
X71650000Y-124256250D01*
G75*
G02*
X71431250Y-124475000I-218750J0D01*
G01*
X70993750Y-124475000D01*
G75*
G02*
X70775000Y-124256250I0J218750D01*
G01*
G37*
G04 #@! TD.AperFunction*
G04 #@! TA.AperFunction,SMDPad,CuDef*
G36*
G01*
X72350000Y-124256250D02*
X72350000Y-123743750D01*
G75*
G02*
X72568750Y-123525000I218750J0D01*
G01*
X73006250Y-123525000D01*
G75*
G02*
X73225000Y-123743750I0J-218750D01*
G01*
X73225000Y-124256250D01*
G75*
G02*
X73006250Y-124475000I-218750J0D01*
G01*
X72568750Y-124475000D01*
G75*
G02*
X72350000Y-124256250I0J218750D01*
G01*
G37*
G04 #@! TD.AperFunction*
G04 #@! TA.AperFunction,SMDPad,CuDef*
G36*
G01*
X72350000Y-120256250D02*
X72350000Y-119743750D01*
G75*
G02*
X72568750Y-119525000I218750J0D01*
G01*
X73006250Y-119525000D01*
G75*
G02*
X73225000Y-119743750I0J-218750D01*
G01*
X73225000Y-120256250D01*
G75*
G02*
X73006250Y-120475000I-218750J0D01*
G01*
X72568750Y-120475000D01*
G75*
G02*
X72350000Y-120256250I0J218750D01*
G01*
G37*
G04 #@! TD.AperFunction*
G04 #@! TA.AperFunction,SMDPad,CuDef*
G36*
G01*
X70775000Y-120256250D02*
X70775000Y-119743750D01*
G75*
G02*
X70993750Y-119525000I218750J0D01*
G01*
X71431250Y-119525000D01*
G75*
G02*
X71650000Y-119743750I0J-218750D01*
G01*
X71650000Y-120256250D01*
G75*
G02*
X71431250Y-120475000I-218750J0D01*
G01*
X70993750Y-120475000D01*
G75*
G02*
X70775000Y-120256250I0J218750D01*
G01*
G37*
G04 #@! TD.AperFunction*
G04 #@! TA.AperFunction,SMDPad,CuDef*
G36*
G01*
X70775000Y-116256250D02*
X70775000Y-115743750D01*
G75*
G02*
X70993750Y-115525000I218750J0D01*
G01*
X71431250Y-115525000D01*
G75*
G02*
X71650000Y-115743750I0J-218750D01*
G01*
X71650000Y-116256250D01*
G75*
G02*
X71431250Y-116475000I-218750J0D01*
G01*
X70993750Y-116475000D01*
G75*
G02*
X70775000Y-116256250I0J218750D01*
G01*
G37*
G04 #@! TD.AperFunction*
G04 #@! TA.AperFunction,SMDPad,CuDef*
G36*
G01*
X72350000Y-116256250D02*
X72350000Y-115743750D01*
G75*
G02*
X72568750Y-115525000I218750J0D01*
G01*
X73006250Y-115525000D01*
G75*
G02*
X73225000Y-115743750I0J-218750D01*
G01*
X73225000Y-116256250D01*
G75*
G02*
X73006250Y-116475000I-218750J0D01*
G01*
X72568750Y-116475000D01*
G75*
G02*
X72350000Y-116256250I0J218750D01*
G01*
G37*
G04 #@! TD.AperFunction*
G04 #@! TA.AperFunction,SMDPad,CuDef*
G36*
G01*
X70775000Y-112256250D02*
X70775000Y-111743750D01*
G75*
G02*
X70993750Y-111525000I218750J0D01*
G01*
X71431250Y-111525000D01*
G75*
G02*
X71650000Y-111743750I0J-218750D01*
G01*
X71650000Y-112256250D01*
G75*
G02*
X71431250Y-112475000I-218750J0D01*
G01*
X70993750Y-112475000D01*
G75*
G02*
X70775000Y-112256250I0J218750D01*
G01*
G37*
G04 #@! TD.AperFunction*
G04 #@! TA.AperFunction,SMDPad,CuDef*
G36*
G01*
X72350000Y-112256250D02*
X72350000Y-111743750D01*
G75*
G02*
X72568750Y-111525000I218750J0D01*
G01*
X73006250Y-111525000D01*
G75*
G02*
X73225000Y-111743750I0J-218750D01*
G01*
X73225000Y-112256250D01*
G75*
G02*
X73006250Y-112475000I-218750J0D01*
G01*
X72568750Y-112475000D01*
G75*
G02*
X72350000Y-112256250I0J218750D01*
G01*
G37*
G04 #@! TD.AperFunction*
G04 #@! TA.AperFunction,SMDPad,CuDef*
G36*
G01*
X66775000Y-140256250D02*
X66775000Y-139743750D01*
G75*
G02*
X66993750Y-139525000I218750J0D01*
G01*
X67431250Y-139525000D01*
G75*
G02*
X67650000Y-139743750I0J-218750D01*
G01*
X67650000Y-140256250D01*
G75*
G02*
X67431250Y-140475000I-218750J0D01*
G01*
X66993750Y-140475000D01*
G75*
G02*
X66775000Y-140256250I0J218750D01*
G01*
G37*
G04 #@! TD.AperFunction*
G04 #@! TA.AperFunction,SMDPad,CuDef*
G36*
G01*
X68350000Y-140256250D02*
X68350000Y-139743750D01*
G75*
G02*
X68568750Y-139525000I218750J0D01*
G01*
X69006250Y-139525000D01*
G75*
G02*
X69225000Y-139743750I0J-218750D01*
G01*
X69225000Y-140256250D01*
G75*
G02*
X69006250Y-140475000I-218750J0D01*
G01*
X68568750Y-140475000D01*
G75*
G02*
X68350000Y-140256250I0J218750D01*
G01*
G37*
G04 #@! TD.AperFunction*
G04 #@! TA.AperFunction,SMDPad,CuDef*
G36*
G01*
X66775000Y-136256250D02*
X66775000Y-135743750D01*
G75*
G02*
X66993750Y-135525000I218750J0D01*
G01*
X67431250Y-135525000D01*
G75*
G02*
X67650000Y-135743750I0J-218750D01*
G01*
X67650000Y-136256250D01*
G75*
G02*
X67431250Y-136475000I-218750J0D01*
G01*
X66993750Y-136475000D01*
G75*
G02*
X66775000Y-136256250I0J218750D01*
G01*
G37*
G04 #@! TD.AperFunction*
G04 #@! TA.AperFunction,SMDPad,CuDef*
G36*
G01*
X68350000Y-136256250D02*
X68350000Y-135743750D01*
G75*
G02*
X68568750Y-135525000I218750J0D01*
G01*
X69006250Y-135525000D01*
G75*
G02*
X69225000Y-135743750I0J-218750D01*
G01*
X69225000Y-136256250D01*
G75*
G02*
X69006250Y-136475000I-218750J0D01*
G01*
X68568750Y-136475000D01*
G75*
G02*
X68350000Y-136256250I0J218750D01*
G01*
G37*
G04 #@! TD.AperFunction*
G04 #@! TA.AperFunction,SMDPad,CuDef*
G36*
G01*
X66775000Y-132256250D02*
X66775000Y-131743750D01*
G75*
G02*
X66993750Y-131525000I218750J0D01*
G01*
X67431250Y-131525000D01*
G75*
G02*
X67650000Y-131743750I0J-218750D01*
G01*
X67650000Y-132256250D01*
G75*
G02*
X67431250Y-132475000I-218750J0D01*
G01*
X66993750Y-132475000D01*
G75*
G02*
X66775000Y-132256250I0J218750D01*
G01*
G37*
G04 #@! TD.AperFunction*
G04 #@! TA.AperFunction,SMDPad,CuDef*
G36*
G01*
X68350000Y-132256250D02*
X68350000Y-131743750D01*
G75*
G02*
X68568750Y-131525000I218750J0D01*
G01*
X69006250Y-131525000D01*
G75*
G02*
X69225000Y-131743750I0J-218750D01*
G01*
X69225000Y-132256250D01*
G75*
G02*
X69006250Y-132475000I-218750J0D01*
G01*
X68568750Y-132475000D01*
G75*
G02*
X68350000Y-132256250I0J218750D01*
G01*
G37*
G04 #@! TD.AperFunction*
G04 #@! TA.AperFunction,SMDPad,CuDef*
G36*
G01*
X66775000Y-128256250D02*
X66775000Y-127743750D01*
G75*
G02*
X66993750Y-127525000I218750J0D01*
G01*
X67431250Y-127525000D01*
G75*
G02*
X67650000Y-127743750I0J-218750D01*
G01*
X67650000Y-128256250D01*
G75*
G02*
X67431250Y-128475000I-218750J0D01*
G01*
X66993750Y-128475000D01*
G75*
G02*
X66775000Y-128256250I0J218750D01*
G01*
G37*
G04 #@! TD.AperFunction*
G04 #@! TA.AperFunction,SMDPad,CuDef*
G36*
G01*
X68350000Y-128256250D02*
X68350000Y-127743750D01*
G75*
G02*
X68568750Y-127525000I218750J0D01*
G01*
X69006250Y-127525000D01*
G75*
G02*
X69225000Y-127743750I0J-218750D01*
G01*
X69225000Y-128256250D01*
G75*
G02*
X69006250Y-128475000I-218750J0D01*
G01*
X68568750Y-128475000D01*
G75*
G02*
X68350000Y-128256250I0J218750D01*
G01*
G37*
G04 #@! TD.AperFunction*
G04 #@! TA.AperFunction,SMDPad,CuDef*
G36*
G01*
X66775000Y-124256250D02*
X66775000Y-123743750D01*
G75*
G02*
X66993750Y-123525000I218750J0D01*
G01*
X67431250Y-123525000D01*
G75*
G02*
X67650000Y-123743750I0J-218750D01*
G01*
X67650000Y-124256250D01*
G75*
G02*
X67431250Y-124475000I-218750J0D01*
G01*
X66993750Y-124475000D01*
G75*
G02*
X66775000Y-124256250I0J218750D01*
G01*
G37*
G04 #@! TD.AperFunction*
G04 #@! TA.AperFunction,SMDPad,CuDef*
G36*
G01*
X68350000Y-124256250D02*
X68350000Y-123743750D01*
G75*
G02*
X68568750Y-123525000I218750J0D01*
G01*
X69006250Y-123525000D01*
G75*
G02*
X69225000Y-123743750I0J-218750D01*
G01*
X69225000Y-124256250D01*
G75*
G02*
X69006250Y-124475000I-218750J0D01*
G01*
X68568750Y-124475000D01*
G75*
G02*
X68350000Y-124256250I0J218750D01*
G01*
G37*
G04 #@! TD.AperFunction*
G04 #@! TA.AperFunction,SMDPad,CuDef*
G36*
G01*
X68350000Y-120256250D02*
X68350000Y-119743750D01*
G75*
G02*
X68568750Y-119525000I218750J0D01*
G01*
X69006250Y-119525000D01*
G75*
G02*
X69225000Y-119743750I0J-218750D01*
G01*
X69225000Y-120256250D01*
G75*
G02*
X69006250Y-120475000I-218750J0D01*
G01*
X68568750Y-120475000D01*
G75*
G02*
X68350000Y-120256250I0J218750D01*
G01*
G37*
G04 #@! TD.AperFunction*
G04 #@! TA.AperFunction,SMDPad,CuDef*
G36*
G01*
X66775000Y-120256250D02*
X66775000Y-119743750D01*
G75*
G02*
X66993750Y-119525000I218750J0D01*
G01*
X67431250Y-119525000D01*
G75*
G02*
X67650000Y-119743750I0J-218750D01*
G01*
X67650000Y-120256250D01*
G75*
G02*
X67431250Y-120475000I-218750J0D01*
G01*
X66993750Y-120475000D01*
G75*
G02*
X66775000Y-120256250I0J218750D01*
G01*
G37*
G04 #@! TD.AperFunction*
G04 #@! TA.AperFunction,SMDPad,CuDef*
G36*
G01*
X66775000Y-116256250D02*
X66775000Y-115743750D01*
G75*
G02*
X66993750Y-115525000I218750J0D01*
G01*
X67431250Y-115525000D01*
G75*
G02*
X67650000Y-115743750I0J-218750D01*
G01*
X67650000Y-116256250D01*
G75*
G02*
X67431250Y-116475000I-218750J0D01*
G01*
X66993750Y-116475000D01*
G75*
G02*
X66775000Y-116256250I0J218750D01*
G01*
G37*
G04 #@! TD.AperFunction*
G04 #@! TA.AperFunction,SMDPad,CuDef*
G36*
G01*
X68350000Y-116256250D02*
X68350000Y-115743750D01*
G75*
G02*
X68568750Y-115525000I218750J0D01*
G01*
X69006250Y-115525000D01*
G75*
G02*
X69225000Y-115743750I0J-218750D01*
G01*
X69225000Y-116256250D01*
G75*
G02*
X69006250Y-116475000I-218750J0D01*
G01*
X68568750Y-116475000D01*
G75*
G02*
X68350000Y-116256250I0J218750D01*
G01*
G37*
G04 #@! TD.AperFunction*
G04 #@! TA.AperFunction,SMDPad,CuDef*
G36*
G01*
X66775000Y-112256250D02*
X66775000Y-111743750D01*
G75*
G02*
X66993750Y-111525000I218750J0D01*
G01*
X67431250Y-111525000D01*
G75*
G02*
X67650000Y-111743750I0J-218750D01*
G01*
X67650000Y-112256250D01*
G75*
G02*
X67431250Y-112475000I-218750J0D01*
G01*
X66993750Y-112475000D01*
G75*
G02*
X66775000Y-112256250I0J218750D01*
G01*
G37*
G04 #@! TD.AperFunction*
G04 #@! TA.AperFunction,SMDPad,CuDef*
G36*
G01*
X68350000Y-112256250D02*
X68350000Y-111743750D01*
G75*
G02*
X68568750Y-111525000I218750J0D01*
G01*
X69006250Y-111525000D01*
G75*
G02*
X69225000Y-111743750I0J-218750D01*
G01*
X69225000Y-112256250D01*
G75*
G02*
X69006250Y-112475000I-218750J0D01*
G01*
X68568750Y-112475000D01*
G75*
G02*
X68350000Y-112256250I0J218750D01*
G01*
G37*
G04 #@! TD.AperFunction*
G04 #@! TA.AperFunction,SMDPad,CuDef*
G36*
G01*
X62775000Y-140256250D02*
X62775000Y-139743750D01*
G75*
G02*
X62993750Y-139525000I218750J0D01*
G01*
X63431250Y-139525000D01*
G75*
G02*
X63650000Y-139743750I0J-218750D01*
G01*
X63650000Y-140256250D01*
G75*
G02*
X63431250Y-140475000I-218750J0D01*
G01*
X62993750Y-140475000D01*
G75*
G02*
X62775000Y-140256250I0J218750D01*
G01*
G37*
G04 #@! TD.AperFunction*
G04 #@! TA.AperFunction,SMDPad,CuDef*
G36*
G01*
X64350000Y-140256250D02*
X64350000Y-139743750D01*
G75*
G02*
X64568750Y-139525000I218750J0D01*
G01*
X65006250Y-139525000D01*
G75*
G02*
X65225000Y-139743750I0J-218750D01*
G01*
X65225000Y-140256250D01*
G75*
G02*
X65006250Y-140475000I-218750J0D01*
G01*
X64568750Y-140475000D01*
G75*
G02*
X64350000Y-140256250I0J218750D01*
G01*
G37*
G04 #@! TD.AperFunction*
G04 #@! TA.AperFunction,SMDPad,CuDef*
G36*
G01*
X62775000Y-136256250D02*
X62775000Y-135743750D01*
G75*
G02*
X62993750Y-135525000I218750J0D01*
G01*
X63431250Y-135525000D01*
G75*
G02*
X63650000Y-135743750I0J-218750D01*
G01*
X63650000Y-136256250D01*
G75*
G02*
X63431250Y-136475000I-218750J0D01*
G01*
X62993750Y-136475000D01*
G75*
G02*
X62775000Y-136256250I0J218750D01*
G01*
G37*
G04 #@! TD.AperFunction*
G04 #@! TA.AperFunction,SMDPad,CuDef*
G36*
G01*
X64350000Y-136256250D02*
X64350000Y-135743750D01*
G75*
G02*
X64568750Y-135525000I218750J0D01*
G01*
X65006250Y-135525000D01*
G75*
G02*
X65225000Y-135743750I0J-218750D01*
G01*
X65225000Y-136256250D01*
G75*
G02*
X65006250Y-136475000I-218750J0D01*
G01*
X64568750Y-136475000D01*
G75*
G02*
X64350000Y-136256250I0J218750D01*
G01*
G37*
G04 #@! TD.AperFunction*
G04 #@! TA.AperFunction,SMDPad,CuDef*
G36*
G01*
X62775000Y-132256250D02*
X62775000Y-131743750D01*
G75*
G02*
X62993750Y-131525000I218750J0D01*
G01*
X63431250Y-131525000D01*
G75*
G02*
X63650000Y-131743750I0J-218750D01*
G01*
X63650000Y-132256250D01*
G75*
G02*
X63431250Y-132475000I-218750J0D01*
G01*
X62993750Y-132475000D01*
G75*
G02*
X62775000Y-132256250I0J218750D01*
G01*
G37*
G04 #@! TD.AperFunction*
G04 #@! TA.AperFunction,SMDPad,CuDef*
G36*
G01*
X64350000Y-132256250D02*
X64350000Y-131743750D01*
G75*
G02*
X64568750Y-131525000I218750J0D01*
G01*
X65006250Y-131525000D01*
G75*
G02*
X65225000Y-131743750I0J-218750D01*
G01*
X65225000Y-132256250D01*
G75*
G02*
X65006250Y-132475000I-218750J0D01*
G01*
X64568750Y-132475000D01*
G75*
G02*
X64350000Y-132256250I0J218750D01*
G01*
G37*
G04 #@! TD.AperFunction*
G04 #@! TA.AperFunction,SMDPad,CuDef*
G36*
G01*
X62759000Y-128256250D02*
X62759000Y-127743750D01*
G75*
G02*
X62977750Y-127525000I218750J0D01*
G01*
X63415250Y-127525000D01*
G75*
G02*
X63634000Y-127743750I0J-218750D01*
G01*
X63634000Y-128256250D01*
G75*
G02*
X63415250Y-128475000I-218750J0D01*
G01*
X62977750Y-128475000D01*
G75*
G02*
X62759000Y-128256250I0J218750D01*
G01*
G37*
G04 #@! TD.AperFunction*
G04 #@! TA.AperFunction,SMDPad,CuDef*
G36*
G01*
X64334000Y-128256250D02*
X64334000Y-127743750D01*
G75*
G02*
X64552750Y-127525000I218750J0D01*
G01*
X64990250Y-127525000D01*
G75*
G02*
X65209000Y-127743750I0J-218750D01*
G01*
X65209000Y-128256250D01*
G75*
G02*
X64990250Y-128475000I-218750J0D01*
G01*
X64552750Y-128475000D01*
G75*
G02*
X64334000Y-128256250I0J218750D01*
G01*
G37*
G04 #@! TD.AperFunction*
G04 #@! TA.AperFunction,SMDPad,CuDef*
G36*
G01*
X62775000Y-124256250D02*
X62775000Y-123743750D01*
G75*
G02*
X62993750Y-123525000I218750J0D01*
G01*
X63431250Y-123525000D01*
G75*
G02*
X63650000Y-123743750I0J-218750D01*
G01*
X63650000Y-124256250D01*
G75*
G02*
X63431250Y-124475000I-218750J0D01*
G01*
X62993750Y-124475000D01*
G75*
G02*
X62775000Y-124256250I0J218750D01*
G01*
G37*
G04 #@! TD.AperFunction*
G04 #@! TA.AperFunction,SMDPad,CuDef*
G36*
G01*
X64350000Y-124256250D02*
X64350000Y-123743750D01*
G75*
G02*
X64568750Y-123525000I218750J0D01*
G01*
X65006250Y-123525000D01*
G75*
G02*
X65225000Y-123743750I0J-218750D01*
G01*
X65225000Y-124256250D01*
G75*
G02*
X65006250Y-124475000I-218750J0D01*
G01*
X64568750Y-124475000D01*
G75*
G02*
X64350000Y-124256250I0J218750D01*
G01*
G37*
G04 #@! TD.AperFunction*
G04 #@! TA.AperFunction,SMDPad,CuDef*
G36*
G01*
X62775000Y-120256250D02*
X62775000Y-119743750D01*
G75*
G02*
X62993750Y-119525000I218750J0D01*
G01*
X63431250Y-119525000D01*
G75*
G02*
X63650000Y-119743750I0J-218750D01*
G01*
X63650000Y-120256250D01*
G75*
G02*
X63431250Y-120475000I-218750J0D01*
G01*
X62993750Y-120475000D01*
G75*
G02*
X62775000Y-120256250I0J218750D01*
G01*
G37*
G04 #@! TD.AperFunction*
G04 #@! TA.AperFunction,SMDPad,CuDef*
G36*
G01*
X64350000Y-120256250D02*
X64350000Y-119743750D01*
G75*
G02*
X64568750Y-119525000I218750J0D01*
G01*
X65006250Y-119525000D01*
G75*
G02*
X65225000Y-119743750I0J-218750D01*
G01*
X65225000Y-120256250D01*
G75*
G02*
X65006250Y-120475000I-218750J0D01*
G01*
X64568750Y-120475000D01*
G75*
G02*
X64350000Y-120256250I0J218750D01*
G01*
G37*
G04 #@! TD.AperFunction*
G04 #@! TA.AperFunction,SMDPad,CuDef*
G36*
G01*
X62775000Y-116256250D02*
X62775000Y-115743750D01*
G75*
G02*
X62993750Y-115525000I218750J0D01*
G01*
X63431250Y-115525000D01*
G75*
G02*
X63650000Y-115743750I0J-218750D01*
G01*
X63650000Y-116256250D01*
G75*
G02*
X63431250Y-116475000I-218750J0D01*
G01*
X62993750Y-116475000D01*
G75*
G02*
X62775000Y-116256250I0J218750D01*
G01*
G37*
G04 #@! TD.AperFunction*
G04 #@! TA.AperFunction,SMDPad,CuDef*
G36*
G01*
X64350000Y-116256250D02*
X64350000Y-115743750D01*
G75*
G02*
X64568750Y-115525000I218750J0D01*
G01*
X65006250Y-115525000D01*
G75*
G02*
X65225000Y-115743750I0J-218750D01*
G01*
X65225000Y-116256250D01*
G75*
G02*
X65006250Y-116475000I-218750J0D01*
G01*
X64568750Y-116475000D01*
G75*
G02*
X64350000Y-116256250I0J218750D01*
G01*
G37*
G04 #@! TD.AperFunction*
G04 #@! TA.AperFunction,SMDPad,CuDef*
G36*
G01*
X62775000Y-112256250D02*
X62775000Y-111743750D01*
G75*
G02*
X62993750Y-111525000I218750J0D01*
G01*
X63431250Y-111525000D01*
G75*
G02*
X63650000Y-111743750I0J-218750D01*
G01*
X63650000Y-112256250D01*
G75*
G02*
X63431250Y-112475000I-218750J0D01*
G01*
X62993750Y-112475000D01*
G75*
G02*
X62775000Y-112256250I0J218750D01*
G01*
G37*
G04 #@! TD.AperFunction*
G04 #@! TA.AperFunction,SMDPad,CuDef*
G36*
G01*
X64350000Y-112256250D02*
X64350000Y-111743750D01*
G75*
G02*
X64568750Y-111525000I218750J0D01*
G01*
X65006250Y-111525000D01*
G75*
G02*
X65225000Y-111743750I0J-218750D01*
G01*
X65225000Y-112256250D01*
G75*
G02*
X65006250Y-112475000I-218750J0D01*
G01*
X64568750Y-112475000D01*
G75*
G02*
X64350000Y-112256250I0J218750D01*
G01*
G37*
G04 #@! TD.AperFunction*
G04 #@! TA.AperFunction,SMDPad,CuDef*
G36*
G01*
X58775000Y-140256250D02*
X58775000Y-139743750D01*
G75*
G02*
X58993750Y-139525000I218750J0D01*
G01*
X59431250Y-139525000D01*
G75*
G02*
X59650000Y-139743750I0J-218750D01*
G01*
X59650000Y-140256250D01*
G75*
G02*
X59431250Y-140475000I-218750J0D01*
G01*
X58993750Y-140475000D01*
G75*
G02*
X58775000Y-140256250I0J218750D01*
G01*
G37*
G04 #@! TD.AperFunction*
G04 #@! TA.AperFunction,SMDPad,CuDef*
G36*
G01*
X60350000Y-140256250D02*
X60350000Y-139743750D01*
G75*
G02*
X60568750Y-139525000I218750J0D01*
G01*
X61006250Y-139525000D01*
G75*
G02*
X61225000Y-139743750I0J-218750D01*
G01*
X61225000Y-140256250D01*
G75*
G02*
X61006250Y-140475000I-218750J0D01*
G01*
X60568750Y-140475000D01*
G75*
G02*
X60350000Y-140256250I0J218750D01*
G01*
G37*
G04 #@! TD.AperFunction*
G04 #@! TA.AperFunction,SMDPad,CuDef*
G36*
G01*
X58775000Y-136256250D02*
X58775000Y-135743750D01*
G75*
G02*
X58993750Y-135525000I218750J0D01*
G01*
X59431250Y-135525000D01*
G75*
G02*
X59650000Y-135743750I0J-218750D01*
G01*
X59650000Y-136256250D01*
G75*
G02*
X59431250Y-136475000I-218750J0D01*
G01*
X58993750Y-136475000D01*
G75*
G02*
X58775000Y-136256250I0J218750D01*
G01*
G37*
G04 #@! TD.AperFunction*
G04 #@! TA.AperFunction,SMDPad,CuDef*
G36*
G01*
X60350000Y-136256250D02*
X60350000Y-135743750D01*
G75*
G02*
X60568750Y-135525000I218750J0D01*
G01*
X61006250Y-135525000D01*
G75*
G02*
X61225000Y-135743750I0J-218750D01*
G01*
X61225000Y-136256250D01*
G75*
G02*
X61006250Y-136475000I-218750J0D01*
G01*
X60568750Y-136475000D01*
G75*
G02*
X60350000Y-136256250I0J218750D01*
G01*
G37*
G04 #@! TD.AperFunction*
G04 #@! TA.AperFunction,SMDPad,CuDef*
G36*
G01*
X58775000Y-132256250D02*
X58775000Y-131743750D01*
G75*
G02*
X58993750Y-131525000I218750J0D01*
G01*
X59431250Y-131525000D01*
G75*
G02*
X59650000Y-131743750I0J-218750D01*
G01*
X59650000Y-132256250D01*
G75*
G02*
X59431250Y-132475000I-218750J0D01*
G01*
X58993750Y-132475000D01*
G75*
G02*
X58775000Y-132256250I0J218750D01*
G01*
G37*
G04 #@! TD.AperFunction*
G04 #@! TA.AperFunction,SMDPad,CuDef*
G36*
G01*
X60350000Y-132256250D02*
X60350000Y-131743750D01*
G75*
G02*
X60568750Y-131525000I218750J0D01*
G01*
X61006250Y-131525000D01*
G75*
G02*
X61225000Y-131743750I0J-218750D01*
G01*
X61225000Y-132256250D01*
G75*
G02*
X61006250Y-132475000I-218750J0D01*
G01*
X60568750Y-132475000D01*
G75*
G02*
X60350000Y-132256250I0J218750D01*
G01*
G37*
G04 #@! TD.AperFunction*
G04 #@! TA.AperFunction,SMDPad,CuDef*
G36*
G01*
X58775000Y-128256250D02*
X58775000Y-127743750D01*
G75*
G02*
X58993750Y-127525000I218750J0D01*
G01*
X59431250Y-127525000D01*
G75*
G02*
X59650000Y-127743750I0J-218750D01*
G01*
X59650000Y-128256250D01*
G75*
G02*
X59431250Y-128475000I-218750J0D01*
G01*
X58993750Y-128475000D01*
G75*
G02*
X58775000Y-128256250I0J218750D01*
G01*
G37*
G04 #@! TD.AperFunction*
G04 #@! TA.AperFunction,SMDPad,CuDef*
G36*
G01*
X60350000Y-128256250D02*
X60350000Y-127743750D01*
G75*
G02*
X60568750Y-127525000I218750J0D01*
G01*
X61006250Y-127525000D01*
G75*
G02*
X61225000Y-127743750I0J-218750D01*
G01*
X61225000Y-128256250D01*
G75*
G02*
X61006250Y-128475000I-218750J0D01*
G01*
X60568750Y-128475000D01*
G75*
G02*
X60350000Y-128256250I0J218750D01*
G01*
G37*
G04 #@! TD.AperFunction*
G04 #@! TA.AperFunction,SMDPad,CuDef*
G36*
G01*
X58775000Y-124256250D02*
X58775000Y-123743750D01*
G75*
G02*
X58993750Y-123525000I218750J0D01*
G01*
X59431250Y-123525000D01*
G75*
G02*
X59650000Y-123743750I0J-218750D01*
G01*
X59650000Y-124256250D01*
G75*
G02*
X59431250Y-124475000I-218750J0D01*
G01*
X58993750Y-124475000D01*
G75*
G02*
X58775000Y-124256250I0J218750D01*
G01*
G37*
G04 #@! TD.AperFunction*
G04 #@! TA.AperFunction,SMDPad,CuDef*
G36*
G01*
X60350000Y-124256250D02*
X60350000Y-123743750D01*
G75*
G02*
X60568750Y-123525000I218750J0D01*
G01*
X61006250Y-123525000D01*
G75*
G02*
X61225000Y-123743750I0J-218750D01*
G01*
X61225000Y-124256250D01*
G75*
G02*
X61006250Y-124475000I-218750J0D01*
G01*
X60568750Y-124475000D01*
G75*
G02*
X60350000Y-124256250I0J218750D01*
G01*
G37*
G04 #@! TD.AperFunction*
G04 #@! TA.AperFunction,SMDPad,CuDef*
G36*
G01*
X60350000Y-120256250D02*
X60350000Y-119743750D01*
G75*
G02*
X60568750Y-119525000I218750J0D01*
G01*
X61006250Y-119525000D01*
G75*
G02*
X61225000Y-119743750I0J-218750D01*
G01*
X61225000Y-120256250D01*
G75*
G02*
X61006250Y-120475000I-218750J0D01*
G01*
X60568750Y-120475000D01*
G75*
G02*
X60350000Y-120256250I0J218750D01*
G01*
G37*
G04 #@! TD.AperFunction*
G04 #@! TA.AperFunction,SMDPad,CuDef*
G36*
G01*
X58775000Y-120256250D02*
X58775000Y-119743750D01*
G75*
G02*
X58993750Y-119525000I218750J0D01*
G01*
X59431250Y-119525000D01*
G75*
G02*
X59650000Y-119743750I0J-218750D01*
G01*
X59650000Y-120256250D01*
G75*
G02*
X59431250Y-120475000I-218750J0D01*
G01*
X58993750Y-120475000D01*
G75*
G02*
X58775000Y-120256250I0J218750D01*
G01*
G37*
G04 #@! TD.AperFunction*
G04 #@! TA.AperFunction,SMDPad,CuDef*
G36*
G01*
X58775000Y-116256250D02*
X58775000Y-115743750D01*
G75*
G02*
X58993750Y-115525000I218750J0D01*
G01*
X59431250Y-115525000D01*
G75*
G02*
X59650000Y-115743750I0J-218750D01*
G01*
X59650000Y-116256250D01*
G75*
G02*
X59431250Y-116475000I-218750J0D01*
G01*
X58993750Y-116475000D01*
G75*
G02*
X58775000Y-116256250I0J218750D01*
G01*
G37*
G04 #@! TD.AperFunction*
G04 #@! TA.AperFunction,SMDPad,CuDef*
G36*
G01*
X60350000Y-116256250D02*
X60350000Y-115743750D01*
G75*
G02*
X60568750Y-115525000I218750J0D01*
G01*
X61006250Y-115525000D01*
G75*
G02*
X61225000Y-115743750I0J-218750D01*
G01*
X61225000Y-116256250D01*
G75*
G02*
X61006250Y-116475000I-218750J0D01*
G01*
X60568750Y-116475000D01*
G75*
G02*
X60350000Y-116256250I0J218750D01*
G01*
G37*
G04 #@! TD.AperFunction*
G04 #@! TA.AperFunction,SMDPad,CuDef*
G36*
G01*
X60350000Y-112256250D02*
X60350000Y-111743750D01*
G75*
G02*
X60568750Y-111525000I218750J0D01*
G01*
X61006250Y-111525000D01*
G75*
G02*
X61225000Y-111743750I0J-218750D01*
G01*
X61225000Y-112256250D01*
G75*
G02*
X61006250Y-112475000I-218750J0D01*
G01*
X60568750Y-112475000D01*
G75*
G02*
X60350000Y-112256250I0J218750D01*
G01*
G37*
G04 #@! TD.AperFunction*
G04 #@! TA.AperFunction,SMDPad,CuDef*
G36*
G01*
X58775000Y-112256250D02*
X58775000Y-111743750D01*
G75*
G02*
X58993750Y-111525000I218750J0D01*
G01*
X59431250Y-111525000D01*
G75*
G02*
X59650000Y-111743750I0J-218750D01*
G01*
X59650000Y-112256250D01*
G75*
G02*
X59431250Y-112475000I-218750J0D01*
G01*
X58993750Y-112475000D01*
G75*
G02*
X58775000Y-112256250I0J218750D01*
G01*
G37*
G04 #@! TD.AperFunction*
G04 #@! TA.AperFunction,SMDPad,CuDef*
G36*
G01*
X54775000Y-140256250D02*
X54775000Y-139743750D01*
G75*
G02*
X54993750Y-139525000I218750J0D01*
G01*
X55431250Y-139525000D01*
G75*
G02*
X55650000Y-139743750I0J-218750D01*
G01*
X55650000Y-140256250D01*
G75*
G02*
X55431250Y-140475000I-218750J0D01*
G01*
X54993750Y-140475000D01*
G75*
G02*
X54775000Y-140256250I0J218750D01*
G01*
G37*
G04 #@! TD.AperFunction*
G04 #@! TA.AperFunction,SMDPad,CuDef*
G36*
G01*
X56350000Y-140256250D02*
X56350000Y-139743750D01*
G75*
G02*
X56568750Y-139525000I218750J0D01*
G01*
X57006250Y-139525000D01*
G75*
G02*
X57225000Y-139743750I0J-218750D01*
G01*
X57225000Y-140256250D01*
G75*
G02*
X57006250Y-140475000I-218750J0D01*
G01*
X56568750Y-140475000D01*
G75*
G02*
X56350000Y-140256250I0J218750D01*
G01*
G37*
G04 #@! TD.AperFunction*
G04 #@! TA.AperFunction,SMDPad,CuDef*
G36*
G01*
X54775000Y-136256250D02*
X54775000Y-135743750D01*
G75*
G02*
X54993750Y-135525000I218750J0D01*
G01*
X55431250Y-135525000D01*
G75*
G02*
X55650000Y-135743750I0J-218750D01*
G01*
X55650000Y-136256250D01*
G75*
G02*
X55431250Y-136475000I-218750J0D01*
G01*
X54993750Y-136475000D01*
G75*
G02*
X54775000Y-136256250I0J218750D01*
G01*
G37*
G04 #@! TD.AperFunction*
G04 #@! TA.AperFunction,SMDPad,CuDef*
G36*
G01*
X56350000Y-136256250D02*
X56350000Y-135743750D01*
G75*
G02*
X56568750Y-135525000I218750J0D01*
G01*
X57006250Y-135525000D01*
G75*
G02*
X57225000Y-135743750I0J-218750D01*
G01*
X57225000Y-136256250D01*
G75*
G02*
X57006250Y-136475000I-218750J0D01*
G01*
X56568750Y-136475000D01*
G75*
G02*
X56350000Y-136256250I0J218750D01*
G01*
G37*
G04 #@! TD.AperFunction*
G04 #@! TA.AperFunction,SMDPad,CuDef*
G36*
G01*
X54775000Y-132256250D02*
X54775000Y-131743750D01*
G75*
G02*
X54993750Y-131525000I218750J0D01*
G01*
X55431250Y-131525000D01*
G75*
G02*
X55650000Y-131743750I0J-218750D01*
G01*
X55650000Y-132256250D01*
G75*
G02*
X55431250Y-132475000I-218750J0D01*
G01*
X54993750Y-132475000D01*
G75*
G02*
X54775000Y-132256250I0J218750D01*
G01*
G37*
G04 #@! TD.AperFunction*
G04 #@! TA.AperFunction,SMDPad,CuDef*
G36*
G01*
X56350000Y-132256250D02*
X56350000Y-131743750D01*
G75*
G02*
X56568750Y-131525000I218750J0D01*
G01*
X57006250Y-131525000D01*
G75*
G02*
X57225000Y-131743750I0J-218750D01*
G01*
X57225000Y-132256250D01*
G75*
G02*
X57006250Y-132475000I-218750J0D01*
G01*
X56568750Y-132475000D01*
G75*
G02*
X56350000Y-132256250I0J218750D01*
G01*
G37*
G04 #@! TD.AperFunction*
G04 #@! TA.AperFunction,SMDPad,CuDef*
G36*
G01*
X54775000Y-128256250D02*
X54775000Y-127743750D01*
G75*
G02*
X54993750Y-127525000I218750J0D01*
G01*
X55431250Y-127525000D01*
G75*
G02*
X55650000Y-127743750I0J-218750D01*
G01*
X55650000Y-128256250D01*
G75*
G02*
X55431250Y-128475000I-218750J0D01*
G01*
X54993750Y-128475000D01*
G75*
G02*
X54775000Y-128256250I0J218750D01*
G01*
G37*
G04 #@! TD.AperFunction*
G04 #@! TA.AperFunction,SMDPad,CuDef*
G36*
G01*
X56350000Y-128256250D02*
X56350000Y-127743750D01*
G75*
G02*
X56568750Y-127525000I218750J0D01*
G01*
X57006250Y-127525000D01*
G75*
G02*
X57225000Y-127743750I0J-218750D01*
G01*
X57225000Y-128256250D01*
G75*
G02*
X57006250Y-128475000I-218750J0D01*
G01*
X56568750Y-128475000D01*
G75*
G02*
X56350000Y-128256250I0J218750D01*
G01*
G37*
G04 #@! TD.AperFunction*
G04 #@! TA.AperFunction,SMDPad,CuDef*
G36*
G01*
X54775000Y-124256250D02*
X54775000Y-123743750D01*
G75*
G02*
X54993750Y-123525000I218750J0D01*
G01*
X55431250Y-123525000D01*
G75*
G02*
X55650000Y-123743750I0J-218750D01*
G01*
X55650000Y-124256250D01*
G75*
G02*
X55431250Y-124475000I-218750J0D01*
G01*
X54993750Y-124475000D01*
G75*
G02*
X54775000Y-124256250I0J218750D01*
G01*
G37*
G04 #@! TD.AperFunction*
G04 #@! TA.AperFunction,SMDPad,CuDef*
G36*
G01*
X56350000Y-124256250D02*
X56350000Y-123743750D01*
G75*
G02*
X56568750Y-123525000I218750J0D01*
G01*
X57006250Y-123525000D01*
G75*
G02*
X57225000Y-123743750I0J-218750D01*
G01*
X57225000Y-124256250D01*
G75*
G02*
X57006250Y-124475000I-218750J0D01*
G01*
X56568750Y-124475000D01*
G75*
G02*
X56350000Y-124256250I0J218750D01*
G01*
G37*
G04 #@! TD.AperFunction*
G04 #@! TA.AperFunction,SMDPad,CuDef*
G36*
G01*
X56350000Y-120256250D02*
X56350000Y-119743750D01*
G75*
G02*
X56568750Y-119525000I218750J0D01*
G01*
X57006250Y-119525000D01*
G75*
G02*
X57225000Y-119743750I0J-218750D01*
G01*
X57225000Y-120256250D01*
G75*
G02*
X57006250Y-120475000I-218750J0D01*
G01*
X56568750Y-120475000D01*
G75*
G02*
X56350000Y-120256250I0J218750D01*
G01*
G37*
G04 #@! TD.AperFunction*
G04 #@! TA.AperFunction,SMDPad,CuDef*
G36*
G01*
X54775000Y-120256250D02*
X54775000Y-119743750D01*
G75*
G02*
X54993750Y-119525000I218750J0D01*
G01*
X55431250Y-119525000D01*
G75*
G02*
X55650000Y-119743750I0J-218750D01*
G01*
X55650000Y-120256250D01*
G75*
G02*
X55431250Y-120475000I-218750J0D01*
G01*
X54993750Y-120475000D01*
G75*
G02*
X54775000Y-120256250I0J218750D01*
G01*
G37*
G04 #@! TD.AperFunction*
G04 #@! TA.AperFunction,SMDPad,CuDef*
G36*
G01*
X54775000Y-116256250D02*
X54775000Y-115743750D01*
G75*
G02*
X54993750Y-115525000I218750J0D01*
G01*
X55431250Y-115525000D01*
G75*
G02*
X55650000Y-115743750I0J-218750D01*
G01*
X55650000Y-116256250D01*
G75*
G02*
X55431250Y-116475000I-218750J0D01*
G01*
X54993750Y-116475000D01*
G75*
G02*
X54775000Y-116256250I0J218750D01*
G01*
G37*
G04 #@! TD.AperFunction*
G04 #@! TA.AperFunction,SMDPad,CuDef*
G36*
G01*
X56350000Y-116256250D02*
X56350000Y-115743750D01*
G75*
G02*
X56568750Y-115525000I218750J0D01*
G01*
X57006250Y-115525000D01*
G75*
G02*
X57225000Y-115743750I0J-218750D01*
G01*
X57225000Y-116256250D01*
G75*
G02*
X57006250Y-116475000I-218750J0D01*
G01*
X56568750Y-116475000D01*
G75*
G02*
X56350000Y-116256250I0J218750D01*
G01*
G37*
G04 #@! TD.AperFunction*
D19*
X55500000Y-110500000D03*
X59500000Y-110500000D03*
X63500000Y-110500000D03*
X67500000Y-110500000D03*
X71500000Y-110500000D03*
X75500000Y-110500000D03*
X79500000Y-110500000D03*
X83500000Y-110500000D03*
X87500000Y-110500000D03*
X91500000Y-110500000D03*
X95500000Y-110500000D03*
X99500000Y-110500000D03*
X103500000Y-110500000D03*
X107500000Y-110500000D03*
X111500000Y-110500000D03*
X115500000Y-110500000D03*
X119000000Y-110500000D03*
X55500000Y-113500000D03*
X59500000Y-113500000D03*
X63500000Y-113500000D03*
X67500000Y-113500000D03*
X71500000Y-113500000D03*
X75500000Y-113500000D03*
X79500000Y-113500000D03*
X83500000Y-113500000D03*
X87500000Y-113500000D03*
X91500000Y-113500000D03*
X95500000Y-113500000D03*
X99500000Y-113500000D03*
X103500000Y-113500000D03*
X107500000Y-113500000D03*
X111500000Y-113500000D03*
X115500000Y-113500000D03*
X119000000Y-113500000D03*
X55500000Y-117500000D03*
X59500000Y-117500000D03*
X63500000Y-117500000D03*
X67500000Y-117500000D03*
X71500000Y-117500000D03*
X75500000Y-117500000D03*
X79500000Y-117500000D03*
X83500000Y-117500000D03*
X87500000Y-117500000D03*
X91500000Y-117500000D03*
X95500000Y-117500000D03*
X99500000Y-117500000D03*
X103500000Y-117500000D03*
X107500000Y-117500000D03*
X111500000Y-117500000D03*
X115500000Y-117500000D03*
X119000000Y-117500000D03*
X55500000Y-121500000D03*
X59500000Y-121500000D03*
X63500000Y-121500000D03*
X67500000Y-121500000D03*
X71500000Y-121500000D03*
X75500000Y-121500000D03*
X79500000Y-121500000D03*
X83500000Y-121500000D03*
X87500000Y-121500000D03*
X91500000Y-121500000D03*
X95500000Y-121500000D03*
X99500000Y-121500000D03*
X103500000Y-121500000D03*
X107500000Y-121500000D03*
X111500000Y-121500000D03*
X115500000Y-121500000D03*
X119000000Y-121500000D03*
X55500000Y-125500000D03*
X115500000Y-125500000D03*
X111500000Y-125500000D03*
X107500000Y-125500000D03*
X103500000Y-125500000D03*
X99500000Y-125500000D03*
X95500000Y-125500000D03*
X91500000Y-125500000D03*
X87500000Y-125500000D03*
X83500000Y-125500000D03*
X79500000Y-125500000D03*
X75500000Y-125500000D03*
X71500000Y-125500000D03*
X67500000Y-125500000D03*
X63500000Y-125500000D03*
X59500000Y-125500000D03*
X119000000Y-125500000D03*
X55500000Y-129500000D03*
X59500000Y-129500000D03*
X63500000Y-129500000D03*
X67500000Y-129500000D03*
X71500000Y-129500000D03*
X75500000Y-129500000D03*
X79500000Y-129500000D03*
X83500000Y-129500000D03*
X87500000Y-129500000D03*
X91500000Y-129500000D03*
X95500000Y-129500000D03*
X99500000Y-129500000D03*
X103500000Y-129500000D03*
X107500000Y-129500000D03*
X111500000Y-129500000D03*
X115500000Y-129500000D03*
X119000000Y-129500000D03*
X55500000Y-133500000D03*
X59500000Y-133500000D03*
X63500000Y-133500000D03*
X67500000Y-133500000D03*
X71500000Y-133500000D03*
X75500000Y-133500000D03*
X79500000Y-133500000D03*
X83500000Y-133500000D03*
X87500000Y-133500000D03*
X91500000Y-133500000D03*
X95500000Y-133500000D03*
X99500000Y-133500000D03*
X103500000Y-133500000D03*
X107500000Y-133500000D03*
X111500000Y-133500000D03*
X115500000Y-133500000D03*
X119000000Y-133500000D03*
X55500000Y-137500000D03*
X59500000Y-137500000D03*
X63500000Y-137500000D03*
X67500000Y-137500000D03*
X71500000Y-137500000D03*
X75500000Y-137500000D03*
X79500000Y-137500000D03*
X83500000Y-137500000D03*
X87500000Y-137500000D03*
X91500000Y-137500000D03*
X95500000Y-137500000D03*
X99500000Y-137500000D03*
X103500000Y-137500000D03*
X107500000Y-137500000D03*
X111500000Y-137500000D03*
X115500000Y-137500000D03*
X119000000Y-137500000D03*
X113500000Y-148500000D03*
X114000000Y-138500000D03*
X114000000Y-118500000D03*
X121000000Y-118500000D03*
X112000000Y-148500000D03*
X98000000Y-138500000D03*
X98000000Y-122500000D03*
X121000000Y-122500000D03*
X110500000Y-148500000D03*
X94000000Y-138500000D03*
X94000000Y-126500000D03*
X121000000Y-126500000D03*
X109000000Y-148500000D03*
X86000000Y-138500000D03*
X86000000Y-130500000D03*
X121000000Y-130500000D03*
X106500000Y-148500000D03*
X90000000Y-138500000D03*
X90000000Y-134500000D03*
X121000000Y-134500000D03*
X112500000Y-141500000D03*
X102000000Y-142500000D03*
X108500000Y-141500000D03*
X103500000Y-141500000D03*
X55500000Y-144000000D03*
X81000000Y-144000000D03*
X99500000Y-148500000D03*
X89154000Y-172228000D03*
X98552000Y-169180000D03*
X104500000Y-161000000D03*
X96000000Y-161000000D03*
X95640000Y-169420000D03*
X88640000Y-164620000D03*
X59500000Y-155500000D03*
X114500000Y-155500000D03*
X106500000Y-155500000D03*
X82500000Y-155500000D03*
X66500000Y-155500000D03*
X79500000Y-155500000D03*
X88500000Y-155500000D03*
X120000000Y-151500000D03*
X63000000Y-149500000D03*
X85000000Y-149500000D03*
X110500000Y-154000000D03*
X61000000Y-154500000D03*
X109000000Y-154500000D03*
X85500000Y-154500000D03*
X79000000Y-177000000D03*
X103000000Y-176500000D03*
X90500000Y-176500000D03*
X60000000Y-153500000D03*
X107500000Y-153500000D03*
X84000000Y-153500000D03*
X100500000Y-153500000D03*
X87000000Y-149000000D03*
X96525000Y-151475000D03*
X97500000Y-163000000D03*
X112000000Y-154000000D03*
D20*
X113175000Y-150500000D02*
X114175000Y-149500000D01*
X113175000Y-151475000D02*
X113175000Y-150500000D01*
X114175000Y-149500000D02*
X115500000Y-149500000D01*
X115500000Y-149500000D02*
X117000000Y-148000000D01*
X117000000Y-148000000D02*
X117000000Y-147000000D01*
X117000000Y-147000000D02*
X119500000Y-144500000D01*
X119500000Y-144500000D02*
X122000000Y-144500000D01*
X122000000Y-144500000D02*
X124000000Y-142500000D01*
X124000000Y-142500000D02*
X124000000Y-113000000D01*
X123000000Y-112000000D02*
X120875000Y-112000000D01*
X124000000Y-113000000D02*
X123000000Y-112000000D01*
X55212500Y-112000000D02*
X55212500Y-110787500D01*
X55212500Y-110787500D02*
X55500000Y-110500000D01*
X55500000Y-110500000D02*
X55500000Y-110500000D01*
X59212500Y-110787500D02*
X59500000Y-110500000D01*
X59212500Y-112000000D02*
X59212500Y-110787500D01*
X63212500Y-110787500D02*
X63500000Y-110500000D01*
X63212500Y-112000000D02*
X63212500Y-110787500D01*
X67212500Y-110787500D02*
X67500000Y-110500000D01*
X67212500Y-112000000D02*
X67212500Y-110787500D01*
X71212500Y-110787500D02*
X71500000Y-110500000D01*
X71212500Y-112000000D02*
X71212500Y-110787500D01*
X75212500Y-110787500D02*
X75500000Y-110500000D01*
X75212500Y-112000000D02*
X75212500Y-110787500D01*
X79212500Y-110787500D02*
X79500000Y-110500000D01*
X79212500Y-112000000D02*
X79212500Y-110787500D01*
X83212500Y-110787500D02*
X83500000Y-110500000D01*
X83212500Y-112000000D02*
X83212500Y-110787500D01*
X91212500Y-110787500D02*
X91500000Y-110500000D01*
X91212500Y-112000000D02*
X91212500Y-110787500D01*
X95212500Y-110787500D02*
X95500000Y-110500000D01*
X95212500Y-112000000D02*
X95212500Y-110787500D01*
X99212500Y-110787500D02*
X99500000Y-110500000D01*
X99212500Y-112000000D02*
X99212500Y-110787500D01*
X103196500Y-110803500D02*
X103500000Y-110500000D01*
X103196500Y-112000000D02*
X103196500Y-110803500D01*
X107212500Y-110787500D02*
X107500000Y-110500000D01*
X107212500Y-112000000D02*
X107212500Y-110787500D01*
X111212500Y-110787500D02*
X111500000Y-110500000D01*
X111212500Y-112000000D02*
X111212500Y-110787500D01*
X115212500Y-110787500D02*
X115500000Y-110500000D01*
X115212500Y-112000000D02*
X115212500Y-110787500D01*
X119125000Y-110625000D02*
X119000000Y-110500000D01*
X119125000Y-112000000D02*
X119125000Y-110625000D01*
X87212500Y-110787500D02*
X87500000Y-110500000D01*
X87212500Y-112000000D02*
X87212500Y-110787500D01*
X55212500Y-116000000D02*
X55212500Y-113787500D01*
X55212500Y-113787500D02*
X55500000Y-113500000D01*
X55500000Y-113500000D02*
X55500000Y-113500000D01*
X59212500Y-113787500D02*
X59500000Y-113500000D01*
X59212500Y-116000000D02*
X59212500Y-113787500D01*
X63212500Y-113787500D02*
X63500000Y-113500000D01*
X63212500Y-116000000D02*
X63212500Y-113787500D01*
X67212500Y-113787500D02*
X67500000Y-113500000D01*
X67212500Y-116000000D02*
X67212500Y-113787500D01*
X71212500Y-113787500D02*
X71500000Y-113500000D01*
X71212500Y-116000000D02*
X71212500Y-113787500D01*
X75212500Y-113787500D02*
X75500000Y-113500000D01*
X75212500Y-116000000D02*
X75212500Y-113787500D01*
X79212500Y-113787500D02*
X79500000Y-113500000D01*
X79212500Y-116000000D02*
X79212500Y-113787500D01*
X83212500Y-113787500D02*
X83500000Y-113500000D01*
X83212500Y-116000000D02*
X83212500Y-113787500D01*
X87212500Y-113787500D02*
X87500000Y-113500000D01*
X87212500Y-116000000D02*
X87212500Y-113787500D01*
X91212500Y-113787500D02*
X91500000Y-113500000D01*
X91212500Y-116000000D02*
X91212500Y-113787500D01*
X95212500Y-113787500D02*
X95500000Y-113500000D01*
X95212500Y-116000000D02*
X95212500Y-113787500D01*
X99212500Y-113787500D02*
X99500000Y-113500000D01*
X99212500Y-116000000D02*
X99212500Y-113787500D01*
X103212500Y-113787500D02*
X103500000Y-113500000D01*
X103212500Y-116000000D02*
X103212500Y-113787500D01*
X107212500Y-113787500D02*
X107500000Y-113500000D01*
X107212500Y-116000000D02*
X107212500Y-113787500D01*
X111212500Y-113787500D02*
X111500000Y-113500000D01*
X111212500Y-116000000D02*
X111212500Y-113787500D01*
X115212500Y-113787500D02*
X115500000Y-113500000D01*
X115212500Y-116000000D02*
X115212500Y-113787500D01*
X119125000Y-113625000D02*
X119000000Y-113500000D01*
X119125000Y-116000000D02*
X119125000Y-113625000D01*
X55212500Y-120000000D02*
X55212500Y-117787500D01*
X55212500Y-117787500D02*
X55500000Y-117500000D01*
X55500000Y-117500000D02*
X55500000Y-117500000D01*
X59212500Y-117787500D02*
X59500000Y-117500000D01*
X59212500Y-120000000D02*
X59212500Y-117787500D01*
X63212500Y-117787500D02*
X63500000Y-117500000D01*
X63212500Y-120000000D02*
X63212500Y-117787500D01*
X67212500Y-117787500D02*
X67500000Y-117500000D01*
X67212500Y-120000000D02*
X67212500Y-117787500D01*
X71212500Y-117787500D02*
X71500000Y-117500000D01*
X71212500Y-120000000D02*
X71212500Y-117787500D01*
X75212500Y-117787500D02*
X75500000Y-117500000D01*
X75212500Y-120000000D02*
X75212500Y-117787500D01*
X79212500Y-117787500D02*
X79500000Y-117500000D01*
X79212500Y-120000000D02*
X79212500Y-117787500D01*
X83212500Y-117787500D02*
X83500000Y-117500000D01*
X83212500Y-120000000D02*
X83212500Y-117787500D01*
X87212500Y-117787500D02*
X87500000Y-117500000D01*
X87212500Y-120000000D02*
X87212500Y-117787500D01*
X91212500Y-117787500D02*
X91500000Y-117500000D01*
X91212500Y-120000000D02*
X91212500Y-117787500D01*
X95212500Y-117787500D02*
X95500000Y-117500000D01*
X95212500Y-120000000D02*
X95212500Y-117787500D01*
X99212500Y-117787500D02*
X99500000Y-117500000D01*
X99212500Y-120000000D02*
X99212500Y-117787500D01*
X111212500Y-117787500D02*
X111500000Y-117500000D01*
X111212500Y-120000000D02*
X111212500Y-117787500D01*
X107212500Y-117787500D02*
X107500000Y-117500000D01*
X107212500Y-120000000D02*
X107212500Y-117787500D01*
X103212500Y-117787500D02*
X103500000Y-117500000D01*
X103212500Y-120000000D02*
X103212500Y-117787500D01*
X115212500Y-117787500D02*
X115500000Y-117500000D01*
X115212500Y-120000000D02*
X115212500Y-117787500D01*
X119125000Y-117625000D02*
X119000000Y-117500000D01*
X119125000Y-120000000D02*
X119125000Y-117625000D01*
X55212500Y-124000000D02*
X55212500Y-121787500D01*
X55212500Y-121787500D02*
X55500000Y-121500000D01*
X55500000Y-121500000D02*
X55500000Y-121500000D01*
X59212500Y-121787500D02*
X59500000Y-121500000D01*
X59212500Y-124000000D02*
X59212500Y-121787500D01*
X63212500Y-121787500D02*
X63500000Y-121500000D01*
X63212500Y-124000000D02*
X63212500Y-121787500D01*
X67212500Y-121787500D02*
X67500000Y-121500000D01*
X67212500Y-124000000D02*
X67212500Y-121787500D01*
X71212500Y-121787500D02*
X71500000Y-121500000D01*
X71212500Y-124000000D02*
X71212500Y-121787500D01*
X75212500Y-121787500D02*
X75500000Y-121500000D01*
X75212500Y-124000000D02*
X75212500Y-121787500D01*
X79212500Y-121787500D02*
X79500000Y-121500000D01*
X79212500Y-124000000D02*
X79212500Y-121787500D01*
X83212500Y-121787500D02*
X83500000Y-121500000D01*
X83212500Y-124000000D02*
X83212500Y-121787500D01*
X87212500Y-121787500D02*
X87500000Y-121500000D01*
X87212500Y-124000000D02*
X87212500Y-121787500D01*
X91212500Y-121787500D02*
X91500000Y-121500000D01*
X91212500Y-124000000D02*
X91212500Y-121787500D01*
X95212500Y-121787500D02*
X95500000Y-121500000D01*
X95212500Y-124000000D02*
X95212500Y-121787500D01*
X99212500Y-121787500D02*
X99500000Y-121500000D01*
X99212500Y-124000000D02*
X99212500Y-121787500D01*
X103212500Y-121787500D02*
X103500000Y-121500000D01*
X103212500Y-124000000D02*
X103212500Y-121787500D01*
X107212500Y-121787500D02*
X107500000Y-121500000D01*
X107212500Y-124000000D02*
X107212500Y-121787500D01*
X111212500Y-121787500D02*
X111500000Y-121500000D01*
X111212500Y-124000000D02*
X111212500Y-121787500D01*
X115212500Y-121787500D02*
X115500000Y-121500000D01*
X115212500Y-124000000D02*
X115212500Y-121787500D01*
X119125000Y-121625000D02*
X119000000Y-121500000D01*
X119125000Y-124000000D02*
X119125000Y-121625000D01*
X55212500Y-128000000D02*
X55212500Y-125787500D01*
X55212500Y-125787500D02*
X55500000Y-125500000D01*
X55500000Y-125500000D02*
X55500000Y-125500000D01*
X71212500Y-125787500D02*
X71500000Y-125500000D01*
X71212500Y-128000000D02*
X71212500Y-125787500D01*
X67212500Y-125787500D02*
X67500000Y-125500000D01*
X67212500Y-128000000D02*
X67212500Y-125787500D01*
X75212500Y-125787500D02*
X75500000Y-125500000D01*
X75212500Y-128000000D02*
X75212500Y-125787500D01*
X79212500Y-125787500D02*
X79500000Y-125500000D01*
X79212500Y-128000000D02*
X79212500Y-125787500D01*
X83212500Y-125787500D02*
X83500000Y-125500000D01*
X83212500Y-128000000D02*
X83212500Y-125787500D01*
X87212500Y-125787500D02*
X87500000Y-125500000D01*
X87212500Y-128000000D02*
X87212500Y-125787500D01*
X91212500Y-125787500D02*
X91500000Y-125500000D01*
X91212500Y-128000000D02*
X91212500Y-125787500D01*
X95212500Y-125787500D02*
X95500000Y-125500000D01*
X95212500Y-128000000D02*
X95212500Y-125787500D01*
X99212500Y-125787500D02*
X99500000Y-125500000D01*
X99212500Y-128000000D02*
X99212500Y-125787500D01*
X103212500Y-125787500D02*
X103500000Y-125500000D01*
X103212500Y-128000000D02*
X103212500Y-125787500D01*
X107212500Y-125787500D02*
X107500000Y-125500000D01*
X107212500Y-128000000D02*
X107212500Y-125787500D01*
X111212500Y-125787500D02*
X111500000Y-125500000D01*
X111212500Y-128000000D02*
X111212500Y-125787500D01*
X115212500Y-125787500D02*
X115500000Y-125500000D01*
X115212500Y-128000000D02*
X115212500Y-125787500D01*
X119125000Y-125625000D02*
X119000000Y-125500000D01*
X119125000Y-128000000D02*
X119125000Y-125625000D01*
X59212500Y-125787500D02*
X59500000Y-125500000D01*
X59212500Y-128000000D02*
X59212500Y-125787500D01*
X63196500Y-125803500D02*
X63500000Y-125500000D01*
X63196500Y-128000000D02*
X63196500Y-125803500D01*
X55212500Y-132000000D02*
X55212500Y-129787500D01*
X55212500Y-129787500D02*
X55500000Y-129500000D01*
X55500000Y-129500000D02*
X55500000Y-129500000D01*
X67212500Y-129787500D02*
X67500000Y-129500000D01*
X67212500Y-132000000D02*
X67212500Y-129787500D01*
X71212500Y-129787500D02*
X71500000Y-129500000D01*
X71212500Y-132000000D02*
X71212500Y-129787500D01*
X75212500Y-129787500D02*
X75500000Y-129500000D01*
X75212500Y-132000000D02*
X75212500Y-129787500D01*
X79212500Y-129787500D02*
X79500000Y-129500000D01*
X79212500Y-132000000D02*
X79212500Y-129787500D01*
X83212500Y-129787500D02*
X83500000Y-129500000D01*
X83212500Y-132000000D02*
X83212500Y-129787500D01*
X87212500Y-129787500D02*
X87500000Y-129500000D01*
X87212500Y-132000000D02*
X87212500Y-129787500D01*
X91212500Y-129787500D02*
X91500000Y-129500000D01*
X91212500Y-132000000D02*
X91212500Y-129787500D01*
X95212500Y-129787500D02*
X95500000Y-129500000D01*
X95212500Y-132000000D02*
X95212500Y-129787500D01*
X99212500Y-129787500D02*
X99500000Y-129500000D01*
X99212500Y-132000000D02*
X99212500Y-129787500D01*
X103212500Y-129787500D02*
X103500000Y-129500000D01*
X103212500Y-132000000D02*
X103212500Y-129787500D01*
X107212500Y-129787500D02*
X107500000Y-129500000D01*
X107212500Y-132000000D02*
X107212500Y-129787500D01*
X111212500Y-129787500D02*
X111500000Y-129500000D01*
X111212500Y-132000000D02*
X111212500Y-129787500D01*
X119125000Y-129625000D02*
X119000000Y-129500000D01*
X119125000Y-132000000D02*
X119125000Y-129625000D01*
X115212500Y-129787500D02*
X115500000Y-129500000D01*
X115212500Y-132000000D02*
X115212500Y-129787500D01*
X59212500Y-129787500D02*
X59500000Y-129500000D01*
X59212500Y-132000000D02*
X59212500Y-129787500D01*
X63212500Y-129787500D02*
X63500000Y-129500000D01*
X63212500Y-132000000D02*
X63212500Y-129787500D01*
X55212500Y-136000000D02*
X55212500Y-133787500D01*
X55212500Y-133787500D02*
X55500000Y-133500000D01*
X55500000Y-133500000D02*
X55500000Y-133500000D01*
X119125000Y-133625000D02*
X119000000Y-133500000D01*
X119125000Y-136000000D02*
X119125000Y-133625000D01*
X115212500Y-133787500D02*
X115500000Y-133500000D01*
X115212500Y-136000000D02*
X115212500Y-133787500D01*
X111212500Y-133787500D02*
X111500000Y-133500000D01*
X111212500Y-136000000D02*
X111212500Y-133787500D01*
X107212500Y-133787500D02*
X107500000Y-133500000D01*
X107212500Y-136000000D02*
X107212500Y-133787500D01*
X103212500Y-133787500D02*
X103500000Y-133500000D01*
X103212500Y-136000000D02*
X103212500Y-133787500D01*
X59212500Y-133787500D02*
X59500000Y-133500000D01*
X59212500Y-136000000D02*
X59212500Y-133787500D01*
X63212500Y-133787500D02*
X63500000Y-133500000D01*
X63212500Y-136000000D02*
X63212500Y-133787500D01*
X67212500Y-133787500D02*
X67500000Y-133500000D01*
X67212500Y-136000000D02*
X67212500Y-133787500D01*
X71212500Y-133787500D02*
X71500000Y-133500000D01*
X71212500Y-136000000D02*
X71212500Y-133787500D01*
X75212500Y-133787500D02*
X75500000Y-133500000D01*
X75212500Y-136000000D02*
X75212500Y-133787500D01*
X79212500Y-133787500D02*
X79500000Y-133500000D01*
X79212500Y-136000000D02*
X79212500Y-133787500D01*
X83212500Y-133787500D02*
X83500000Y-133500000D01*
X83212500Y-136000000D02*
X83212500Y-133787500D01*
X87212500Y-133787500D02*
X87500000Y-133500000D01*
X87212500Y-136000000D02*
X87212500Y-133787500D01*
X95212500Y-133787500D02*
X95500000Y-133500000D01*
X95212500Y-136000000D02*
X95212500Y-133787500D01*
X99212500Y-133787500D02*
X99500000Y-133500000D01*
X99212500Y-136000000D02*
X99212500Y-133787500D01*
X91212500Y-133787500D02*
X91500000Y-133500000D01*
X91212500Y-136000000D02*
X91212500Y-133787500D01*
X55212500Y-140000000D02*
X55212500Y-137787500D01*
X55212500Y-137787500D02*
X55500000Y-137500000D01*
X55500000Y-137500000D02*
X55500000Y-137500000D01*
X119125000Y-137625000D02*
X119000000Y-137500000D01*
X119125000Y-140000000D02*
X119125000Y-137625000D01*
X115212500Y-137787500D02*
X115500000Y-137500000D01*
X115212500Y-140000000D02*
X115212500Y-137787500D01*
X111212500Y-137787500D02*
X111500000Y-137500000D01*
X111212500Y-140000000D02*
X111212500Y-137787500D01*
X107212500Y-137787500D02*
X107500000Y-137500000D01*
X107212500Y-140000000D02*
X107212500Y-137787500D01*
X103212500Y-137787500D02*
X103500000Y-137500000D01*
X103212500Y-140000000D02*
X103212500Y-137787500D01*
X59212500Y-137787500D02*
X59500000Y-137500000D01*
X59212500Y-140000000D02*
X59212500Y-137787500D01*
X63212500Y-137787500D02*
X63500000Y-137500000D01*
X63212500Y-140000000D02*
X63212500Y-137787500D01*
X67212500Y-137787500D02*
X67500000Y-137500000D01*
X67212500Y-140000000D02*
X67212500Y-137787500D01*
X71212500Y-137787500D02*
X71500000Y-137500000D01*
X71212500Y-140000000D02*
X71212500Y-137787500D01*
X75212500Y-137787500D02*
X75500000Y-137500000D01*
X75212500Y-140000000D02*
X75212500Y-137787500D01*
X79212500Y-137787500D02*
X79500000Y-137500000D01*
X79212500Y-140000000D02*
X79212500Y-137787500D01*
X83212500Y-137787500D02*
X83500000Y-137500000D01*
X83212500Y-140000000D02*
X83212500Y-137787500D01*
X87212500Y-137787500D02*
X87500000Y-137500000D01*
X87212500Y-140000000D02*
X87212500Y-137787500D01*
X91212500Y-137787500D02*
X91500000Y-137500000D01*
X91212500Y-140000000D02*
X91212500Y-137787500D01*
X95212500Y-137787500D02*
X95500000Y-137500000D01*
X95212500Y-140000000D02*
X95212500Y-137787500D01*
X99212500Y-137787500D02*
X99500000Y-137500000D01*
X99212500Y-140000000D02*
X99212500Y-137787500D01*
X114445000Y-146525000D02*
X115475000Y-146525000D01*
X115475000Y-146525000D02*
X119000000Y-143000000D01*
X119000000Y-143000000D02*
X121500000Y-143000000D01*
X121500000Y-143000000D02*
X123000000Y-141500000D01*
X123000000Y-141500000D02*
X123000000Y-117000000D01*
X122000000Y-116000000D02*
X120875000Y-116000000D01*
X123000000Y-117000000D02*
X122000000Y-116000000D01*
X113175000Y-146525000D02*
X113175000Y-148175000D01*
X113175000Y-148175000D02*
X113500000Y-148500000D01*
X113500000Y-148500000D02*
X113500000Y-148500000D01*
X114000000Y-138500000D02*
X114000000Y-118500000D01*
X114000000Y-118500000D02*
X114000000Y-118500000D01*
X121000000Y-119875000D02*
X120875000Y-120000000D01*
X121000000Y-118500000D02*
X121000000Y-119875000D01*
X111905000Y-146525000D02*
X111905000Y-148405000D01*
X111905000Y-148405000D02*
X112000000Y-148500000D01*
X112000000Y-148500000D02*
X112000000Y-148500000D01*
X98000000Y-138500000D02*
X98000000Y-122500000D01*
X98000000Y-122500000D02*
X98000000Y-122500000D01*
X121000000Y-123875000D02*
X120875000Y-124000000D01*
X121000000Y-122500000D02*
X121000000Y-123875000D01*
X110635000Y-146525000D02*
X110635000Y-148365000D01*
X110635000Y-148365000D02*
X110500000Y-148500000D01*
X110500000Y-148500000D02*
X110500000Y-148500000D01*
X94000000Y-138500000D02*
X94000000Y-126500000D01*
X94000000Y-126500000D02*
X94000000Y-126500000D01*
X121000000Y-127875000D02*
X120875000Y-128000000D01*
X121000000Y-126500000D02*
X121000000Y-127875000D01*
X109365000Y-146525000D02*
X109365000Y-148135000D01*
X109365000Y-148135000D02*
X109000000Y-148500000D01*
X109000000Y-148500000D02*
X109000000Y-148500000D01*
X109000000Y-148500000D02*
X109000000Y-148500000D01*
X86000000Y-138500000D02*
X86000000Y-130500000D01*
X86000000Y-130500000D02*
X86000000Y-130500000D01*
X121000000Y-131875000D02*
X120875000Y-132000000D01*
X121000000Y-130500000D02*
X121000000Y-131875000D01*
X108095000Y-146525000D02*
X108095000Y-147905000D01*
X108095000Y-147905000D02*
X107500000Y-148500000D01*
X107500000Y-148500000D02*
X106500000Y-148500000D01*
X106500000Y-148500000D02*
X106500000Y-148500000D01*
X90000000Y-138500000D02*
X90000000Y-134500000D01*
X90000000Y-134500000D02*
X90000000Y-134500000D01*
X90000000Y-134500000D02*
X90000000Y-134500000D01*
X121000000Y-135875000D02*
X120875000Y-136000000D01*
X121000000Y-134500000D02*
X121000000Y-135875000D01*
X106825000Y-146525000D02*
X106825000Y-144675000D01*
X106825000Y-144675000D02*
X107500000Y-144000000D01*
X107500000Y-144000000D02*
X116000000Y-144000000D01*
X116000000Y-144000000D02*
X118000000Y-142000000D01*
X118000000Y-142000000D02*
X120500000Y-142000000D01*
X120875000Y-141625000D02*
X120875000Y-140000000D01*
X120500000Y-142000000D02*
X120875000Y-141625000D01*
X116787500Y-112000000D02*
X116787500Y-140000000D01*
X116787500Y-141712500D02*
X116787500Y-140000000D01*
X115500000Y-143000000D02*
X116787500Y-141712500D01*
X106500000Y-143000000D02*
X115500000Y-143000000D01*
X102000000Y-147500000D02*
X106500000Y-143000000D01*
X98500000Y-147500000D02*
X102000000Y-147500000D01*
X87000000Y-155000000D02*
X87000000Y-156000000D01*
X87000000Y-156000000D02*
X88000000Y-157000000D01*
X89175000Y-151475000D02*
X89175000Y-152825000D01*
X89175000Y-152825000D02*
X87000000Y-155000000D01*
X89500000Y-157000000D02*
X93500000Y-153000000D01*
X88000000Y-157000000D02*
X89500000Y-157000000D01*
X93500000Y-153000000D02*
X93500000Y-151000000D01*
X93500000Y-151000000D02*
X94000000Y-150500000D01*
X95500000Y-150500000D02*
X98500000Y-147500000D01*
X94000000Y-150500000D02*
X95500000Y-150500000D01*
X112787500Y-112000000D02*
X112787500Y-140000000D01*
X112787500Y-141212500D02*
X112500000Y-141500000D01*
X112787500Y-140000000D02*
X112787500Y-141212500D01*
X90445000Y-146525000D02*
X91420000Y-147500000D01*
X91420000Y-147500000D02*
X93500000Y-147500000D01*
X93500000Y-147500000D02*
X96500000Y-144500000D01*
X96500000Y-144500000D02*
X100500000Y-144500000D01*
X100500000Y-144500000D02*
X102000000Y-143000000D01*
X102000000Y-143000000D02*
X102000000Y-142500000D01*
X102000000Y-142500000D02*
X102000000Y-142500000D01*
X108787500Y-112000000D02*
X108787500Y-140000000D01*
X108787500Y-141212500D02*
X108500000Y-141500000D01*
X108787500Y-140000000D02*
X108787500Y-141212500D01*
X89175000Y-146525000D02*
X89175000Y-148175000D01*
X89175000Y-148175000D02*
X89500000Y-148500000D01*
X89500000Y-148500000D02*
X94500000Y-148500000D01*
X94500000Y-148500000D02*
X97500000Y-145500000D01*
X97500000Y-145500000D02*
X101000000Y-145500000D01*
X101000000Y-145500000D02*
X103500000Y-143000000D01*
X103500000Y-143000000D02*
X103500000Y-141500000D01*
X103500000Y-141500000D02*
X103500000Y-141500000D01*
X104771500Y-139984000D02*
X104787500Y-140000000D01*
X104771500Y-112000000D02*
X104771500Y-139984000D01*
X87905000Y-146525000D02*
X87905000Y-148405000D01*
X87905000Y-148405000D02*
X89000000Y-149500000D01*
X89000000Y-149500000D02*
X95000000Y-149500000D01*
X95000000Y-149500000D02*
X98000000Y-146500000D01*
X98000000Y-146500000D02*
X101500000Y-146500000D01*
X104787500Y-143212500D02*
X104787500Y-140000000D01*
X101500000Y-146500000D02*
X104787500Y-143212500D01*
X100787500Y-112000000D02*
X100787500Y-140000000D01*
X86635000Y-146525000D02*
X86635000Y-144865000D01*
X86635000Y-144865000D02*
X87000000Y-144500000D01*
X87000000Y-144500000D02*
X90000000Y-144500000D01*
X90000000Y-144500000D02*
X91000000Y-143500000D01*
X91000000Y-143500000D02*
X93000000Y-143500000D01*
X93000000Y-143500000D02*
X94000000Y-142500000D01*
X94000000Y-142500000D02*
X97000000Y-142500000D01*
X97000000Y-142500000D02*
X98000000Y-141500000D01*
X98000000Y-141500000D02*
X100500000Y-141500000D01*
X100787500Y-141212500D02*
X100787500Y-140000000D01*
X100500000Y-141500000D02*
X100787500Y-141212500D01*
X96787500Y-112000000D02*
X96787500Y-140000000D01*
X85365000Y-146525000D02*
X85365000Y-144135000D01*
X85365000Y-144135000D02*
X86000000Y-143500000D01*
X86000000Y-143500000D02*
X89500000Y-143500000D01*
X89500000Y-143500000D02*
X90500000Y-142500000D01*
X90500000Y-142500000D02*
X92500000Y-142500000D01*
X92500000Y-142500000D02*
X93500000Y-141500000D01*
X93500000Y-141500000D02*
X96500000Y-141500000D01*
X96787500Y-141212500D02*
X96787500Y-140000000D01*
X96500000Y-141500000D02*
X96787500Y-141212500D01*
X92787500Y-112000000D02*
X92787500Y-140000000D01*
X84095000Y-146525000D02*
X84095000Y-143405000D01*
X84095000Y-143405000D02*
X84595000Y-143405000D01*
X85500000Y-142500000D02*
X89000000Y-142500000D01*
X84595000Y-143405000D02*
X85500000Y-142500000D01*
X89000000Y-142500000D02*
X90000000Y-141500000D01*
X90000000Y-141500000D02*
X92000000Y-141500000D01*
X92787500Y-140712500D02*
X92787500Y-140000000D01*
X92000000Y-141500000D02*
X92787500Y-140712500D01*
X82540000Y-163420000D02*
X81340000Y-164620000D01*
X84665000Y-163420000D02*
X82540000Y-163420000D01*
X85540000Y-174320000D02*
X87320000Y-174320000D01*
X99000000Y-179000000D02*
X120000000Y-179000000D01*
X122000000Y-177000000D02*
X122000000Y-171000000D01*
X120000000Y-179000000D02*
X122000000Y-177000000D01*
X84665000Y-163420000D02*
X85500000Y-162585000D01*
X85180000Y-159500000D02*
X85500000Y-159820000D01*
X84400000Y-159500000D02*
X85180000Y-159500000D01*
X85500000Y-159820000D02*
X85500000Y-162500000D01*
X57555000Y-146525000D02*
X55975000Y-146525000D01*
X55975000Y-146525000D02*
X55000000Y-147500000D01*
X55000000Y-170000000D02*
X51700000Y-173300000D01*
X55000000Y-147500000D02*
X55000000Y-170000000D01*
X74300000Y-173300000D02*
X74600000Y-173600000D01*
X51700000Y-173300000D02*
X74300000Y-173300000D01*
X84820000Y-173600000D02*
X85540000Y-174320000D01*
X81340000Y-164620000D02*
X81340000Y-173160000D01*
X81340000Y-173160000D02*
X80900000Y-173600000D01*
X74600000Y-173600000D02*
X80900000Y-173600000D01*
X80900000Y-173600000D02*
X84820000Y-173600000D01*
X57555000Y-146525000D02*
X57025000Y-146525000D01*
X57025000Y-146525000D02*
X55500000Y-145000000D01*
X55500000Y-145000000D02*
X55500000Y-144000000D01*
X55500000Y-144000000D02*
X55500000Y-144000000D01*
X81000000Y-144000000D02*
X81500000Y-144500000D01*
X81500000Y-146470000D02*
X81555000Y-146525000D01*
X81500000Y-144500000D02*
X81500000Y-146470000D01*
X99500000Y-148500000D02*
X102500000Y-148500000D01*
X104475000Y-146525000D02*
X105555000Y-146525000D01*
X102500000Y-148500000D02*
X104475000Y-146525000D01*
X93780000Y-174320000D02*
X94500000Y-173600000D01*
X85540000Y-174320000D02*
X93780000Y-174320000D01*
X94500000Y-173600000D02*
X94500000Y-174500000D01*
X94500000Y-174500000D02*
X99000000Y-179000000D01*
X85540000Y-166520000D02*
X88526000Y-166520000D01*
X88526000Y-166520000D02*
X89154000Y-167148000D01*
X89154000Y-167148000D02*
X89154000Y-172228000D01*
X89154000Y-172228000D02*
X89154000Y-172228000D01*
X98552000Y-169180000D02*
X98552000Y-169180000D01*
X102500000Y-165232000D02*
X98552000Y-169180000D01*
X105900000Y-162500000D02*
X108500000Y-159900000D01*
X102500000Y-162500000D02*
X105900000Y-162500000D01*
X102500000Y-162500000D02*
X102500000Y-165232000D01*
X108500000Y-159900000D02*
X108500000Y-158400000D01*
X102500000Y-158400000D02*
X102500000Y-162500000D01*
X120920000Y-167000000D02*
X122000000Y-165920000D01*
X120000000Y-167000000D02*
X120920000Y-167000000D01*
X100500000Y-177500000D02*
X101000000Y-178000000D01*
X119000000Y-178000000D02*
X120000000Y-177000000D01*
X100500000Y-173600000D02*
X100500000Y-177500000D01*
X101000000Y-178000000D02*
X119000000Y-178000000D01*
X120000000Y-177000000D02*
X120000000Y-167000000D01*
X119000000Y-165000000D02*
X120620000Y-163380000D01*
X118000000Y-177000000D02*
X119000000Y-176000000D01*
X108000000Y-177000000D02*
X118000000Y-177000000D01*
X120620000Y-163380000D02*
X122000000Y-163380000D01*
X119000000Y-176000000D02*
X119000000Y-165000000D01*
X106500000Y-175500000D02*
X108000000Y-177000000D01*
X106500000Y-175500000D02*
X106500000Y-173600000D01*
X109000000Y-176000000D02*
X117000000Y-176000000D01*
X117000000Y-176000000D02*
X118000000Y-175000000D01*
X118000000Y-175000000D02*
X118000000Y-163000000D01*
X120160000Y-160840000D02*
X122000000Y-160840000D01*
X118000000Y-163000000D02*
X120160000Y-160840000D01*
X108500000Y-175500000D02*
X109000000Y-176000000D01*
X108500000Y-175500000D02*
X108500000Y-173600000D01*
X84787500Y-112000000D02*
X84787500Y-140000000D01*
X65175000Y-151475000D02*
X65175000Y-148825000D01*
X65175000Y-148825000D02*
X65500000Y-148500000D01*
X65500000Y-148500000D02*
X67000000Y-148500000D01*
X67000000Y-148500000D02*
X71000000Y-144500000D01*
X71000000Y-144500000D02*
X76500000Y-144500000D01*
X76500000Y-144500000D02*
X78500000Y-142500000D01*
X78500000Y-142500000D02*
X81000000Y-142500000D01*
X81000000Y-142500000D02*
X82000000Y-141500000D01*
X82000000Y-141500000D02*
X84000000Y-141500000D01*
X84787500Y-140712500D02*
X84787500Y-140000000D01*
X84000000Y-141500000D02*
X84787500Y-140712500D01*
X80787500Y-112000000D02*
X80787500Y-140000000D01*
X80787500Y-140712500D02*
X80787500Y-140000000D01*
X80000000Y-141500000D02*
X80787500Y-140712500D01*
X68970000Y-144000000D02*
X70000000Y-144000000D01*
X66445000Y-146525000D02*
X68970000Y-144000000D01*
X70500000Y-143500000D02*
X76000000Y-143500000D01*
X78000000Y-141500000D02*
X80000000Y-141500000D01*
X70000000Y-144000000D02*
X70500000Y-143500000D01*
X76000000Y-143500000D02*
X78000000Y-141500000D01*
X76787500Y-112000000D02*
X76787500Y-140000000D01*
X65175000Y-146525000D02*
X65175000Y-144825000D01*
X65175000Y-144825000D02*
X65500000Y-144500000D01*
X65500000Y-144500000D02*
X67500000Y-144500000D01*
X67500000Y-144500000D02*
X69500000Y-142500000D01*
X69500000Y-142500000D02*
X75500000Y-142500000D01*
X76787500Y-141212500D02*
X76787500Y-140000000D01*
X75500000Y-142500000D02*
X76787500Y-141212500D01*
X72787500Y-131668994D02*
X72787500Y-140000000D01*
X72787500Y-112000000D02*
X72787500Y-131668994D01*
X72787500Y-140000000D02*
X71287500Y-141500000D01*
X71287500Y-141500000D02*
X68500000Y-141500000D01*
X68500000Y-141500000D02*
X66000000Y-144000000D01*
X66000000Y-144000000D02*
X64500000Y-144000000D01*
X63905000Y-144595000D02*
X63905000Y-146525000D01*
X64500000Y-144000000D02*
X63905000Y-144595000D01*
X68787500Y-112000000D02*
X68787500Y-140000000D01*
X68787500Y-140000000D02*
X65787500Y-143000000D01*
X65787500Y-143000000D02*
X63500000Y-143000000D01*
X62635000Y-143865000D02*
X62635000Y-146525000D01*
X63500000Y-143000000D02*
X62635000Y-143865000D01*
X64787500Y-123668994D02*
X64787500Y-140000000D01*
X64787500Y-112000000D02*
X64787500Y-123668994D01*
X64787500Y-140000000D02*
X64787500Y-140712500D01*
X64787500Y-140712500D02*
X63500000Y-142000000D01*
X63500000Y-142000000D02*
X62000000Y-142000000D01*
X61365000Y-142635000D02*
X61365000Y-146525000D01*
X62000000Y-142000000D02*
X61365000Y-142635000D01*
X60787500Y-112000000D02*
X60787500Y-140000000D01*
X60787500Y-140000000D02*
X60787500Y-143212500D01*
X60095000Y-143905000D02*
X60095000Y-146525000D01*
X60787500Y-143212500D02*
X60095000Y-143905000D01*
X56787500Y-112000000D02*
X56787500Y-140000000D01*
X56787500Y-140000000D02*
X56787500Y-142787500D01*
X58825000Y-144825000D02*
X58825000Y-146525000D01*
X56787500Y-142787500D02*
X58825000Y-144825000D01*
X104500000Y-161000000D02*
X104500000Y-158400000D01*
X94500000Y-159500000D02*
X96000000Y-161000000D01*
X94500000Y-158400000D02*
X94500000Y-159500000D01*
X94350000Y-158550000D02*
X94500000Y-158400000D01*
X86600000Y-158550000D02*
X94350000Y-158550000D01*
X95640000Y-169420000D02*
X95640000Y-169420000D01*
X86415000Y-163420000D02*
X87440000Y-163420000D01*
X87440000Y-163420000D02*
X88640000Y-164620000D01*
X88640000Y-164620000D02*
X88640000Y-164620000D01*
X96500000Y-170280000D02*
X95640000Y-169420000D01*
X96500000Y-173600000D02*
X96500000Y-170280000D01*
X58825000Y-151475000D02*
X58825000Y-154825000D01*
X58825000Y-154825000D02*
X59500000Y-155500000D01*
X59500000Y-155500000D02*
X59500000Y-155500000D01*
X66445000Y-155445000D02*
X66500000Y-155500000D01*
X66445000Y-151475000D02*
X66445000Y-155445000D01*
X82825000Y-155175000D02*
X82500000Y-155500000D01*
X82825000Y-151475000D02*
X82825000Y-155175000D01*
X106825000Y-151475000D02*
X106825000Y-152675000D01*
X106500000Y-153000000D02*
X106500000Y-155500000D01*
X106825000Y-152675000D02*
X106500000Y-153000000D01*
X114445000Y-155445000D02*
X114500000Y-155500000D01*
X114445000Y-151475000D02*
X114445000Y-155445000D01*
X82500000Y-156650000D02*
X84400000Y-158550000D01*
X82500000Y-155500000D02*
X82500000Y-156650000D01*
X84400000Y-160450000D02*
X79950000Y-160450000D01*
X79500000Y-160000000D02*
X79500000Y-155500000D01*
X79950000Y-160450000D02*
X79500000Y-160000000D01*
X114445000Y-151475000D02*
X117025000Y-151475000D01*
X117025000Y-151475000D02*
X119750000Y-148750000D01*
X90445000Y-153555000D02*
X88500000Y-155500000D01*
X90445000Y-151475000D02*
X90445000Y-153555000D01*
X119750000Y-148750000D02*
X122070000Y-148750000D01*
X74600000Y-159100000D02*
X74600000Y-162600000D01*
X120820000Y-151500000D02*
X122070000Y-150250000D01*
X120000000Y-151500000D02*
X120820000Y-151500000D01*
X63905000Y-151475000D02*
X63905000Y-154905000D01*
X63905000Y-154905000D02*
X65500000Y-156500000D01*
X77525000Y-151475000D02*
X81555000Y-151475000D01*
X77000000Y-152000000D02*
X77525000Y-151475000D01*
X77000000Y-152000000D02*
X77000000Y-156000000D01*
X77000000Y-156000000D02*
X76500000Y-156500000D01*
X76500000Y-156500000D02*
X65500000Y-156500000D01*
X62635000Y-149865000D02*
X63000000Y-149500000D01*
X62635000Y-151475000D02*
X62635000Y-149865000D01*
X86635000Y-150500000D02*
X85635000Y-149500000D01*
X86635000Y-151475000D02*
X86635000Y-150500000D01*
X85635000Y-149500000D02*
X85000000Y-149500000D01*
X85000000Y-149500000D02*
X85000000Y-149500000D01*
X110635000Y-153865000D02*
X110500000Y-154000000D01*
X110635000Y-151475000D02*
X110635000Y-153865000D01*
X57555000Y-146525000D02*
X57555000Y-148555000D01*
X58500000Y-149500000D02*
X63000000Y-149500000D01*
X57555000Y-148555000D02*
X58500000Y-149500000D01*
X61365000Y-151475000D02*
X61365000Y-154135000D01*
X61365000Y-154135000D02*
X61000000Y-154500000D01*
X61000000Y-154500000D02*
X61000000Y-154500000D01*
X109365000Y-154135000D02*
X109000000Y-154500000D01*
X109365000Y-151475000D02*
X109365000Y-154135000D01*
X85365000Y-154365000D02*
X85500000Y-154500000D01*
X85365000Y-151475000D02*
X85365000Y-154365000D01*
X102500000Y-173600000D02*
X102500000Y-175500000D01*
X102500000Y-175500000D02*
X102500000Y-176000000D01*
X102500000Y-176000000D02*
X103000000Y-176500000D01*
X103000000Y-176500000D02*
X103000000Y-176500000D01*
X79000000Y-177000000D02*
X90000000Y-177000000D01*
X90000000Y-177000000D02*
X90500000Y-176500000D01*
X90500000Y-176500000D02*
X90500000Y-176500000D01*
X100540000Y-158420000D02*
X100540000Y-157334998D01*
X60095000Y-151475000D02*
X60095000Y-153405000D01*
X60095000Y-153405000D02*
X60000000Y-153500000D01*
X60000000Y-153500000D02*
X60000000Y-153500000D01*
X84095000Y-153405000D02*
X84000000Y-153500000D01*
X84095000Y-151475000D02*
X84095000Y-153405000D01*
X108095000Y-152905000D02*
X107500000Y-153500000D01*
X108095000Y-151475000D02*
X108095000Y-152905000D01*
X100500000Y-159000000D02*
X100500000Y-153500000D01*
X105555000Y-151475000D02*
X96525000Y-151475000D01*
X87905000Y-151475000D02*
X87905000Y-149905000D01*
X87905000Y-149905000D02*
X87000000Y-149000000D01*
X87000000Y-149000000D02*
X87000000Y-149000000D01*
X96525000Y-151475000D02*
X96525000Y-151475000D01*
X88787500Y-112000000D02*
X88787500Y-140000000D01*
X82825000Y-146525000D02*
X82825000Y-142675000D01*
X82825000Y-142675000D02*
X83000000Y-142500000D01*
X83000000Y-142500000D02*
X84500000Y-142500000D01*
X84500000Y-142500000D02*
X85500000Y-141500000D01*
X85500000Y-141500000D02*
X88500000Y-141500000D01*
X88787500Y-141212500D02*
X88787500Y-140000000D01*
X88500000Y-141500000D02*
X88787500Y-141212500D01*
X97500000Y-163000000D02*
X97500000Y-163000000D01*
X111905000Y-153905000D02*
X112000000Y-154000000D01*
X111905000Y-151475000D02*
X111905000Y-153905000D01*
X96500000Y-158400000D02*
X96500000Y-159500000D01*
X97500000Y-160500000D02*
X97500000Y-163000000D01*
X96500000Y-159500000D02*
X97500000Y-160500000D01*
M02*
